<?xml version="1.0" encoding="UTF-8"?>
<svg width="1800" height="900" version="1.1" xmlns="http://www.w3.org/2000/svg">
  <MetaInfo xmlns="http://www.prognoz.ru">
    <Geo>
      <GeoItem X="0" Y="0" Latitude="90" Longitude="-180"/>
      <GeoItem X="1800" Y="900" Latitude="-90" Longitude="180"/>
    </Geo>
  </MetaInfo>
  <path d="m1199 369-1 3 2 2 5-2 1 1v4l4 2-1 5-5-1-1-1 1-3-3-1-5 1 1 3-3 3-1 3 2 2-1.8828 2.3535-6.4063 1.1211c0.1001 0.35744 0.1412 0.70587 0.088 1.0254-0.1 1.2-1.5 1.8-3 2.5-0.8864 0.41362-1.8433 0.77254-2.8613 1.0957-0.016 0.32364-0.04 0.64624-0.1387 0.9043-0.5 1.3-2.1 1.7008-4 1.3008-0.8146-0.13577-1.6756-0.42157-2.5351-0.66797-0.3101 0.17731-0.5895 0.3816-0.7657 0.66797-0.8 1.4-0.2 4 0 6 0.194 1.9397-0.1939 3.2992-1.4023 3.9277-0.4093 0.592-0.8559 1.1786-1.3984 1.4707-1.1898 0.50992-2.4512 0.12266-2.6407-0.73242-0.2768 4e-3 -0.6561 0.0332-0.8593 0.0332-1.2 0-1.2-7.8e-4 -1.5 1.1992-0.3031 0.83343-0.7342 2.3513-1.3575 3.1816-0.2917 3.7748-0.1489 7.1702-0.035 8.9277 0.096 0.14343 0.1057 0.45766 0.1777 0.64649 0.1276 0.33767 0.2224 0.70685 0.2988 1.0957 0.012 0.0704 0.04 0.10914 0.051 0.18164 0.258 1.1203 0.4711 2.3294 0.8692 3.4668 0.6 2 2.0015 3.6008 3.6015 5.3008 1.7 1.7 3.6993 3.2992 4.1993 5.1992 0.146 0.52502 0.1366 1.07 0.057 1.6191 0.031 0.18383 0.018 0.40509-0.065 0.69141 0.015 0.0402-0.013 0.0626 0 0.10156 0.2406 0.50682 0.3876 1.0708 0.3106 1.6894-0.05 0.85-0.4258 1.7734-0.9883 2.7109s-1.3133 1.8891-2.1133 2.7891c-0.8547 0.95524-1.782 1.8331-2.5215 2.6621-0.045 1.4592 0.2788 2.9842 0.8223 4.5371 0.7 2 1.3 4.0008 1 5.3008-0.1061 0.49512-0.3838 0.88176-0.7207 1.252-0.4839 0.62433-0.9785 1.1961-0.9785 1.9473 0 1.2 1.3992 2.8008 1.6992 4.3008s-0.2992 2.8992-0.1992 4.6992c0.2 1.8 1.1984 4.1992 0.8984 6.1992-0.4 2-1.9984 3.6016-3.8984 5.1016-1.8 1.5-3.8016 2.9-5.1016 4.5-1.3984 1.7-1.9984 3.7-1.3984 5 0.7 1.4 2.7 2 4.5 3 0.95 0.5 1.8238 1.0988 2.6738 1.7363s1.6754 1.3129 2.5254 1.9629c1.7 1.3 3.2992 2.7 4.6992 4.5 0.083 0.11497 0.1495 0.25557 0.2305 0.375 1.0083 0.26399 1.9422 0.53402 2.7695 1.125 1.3 1 2.3008 2.9992 3.3008 4.6992 0.3255 0.52086 0.7086 0.91847 1.041 1.4004 0.1454 0.0644 0.3231 0.13317 0.459 0.20117 1.2 0.7 1.8 1.6984 2.5 3.3984 0.028 0.0625 0.063 0.14809 0.09 0.21289v2e-3c0.4183 0.44001 0.8869 0.87223 1.3847 1.291 0.6622 0.53841 1.3643 1.064 2.2246 1.4941 2 1 4.6008 1.6016 6.3008 2.1016s2.3008 0.89922 3.8008 1.6992 3.9 2.2 5 4c0.3146 0.472 0.5366 0.98561 0.6953 1.5059 0.059 0.0715 0.1551 0.11136 0.2031 0.19336 0.1524 0.27869 0.2224 0.64226 0.2324 1.0293v2e-3c0 0.0122-0.01 0.0248-0.01 0.0371 0 0.37-0.046 0.75804-0.1563 1.1191-0.024 0.0954-0.049 0.1834-0.078 0.2793-0.077 0.44441-0.2032 0.84026-0.3906 1.1348-0.1518 0.30362-0.3567 0.52747-0.5996 0.68555-0.1364 0.17013-0.2434 0.36784-0.4004 0.51367-1.3 1.3-3.3016 1.7008-5.1016 1.8008-1.9 0.2-3.4984 0.19844-4.8984-1.1016-0.281-0.30263-0.528-0.76775-0.7891-1.1562-1.0895-0.20309-2.0245-0.90695-2.5117-1.7422-0.7-1.1-0.2992-2.5008-1.1992-2.3008-0.8 0.2-2.8016 1.8-4.6016 2.5-0.068 0.0249-0.1324 0.0384-0.1992 0.0606v0.93931h2v6h3l1 7h-1l-4 4-5 6 3 1v7l5-2-1-5 1-2 6 2-1 6 7-2 3 2 4-2v-2.3086l4.3418-0.32227 0.658 2.6309h4l1-1h4l2 3h0.1094l1.1836 1.916c0.7314-0.52087 1.742-0.91407 2.9062-0.91407 1.8 0 3.8 1.0008 5.5 2.3008 0.1091 0.0955 0.1966 0.20656 0.2969 0.3086 1.5927-0.75628 3.5721-1.8971 5.3281-3.5039-0.2673-0.53251-0.2435-1.385-0.1211-2.3027 0.01-0.10959 0.027-0.25451 0.037-0.36524-0.2492-1.1024-0.5371-2.2922-0.5371-3.7363 0-0.99999 0.1512-2.0988 0.3262-3.1738 0.1275-0.78351 0.24-1.4965 0.3457-2.2051 0-5e-3 -6e-4 -0.01 0-0.0137-0.017-0.25659-0.043-0.52824-0.057-0.78711 0-0.0719-0.016-0.15114-0.016-0.21875 0-0.50914 0.099-0.99249 0.1739-1.4805-0.047-0.71453-0.082-1.4208-0.1661-2.0879 0-8e-3 -0.01-0.0252-0.01-0.0332 0-4e-3 -9e-4 -9e-3 0-0.0117v-2e-3c-0.036-0.29408-0.085-0.59061-0.1055-0.88867-0.1-0.74935-0.1501-1.5246-0.088-2.2617 1e-4 -6.5e-4 0-1e-3 0-2e-3 0.062-0.73769 0.2379-1.4371 0.5879-2.0371 0.194-0.38794 0.4664-0.70474 0.7363-1.0078v-2e-3l-0.041-0.18554 0.3574-0.17969c0.1563-0.18331 0.2597-0.3711 0.3594-0.56055 0.039-0.0748 0.1039-0.14482 0.1289-0.22265 0.032-0.0984 0.046-0.20115 0.051-0.30664 0-0.0293 0.011-0.056 0.01-0.0859 0-0.14134-0.035-0.2898-0.1016-0.44922-0.1251-0.30026-0.3676-0.62503-0.6836-0.97852-0.3155-0.35312-0.7028-0.73398-1.1152-1.1465-0.8248-0.825-1.7504-1.775-2.4004-2.875-0.3254-0.5506-0.5941-1.1248-0.7988-1.6973-0.04-0.11255-0.047-0.21797-0.082-0.33007-0.3229-1.027-0.4639-2.0321-0.3144-2.8379 0.042-0.22406 0.1029-0.43239 0.1855-0.62305 0.082-0.19024 0.1856-0.36172 0.3106-0.51172 0.1677-0.20132 0.3726-0.35774 0.6015-0.48438 0.6867-0.3799 1.585-0.48633 2.3086-0.68945-0.2591-1.4112-0.5686-2.8464-0.7109-4.127-0.1501-1.4256 0.037-2.6809 0.4785-3.9375 0.1469-0.41868 0.3215-0.83672 0.5215-1.2617 0.3747-0.79626 0.8772-1.5645 1.2891-2.3066v-2e-3c0.1518-0.32237 0.2936-0.64458 0.4101-0.97266 0.1164-0.32747 0.2069-0.65898 0.2559-0.99805 0-4e-3 -2e-4 -7e-3 0-0.01 1e-4 -1e-3 0-3e-3 0-4e-3 0-5e-3 -3e-4 -0.0106 0-0.0156-0.025-0.20209-0.085-0.38282-0.2598-0.49219-0.2251-0.12506-0.5555-0.18147-0.9492-0.21094-0.3937-0.0295-0.8508-0.032-1.3262-0.0508-0.4743-0.0185-0.9673-0.0527-1.4355-0.14453-0.4687-0.092-0.9121-0.24219-1.2871-0.49219-0.329-0.21936-0.5868-0.52612-0.8047-0.87305-0.2036-0.30258-0.3524-0.63595-0.4844-0.98828-0.7009-0.0429-1.2957-0.12576-1.6094-0.43945-0.2996-0.34961-0.2998-0.92436-0.1133-1.5234 2e-4 -5.4e-4 -1e-4 -1e-3 0-2e-3 0.094-0.2999 0.2349-0.60515 0.4082-0.89258s0.3786-0.55625 0.6036-0.78125c0.3513-0.35133 0.7432-0.56985 1.1562-0.78711s0.8472-0.43327 1.2852-0.77734c0.9593-1.1322 2.1221-3.0707 2.6601-4.2363 0.1756-0.32603 0.3068-0.59398 0.3926-0.82422 0.086-0.22976 0.1256-0.41904 0.1191-0.58789-0.013-0.33769-0.2132-0.58867-0.6132-0.88867-0.45-0.35-1.0746-0.77402-1.6993-1.2363-0.6246-0.4623-1.2492-0.96289-1.6992-1.4629-0.2004-0.25051-0.3493-0.50028-0.4746-0.76172-0.1249-0.26033-0.2262-0.53126-0.3262-0.82422-1e-4 -4.7e-4 2e-4 -1e-3 0-2e-3 -0.2002-0.58697-0.4011-1.262-0.8007-2.1113-0.9-1.6-2.4993-4.0008-3.1993-5.3008-0.1755-0.32596-0.2805-0.59394-0.3476-0.83203-0.01-0.0354-0.01-0.0616-0.018-0.0957-0.05-0.20354-0.084-0.39273-0.1-0.57032-0.035-0.39233-0.038-0.76243-0.2344-1.3027-0.021-0.0834-0.067-0.20648-0.094-0.29688-0.2359-0.40134-0.4446-0.79823-0.6211-1.1855-0.1764-0.38676-0.3205-0.76183-0.4278-1.1211-0.2144-0.71853-0.2799-1.369-0.1582-1.8965 0.1207-0.56338 0.4443-0.95421 0.8301-1.2324 0.1862-0.39728 0.4236-0.78442 0.6934-1.168 0.2694-0.38315 0.5712-0.7615 0.8808-1.1426 0.6193-0.76216 1.2748-1.5318 1.795-2.3555 0.4073-0.66649 0.7162-1.3584 0.8945-1.9922 0.1783-0.63383 0.2261-1.2096 0.1074-1.6406v-2e-3c0-0.0163 0-0.0346-0.012-0.0508-0.045-0.14079-0.168-0.2106-0.252-0.31445-0.1958-0.12684-0.3731-0.26836-0.6308-0.34766-1.1392-0.1963-3.2533 0.64581-5.5059 1.5469-0.94 0.37599-1.8478 0.69897-2.7363 1.0059-0.9203 0.69277-1.7314 1.3521-2.3652 1.6934-0.3493 0.1497-0.6494 0.22576-0.9082 0.23242v0c-0.2574 6e-3 -0.4757-0.0575-0.6621-0.18164-0.1876-0.12504-0.3441-0.31236-0.4785-0.55664-0.1342-0.2436-0.2457-0.54258-0.3457-0.89258-0.15-0.65-0.2246-1.4746-0.2246-2.4121s0.075-1.9879 0.2246-3.0879c0.1999-1.0494 0.4494-2.1745 0.7989-3.1992 2e-4 -5.9e-4 -3e-4 -1e-3 0-2e-3 0.052-0.15163 0.1234-0.2791 0.1796-0.42578 0.3241-0.84452 0.7098-1.6203 1.2207-2.1738 0.034-0.0376 0.08-0.0498 0.1153-0.0859 0.028-0.3527 0.081-0.70121 0.1855-1.0527 0.1046-0.35074 0.2611-0.70216 0.5-1.0606 1-1.5 3.3985-3.1016 4.3985-4.1016 0.1599-0.15991 0.2293-0.28652 0.3203-0.42188 0.037-0.32374 0.099-0.62501 0.1093-0.96679-0.149-0.35586-0.4371-0.72849-0.9296-1.3106-0.6-0.65-1.4004-1.5744-2.1504-2.6621s-1.4496-2.3387-1.8496-3.6387c-0.1747-0.52343-0.2885-1.0538-0.3575-1.582s-0.093-1.0543-0.088-1.5703c-0.5248-0.58937-1.0609-1.1672-1.2539-1.7461-0.1233-0.36988-0.1525-0.7455-0.1054-1.123v-0.0351c0.051-0.36997 0.1782-0.74087 0.3691-1.1094 0.1195-0.23062 0.3055-0.45623 0.4727-0.68359 0.1138-0.15488 0.1943-0.31228 0.3281-0.46484 0.3252-0.37076 0.7054-0.73358 1.1309-1.084 0.8-0.65 1.8004-1.2254 2.7382-1.8008 0.9379-0.57539 1.8133-1.1508 2.3633-1.8008 1.2-1.4 1.1992-3 1.6992-5 0.1954-0.78155 0.4662-1.5984 0.7129-2.3828-0.6744-0.45959-1.4083-0.91603-2.2129-1.1172-0.4993-0.12484-0.9997-0.18159-1.4882-0.20508-7e-4 -3e-5 0 3e-5 0 0-0.4885-0.0234-0.9661-0.0141-1.4219-8e-3 -7e-4 1e-5 0-1e-5 0 0-0.9127 0.0125-1.7367 0.0129-2.3867-0.28711-0.343-0.17147-0.636-0.42274-0.8711-0.72656-0.01-0.0131-0.019-0.0258-0.029-0.0391-0.2298-0.308-0.4022-0.66735-0.5-1.0586-0.1-0.3998-0.125-0.83022-0.062-1.2676 0.062-0.43735 0.2129-0.88164 0.4629-1.3066 0.5-0.8 1.3996-1.5496 2.4746-2.0996 0.538-0.27529 1.1192-0.49998 1.7168-0.65625v0c0.5957-0.15564 1.2059-0.24414 1.8047-0.24414 2.0662 0 3.7086 1.007 4.2031 1.0918 0.023-0.0452 0.034-0.0943 0.055-0.14063-0.7647-0.91431-1.8244-1.9478-3.2578-2.9512-0.1651-0.10734-0.3383-0.1876-0.5079-0.29101-0.1418-0.014-0.245 0.0132-0.3906-0.01-0.904-0.15066-1.8578-0.57931-2.584-1.1328-0.8115-0.42309-1.5881-1.0776-2.0175-1.668-0.4555-0.60713-0.57-1.1591-0.4375-1.625 0.01-6e-3 0.01-0.0116 0.01-0.0176 0.079-0.59457 0.4425-1.2511 1.0332-2.0566 1.0836-1.3545 2.7147-3.1467 3.5567-5.0957-0.026-0.71423-0.057-1.4408-0.057-2.1035 0-2 0.4-3.6008-0.5-5.3008-0.3941-0.83746-1.0768-1.6508-1.7871-2.4394-0.7103-0.78865-1.4482-1.5526-1.9551-2.293-0.618 0.0414-1.2398 0.0603-1.8593 0.23242-1.425 0.375-2.6813 1.0312-4.0215 1.125-0.4468 0.0312-0.902 0-1.377-0.125-0.7035-0.19541-1.4134-0.64956-2.0586-1.1719 0.1342 0.22625 0.4211 0.49262 0.4571 0.67188 0.025 0.25-0.055 0.4375-0.2071 0.5625-0.1515 0.125-0.3746 0.1875-0.6308 0.1875-0.5125 0-1.1621-0.25-1.6621-0.75-1-1-1.4-3-0.5-3 0.2335 0 0.6446 0.3902 1.0078 0.65625-0.2016-0.33535-0.3613-0.66695-0.4063-0.95703-0.025-0.35 0.056-0.64922 0.2188-0.91016 0.1624-0.26093 0.4052-0.48398 0.7051-0.67773 0.5998-0.3875 1.4253-0.66211 2.2753-0.91211 1.7-0.5 3.2993-0.9 4.6993-1.5 0.65-0.35 1.226-0.77402 1.5761-1.2988 0.3502-0.5248 0.4746-1.1504 0.2246-1.9004s-0.8744-1.625-1.6621-2.5c-0.7876-0.875-1.7386-1.75-2.6386-2.5-0.9505-0.75042-1.8251-1.3751-2.5879-1.9629-0.264-0.20335-0.4951-0.39978-0.7305-0.59766l-1.8779-0.93838v-1.1113c-0.4558-0.63421-0.8743-1.2482-1.3887-1.6777-0.8991-0.13538-1.851-0.13176-2.7187-0.17578l-2.8926 0.96484v-1zm-26.199 49.301c0.9 0 1.5 0.39844 2 0.89844s0.8984 1.1016 1.3984 1.6016c0.6 0.5 1.3016 0.7 2.1016 1 0.7 0.2 1.4984 0.49922 1.8984 0.69922 0.5 0.2 0.6004 0.29963 1.4004 0.0996 0.7-0.3 2.1004-0.89961 2.9004-1.0996s1.2008 0.2 1.8008 0c0.7-0.2 1.7-0.8 2.5-1 0.9-0.2 1.5 0.19922 2 0.19922s0.8988-0.39844 1.2988-0.39844 0.9004 0.39922 1.4004 0.69922 1.0008 0.69922 1.8008 1.1992c0.7 0.5 1.6984 1.1 2.3984 2 0.6 0.8 1 1.8 1 2.5 0 0.6-0.3988 1.0012-0.7988 1.2012-0.5 0.3-1.0996 0.39961-1.5996 0.59961-0.6 0.2-1.2016 0.29961-1.6016 0.59961-0.4 0.2-0.4984 0.60117-0.3984 1.2012 0 0.5 0.3992 1.3992 0.6992 2.1992s0.7 1.7008 0.5 2.3008c-0.2 0.5-0.8 0.9-1.5 1-0.7 0.2-1.3004 0.2-1.9004 0.5-0.6 0.2-1.0996 0.69922-1.5996 1.1992s-1.0004 1.0004-0.9004 1.4004 0.7004 0.79961 1.4004 1.0996 1.3 0.69922 2 1.1992 1.2992 1.1 1.6992 2c0.3 0.8 0.3 1.8 0 2.5-0.4 0.6-0.9984 1-1.3984 1.5-0.5 0.5-0.6008 1.1008-0.8008 1.8008s-0.2992 1.3008-0.6992 1.8008c-0.3 0.5-0.8008 0.89922-1.3008 1.1992s-0.9992 0.69922-1.6992 1.1992c-0.8 0.5-1.8 1.1008-2.5 1.8008-0.6 0.7-1 1.3008-1 1.8008s0.3992 0.89922 1.1992 1.1992 2.2 0.69922 3 0.69922 1.2008-0.4 1.8008-0.5c0.7-0.2 1.6984-0.19883 2.3984 0.20117 0.6 0.4 1.0008 1.2996 1.3008 2.0996s0.7008 1.7004 0.3008 2.4004c-0.3 0.8-1.3 1.3992-2 1.6992-0.8 0.2-1.3008 0.10037-1.8008-0.0996-0.5-0.2-0.9996-0.30039-1.5996-0.40039s-1.2004-0.0988-1.9004-0.29883c-0.7-0.1-1.3008-0.50078-1.8008-0.80078s-0.9-0.7-1.5-1c-0.7-0.3-1.6984-0.70078-2.3984-1.3008-0.6-0.7-1-1.6984-1-2.3984 0-0.6 0.3984-1.0004 0.3984-1.4004s-0.3992-0.90039-0.6992-1.4004-0.6992-0.99961-0.6992-1.5996 0.3992-1.2004 0.6992-1.9004 0.7-1.3008 1-1.8008 0.7-0.89922 1-1.1992 0.6996-0.7 1.0996-1 0.9004-0.7 1.4004-1 1.0004-0.69922 1.4004-1.1992 0.7996-1.1 0.5996-2c-0.2-0.8-0.8008-1.8-1.3008-2.5-0.5-0.6-0.8992-1.0016-1.1992-1.6016-0.3-0.7-0.7-1.6984-1-2.3984-0.3-0.6-0.6992-1.0016-0.6992-1.6016 0-0.7 0.3992-1.7 0.1992-2.5-0.2-0.9-0.8-1.4984-1.5-1.8984-0.7-0.3-1.3008-0.3-1.8008-0.5-0.5-0.1-0.8988-0.50078-1.2988-0.80078s-0.9004-0.7-1.4004-1-0.9996-0.70078-1.5996-1.3008c-0.6-0.7-1.2004-1.6984-1.9004-2.3984-0.7-0.6-1.3008-1.0008-1.8008-1.3008s-0.8992-0.7-1.1992-1-0.7008-0.70078-0.8008-1.3008c-0.2-0.7-0.1992-1.6984 0.3008-2.3984 0.5-0.6 1.5008-1 2.3008-1zm37.199 71.699c0.7 0 1.2992-7.8e-4 2.1992 0.19922 0.8 0.1 1.8 0.50078 2 1.3008 0.1 0.8-0.4992 2.2008-1.1992 2.8008-0.7 0.7-1.3004 0.69883-1.9004 0.79883s-1.0996 0.20039-1.5996 0.40039-0.9996 0.30078-1.5996 0.30078c-0.6-0.1-1.1996-0.50156-1.5996-1.1016-0.3-0.7-0.3016-1.6984-0.1016-2.3984 0.1-0.6 0.5008-1.0008 0.8008-1.3008s0.6992-0.70078 1.1992-0.80078c0.5-0.2 1.1008-0.19922 1.8008-0.19922zm8.7227 24.447c0.6458 6e-3 1.4281 0.3457 2.0781 0.75195 0.9 0.5 1.4988 1.1012 1.7988 1.7012 0.2 0.6 0.1012 1.0996-0.1 1.5996-0.2 0.5-0.3004 1.0004-0.4004 1.4004s-0.099 0.79961-0.2988 1.0996c-0.1 0.3-0.5008 0.69922-1.3008 0.69922s-2.2-0.39844-3-0.89844-1.1992-1.1016-1.1992-1.6016 0.4-0.89844 0.5-1.3984c0.2-0.5 0.1984-1.1008 0.3984-1.8008 0.1-0.7 0.5016-1.3 1.1016-1.5 0.1312-0.0375 0.2728-0.0541 0.4219-0.0527zm-4.3907 11c0.1608-2e-3 0.3188 0.0152 0.4688 0.0527 0.9 0.2 1.4984 0.79922 1.8984 1.1992 0.3 0.3 0.3008 0.30156 0.3008 0.60156v3c0 0.7 8e-4 1.6984 0.3008 2.3984 0.3 0.6 0.9 1.0008 1.5 1.3008 0.5 0.3 1.1 0.70078 1.5 0.80078 0.4 0.2 0.4996 0.19922 0.5996 0.69922s0.1012 1.4992-0.1 2.1992c-0.1 0.6-0.5004 1.0016-0.9004 1.1016-0.4 0-0.9004-0.10078-1.4004-0.30078s-1-0.3-1.5-0.5-1-0.3-1.5-0.5-0.9992-0.29922-1.6992-0.69922c-0.8-0.5-1.8008-1.1-2.3008-2-0.5-0.8-0.5008-1.8-0.3008-2.5 0.1-0.6 0.5-1 0.5-1.5s-0.3984-1.1-0.3984-2c0-0.8 0.4-1.8 1-2.5 0.5687-0.4875 1.3346-0.84463 2.0312-0.85351z" />
</svg>