<?xml version="1.0" encoding="UTF-8"?>
<svg width="1800" height="900" version="1.1" xmlns="http://www.w3.org/2000/svg">
  <MetaInfo xmlns="http://www.prognoz.ru">
    <Geo>
      <GeoItem X="0" Y="0" Latitude="90" Longitude="-180"/>
      <GeoItem X="1800" Y="900" Latitude="-90" Longitude="180"/>
    </Geo>
  </MetaInfo>
  <path d="m1405 660-4 8 1 1-2 4-6 3-1-1 1-7-1-1h-4l-6 4v1l-5 2-2 2-3-1v-3l-5-3-2 1-5-3v-1l-2-3h-3l-2 2-4-1-2 1v5l1 1-4 6-3-2v-4l-4-3h-5l-2 5 0.1543 0.1543-1.5547 0.3125 1.4004-0.4668-5-4-3 3h-2l-1-5-4 3-3-3h-2l-1 2-5 2-5-5h-1l-1 5-2 1-4-2-3-3-4 2h-3l-1-1-4 1v0.5c0.05 0.25039 0.099 0.50078 0.1992 0.80078 0.075 0.5266 0.2934 1.129 0.4531 1.6543l0.1973 0.59375c0.1631 0.40321 0.1853 0.46436 0.6504 0.65039 0.5 0.1 1.5 0.50156 2 0.60156 0.5 0.2 0.4992 0.2 1.1992 0 0.6-0.1 2-0.5 3-0.5s1.6016 0.39922 2.1016 0.69922 0.8984 0.69922 1.3984 1.1992l1.5 1.5c0.3 0.3 0.3008 0.3 0.3008 0.5 0 0.1-8e-4 0.50156 0.1992 1.1016 0.1 0.7 0.5 1.7 0.5 2.5 0 0.9-0.4 1.4984-0.5 1.8984-0.2 0.3-0.1984 0.3-0.3984 1-0.1 0.6-0.5016 2.0016-0.6016 2.6016l-0.3984 1.3984c-0.1 0.6-0.5016 2.0008-0.6016 2.8008-0.1 0.4-0.149 0.70059-0.1113 0.90039 0.038 0.19981 0.1621 0.29883 0.4121 0.29883 0.5 0 1.4992-0.4 2.1992-0.5 0.6-0.2 1-0.19922 1.5-0.19922s1.1016 0 1.6016 0.5 0.8984 1.4992 0.8984 2.1992c0 0.3-0.1 0.55039-0.1992 0.80078-0.1 0.25039-0.1992 0.50078-0.1992 0.80078 0 0.7 0.3984 1.6984 0.8984 2.3984 0.5 0.6 1.1016 1.0016 1.6016 1.1016 0.25 0.1 0.474 0.14961 0.6738 0.0742 0.1998-0.0754 0.3754-0.27578 0.5254-0.67578 0.3-0.9 0.7008-2.4984 0.8008-3.3984 0.2-0.8 0.1984-0.8 0.3984-1.5 0.1-0.6 0.5016-2.0008 0.6016-2.8008 0.2-0.8 0.1992-1.2008 0.1992-1.3008 0-0.2 0-0.2 0.5-0.5 0.5-0.4 1.5-0.99844 2-1.3984l1-0.60156c0.5-0.4 1.5-0.99922 2-1.6992s0.5-1.2992 0.5-1.6992c0-0.3-8e-4 -0.30078 0.1992-0.80078 0.1-0.5 0.5-1.4992 1-2.1992 0.5-0.6 1.1016-1.0008 1.6016-0.80078s0.8984 0.80078 1.3984 0.80078c0.1822 0 0.4474-0.11723 0.6563-0.21875 0.3475-0.17303 0.7255-0.38281 1.1445-0.38281 0.35 0 0.675 0.15039 1 0.30078s0.65 0.30078 1 0.30078 0.675-0.15039 1-0.30078 0.65-0.30078 1-0.30078c0.419 0 0.797 0.20978 1.1445 0.38281 0.2089 0.10152 0.4741 0.21875 0.6563 0.21875 0.1635 0 0.3376-0.0812 0.4902-0.16406 0.3072-0.17 0.6149-0.40175 1.0098-0.33594 0.7 0.2 1.6984 1.2 2.3984 1 0.6-0.1 1.0008-1.5016 1.3008-2.1016 0.3-0.7 0.6992-0.69844 1.1992-0.89844 0.5-0.1 1.1016-0.50078 1.6016-0.80078s0.8992-0.69922 1.1992-1.1992 0.7008-1.1016 1.3008-1.6016c0.7-0.5 1.7-0.89922 2.5-0.69922 0.9 0.2 1.4984 0.80078 1.8984 1.3008 0.3 0.5 0.3016 0.89844 0.6016 1.3984 0.4 0.5 0.9984 1.1008 1.3984 1.8008 0.3 0.7 0.3008 1.3 0.8008 2s1.5 1.3008 2 1.8008 0.5008 0.9 0.8008 1.5c0.4 0.7 1 1.6992 1.5 2.1992 0.25 0.25 0.4746 0.375 0.6992 0.5s0.4492 0.25 0.6992 0.5c0.5 0.5 1.1 1.5 1.5 2l0.6016 1c0.4 0.5 0.9984 1.5 1.3984 2 0.3 0.5 0.3008 0.5 0.8008 1s1.5 1.4992 2 2.1992c0.5 0.6 0.5 1.0008 0.5 1.3008s-8e-4 0.70078 0.1992 1.3008c0.1 0.7 0.5016 1.6992 0.6016 2.1992 0.2 0.5 0.1992 0.49922 0.1992 0.69922 0 0.1 8e-4 0.5 0.3008 1 0.4 0.5 1 1.1016 1.5 2.1016s0.9 2.4 1 3c0.2 0.7 0.1984 0.69844 0.3984 0.89844 0.1 0.1 0.5 0.50078 1 0.30078s1.1016-0.8 1.6016-2 0.8992-2.7992 1.1992-3.6992c0.3-0.8 0.7008-0.80156 0.8008-1.1016 0.2-0.4 0.1992-0.99922 0.6992-1.6992s1.4992-1.3 2.1992-1.5c0.6-0.2 1.0016 0.19922 1.6016 0.19922 0.35 0 0.7746-0.0996 1.1992-0.19922 0.4246-0.0996 0.8492-0.19922 1.1992-0.19922 0.6 0 1.0008 0.39922 1.3008 0.69922s0.7008 0.69922 0.8008 1.1992c0.2 0.5 0.2 1.1008 0.5 1.8008 0.4 0.7 0.9984 1.3008 1.3984 1.8008 0.3 0.5 0.3 0.89844 0.5 1.3984 0.1 0.5 0.5008 1.1008 1.3008 1.8008s2.2 1.2992 3 1.6992c0.8 0.3 1.2008 0.30078 1.3008 0.30078 0.2 0 0.1984 7.8e-4 0.3984-0.19922 0.1-0.1 0.5016-0.50078 1.1016-0.30078 0.7 0.2 1.7 0.80078 2.5 1.3008 0.9 0.5 1.4992 0.9 1.6992 1.5 0.06 0.20916 0.063 0.45045 0.053 0.70508-0.013 0.61758-0.149 1.2554 0.1465 1.9941 0.3 1 1.3 2 2 2.5 0.6 0.5 1.0008 0.49922 1.3008 0.69922 0.3 0.1 0.7008 0.50078 0.8008 0.80078 0.2 0.3 0.2 0.7 0.5 1 0.4 0.3 1 0.7 1 1.5s-0.6016 2.1992-0.6016 3.1992 0.6 1.6008 1 2.3008c0.3 0.7 0.3 1.3008 0.5 1.8008 0.093 0.46527 0.4557 0.84772 0.7461 1.3008l0.0544-0.10154 6-4 2-4 5 1v1l5 5 1-1 4 1 1-3-2-3-3 1-4-2 5-6 3 2v2l5 1 2 2-2 3 1 2 7-1 3 2 4-1v1l2 1 3-1v-1l3-2v-0.30078c0-0.4-8e-4 -1 0.1992-1.5 0.1-0.5 0.5016-0.89922 0.6016-1.1992 0.2-0.3 0.1992-0.69922 0.6992-1.1992s1.5008-1.1008 2.3008-1.3008c0.9-0.2 1.5 0.2 2 0.5s0.9 0.7 1 1c0.2 0.3 0.2 0.70078 0.5 0.80078 0.4 0.2 0.9992 0.19922 1.6992 0.69922s1.2992 1.5008 2.1992 1.8008c0.8 0.4 1.8016 0 2.6016 0 0.9 0 1.4984 0.39844 1.8984 0.89844 0.3 0.5 0.3008 1.1016 0.8008 1.6016s1.5 0.89922 2 1.1992 0.5008 0.7 0.8008 1c0.4 0.3 0.9984 0.69922 1.8984 0.69922 0.8 0 1.8016-0.39922 2.6016-0.19922 0.9 0.2 1.4992 0.8 2.1992 1s1.3-0.20078 2 0.19922c0.7 0.3 1.2992 1.3 1.6992 2 0.3 0.6 0.3016 1.0008 0.6016 1.3008 0.4 0.3 0.9984 0.7 1.3984 1 0.3 0.3 0.3016 0.70078 0.6016 1.3008 0.4 0.7 0.9992 1.6984 1.1992 2.3984 0.2 0.6-0.1992 1.0016-0.1992 1.6016 0 0.7 0.4 1.6984 0.5 2.3984 0.2 0.6 0.1984 1.0008 0.3984 1.3008 0.1 0.3 0.5008 0.7 0.8008 1l1.1992 1.1992c0.5 0.5 1.1016 1.1008 2.1016 1.3008s2.4-0.20078 3-0.30078c0.7-0.2 0.6992-0.2 1.1992-0.5 0.5-0.4 1.5008-1 1.8008-2 0.4-1 0-2.4-0.1016-3-0.2-0.7-0.2-0.7-0.5-1-0.4-0.4-0.9984-0.99922-1.3984-1.6992-0.3-0.7-0.3-1.3008-0.5-1.8008-0.1-0.5-0.5016-0.89844-0.6016-1.3984-0.2-0.5-0.1992-1.1016-0.1992-1.6016s8e-4 -0.89844-0.1992-1.3984c-0.1-0.5-0.5-1.1-0.5-2 0-0.8 0.4-1.8016 0-2.6016-0.3-0.9-1.3008-1.5-1.8008-2s-0.5008-0.89844-0.8008-1.3984c-0.4-0.5-0.9984-1.1016-1.8984-1.6016-0.8-0.5-1.8-0.89844-2.5-1.3984-0.6-0.5-1.0008-1.1016-1.3008-1.6016s-0.7-0.9-1-1.5c-0.3-0.7-0.6992-1.6984-1.1992-2.3984-0.5-0.6-1.1016-1.0008-1.6016-1.3008s-0.8984-0.70078-1.3984-0.80078c-0.5-0.2-1.1008-0.19922-1.8008-0.69922s-1.3008-1.5-1.8008-2-0.8992-0.5-1.1992-1-0.6992-1.4992-1.1992-2.1992c-0.5-0.6-1.1016-1.0016-1.6016-1.6016-0.5-0.7-0.9-1.6992-1-2.1992-0.2-0.5-0.1984-0.49922-0.3984-1.1992-0.1-0.6-0.5-2.0016-1-2.6016-0.5-0.7-1.1016-0.7-1.6016-1-0.5-0.4-0.9-0.99844-1.5-1.3984-0.7-0.3-1.6992-0.3-2.1992-0.5-0.5-0.1-0.5-0.50156-0.5-1.1016 0-0.7 8e-4 -1.6992-0.1992-2.1992-0.1-0.5-0.5008-0.49922-0.8008-1.1992-0.3-0.6-0.7008-2.0016-0.8008-2.6016-0.2-0.7-0.1992-0.69922-0.1992-1.1992s-8e-4 -1.4992 0.1992-2.1992c0.1-0.6 0.5016-1.0016 1.1016-1.1016 0.7-0.2 1.7-0.19922 2 0.30078 0.4 0.5 0 1.5008 0.5 2.3008 0.5 0.9 1.8984 1.4984 2.8984 1.3984 1-0.2 1.6-1.1984 2-1.8984 0.3-0.6 0.3016-1 0.6016-1.5 0.4-0.5 0.9992-1.1 1.6992-1.5 0.7-0.3 1.3-0.3 2-0.5 0.7-0.1 1.3-0.50078 1.5-1.3008s-0.1992-2.2-0.6992-3-1.1008-1.1992-1.8008-1.6992-1.2992-1.1016-1.6992-1.6016c-0.3-0.5-0.3-0.89922-0.5-1.1992-0.1-0.3-0.5008-0.70078-1.3008-0.80078-0.8-0.2-2.2-0.19922-3 0.30078s-1.1992 1.5008-1.6992 2.3008c-0.5 0.9-1.1008 1.4984-1.8008 1.8984-0.7 0.3-1.3 0.3-2 0-0.7-0.4-1.2992-0.99922-1.6992-1.6992-0.2977-0.69453-0.293-1.2914 0-1.9844l-0.3008-0.01562-4-1h-2l-2-1-2 4-3-2-2 1-3-2v-4l-4 1h-1l-5-3 1-3-5-4-3 2h-2z" />
</svg>