<?xml version="1.0" encoding="UTF-8"?>
<svg width="1800" height="900" version="1.1" xmlns="http://www.w3.org/2000/svg">
  <MetaInfo xmlns="http://www.prognoz.ru">
    <Geo>
      <GeoItem X="0" Y="0" Latitude="90" Longitude="-180"/>
      <GeoItem X="1800" Y="900" Latitude="-90" Longitude="180"/>
    </Geo>
  </MetaInfo>
  <path d="m1043.5 607.48c0.079 0.3266 0.1536 0.66306 0.2188 1.0215 0.3 2.2 0.3015 4.8-0.8985 6.5-1.1 1.7-3.5008 2.3008-5.3008 1.8008s-3.2007-2.1-4.8007-3.5c-1.6483-1.2605-3.5482-2.2119-3.9375-1.8144 0.09 1.2459 1.1177 2.8193 1.9375 4.2129 0.045 0.0726 0.081 0.14106 0.125 0.21289l0.1777 0.08789 0.09 0.36328c0.7816 1.3316 1.406 2.5644 2.6075 3.9375 1.1975 1.566 2.9846 3.3861 3.416 5.0703l1.8865 0.62891-2 4 2 2 1 4-2 3v1l3 2 2 5 5-1 5 1 2 6h2l2 2h1v2l5 4-3 4h-2l-3-2-4 4-4-2h-1l1 6-1 1-3-1-1-2h-4l-2 3 0.5 0.30078c0.5 0.4 1.5 0.99844 2.5 1.3984 0.5 0.15 0.8873 0.22539 1.3496 0.30078h1.6504l0.375 0.75v2e-3c0.3339 0.29051 0.6255 0.62316 1.125 0.74805 0.7481 0.18703 1.9664-0.1548 2.6191-0.28125 0-4.9e-4 0.01-1e-3 0.01-2e-3l0.8709-0.2168 0.1992 0.19922 0.8008 0.80078-0.7305 2.1934c-0.024 0.087-0.056 0.23689-0.07 0.30664-0.2 0.5-0.1992 0.5-0.1992 1s0 1.5008 0.5 2.3008c0.5 0.9 1.5 1.4984 2 1.8984 0.5 0.3 0.5008 0.30156 0.8008 0.60156 0.4 0.4 1 0.99922 1.5 1.1992s0.8984-0.19922 1.3984-0.19922 1.1 0.39844 2 0.39844c0.8 0 1.8-0.39922 2.5-0.69922 0.6-0.3 1.0008-0.7 1.3008-1s0.7-0.70078 1-1.3008c0.3-0.7 0.7-1.6992 1-2.1992s0.7008-0.50078 1.3008-0.30078c0.7 0.1 1.6984 0.50078 2.3984 0.80078 0.6 0.3 1 0.7 1 1s-0.3984 0.70078-0.3984 1.3008c0 0.7 0.3984 1.6984 0.8984 2.3984 0.5 0.6 1.1 1.0008 1.5 1.3008 0.3 0.3 0.3016 0.69922 0.6016 1.1992 0.4 0.5 1 1.1 1.5 1.5 0.5 0.3 0.8984 0.30078 1.3984 0.80078s1.1 1.4992 1.5 2.1992c0.3 0.6 0.3 1 0.5 1.5 0.1 0.5 0.5 1.1016 1 1.6016s1.1016 0.89922 1.6016 1.1992 0.8984 0.70078 1.3984 0.80078c0.5 0.2 1.1016 0.19844 1.6016 0.39844 0.5 0.1 0.8992 0.50078 1.1992 0.80078s0.7008 0.70078 0.8008 1.3008c0.2 0.7 0.2 1.6984 0 2.3984-0.1 0.6-0.5008 1.0016-1.3008 1.1016-0.8 0.2-2.2008 0.2-2.8008 0.5-0.7 0.4-0.6992 1-1.1992 1.5s-1.5 0.9-2 1c-0.5 0.2-0.5008 0.2-0.8008 0.5-0.4 0.4-1 0.99844-1.5 1.8984-0.5 0.8-0.8984 1.8-0.8984 2.5 0 0.6 0.3992 1.0008 0.6992 1.3008l0.8008 0.80078 0.1989 0.19922v4l-0.5996 0.59961c-0.1502 0.1998-0.2504 0.34961-0.4004 0.59961-0.3 0.5-0.7008 1.1-0.8008 1.5-0.049 0.0734-0.091 0.10008-0.123 0.14648v4e-3l-0.0762 0.1503-0.3008 0.30078c-0.2 0.2-0.4496 0.44961-0.6367 0.76172s-0.3117 0.68672-0.2617 1.1367c0.1091 0.43659 0.4765 0.92879 0.8183 1.4199l1.3809 1.3809-0.5762 1.1543c-0.021 0.2622-7e-4 0.57653 0.076 0.8457 0.1 0.35 0.3 0.675 0.5 1l1 1 4-1-2-4v-1h5l-1-5 1-2v-2l5-3 1 4 5-1v5l1 1v4l7-1h2l2 2 6-4-1-1-4-2-1-2-1-1-6 3-1-4 3-4v-1l1-2 7-1-5-6 4-2 4 4 2-1h2.6172l-0.4297-5.2031-3.1873-0.79688-3-1v-2l2-4 1-1v-2l1-1h2l0.2207 0.0742 0.7031-4.2266-0.9238-1.8476-2 1h-3.5c-0.5 0-0.9996-7.8e-4 -1.5996 0.19922-0.6 0.1-1.1996 0.50156-2.0996 0.60156-0.8 0.2-1.8 0.19922-2.5 0.19922h-3.5c-0.6 0-1.2008-3.7e-4 -1.8008 0.0996-0.7 0.1-1.3 0.20039-2 0.40039s-1.3 0.30039-2 0.90039-1.3008 1.5996-1.8008 2.0996-0.8996 0.49922-1.0996 0.19922c-0.3-0.4-0.3996-0.99922-0.5996-1.6992s-0.3012-1.3008 0.1-1.8008c0.4-0.5 1.4012-0.89844 1.7012-1.3984 0.4-0.5-8e-4 -1.1016-0.3008-1.6016s-0.6992-0.89961-1.1992-1.0996c-0.5-0.3-1.1008-0.39961-1.8008-0.59961s-1.2992-0.29961-1.6992-1.0996c-0.3-0.7-0.3008-2.1004-0.3008-2.9004s-8e-4 -1.1992 0.1992-1.6992c0.1-0.5 0.5008-1.1008 0.8008-1.8008s0.7008-1.2996 0.8008-2.0996c0.2-0.7 0.1992-1.6004 0.1992-2.4004v-2.5l-2-1-3 1-1-2 2-5v-2l-3-1h-2l-4-4v-1h-4v-9l1-2 5-1 2 2h2l2-5-5-2-2-2-4-6h-2l-2 1h-1l-3-2-1-2h-3v-1l-4 1-2-1-3 2-4-5 3-2-2-5h-4zm-35.478 3.8984v1.623l1.8594 1.8594 0.4062-0.0195 0.4805-0.28906c-0.015-0.0175-0.034-0.0331-0.049-0.0508-0.7355-0.78805-1.2489-1.7079-1.7168-2.627-0.086-0.0397-0.2012-0.0262-0.2832-0.0723-0.2467-0.11606-0.4765-0.263-0.6973-0.42383zm92 74.924c0.7 0 1.2992 0.4 1.6992 1 0.3 0.7 0.3016 1.6984 0.1016 2.3984-0.1 0.6-0.5 1-1 1s-1.1016-0.4-1.6016-1c-0.5-0.7-0.8992-1.6984-0.6992-2.3984 0.2-0.6 0.8-1 1.5-1z" />
</svg>