<?xml version="1.0" encoding="UTF-8"?>
<svg width="1800" height="900" version="1.1" xmlns="http://www.w3.org/2000/svg">
  <MetaInfo xmlns="http://www.prognoz.ru">
    <Geo>
      <GeoItem X="0" Y="0" Latitude="90" Longitude="-180"/>
      <GeoItem X="1800" Y="900" Latitude="-90" Longitude="180"/>
    </Geo>
  </MetaInfo>
  <path d="m1199.5 618.79c-0.2645-0.01-0.5235-7e-3 -0.7735 6e-3 -1.0064 0.10064-1.8561 0.40466-2.5332 0.83399-1.0116 1.3309-1.9749 2.8469-2.3652 4.5644-0.5 2.1-1.9873 0.73902-1.3008 5.5l-0.8809 7.2109c-0.4305 2.0979 1.8869 4.5133 1.9629 4.7539 0.3175 0.30098 0.5573 0.62867 0.6153 1.0352 0.034 0.43591-0.1578 0.97018-0.4161 1.5371v6e-3c-0.019 0.52323 0.01 1.032-0.082 1.5586-0.4 1.9-0.9992 3.4984-1.6992 4.8984-0.7 1.3-1.3008 2.3-2.8008 3-1.5 0.6-3.8984 1.0008-5.8984 1.8008-0.028 0.0114-0.05 0.0329-0.078 0.0449-0.1781 0.27124-0.3346 0.46528-0.5235 0.75586-1.4 2-2.9984 4.3984-4.8984 5.3984-0.5253 0.29184-1.0651 0.43451-1.5996 0.50781-0.065 8e-3 -0.1264 3e-3 -0.1914 8e-3 -0.5076 0.0472-0.9927 0.0104-1.459-0.10156-0.1158 0.0222-0.2416 0.0959-0.3516 0.0859-0.3796-0.0633-0.7167-0.33506-1.0215-0.66992-0.122-0.0807-0.2674-0.13722-0.3769-0.22852-1.1-1-1.5016-2.6016-0.6016-4.1016 0.8-1.5 2.8008-2.8992 4.3008-3.6992 0.4093-0.21828 0.7444-0.37617 1.0918-0.54492l-0.5977 0.0723 0.01-0.0273 1-1-3-6h-2l-2 3-4-2-3 1v5l-4 2-2-2-1-2-2-1-4 4 3 6-2 2h-2l-4 1-1 1 3 5-6 1-3 1-6.9531-3.9727c-0.022 0.0164-0.022 0.0405-0.047 0.0566v0.91557h-4l-0.5273-1.582c-0.2171-0.35102-0.4343-0.67641-0.6758-0.91797-0.25-0.25-0.6002-0.375-0.9004-0.5h-0.9006l-0.8496-1.2773c-7e-4 -6.6e-4 0-1e-3 0-2e-3 0-3e-3 -0.01-5e-3 -0.01-8e-3 -3e-4 -3.4e-4 0 3.4e-4 0 0-0.07-0.0668-0.1471-0.11348-0.2188-0.17578v-2e-3c-0.3349-0.29064-0.6876-0.53516-1.1152-0.53516-0.8 0-1.8012 0.99922-2.2012 1.6992-0.4 0.6-0.2992 1.0008-0.1992 1.3008 0 0.3-0.1 0.69922 0 1.1992s0.3992 1.1008 0.6992 1.8008 0.6008 1.3 0.3008 2c-0.4 0.7-1.4012 1.3008-1.7012 1.8008-0.4 0.5 0 0.89922 0.6016 1.1992 0.7 0.3 1.7 0.69922 2 1.1992 0.4 0.5 0 1.1008-0.6016 1.3008-0.7 0.2-1.6984-0.19922-2.3984-0.19922-0.6 0-1.0008 0.4-1.8008 0.5-0.8 0.2-2.2008 0.2-2.8008 0.5-0.7 0.4-0.7 1-1 1.5-0.4 0.5-0.9992 0.9-1.6992 1-0.7 0.2-1.3004 0.19922-1.9004 0.19922h1.8948l2-1 0.9238 1.8477-0.7031 4.2266-0.2207-0.07394h-2l-0.3613 0.36133-0.6387 0.63867v2l-1 1-2 4v2l3 1 3.1875 0.79688 0.2793 3.3808 0.1504 1.8223h0.3828l2 6 3 1 1 2 5-2 1-1 4 1v-5l3-1-1-4 3-2 1-1 7 2-2-4-5-1-5-2v-3l5-4 3 2 1 2 3 3 3-1 1-3 1-1 5 2 1 2 5 2 1 5h3l3 1 4-3v-3l6-2 1 1-3 7 2 2 7 2 5-1 2 2h1l1 1 6.8906-2.9531c0-2.7e-4 1e-4 -2e-3 0-2e-3 -0.019-0.11357-6e-4 -0.15493-0.3906-0.54492-0.5-0.5-1.4992-1.5-2.1992-2-0.3725-0.31037-0.6416-0.37947-0.9317-0.49609-7e-4 -3.2e-4 0-2e-3 0-2e-3v-2e-3h-0.3691l-2-2-1-3 0.6016-0.60156c0.091-0.18645 0.1593-0.39844 0.1992-0.59766 0.1-0.25 0.1496-0.52539 0.1992-0.80078v-1l0.3984-0.39844c0.1372-0.28149 0.3008-0.5414 0.3008-0.90234 0-0.42109-0.1636-0.97453-0.3008-1.5039l-0.3984-1.1952v-1.8008c0-0.5 8e-4 -0.89922-0.1992-1.1992-0.02-0.0599-0.024-0.191-0.061-0.25977l-0.7398-0.74023 2-3h0.6738c0.17-0.0706 0.3376-0.18808 0.5254-0.30078 0.5-0.4 1.1-1 1.5-1.5 0.1272-0.2119 0.1555-0.332 0.2129-0.50781 0.078-0.23905 0.1719-0.51855 0.2871-0.69141 0.1-0.3 0.5-0.69922 0.5-1.1992s-0.3992-1.1016-0.1992-2.1016 0.8-2.3992 1-3.1992c0.059-0.23771 0.069-0.35224 0.059-0.53516-0.01-0.47834-0.1594-0.81562 0.1406-1.2656 0.3-0.7 1.3-1.6984 2-2.3984 0.6-0.6 1.0008-1.0016 1.3008-1.1016 0.3-0.2 0.7-0.19922 1-0.19922s0.6992 7.8e-4 1.1992-0.19922c0.5-0.1 1.1016-0.5 2.1016-0.5s2.3992 0.4 3.1992 0.5c0.8 0.2 1.1992 0.19922 1.6992 0.19922s1.1016-7.8e-4 1.6016 0.19922c0.5 0.1 0.9 0.5 1 1 0.2 0.5 0.1984 1.1008 0.3984 1.8008 0.1 0.7 0.5016 1.2992 0.6016 2.1992 0.2 0.8 0.2 1.8016 0.5 2.6016 0.4 0.9 0.9992 1.4992 1.6992 1.6992s1.3008-0.19922 1.8008-0.69922 0.9-1.1016 1-1.6016c0.2-0.5 0.1984-0.9 0.3984-1.5 0.1-0.7 0.5016-1.6992 0.6016-2.1992 0.2-0.5 0.1992-0.49922 0.1992-0.69922 0-0.1 8e-4 -0.50156-0.1992-1.1016-0.1-0.7-0.5008-1.6984-0.8008-2.3984-0.1317-0.26337-0.1789-0.48266-0.3066-0.70312l-0.6938-0.59766-4-4 1-1h2l4-3v-1l-1-2-7 1v-2l-3-5 1-2-2-1h-5l-1 2-4-3v-5h3l2 2 4-1 2-2 4 1 1-1-2-6v-1l-4 2-2-5-4.1855 1.6738 0.371-1.209c-0.4685-0.82769 0.1034-3.1819-0.8847-4.6641-0.875-1.3125-2.9767-1.9375-4.8281-2.0059zm-92.572 61.404c-0.1434 0.0239-0.3546 0.0925-0.502 0.14258v2e-3c-0.069 0.0226-0.1392 0.0344-0.1992 0.0566l-0.1289 0.0644c0.027-0.0104 0.052-0.0169 0.078-0.0254 0.091-0.0344 0.1765-0.0536 0.2637-0.084 0.1608-0.056 0.3306-0.13031 0.4863-0.15625zm6.1504 4.8516c0.325 0 0.6984 0.0484 1.1484 0.14844 0.8 0.1 1.8016 0.5 2.1016 1 0.2 0.5-0.3008 1.1008-0.8008 1.8008s-0.9996 1.2992-1.5996 1.6992c-0.6 0.3-1.2012 0.3-1.7012 0-0.5-0.4-0.9-0.99922-1-1.6992-0.2-0.7-0.2-1.3008 0-1.8008 0.1-0.5 0.5-0.9 1-1 0.25-0.1 0.5266-0.14844 0.8516-0.14844zm92.949 16.25c-0.041 0.0547-0.1864 0.10342-0.2324 0.16406l-0.1192 0.24024c0.1212-0.1395 0.2617-0.28447 0.3516-0.4043zm3 5.5c-0.1266 0.0844-0.2814 0.13364-0.4434 0.19922h0.1016c0.1017-0.0406 0.2563-0.14222 0.3418-0.19922zm-2.1973 1.9941c-0.1775 0.2566-0.361 0.52889-0.5019 0.70508 0.078-0.0977 0.2018-0.26227 0.293-0.39062zm0.01 7.418c0.077 0.0467 0.1271 0.14849 0.1895 0.26172v-0.0449c-2e-4 -3.3e-4 2e-4 -2e-3 0-2e-3 -0.038-0.0645-0.1374-0.18518-0.1895-0.21484zm7.502 4.3047c0.091 0.11564 0.2187 0.29185 0.3261 0.4414l-0.1836-0.27343v-8e-3c-0.035-0.0469-0.1061-0.11911-0.1386-0.16015z" />
</svg>