<?xml version="1.0" encoding="UTF-8"?>
<svg width="1800" height="900" version="1.1" xmlns="http://www.w3.org/2000/svg">
  <MetaInfo xmlns="http://www.prognoz.ru">
    <Geo>
      <GeoItem X="0" Y="0" Latitude="90" Longitude="-180"/>
      <GeoItem X="1800" Y="900" Latitude="-90" Longitude="180"/>
    </Geo>
  </MetaInfo>
  <path d="m911.5 100.3c-0.5 0.4-1.5 0.99844-2 1.3984-0.5 0.3-0.50078 0.30078-1.3008 0.80078-0.9 0.5-2.4984 1.5008-3.3984 2.3008-0.8 0.9-0.80078 1.5-0.80078 2v3.6992c0 0.5 0 0.49922-0.5 0.69922-0.5 0.1-1.5008 0.50156-2.3008 1.1016-0.9 0.7-1.4984 1.6992-1.8984 2.1992l-0.30078 0.5v4.5c0 0.5-7.8e-4 1.5008-0.30078 2.3008-0.4 0.9-0.99844 1.4984-1.3984 1.8984l-2.1016 2.1016c-0.5 0.5-0.89922 0.9-1.1992 1-0.3 0.2-0.69922 0.19922-1.1992 0.19922h-1.6016c-0.5 0-0.89922-7.8e-4 -1.1992 0.19922-0.3 0.1-0.70078 0.5-1.3008 0.5-0.7 0-1.6992-0.4-2.1992-0.5-0.5-0.2-0.5-0.2-1-0.5-0.5-0.4-1.5008-0.99844-1.8008-1.8984-0.2-0.4-0.19902-0.84961-0.11133-1.2871 0.0877-0.4375 0.26211-0.86289 0.41211-1.2129 0.3-0.6 0.70078-1.0008 0.80078-1.3008 0.2-0.3 0.19844-0.69922-0.10156-1.1992-0.4-0.5-0.99844-1.1-1.8984-1.5-0.8-0.3-1.8008-0.3-2.3008 0-0.5 0.4-0.5 1-1 1.5s-1.5 0.89922-2 1.1992-0.5 0.70078-1 0.80078c-0.5 0.2-1.4992 0.19844-2.1992 0.39844-0.6 0.1-1.0008 0.50156-1.3008 0.60156-0.3 0.2-0.70078 0.2-1.3008-0.5-0.7-0.6-1.6984-2.0008-2.3984-2.8008-0.6-0.8-1-1.1992-1.5-1.1992s-1.1 0.39844-1.5 0.89844c-0.3 0.5-0.30078 1.1-0.30078 1.5 0 0.3 7.8e-4 0.3-0.19922 1-0.1 0.6-0.50156 2.0016-0.60156 2.6016-0.2 0.7-0.2 0.69922-0.5 1.1992-0.4 0.5-1 1.5008-1 2.3008 0 0.45 0.15098 0.82539 0.38867 1.0879 0.2377 0.2625 0.56211 0.41211 0.91211 0.41211 0.7 0 1.2992-0.6 2.1992-1 0.8-0.3 1.8008-0.30078 2.3008-0.30078s0.5 7.8e-4 1-0.19922c0.5-0.1 1.4992-0.5 2.1992-0.5 0.6 0 1.0016 0.4 1.6016 0.5 0.7 0.2 1.6992 0.2 2.1992 0 0.5-0.1 0.5-0.5 1-0.5s1.4992 0.4 2.1992 1c0.6 0.7 1.0008 1.6992 1.3008 2.1992s0.69922 0.50078 1.1992 0.80078c0.5 0.4 1.1016 1 1.6016 1.5s0.89844 0.9 1.3984 1.5c0.5 0.7 1.1 1.6992 1.5 2.1992 0.3 0.5 0.30078 0.5-0.19922 1l-2 2c-0.5 0.5-0.5 0.50078-1 0.30078-0.5-0.1-1.4992-0.50156-2.1992-0.60156-0.6-0.2-1.0008-0.19844-1.3008-0.39844-0.3-0.1-0.69922-0.50156-1.1992-1.1016-0.5-0.7-1.1016-1.6984-1.6016-2.3984-0.5-0.6-0.9-1.0008-1-1.3008-0.2-0.3-0.19922-0.70078-0.69922-0.80078-0.5-0.2-1.5008-0.19922-2.3008-0.19922-0.9 0-1.4992 7.8e-4 -2.1992-0.19922-0.7-0.1-1.3-0.5-2-0.5-0.35 0-0.675 0.0996-1 0.19922-0.325 0.0996-0.65 0.19922-1 0.19922-0.7 0-1.2992-0.39922-2.1992-0.19922-0.8 0.2-1.8016 0.8-2.6016 1-0.9 0.2-1.4984-0.2-1.8984-0.5-0.3-0.3-0.30078-0.69922-0.80078-1.1992s-1.4992-1.1-2.1992-1.5c-0.6-0.3-1-0.30156-1.5-0.60156-0.5-0.4-1.1008-0.99922-1.8008-1.1992s-1.3008 0.19922-1.8008 0.19922c-0.25 0-0.47461-0.0996-0.69922-0.19922-0.22461-0.0996-0.44922-0.19922-0.69922-0.19922-0.5 0-1.1016 0.4-1.6016 0.5-0.5 0.2-0.89922 0.19844-1.1992 0.39844-0.3 0.1-0.7 0.50078-1.5 0.30078s-2.1992-0.8-3.1992-1c-0.5-0.1-0.89961-0.0494-1.2246 0.0879-0.325 0.13731-0.57539 0.36133-0.77539 0.61133-0.3 0.5-0.30156 1.1008-0.10156 1.8008 0.1 0.7 0.50156 1.2992 1.1016 1.6992 0.7 0.3 1.6992 0.30078 2.1992 0.30078s0.5-7.8e-4 1 0.19922c0.5 0.1 1.5008 0.50156 2.3008 1.1016 0.9 0.7 1.4984 1.6992 1.8984 2.1992l0.60156 1c0.4 0.5 0.99844 1.5 1.3984 2 0.3 0.5 0.3 0.5 0.5 1 0.1 0.5 0.50156 1.5 1.1016 2 0.7 0.5 1.6984 0.49922 2.3984 0.69922 0.3 0.05 0.55039 0.17539 0.80078 0.30078s0.50078 0.25078 0.80078 0.30078c0.7 0.2 1.6992 0.19922 2.1992 0.19922s0.49922-7.8e-4 0.69922 0.19922c0.1 0.1 0.5 0.50078 1 0.80078s1.1016 0.70078 1.6016 1.3008c0.5 0.7 0.89844 1.6984 0.89844 2.3984 0 0.6-0.39922 1.0016-0.19922 1.6016 0.2 0.7 0.79922 1.6992 1.1992 2.1992 0.3 0.5 0.3 0.5 0.5 1 0.1 0.5 0.5 1.5008 1 2.3008 0.5 0.9 1.1 1.5 1.5 2 0.3 0.5 0.3 0.89922 0.5 1.1992 0.1 0.3 0.5 0.7 1 1s1.1016 0.69922 1.6016 0.69922 0.89922-0.4 1.6992 0c0.8 0.3 2.2008 1.3 2.8008 2 0.7 0.6 0.69922 1.0016 0.69922 1.1016 0 0.2 7.8e-4 0.19844-0.19922 0.89844-0.1 0.6-0.50078 2-0.30078 3s0.80078 1.6 1.3008 2c0.5 0.3 0.89844 0.30078 1.3984 0.80078s1.1 1.5 1.5 2c0.3 0.5 0.30078 0.49922 0.30078 1.1992 0 0.3-5.9e-4 0.80039-0.0879 1.3008-0.0873 0.50039-0.26133 1.0008-0.61133 1.3008-0.27291 0.31839-0.71425 0.4883-1.1582 0.64844-0.52395 0.18841-1.0735 0.37436-1.3418 0.75-0.25 0.3-0.27539 0.79961-0.23828 1.3496 0.0371 0.55 0.13672 1.1504 0.13672 1.6504 0 1-0.4 1.6016-0.5 2.1016-0.2 0.5-0.19922 0.89844-0.19922 1.3984s7.8e-4 1.1-0.19922 1.5c-0.05 0.15-0.17598 0.22598-0.32617 0.32617-0.16501 0.11185-0.29681 0.17827-0.47461 0.47461-0.3 0.5-0.70078 1.5-0.80078 2-0.2 0.5-0.19922 0.5-0.19922 1s0 1.5008 0.5 2.3008c0.5 0.9 1.5008 1.4984 1.8008 2.3984 0.4 0.8 0 1.8 0 2.5 0 0.6 0.4 1.0016 0.5 1.6016 0.2 0.7 0.19922 1.6984 0.19922 2.3984 0 0.6 7.8e-4 1.0016-0.19922 1.1016-0.1 0.2-0.50156 0.19844-0.60156 0.89844-0.2 0.6-0.19844 2.0008-0.39844 2.8008-0.1 0.8-0.50078 1.2008-0.80078 1.8008-0.3 0.7-0.69922 1.6984-1.1992 2.3984-0.5 0.6-1.1 1-1.5 1.5-0.3 0.5-0.3 1.1016-0.5 1.6016-0.1 0.5-0.5 0.89922-0.5 1.6992s0.4 2.2 1 3c0.7 0.8 1.6992 1.2 2.1992 1.5s0.50078 0.7 0.80078 1c0.4 0.3 1 0.7 1.5 1s0.9 0.7 1.5 1c0.7 0.3 1.6984 0.70078 2.3984 1.3008 0.6 0.7 1.0008 1.7 0.80078 2.5-0.2 0.9-0.8 1.4984-1.5 1.8984-0.7 0.3-1.2992 0.30078-1.6992 0.30078-0.3 0-0.30078-7.8e-4 -0.80078 0.19922-0.5 0.1-1.4992 0.50156-2.1992 0.60156-0.57141 0.19047-0.97113 0.20586-1.5254 0.37891-0.0277 9e-3 -0.0476 0.01-0.0762 0.0195-0.35 0.05-0.77461 0.17539-1.1992 0.30078l-1.5 0.50002h-0.41602c-0.32276 0.0722-0.60244 0.1202-1.084 0.30078-0.8 0.4-2.2008 0.99844-2.8008 1.3984-0.17122 0.0734-0.23399 0.0782-0.3418 0.12305l-0.35742 0.17773-0.46289 0.11523c-1e-3 3.7e-4 -3e-3 -3.6e-4 -4e-3 0l-6e-3 2e-3c-0.0826 0.0241-0.11299 0.0496-0.22656 0.082-0.3 0.05-0.80039 0.17539-1.3008 0.30078l-1.4648 0.36719c-0.41516 0.12084-0.58527 0.16491-0.83594 0.33203-0.0563 0.0141-0.20309 0.0596-0.26758 0.084l-4e-3 2e-3 -1.4274 0.71477h-1.4492c-0.4375 0.0496-0.9 0.0992-1.25 0.19922-0.23047 0.0384-0.42083 0.0392-0.61523 0.11523l-0.68555 0.68555-3-2 1-3h0.41602c8.9e-4 -7.5e-4 3e-3 -1e-3 4e-3 -2e-3 0.20255-0.16921 0.40582-0.29065 0.58008-0.69727 0.15-0.3 0.325-0.80039 0.5-1.3008l0.5-2h0.62305c0.0474-0.0344 0.15555-0.15485 0.17773-0.19922 0.2-0.1 0.19844-0.50156-0.10156-1.1016-0.4001-0.69995-0.99932-1.6992-1.6993-2.1992-0.50047-0.35748-0.85338-0.39809-1.2148-0.5h-0.78516v-0.38672c-0.11733-0.14152-0.18772-0.3125-0.5-0.3125-0.18207 0-0.5569 0.0773-0.83789 0.14453-1e-3 3.3e-4 -3e-3 2e-3 -4e-3 2e-3l-1.6581 0.55269-2-1 0.78125-3.123v-4e-3c1e-4 -5.3e-4 2e-3 -1e-3 2e-3 -2e-3 8e-3 -0.0425 0.0115-0.13507 0.0176-0.17187 0.0244-0.0854 0.0412-0.0798 0.0605-0.14649l0.13865-0.55259 0.24609-0.36914c0.0263-0.0442 0.0219-0.0763 0.0547-0.13086 0.2-0.25 0.44961-0.625 0.69922-1l0.69141-1.0371c0.26713-0.44693 0.28998-0.48149-0.19142-0.96289l-2.5-2.5v-0.62891c-0.0407-0.10424-0.14218-0.28553-0.19922-0.37109-0.0285-0.0856-0.10824-0.26678-0.17187-0.37109l-0.62891-0.62891v-3l1-2 1-1 2-1h4.8008c0.5 0 0.9 7.8e-4 1-0.19922 0.2-0.1 0.19922-0.50156 0.19922-1.1016v-2.6992l0.5918-0.35547 0.19531 0.38281c7e-3 -9e-3 6e-3 -0.0179 0.0137-0.0273 0.9-1 2.4984-2 3.3984-2.5 0.8-0.5 0.80156-0.49922 1.1016-0.69922 0.4-0.1 1-0.50078 1.5-0.80078s0.9-0.70078 1-1.3008c0.19997-0.70004 0.19919-1.6993 0.19919-2.1993s0-0.50078-0.5-0.80078c-0.5-0.4-1.4992-0.99844-2.6992-1.3984-1.1-0.3-2.5016-0.30078-3.1016-0.30078h-0.89844c-0.1 0-0.5 0-1-0.5s-1.1-1.5008-1.5-2.3008c-0.3-0.9-0.30078-1.4984-0.30078-1.8984 0-0.3-7.8e-4 -0.30156-0.30078-0.60156-0.4-0.4-0.99922-0.99844-1.6992-1.3984-0.7-0.3-1.3-0.3-2 0-0.41521 0.23726-0.87659 0.45838-1.3047 0.71094l0.0937 0.19922-0.78901 0.78906-2.3398-0.7793c-0.0394-0.01-0.12534-0.0145-0.16016-0.0215-0.20846-0.0834-0.37856-0.12349-0.5-0.16602v0.96682l-5 2v1l3 3 3-1h2l2 3-5 3-2-2-4 5 5 2v1l-2 3-5-4-2 5-5-5h-1l-1 6 1 2h4l2 3-1 1h-3l-2 6v1l0.0527 0.0801c0.43067 0.36948 0.75593 0.89971 1.0234 1.5332l0.92386 1.3867-0.38086 0.38086c0.0244 0.11103 0.0571 0.20332 0.0801 0.31836 0.3 2 0.30156 4.6016 0.10156 6.6016-0.0733 1.465-0.40488 2.5375-0.91797 3.4766-0.0529 0.76266-0.21248 1.4427-0.58203 2.0234-0.49326 0.98653-1.506 1.9359-2.3027 3.041 0.39162 0.99025 1.3894 2.1176 1.8027 3.3574 0.41575 1.2473-0.0493 2.5813-0.86719 3.9668-0.0811 0.1673-0.16596 0.40182-0.29101 0.56054-0.0626 0.0934-0.0763 0.17944-0.14258 0.27344-0.75186 1.0651-1.6367 2.1728-2.5059 3.2578-0.50132 0.86099-0.95698 1.7967-1.1934 2.7422-0.12496 0.5-0.19446 1.0008-0.22266 1.5039-0.0562 1.0061 0.0498 2.0241 0.19336 3.0801 0.0718 0.52806 0.15352 1.0652 0.22852 1.6152 0.0888 0.62165 0.27584 1.2144 0.38477 1.8652 0.52012 0.50297 1.0309 1.023 1.6152 1.4356 1.7 1.2 3.2992 1.8 3.6992 3 0.3 1.2-0.69922 2.7992-0.69922 4.1992 0 1.3 1.0008 2.3008 0.30078 3.8008-0.0607 0.15169-0.15074 0.3121-0.24609 0.47266l1.9453-0.97266 1 2 3 1 4-6v-1l-4-4h-4l-2-3 1-3h2l3-2-2-5 1-1 5 1 2-5 3 1 5-6 2 1 1 5-1 1 2 3 4 2 1-1-1-6 5-2 2 1h3v1h7l1 2 4-1 1 5h-1l2 5v1l2 3-2 3v3l-1 1 4 6-3 3 3 6h1l0.68945 0.47656c1.1592-1.2959 2.2329-2.2982 3.1113-2.7773 1.2-0.7 2.1992-0.7 3.1992 0 1 0.6 2 2.0016 3.5 2.6016 1.5 0.7 3.5 0.69844 4.5 1.3984 1 0.6 0.99922 2.0008 1.6992 3.3008 0.28161 0.61017 0.76641 1.2186 1.3281 1.666 0.43973 0.25388 0.87765 0.52516 1.3164 0.57226h2e-3l2e-3 -2e-3c0.4757-0.30058 0.86517-0.73938 1.2285-1.2109 0.46217-0.60941 0.87811-1.2891 1.2246-2.0254 0.46998-0.88774 0.87138-1.7437 1.334-2.5625 0.3633-0.74289 0.69974-1.5389 1.166-2.2383 1-1.5 2.3992-2.8992 3.1992-4.6992 0.45239-1.0179 0.80769-2.1612 1.2031-3.2012 0.28721-0.83831 0.62046-1.5642 1.0977-1.998 0.6-0.5 1.3988-0.65117 2.2363-0.63867s1.7129 0.18789 2.4629 0.33789c1.5 0.3 2.5 0.69922 4 1.6992s3.4992 2.6008 4.6992 4.3008c1.1 1.7 1.5 3.3 1 4.5s-1.8992 1.8-3.1992 1.5-2.7008-1.7008-3.8008-2.8008c-1.2002-1.1999-2.1993-2.1992-3.1993-1.6992s-2.0008 2.5-1.8008 4c0.1 1.5 1.5008 2.4992 2.3008 3.6992 0.8 1.1 1.1992 2.5016 2.1992 3.1016 1 0.7 2.6 0.69844 2.5 1.3984-0.2 0.6-2.1992 2.0008-3.6992 2.8008-0.94332 0.50311-1.7944 0.98696-2.6406 1.4473-0.0606 0.0892-0.0983 0.16145-0.16016 0.25195-0.0731 0.094-0.1563 0.1902-0.23047 0.28516-0.55148 0.70484-1.128 1.425-1.7148 2.1113-0.56546 0.66405-1.1304 1.2804-1.6992 1.8262l-6e-3 6e-3 -1.0487 1.5721 2 1 5-2 2 2h2l2 7 4-5 1 1 5 2v-1l-1-6h-2l-5-4 1-2-1-3 3-4 3 1h1l3-5h2l1-5 5 2 2-3-1-1 6-3v-3l1-2h4l3 5h1l2-7-2-1h-2l-4-2-3 2-3-2 2-6 3-1h1l3-2 1-2 4-2h3l1-5 1-1 5 3-1 5 1 1 5-1 2 2 5-4-2-5 6 2 0.54688 0.11133c-0.0539-0.14078-0.2461-0.2474-0.2461-0.41211 0-0.7 0.4-1.6992 1-2.1992 0.7-0.5 1.7-0.5 2.5-1 0.45-0.25 0.82539-0.62441 1.0879-1.0371 0.2625-0.41269 0.41211-0.86367 0.41211-1.2637 0-0.45-0.15098-0.82461-0.38867-1.1367-0.2377-0.31211-0.56211-0.56172-0.91211-0.76172-0.7-0.3-1.3008-0.3-1.8008-0.5-0.5-0.1-0.89844-0.50156-0.89844-1.1016 0-0.21555 0.23858-0.48356 0.3086-0.73828l-0.2461-0.0508-8.1055-7.3457-2.2578-0.56443-1-2 1-4-1-1 0.78711-3.9375 0.21289-1.0625h1l-3-6 1-1v-3l-3-2-2-4h-5l-1-1v-5l-6 1-4-1-1-4h-3l-3 2-3-4v-1l3-2v-1l-1-1-3-1-2 2h-10l-2-1-2-2-5.8613 1.9551c-0.06738 0.40744-0.13867 0.83594-0.13867 1.0449v0.80078c0 0.2 0 0.2-0.5 0.5-0.5 0.4-1.4992 1-2.6992 1-1.1 0-2.5008-0.60156-3.3008-1.1016s-1.2-0.89922-2-1.1992-2.2-0.69922-3-0.69922-1.2 0.4-1.5 0.5c-0.3 0.2-0.70078 0.2-1.3008 0-0.7-0.1-1.6992-0.50078-2.1992-0.80078s-0.49922-0.70078-0.69922-1.3008c-0.1-0.7-0.50078-1.7-0.80078-2.5-0.3-0.9-0.7-1.4992-1-2.1992s-0.69922-1.3008-1.1992-1.8008-1.1008-0.9-1.8008-1.5c-0.7-0.7-1.3-1.6984-1.5-2.3984-0.1-0.3-0.05-0.55039 0.125-0.73828s0.475-0.31328 0.875-0.36328c0.8-0.2 2.2008-0.19844 2.8008-0.39844 0.35-0.05 0.52461-0.17539 0.63672-0.36328s0.16172-0.43828 0.26172-0.73828c0.1-0.7 0.50156-1.6992 0.60156-2.1992 0.2-0.5 0.2-0.49922 0-0.69922-0.1-0.1-0.50078-0.5-0.80078-1s-0.7-1.1-1-2c-0.3-0.8-0.70078-1.8008-0.80078-2.3008-0.2-0.5-0.19844-0.50078-0.39844-0.80078-0.1-0.4-0.50156-0.99922-1.1016-1.6992-0.7-0.7-1.7-1.3-2.5-1.5-0.9-0.2-1.4984 0.19922-2.3984 0.19922-0.8 0-1.8016-0.4-2.6016-0.5-0.9-0.2-1.5-0.19844-2-0.39844-0.5-0.1-0.89922-0.50156-1.1992-0.60156-0.3-0.2-0.69922-0.2-1.1992-0.5-0.5-0.4-1.1-0.99922-1.5-1.6992-0.15-0.35-0.22539-0.67441-0.17578-0.97461 0.0496-0.30019 0.22422-0.57617 0.57422-0.82617 0.6-0.5 2.0008-0.9 2.8008-1 0.8-0.2 1.2-0.19922 1.5-0.19922s0.69922 7.8e-4 1.1992-0.69922c0.5-0.6 1.1-2.0016 1.5-2.6016 0.3-0.7 0.3-0.69922 0.5-1.1992 0.1-0.5 0.50078-1.4992 0.80078-2.1992 0.3-0.6 0.7-1.0016 1-1.6016 0.3-0.7 0.70078-1.6984 0.80078-2.3984 0.2-0.6 0.19922-1 0.69922-1s1.5008 0.4 2.3008 1c0.9 0.7 1.5 1.6992 2 2.1992s0.89922 0.5 1.1992 1 0.69922 1.5 1.1992 2 1.1 0.49922 2 0.19922c0.8-0.4 1.8-0.99922 2.5-1.6992 0.3-0.35 0.55039-0.675 0.67578-1s0.12578-0.65-0.0742-1c-0.3-0.7-1.3-1.2992-2-1.6992-0.6-0.3-1.0016-0.3-1.6016-1-0.7-0.6-1.6992-2.0016-2.1992-2.6016-0.5-0.7-0.50078-0.69922-0.30078-1.1992 0.1-0.5 0.50156-1.5 0.60156-2 0.2-0.5 0.19922-0.49922 0.19922-0.69922 0-0.1 7.8e-4 -0.50078-0.19922-1.3008-0.1-0.8-0.50078-2.2-0.80078-3s-0.69922-1.2008-1.1992-1.3008c-0.50002-0.2-1.1008-0.19922-1.8008-0.19922-0.35 0-0.67559-5.9e-4 -0.96289-0.0879-0.28731-0.0873-0.53633-0.26133-0.73633-0.61133-0.3-0.6-0.30156-2-0.10156-3 0.1-1 0.50156-1.6008 0.60156-2.3008 0.2-0.7 0.19922-1.2992 0.19922-1.6992 0-0.3 0-0.30156 0.5-0.60156 0.5-0.4 1.5-1 2-1.5s0.5-0.89922 1-1.1992 1.5-0.69922 2-1.1992 0.50078-1.1008 0.80078-1.8008c0.4-0.7 1-1.2992 1.5-1.6992 0.5-0.3 0.89844-0.30156 1.3984-0.60156 0.5-0.4 1.1-0.99922 1.5-1.6992 0.3-0.7 0.30156-1.3008 0.10156-1.8008-0.1-0.5-0.5-0.9-0.5-1.5 0-0.7 0.4-1.6992 0-2.6992-0.3-1-1.3008-2-1.8008-2.5s-0.5-0.49922-1-0.19922zm38.168 83.145c0.6938 3.2e-4 1.4441 0.31094 1.9316 0.55469 0.6 0.3 0.70039 0.50078 0.90039 0.80078 0.2 0.2 0.30039 0.49922 0.40039 0.69922s0.0996 0.30078-0.40039 0.80078c-0.5 0.4-1.5 0.99844-2.5 0.89844-1-0.2-1.9992-1.2-2.1992-2-0.1-0.9 0.49844-1.4992 1.3984-1.6992 0.15-0.0375 0.30864-0.0548 0.46875-0.0547zm-35.205 25.643c0.4125 0.0375 0.78711 0.16211 1.0371 0.41211 0.5 0.5 0.50078 1.4992 0.30078 2.1992-0.1 0.6-0.5 1.0016-0.5 1.6016 0 0.7 0.39844 1.6984 0.39844 2.3984 0 0.6-0.39844 1.0016-0.39844 1.6016 0 0.7 0.39922 1.6984 0.19922 2.3984-0.2 0.6-0.8 1.0008-1 1.8008s0.19922 2.1992 0.69922 2.6992 1.1008 0.10078 1.8008-0.19922 1.3008-0.69922 1.8008-0.69922 0.9 0.39844 1.5 0.39844c0.7 0 1.7-0.39844 2.5-0.39844 0.9 0 1.4984 0.39844 2.3984 0.39844 0.8 0 1.8-0.39844 2.5-0.39844 0.6-0.1 1.0004-7.8e-4 1.4004 0.19922 0.4 0.3 0.90039 0.50078 1.4004 0.80078 0.5 0.2 1.0004 0.49922 1.4004 0.69922 0.4 0.3 0.79961 0.7 1.0996 1s0.70078 0.70078 1.3008 0.80078c0.7 0.2 1.6984 0.2 2.3984 0 0.6-0.1 1.0008-0.50078 1.3008-0.80078l1-1c0.3-0.3 0.70078-0.7 1.3008-1 0.7-0.3 1.6992-0.70078 2.1992-1.3008 0.5-0.7 0.49922-1.7 0.19922-2.5-0.4-0.9-1-1.5-1.5-2l-2.1992-2.1992c-0.3-0.3-0.70078-0.69922-0.80078-1.1992-0.2-0.5-0.19922-1.1008-0.19922-1.8008s7.8e-4 -1.3008 0.30078-1.8008c0.4-0.5 0.99922-0.9 1.6992-1 0.7-0.2 1.3008-0.19844 1.8008 0.10156 0.5 0.4 0.9 0.99922 1 1.6992 0.2 0.7 0.2 1.3 0.5 2 0.4 0.7 1 1.3004 1.5 1.9004 0.4 0.6 0.49922 1.0996 0.69922 1.5996s0.29961 1.0004 0.59961 1.4004c0.2 0.4 0.60117 0.79883 0.70117 1.2988 0.2 0.5 0.19844 1.1016 0.39844 1.6016 0.1 0.5 0.50156 0.9 1.1016 1 0.7 0.2 1.7 0.19844 2.5-0.10156 0.9-0.4 1.5-1 2-1.5 0.4-0.5 0.49844-0.89961 0.89844-1.0996 0.4-0.3 1.0016-0.39961 1.6016-0.59961 0.5-0.2 1.0992-0.30036 1.6992 0.0996 0.7 0.4 1.3 1.4012 1.5 2.2012 0.2 0.9-0.19922 1.5-0.69922 2s-1.1016 0.89844-1.6016 0.89844-0.89844-0.4-1.3984 0c-0.5 0.3-1.1008 1.3-1.3008 2-0.2 0.6 0.2 1.0008 0.5 1.8008s0.69922 2.2 0.69922 3-0.39922 1.2-0.69922 1.5-0.69922 0.7-1.1992 1-1.1004 0.70039-1.9004 0.90039c-0.7 0.3-1.6004 0.39961-2.4004 0.59961s-1.6992 0.30078-2.1992 0.80078c-0.6 0.4-1.0004 1-1.4004 1.5-0.4 0.4-0.90039 0.49922-1.4004 0.69922s-1 0.3-1.5 0.5-1 0.3-1.5 0.5-1.0004 0.30039-1.4004 0.90039-0.79961 1.6004-0.59961 2.4004c0.2 0.9 0.80078 1.4996 1.3008 2.0996s0.89922 1.0996 1.1992 1.5996 0.70078 0.99961 0.80078 1.5996c0.2 0.6 0.19844 1.2004-0.10156 1.9004-0.4 0.7-0.99844 1.3-1.8984 1.5-0.8 0.2-1.8-0.19922-2.5-0.19922-0.8-0.1-1.3008-7.8e-4 -1.8008 0.19922s-1.0004 0.30039-1.4004 0.40039-0.79922 0.0988-1.1992 0.29883c-0.4 0.1-0.90039 0.50078-1.4004 0.80078s-1.0004 0.7-1.4004 1-0.79883 0.69922-1.2988 0.19922-1.1016-1.8992-1.6016-2.6992-0.89922-1.2-1.1992-1.5-0.69922-0.7-1.1992-1-1.1008-0.7-1.8008-0.5-1.3004 0.80078-1.9004 1.3008-1.0996 0.89922-1.5996 1.1992-0.99961 0.69922-1.5996 0.69922-1.2008-0.4-1.8008-0.5c-0.6-0.19996-1.0996-0.19921-1.5996-0.19921h-1.3008c-0.4 0-0.49922 3.6e-4 -0.69922-0.0996-0.2-0.1-0.50039-0.19961-0.90039-0.59961-0.3-0.4-0.79922-1-1.1992-1.5-0.5-0.6-0.90039-1.2012-1.4004-1.7012-0.5-0.4-1-0.79961-1.5-1.0996s-1-0.69922-1.5-0.69922-1 0.39922-1.5 0.69922-0.99961 0.69922-1.0996 1.1992 0.3 1.1012 0.5 1.7012c0.3 0.6 0.39961 1.0996 0.59961 1.5996s0.30039 1.0008 0.40039 1.8008c0.1 0.7 0.10039 1.6984 0.40039 2.3984 0.4 0.6 0.99961 1.0004 1.5996 1.4004s1.0996 0.90039 1.5996 1.4004 1.0004 0.99961 0.90039 1.5996-0.70039 1.1996-1.4004 1.5996c-0.7 0.3-1.3 0.3-2 0.5-0.7 0.1-1.3008 0.5-1.8008 0.5s-0.89922-0.39922-1.1992-0.69922-0.69922-0.70078-1.1992-0.80078c-0.5-0.2-1.1008-0.2-1.8008-0.5-0.7-0.4-1.3004-0.99922-1.9004-1.6992s-1.0996-1.3-1.5996-2-1-1.2996-1.5-2.0996c-0.5-0.7-1-1.6004-1.5-2.4004s-0.99961-1.6992-1.0996-2.1992c-0.1-0.6 0.3-1.0012 0.5-1.2012 0.3-0.3 0.40039-0.4 0.40039-1 0-0.5-0.3-1.3988-0.5-2.2988-0.3-1-0.50117-1.9008-0.70117-2.8008-0.1-0.8-0.0996-1.7-0.0996-2.5s-7.8e-4 -1.6992 0.19922-2.1992c0.1-0.6 0.50039-1.0004 0.90039-1.4004l1.4004-1.4004c0.5-0.5 0.99961-0.99961 1.0996-1.5996s-0.29964-1.2012-0.0996-1.7012c0.2-0.5 0.79922-0.9 1.1992-1.5 0.3-0.7 0.3-1.6992 1-2.1992 0.6-0.5 2.0004-0.50039 2.9004-0.40039s1.4004 0.20039 1.9004 0.40039 1.0004 0.30078 1.4004 0.30078c0.4-0.1 0.80039-0.50078 1.4004-0.80078 0.7-0.3 1.6984-0.69922 2.3984-1.1992 0.6-0.5 1-1.1008 1-1.8008s-0.39922-1.3-0.19922-2 0.79922-1.3 1.1992-2c0.3-0.7 0.30039-1.3 0.40039-2s0.20039-1.3 0.40039-2 0.30078-1.3008 0.30078-1.8008c-0.1-0.5-0.5-0.9-0.5-1.5 0-0.7 0.39844-1.6984 0.89844-2.3984 0.5-0.6 1.1-1.0016 2-1.1016 0.4-0.1 0.85117-0.14883 1.2637-0.11133zm65.256 24.621c0.12273-3e-3 0.24961 0.0262 0.38086 0.0918 0.6 0.2 1.2008 1.1984 1.3008 1.8984 0.1 0.6-0.40039 1.0008-0.90039 1.3008s-0.99961 0.7-1.5996 0.5-1.2008-0.80039-1.3008-1.4004 0.40039-1.0996 0.90039-1.5996c0.39062-0.39062 0.78044-0.78186 1.2188-0.79102z" />
</svg>