<?xml version="1.0" encoding="UTF-8"?>
<svg width="1800" height="900" version="1.1" xmlns="http://www.w3.org/2000/svg">
  <MetaInfo xmlns="http://www.prognoz.ru">
    <Geo>
      <GeoItem X="0" Y="0" Latitude="90" Longitude="-180"/>
      <GeoItem X="1800" Y="900" Latitude="-90" Longitude="180"/>
    </Geo>
  </MetaInfo>
  <path d="m838.3 177.2c-0.3 0.1-0.3 0.5-0.5 1-0.1 0.5-0.5 1.1-1 2-0.5 0.8-1.1008 1.8008-1.8008 2.3008s-1.2992 0.5-1.6992 0.5h-1.1016c-0.9 0-2.5-7.8e-4 -3.5 0.19922-1 0.1-1.3984 0.50156-1.8984 0.60156-0.5 0.2-1.1016 0.19922-1.6016 0.19922s-0.9-7.8e-4 -1 0.19922c-0.2 0.1-0.19922 0.50156-0.69922 0.60156-0.5 0.2-1.4992 0.19922-2.1992 0.69922-0.6 0.5-1.0008 1.4992-1.3008 2.1992-0.15 0.3-0.325 0.55039-0.5 0.80078s-0.35 0.50078-0.5 0.80078c-0.3 0.7-0.70078 1.6992-0.80078 2.1992-0.2 0.5-0.19922 0.5-0.19922 1s7.8e-4 1.4992-0.19922 2.1992c-0.05 0.3-0.17539 0.55039-0.30078 0.80078s-0.25078 0.50078-0.30078 0.80078c-0.2 0.7-0.2 1.6984-0.5 2.3984-0.4 0.6-0.99922 1-1.6992 1s-1.3008-0.39922-1.8008-0.69922-0.89922-0.70078-0.69922-1.3008c0.2-0.7 0.8-1.7 1-2.5 0.2-0.9-0.2-1.4984-0.5-1.8984-0.3-0.3-0.69922-0.3-1.1992 0-0.5 0.4-1.1016 0.99922-1.6016 1.1992s-0.9-0.19922-1.5-0.19922c-0.7 0-1.6992 0.4-2.1992 0.5-0.5 0.2-0.5 0.19922-1 0.19922s-1.4992-7.8e-4 -2.1992 0.19922c-0.3 0.05-0.55098 0.17539-0.70117 0.36328-0.1502 0.18789-0.19961 0.43828-0.0996 0.73828 0.2 0.7 0.79922 1.6984 1.1992 2.3984 0.3 0.6 0.3 1.0008 0 1.3008-0.2 0.15-0.44961 0.32441-0.76172 0.41211s-0.68672 0.0887-1.1367-0.11133c-0.4-0.15-0.85039-0.47539-1.3008-0.80078s-0.90078-0.65078-1.3008-0.80078c-0.45-0.2-0.82539-0.20039-1.1504-0.0879-0.325 0.1125-0.59961 0.33789-0.84961 0.58789-0.5 0.5-0.89844 1.1008-0.89844 1.8008s0.4 1.2992 0.5 1.6992c0.2 0.3 0.2 0.3 0.5 1 0.4 0.6 0.99922 2.0016 1.1992 3.1016 0.1 0.6 0.0506 1.1496-0.0996 1.6367-0.15019 0.48711-0.40117 0.91172-0.70117 1.2617-0.7 0.6-1.6984 1.0016-2.3984 1.1016-0.60002 0.20001-1.0008 0.19923-1.3008 0.19923s-0.69922 7.8e-4 -1.1992-0.19922c-0.5-0.1-1.1-0.5-2-0.5-0.8 0-1.8016 0.39844-2.6016 0.89844-0.9 0.5-1.4984 1.1-1.8984 1.5-0.3 0.3-0.3 0.30078-0.5 0.30078-0.1 0-0.50156-7.8e-4 -1.1016 0.69922-0.7 0.6-1.6992 2.0016-2.1992 2.6016-0.5 0.7-0.49922 0.7-0.19922 1 0.4 0.4 0.99844 1 1.3984 2 0.3 1 0.30078 2.3992-0.19922 3.1992s-1.5 1.1992-2 1.1992-0.50078-0.39844-0.80078-0.89844c-0.4-0.5-0.99844-1.1008-1.3984-1.8008-0.3-0.7-0.30078-1.3008-0.80078-1.8008s-1.5-0.9-2.5-1c-1-0.2-2-0.19922-2.5-0.19922s-0.5 0-0.5 0.5-7.8e-4 1.5008 0.19922 2.3008c0.0662 0.59552 0.24293 1.0066 0.39844 1.4551 9e-3 0.0258 0.0185 0.0543 0.0273 0.0801h-6e-3c0.0686 0.20404 0.15145 0.45269 0.18164 0.66406 0.2 0.7 0.19844 1.3008 0.39844 1.8008 0.1 0.5 0.50078 0.89844 0.80078 1.3984s0.69922 1.1016 0.69922 1.6016-0.39844 0.89844-0.39844 1.3984 0.39844 1.1 0.39844 2c0 0.8-0.39844 1.8016-0.89844 2.6016-0.5 0.9-1.1016 1.4984-1.6016 1.8984-0.5 0.3-0.9 0.3-1.5 0-0.7-0.4-1.6992-0.99844-2.1992-1.3984-0.5-0.3-0.50078-0.30078-0.80078-0.80078-0.4-0.5-0.99844-1.5008-1.3984-2.3008-0.3-0.9-0.30078-1.5-0.80078-2s-1.4992-0.89844-2.1992-0.89844c-0.6 0-1.0016 0.4-1.1016 1-0.19982 0.69998-0.19904 1.6992-0.19904 2.1992v0.80078c0 0.4 7.8e-4 0.99844-0.69922 1.3984-0.6 0.3-2.0008 0.30156-2.8008 0.10156-0.8-0.1-1.2-0.50156-1.5-0.60156-0.3-0.2-0.69922-0.2-1.1992 0-0.5 0.1-1.1016 0.5-1.6016 0.5s-0.89922-0.4-1.1992-0.5c-0.3-0.2-0.69922-0.19922-1.1992 0.30078s-1.1008 1.5008-1.3008 2.3008c-0.2 0.9 0.2 1.4992 1 2.1992s2.2 1.2992 3 1.6992c0.8 0.3 1.2008 0.30078 1.8008 0.30078 0.7 0 1.6992 7.8e-4 2.1992-0.19922 0.5-0.1 0.49922-0.50156 0.69922-0.60156 0.1-0.2 0.5-0.19844 1-0.39844 0.5-0.1 1.1016-0.5 2.1016-0.5s2.3984 0.4 3.3984 1c1 0.7 1.6008 1.6992 1.8008 2.1992 0.10585 0.26463 0.0306 0.39653-0.14062 0.5293l0.64062-0.0293h6l4-2 1 1 2-3-1-3 1-3h2l3 4v4l4 2 1 2 1 1 2-1h6.8906l0.10938 0.13477v0.86523l0.89062 0.22266 0.3086 0.37695 2.0566 4.2734-2.2559 1.127 3 6h2l0.40039-0.40039 1.3398 5.4297-3.5234 0.39062 0.0156 1.0684c0.41526 0.0702 0.838 0.16364 1.2539 0.28711h2e-3c0.33947-0.079 0.76309-0.31679 1.0117-0.27539 0.60819 0.10136 0.80956 0.56413 0.98633 1.1504 1.3625 0.99627 2.3882 2.3534 3.5312 3.375 0.87515 0.29761 1.8093 0.55731 2.6816 0.77539 0.55739 0.13935 0.98627 0.18019 1.4707 0.27149 0.87835-0.15458 1.7778-0.36526 2.6309-0.77149 0.0963-0.0438 0.15851-0.11611 0.25391-0.16211h2e-3v-2e-3c0.23788-0.5961 0.36525-1.3331 0.34375-2.2363-0.025-1.05-0.15117-2.2012-0.20117-3.2012-0.0722-0.72198-0.13609-1.2643-0.17969-1.877-0.24969-0.1875-0.47601-0.31516-0.71875-0.52149-2-1.6-3.6016-4-5.1016-5s-2.9-0.60078-3.5-1.8008c-0.48827-0.83703-0.60179-2.278-0.64649-3.6289-0.11251-0.36145-0.29201-0.76293-0.35351-1.0703-0.27313-1.0242-0.0576-1.5609 0.35156-1.9688 0.048-0.59265 0.14928-1.173 0.44922-2.1328 0.5-1.7 1.5008-4.6992 1.8008-6.6992 0.4-2 0-3.0008 1-3.8008 0.26511-0.2386 0.80806-0.43311 1.2383-0.64258 0.0642-0.0737 0.0905-0.18616 0.16016-0.25586 1-1 2.6-1.6016 3.5-3.1016 0.79992-1.5 0.8007-3.8992 1.8007-6.1992s3.0008-4.7009 4.8008-5.8008c0.95-0.6 1.8238-0.89844 2.6113-0.96094 0.19687-0.0157 0.38844-0.0168 0.57422-4e-3 0.55733 0.0388 1.0637 0.20234 1.5137 0.46484 0.2022 0.1011 0.38077 0.23335 0.55078 0.3789l-0.05078-0.07802v-1l2-6h3l1-1-2-3h-4l-1-2 1-6h1l5 5 2-5 5 4 2-3v-1l-5-2 4-5 2 2 5-3-2-3h-2l-3 1-3-3v-1l5-2v-0.9668c-0.16985-0.0595-0.29106-0.1158-0.69922-0.23242-0.6-0.1-2.0016-0.50156-2.6016-1.1016-0.7-0.7-0.7-1.6984-1-2.3984-0.4-0.6-0.99922-1.0016-1.6992-1.1016-0.7-0.2-1.2992-0.2-1.6992 0zm11.439 4.9082c-0.28528 0.16571-0.58557 0.31394-0.93945 0.39258-0.644 0.161-1.3582-0.0499-1.8965-0.19727l2.0957 0.69727 0.78906-0.78906zm7.8516 15.537-0.5918 0.35547v2.6992c0-0.34187 3e-3 -0.75522 0.0977-1.2051 1e-3 -7e-3 3.9e-4 -0.0122 2e-3 -0.0195 3e-3 -0.0123 9e-3 -0.0248 0.0117-0.0371 0.10124-0.44773 0.29405-0.92925 0.67383-1.4121zm-6.5918 4.3555-2 1-1 1-1 2v3l0.54688 0.54688c-0.14286-0.23273-0.28985-0.50079-0.34766-0.84766-0.2-0.7-0.2-1.7 0-2.5 0.1-0.9 0.50078-1.5 0.80078-2s0.69922-0.89922 1.1992-1.1992 1.1008-0.70078 1.8008-0.80078c0.7-0.2 1.3008-0.19922 1.8008-0.19922zm-3 8.4531v0.54688l2.5 2.5c-0.5-0.5-1.5-1.4992-2-2.1992-0.28912-0.34694-0.41012-0.6149-0.5-0.84766zm-17.477 8.1758c0.0551 0.0746 0.10895 0.15148 0.16015 0.23242-0.0504-0.0823-0.10581-0.1565-0.16015-0.23242zm0.55273 0.98437c0.21677 0.51332 0.39613 1.0994 0.54297 1.7676l0.38086-0.38086zm-26.713 54.9-0.36328 0.48633 0.22266 0.44531c0.0289-0.22094 0.042-0.41555 0.0781-0.64453 0.0208-0.0934 0.0408-0.1927 0.0625-0.28711z" />
</svg>