<?xml version="1.0" encoding="UTF-8"?>
<svg width="1800" height="900" version="1.1" xmlns="http://www.w3.org/2000/svg">
  <MetaInfo xmlns="http://www.prognoz.ru">
    <Geo>
      <GeoItem X="0" Y="0" Latitude="90" Longitude="-180"/>
      <GeoItem X="1800" Y="900" Latitude="-90" Longitude="180"/>
    </Geo>
  </MetaInfo>
  <path d="m1088 188-1 1v6h-4l-1-1h-6v1l-4 1v1l-4 4-2-1-3 5h-2l-2 3v2h-2l-5 3h-1l-6 4 6 2 2-3h5l1 3-1 3 2 5-1 2-4 3h-1l-5 5v1l-4 1-2-1-6 5v2l-7-1v-4l-5-2 2-3-3-3 1-3-2.9395-1.1758-2.0605-0.82422 1-4-1-1 2-3-2-4 2-4-1-1-6-1-1 1 2 12-2 1h-2l-3-3-4 2-6 1-1 2h-6l-1-1-3-2-2 2 1 4-1 2-1.7422-0.43555 8.1055 7.3457 0.0742 0.0156c0.16231-0.55733 0.46136-1.1561 0.86328-1.625 0.7-0.6 1.6984-1.0016 2.3984-1.1016 0.3-0.1 0.55-0.14844 0.75-0.14844s0.35117 0.0484 0.45117 0.14844c0.3 0.1 0.39961 0.50078 0.59961 0.80078s0.29961 0.70078 0.59961 1.3008c0.2 0.7 0.60117 1.6984 1.2012 2.3984 0.35001 0.3 0.77464 0.55039 1.1992 0.80078s0.8492 0.50078 1.1992 0.80078c0.6 0.7 1 1.6984 1 2.3984 0 0.6-0.3992 1.0008-0.6992 1.3008s-0.6992 0.7-1.1992 1-1.1008 0.70078-1.3008 1.3008c-0.2 0.5 0.2 1.3992 0.5 2.1992 0.30002 0.8 0.69922 1.6996 1.1992 2.5996s1.1 1.9012 1.5 2.7012c0.3 0.9 0.3 1.4984 1 1.8984 0.6 0.3 2.0008 0.30156 2.8008 0.10156 0.8-0.1 1.1992-0.50078 1.6992-0.30078s1.1012 0.79922 1.7012 1.1992c0.6 0.3 1.0996 0.30078 1.5996 0.30078h4.3008c0.7-0.1 1.1992-0.19922 1.6992-0.19922 0.5-0.1 1.0004-0.20117 1.4004-0.20117 0.4 0.1 0.7996 0.20078 1.0996 0.80078s0.7 1.5996 0.5 2.5996c-0.039 0.19895-0.2204 0.27299-0.2988 0.45703 0 7e-3 -0.01 0.0102-0.012 0.0176l4.957 6.3789-0.1462 0.14648-5 6 6 2-2 4-3 1-4 1-1 2-2 6h-3l-6-2-2 2h-3l-3 2 2 4 5-1h1l3-1 3 4 3-2 2 3 4-1 3 3h3l1 2 4 2v1l2 2 5-2h5l1-3h3l1-5-2-2h-4l1-4h10l-2-6-2-1-3 2h-1l-3-2-1-5 3-6 4 1 2-1 3 2 2-2 3-1 1-5h5l2.6992-0.69922 3.3008 0.69922 2.1992-1.5996 3.7012-5.3691 2.0996-1.5312c-0.7-0.8-1.3-2.1992-1-2.6992s1.6996-0.1 2.5996 0c0.9 0.2 1.4004 0.19922 1.9004 0.19922h3.5c0.7 0 1.2992-7.8e-4 1.6992-0.30078 0.3-0.4 0.3016-0.99922 0.6016-1.6992 0.4-0.7 1-1.2992 1.5-1.6992 0.4-0.5 0.4984-0.60078 0.8984-0.80078 0.4-0.1 1.0016-0.19922 1.6016-0.19922 0.5-0.1 1.0992-0.20078 1.6992-0.30078 0.7-0.2 1.3-0.3 2-0.5 0.35-0.1 0.6754-0.17422 0.9629-0.19922s0.5363-3.7e-4 0.7363 0.0996c0.3 0.3 0.3008 0.90039 0.8008 1.4004s1.4992 0.89922 2.1992 1.1992c0.6 0.3 1.0008 0.7 1.3008 1s0.7008 0.69922 1.3008 0.69922c0.7 0 1.7-0.39961 2.5-0.59961 0.9-0.3 1.4992-0.39961 2.1992-0.59961s1.3008-0.30037 1.8008 0.0996c0.5 0.4 0.9 1.3996 0.5 2.0996-0.3 0.6-1.3 1-2 1.5-0.6 0.5-1.0008 1.1008-0.8008 1.8008s0.8 1.3 1.5 1.5 1.3-0.19922 2-0.69922 1.2992-1.1 2.1992-1.5c0.8-0.3 1.8-0.3 2.5-0.5 0.6-0.1 1-0.50156 1.5-0.60156 0.5-0.2 1.1008-0.19844 1.8008 0.10156 0.7 0.4 1.2992 0.99922 1.6992 1.6992l4.5586-3.8711-0.2578-0.12889-3-3 7-2 2 2 1-1 2-6h-5l-1-2-4-3-1.6152-1.6152-0.3848-0.38477v-2l-7-4-1 2-3 1-2-2h-4l-1-2-4-3-2 1h-2l-1-5 5-2 1 3h5v2l4 2 1-2 1-3 2-1h1l2-3 5 2 2-2-4-4 4-4-4-3-3 1-2-1-4 2-1-1-1-5 2-1 3 1 3-2 4 3 1-1 1-4-2-2h-3l-1-2-6-1v-1l-6-3-1 2-3 3-2-2-5 1-1-2v-3l-1-2zm-13.793 14.531c0.3333 8e-3 0.5868 0.2625 0.793 0.46875 0.3 0.3 0.7008 0.69922 0.8008 1.1992 0.2 0.5 0.1992 1.1008 0.1992 1.8008s8e-4 1.3-0.6992 1.5c-0.6 0.2-2.0008-0.19922-2.8008-0.69922s-1.2008-1.1-0.8008-2c0.3-0.8 1.3-1.8016 2-2.1016 0.1875-0.125 0.3563-0.17175 0.5078-0.16797zm13.106 9.043c0.2644-0.0124 0.4539 0.0547 0.4883 0.22656 0.2 0.5-0.8 1.9-1.5 2.5-0.6 0.7-1.0008 0.69922-1.3008 0.69922s-0.6992 0-0.6992-0.5 0.3992-1.4992 1.1992-2.1992c0.525-0.39375 1.3077-0.70291 1.8125-0.72656z" />
</svg>