<?xml version="1.0" encoding="UTF-8"?>
<svg width="1800" height="900" version="1.1" xmlns="http://www.w3.org/2000/svg">
  <MetaInfo xmlns="http://www.prognoz.ru">
    <Geo>
      <GeoItem X="0" Y="0" Latitude="90" Longitude="-180"/>
      <GeoItem X="1800" Y="900" Latitude="-90" Longitude="180"/>
    </Geo>
  </MetaInfo>
  <path d="m1239 190-7 1v2l-1 1v1h-1l-3 2-7-3-1 1v1l-2 4 7 2 1-2 3 2-2 3h-3l-1 2v1l-2 3 3 6-1 1-5-2-2 2-3 2-1-3-6 1-2.041-0.64844c0.091 0.15119 0.2123 0.30516 0.2383 0.44922 0.095 1.144-1.3882 2.0771-3.17 2.5977-1.0249 0.95838-2.0879 1.7214-3.2285 2.1016-0.9606 0.32019-1.9387 0.46182-2.7187 0.81836-0.4906 0.75298-1.0061 1.5315-1.4356 2.4883-0.1536 1.1676-0.2485 2.499-0.8457 3.6934-0.8 1.8-2.8008 3.2-4.3008 4-0.463 0.24692-0.7515 0.43763-1.0957 0.64062-0.3663 0.422-0.5856 0.84464-0.8711 1.2637 0.5497 1.958 1.8171 3.7859 2.2696 5.5957 0.2553 1.0205 0.2158 2.0342-0.035 2.8555-0.048 0.18132-0.184 0.34296-0.25 0.52148-0.098 0.19725-0.1868 0.39758-0.3144 0.55274-0.2901 0.60212-0.5171 1.22-1.002 1.7695-0.026 0.0273-0.056 0.0529-0.082 0.0801l0.8826 0.22068v3l6 2 1-3v-10l3 2 2-1h3.8672l1.6523 1.9609 0.4805-0.96094h4l3-3h2l2 3v3l1 1 4-1 2 4h4l1.1055 0.0469c-0.1596-0.33116-0.3387-0.67677-0.4063-0.94727 0-0.4 0.1004-0.80039 0.9004-0.90039 0.5977-0.17077 1.6674-0.21203 2.4766-0.33984 0.1339-0.0219 0.3069-0.0294 0.4238-0.0586 0.8-0.2 1.2-0.6 1.5-1 0.3-0.5 0.7008-0.90117 0.8008-1.2012 0.2-0.3 0.2-0.4 0-1-0.1-0.6-0.5-1.5988-0.5-2.2988-0.1-0.8-8e-4 -1.3008 0.1992-1.8008s0.2992-1.0004 0.1992-1.4004c-0.2-0.4-0.6992-0.79961-1.1992-1.0996s-0.9996-0.7-1.5996-0.5-1.2004 0.79922-1.9004 1.1992c-0.7 0.3-1.3008 0.3-1.8008 0.5-0.5 0.1-0.9 0.50078-1.5 0.80078-0.7 0.3-1.6984 0.69922-2.3984 0.69922-0.3342 0-0.6053-0.12095-0.8672-0.23047-0.1979-0.082-0.4219-0.16797-0.6328-0.16797-0.5 0-1.1016 0.39922-1.6016 0.19922s-0.9-0.79922-1.5-1.1992c-0.2816-0.1207-0.5582-0.17923-0.8847-0.24219-0.503-0.0987-1.0048-0.17357-1.3145-0.35937-0.4-0.4-0.2992-0.99922-0.1992-1.6992 0-0.7 0.099-1.3008 0.1992-1.8008 0.2-0.5 0.2992-0.89883 0.6992-1.2988 0.3-0.4 0.8008-0.90039 1.3008-1.4004s1.0008-1.0004 1.8008-1.4004c0.7-0.4 1.7-0.80039 2.5-0.90039 0.9-0.2 1.4984-0.19844 1.8984-0.39844 0.3-0.1 0.3016-0.5 1.1016-0.5 0.9 0 2.5 0.39844 3.5 0.39844 0.75 0 1.0539-0.18677 1.4238-0.29883 0.1611-0.055 0.3156-0.0996 0.4746-0.0996 0.5 0 1.1016 0.39844 1.6016 0.89844s0.8992 1.1016 1.1992 1.6016 0.7 0.89844 1 1.3984 0.7 1.1 1.5 1.5c0.342 0.12826 0.7451 0.19201 1.1973 0.25781 0.6221 0.0915 1.2504 0.1672 1.6035 0.34375 0.5 0.2 0.3992 0.69922 0.1992 1.1992s-0.3004 1.0008-0.4004 1.8008c-0.1 0.7-0.1 1.6984 0.4004 2.3984 0.5 0.6 1.4992 1 2.1992 1 0.6 0 1-0.4 1.5-0.5 0.6-0.2 1.3016-0.19922 2.1016-0.19922h1.8984c0.5 0 0.6012-7.8e-4 1.2012 0.19922 0.6 0.1 1.5988 0.50078 2.2988 0.80078 0.6 0.3 1.0008 0.69922 0.8008 1.1992s-0.7992 1.1008-0.6992 1.8008c0.084 0.29531 0.3602 0.5472 0.6543 0.76953 7e-4 5.7e-4 0 1e-3 0 2e-3 0.097 0.0737 0.1987 0.13859 0.3067 0.19922 0 1e-3 0.01 3e-3 0.01 4e-3 0.3326 0.17494 0.6931 0.32617 1.0293 0.32617 0.7 0 1.1992-0.60078 1.6992-1.3008 0.4637-0.64917 0.9148-1.1927 1.2988-1.6699 0.03-0.0374 0.072-0.0945 0.1016-0.13086 0.4-0.5 0.8004-0.89844 0.9004-1.3984 0.2-0.5 0.2-1.1008 0.5-1.8008 0.4-0.7 1-1.3 1.5-1.5s0.8996 0.19922 1.0996 0.69922c0.3 0.5 0.3996 1.1008 0.5996 1.8008 0.012 0.0424 0.012 0.0736 0.023 0.11523 0.1769 0.64663 0.283 1.2215 0.377 1.7852 0.01 0.0258 0 0.047 0.01 0.0723 0.081 0.43959 0.088 0.81623 0.088 1.2559 1e-4 0.0253 0.01 0.0464 0.01 0.0723v0.69898l3.9961-1 2 1-1 4 3 4h1l1 4 6 2-1 2 3 4 2.8223-1.8809-0.022 0.18164v0c0.8976-0.29855 1.4969-0.30078 1.9961-0.30078h1.5c0.6983 0 1.6915-3e-3 2.3907-0.30078 5e-4 -2.4e-4 0 2.3e-4 0 0 0.6-0.4 1.0016-0.99844 1.6016-1.3984v0c0.6998-0.29859 1.6961-0.30031 2.1953-0.5 0-4.8e-4 0-1e-3 0.01-2e-3 0.4902-0.0997 0.5012-0.49461 0.789-0.98438 0-5e-3 0-9e-3 0.01-0.0137 0.4-0.5 0.9992-1.1016 1.6992-1.1016v0c0 1e-5 0.01 4e-3 0.014 4e-3 0.2209 3e-3 0.4342 0.0665 0.6484 0.14649 0.4712 0.16974 0.9064 0.41769 1.5332 0.34961 8e-4 -8e-5 0 8e-5 0 0 0-5.1e-4 0-3e-3 0.01-4e-3 0.7952-0.20153 1.7836-1.1866 2.2852-1.8848 0-3e-3 0.01-7e-3 0.01-0.01 0-4e-3 0-8e-3 0.01-0.0117 0.4816-0.58483 0.4902-0.97913 0.4902-1.2754v-0.0137-1c0-0.3-8e-4 -0.7 0.1992-1 0.1-0.3 0.5008-0.7 0.8008-1l1-1c0.3-0.3 0.7008-0.70078 1.3008-0.80078v0c0.6993-0.19887 1.6938-0.19737 2.3926 0.30078 5e-4 4e-4 0-4e-4 0 0v0c0.01 5e-3 0.01 0.0149 0.016 0.0195 0.5676 0.48691 0.9649 1.4092 1.5235 2.0957 0.023 0.0278 0.039 0.0571 0.062 0.084 0.7 0.6 1.6984 1.0016 2.3984 1.1016 0.598 0.19931 0.996 0.19922 1.0977 0.19922 0.1956 0 0.1952-0.0291 0.1953-0.68359v-6.6172c0-0.7-8e-4 -0.69922 0.6992-0.69922h0.01c0.6014 0 1.9926 2e-3 2.9902 0.30078v0 0c0 2e-3 0 4e-3 0.01 6e-3 0.9848 0.39697 1.5784 0.98688 1.9766 1.4824 0 4e-3 0.012 8e-3 0.016 0.0117 0.011 0.0186 0 0.0188 0.012 0.0371 0.2671 0.46613 0.283 0.83337 0.2832 0.94336 0 2e-3 0.01 0.0176 0.01 0.0195 0 0.2-8e-4 0.19922 0.1992 0.69922 0.01 0.0449 0.041 0.1449 0.055 0.19727 0.1231 0.47519 0.3612 1.1698 0.4844 1.7754 0.016 0.0776 0.052 0.1544 0.062 0.22656 0 0.013-3e-4 0.0262 0 0.0391 0.1815 0.56278 0.1894 0.97093 0.1894 1.7148 0 0.0203 0.01 0.026 0.01 0.0469 0 0.8 8e-4 2.2 0.3008 3 0.4 0.8 1 1.2008 1.5 1.3008 0.4982 0.19845 0.8958 0.19896 1.3945 0.39844v0 2e-3c0.4945 0.10159 1.085 0.49641 1.5801 0.98828 0.01 5e-3 0.012 4e-3 0.018 0.01 0.5 0.5 0.9 1.1 1.5 1.5 0.6989 0.29953 1.6967 0.29859 2.4961 0 0-1e-3 0-3e-3 0.01-4e-3 0.8924-0.39815 1.4852-0.99325 1.6875-1.6875 8e-4 -3e-3 0-5e-3 0-8e-3 0-7e-3 1e-4 -0.0129 0-0.0195 0.1627-0.60262-0.098-1.1414-0.1718-1.7266-0.01-0.0845-0.029-0.16674-0.029-0.25391 0-0.43642 0.1509-0.82859 0.2676-1.1875 0.055-0.17381 0.1129-0.39576 0.121-0.55078 0-0.0201 0.01-0.0427 0.01-0.0625v-8e-3c0-0.49194-0.3979-0.88747-0.9864-1.3789 0-4e-3 -0.01-8e-3 -0.012-0.0117-0.7-0.5-1.6992-1.1-2.1992-1.5-0.5-0.3-0.5-0.30078-0.5-0.80078v-0.0586c-1e-4 -0.49569-0.011-1.3959-0.1875-2.0723-0.01-0.0208 0-0.048-0.01-0.0684 0-0.0167-0.011-0.0304-0.014-0.0469-0.052-0.26141-0.1564-0.48846-0.2676-0.71094-0.1322-0.26462-0.2675-0.52691-0.3203-0.84375-0.2-0.7-0.1992-1.6992-0.1992-2.1992v-0.0254c0-0.45084-0.01-0.49838-0.1875-0.94922 0-0.0122 0-0.0125-0.01-0.0254 0-0.0205-0.022-0.0618-0.027-0.084-0.1123-0.49268-0.4517-1.3525-0.7343-2.0176-0.013-0.03-0.027-0.0686-0.039-0.0977-0.3-0.6-0.7008-1-0.8008-1.5-0.024-0.0591-0.032-0.13336-0.051-0.19531-0.124-0.3984-0.2042-0.86002-0.3808-1.375-0.028-0.08-0.033-0.14766-0.068-0.23047-0.01-0.0148-0.021-0.0263-0.029-0.041-0.392-0.66572-0.9499-1.2369-1.3398-1.627-0.01-9e-3 -0.021-0.0228-0.029-0.0312-0.2957-0.29571-0.2993-0.3006-0.7969-0.10156-0.5 0.1-1.5 0.5-2 1-0.3319 0.33192-0.4803 0.77502-0.6641 1.1953-0.07 0.15498-0.1602 0.31576-0.2675 0.48242-0.03 0.0469-0.034 0.0752-0.068 0.12305 0 2e-3 -0.01 1e-3 -0.01 4e-3 -0.5002 0.69696-1.493 1.2926-2.1914 1.1953v0c-0.6-0.2-1-1.2-1-2v-0.043c0.014-0.86838 0.3817-1.4664 0-2.3418v-0.0137c0-5e-3 -0.01-0.0107-0.01-0.0156-0.3039-0.78849-1.2677-1.7579-1.7696-2.2598-0.01-6e-3 -0.017-0.0193-0.023-0.0254-0.5-0.5-0.5008-0.49922-0.8008-0.69922 0-7.8e-4 -0.01-3e-3 -0.012-4e-3 -0.3991-0.10422-0.988-0.49443-1.6797-0.4961 0-1e-5 -0.01 0-0.01 0-0.3498 7.5e-4 -0.675 0.0996-1 0.19922 0 9.7e-4 -0.01 9.8e-4 -0.01 2e-3 -0.3187 0.0977-0.6377 0.19344-0.9804 0.19532 0 1e-5 0 2e-3 -0.01 2e-3 -0.7 0-1.3008-0.39844-1.8008-0.89844-0.01-6e-3 -0.01-0.0119-0.016-0.0176-0.4888-0.49383-0.8867-1.0776-1.4746-1.2773 0-1e-3 0-5e-3 -0.01-6e-3 -0.7-0.1989-1.6977 0.20125-2.1973 0.80078-0.5 0.7-0.4992 1.6992-0.6992 2.1992-6e-4 3e-3 -0.01 1e-3 -0.01 4e-3 -0.101 0.49179-0.4963 0.4958-0.9902 0.6914v4e-3c-0.5 0.1-1.1008 0.50156-1.8008 1.1016-0.7 0.7-1.3008 1.6992-1.8008 2.1992-0.01 5e-3 0 8.8e-4 -0.01 6e-3 -0.4926 0.489-0.8846 0.49215-0.9883 0.49219-4e-4 0 0 2e-3 0 2e-3 -0.2 0-0.2-7.8e-4 -0.5 0.19922-8e-4 1.9e-4 0-2e-4 0 0 0 6.4e-4 -0.01 3e-3 -0.01 4e-3 -0.399 0.10294-0.9921 0.49425-1.8828 0.4961-0.4 0-0.8504-0.0996-1.3008-0.19922 0-8.6e-4 -0.01-1e-3 -0.012-2e-3 -0.4423-0.0978-0.884-0.19413-1.2774-0.19532 0-1e-5 -0.01-2e-3 -0.012-2e-3 -0.897 2e-3 -1.4953 0.39844-1.8945 0.39844-1e-3 0 0 0 0 0-0.3 0-0.3-0.39922-0.5-0.69922-9e-4 -2e-3 -0.01-5e-3 -0.01-8e-3 -0.1044-0.29798-0.4935-0.69035-0.9863-0.79102 0-5.5e-4 -0.01-1e-3 -0.01-2e-3 -0.5-0.2-1.1008-0.19844-1.8008-0.89844-0.7-0.6-1.2992-2.0016-1.6992-2.6016-0.3-0.7-0.3016-0.69922-0.6016-1.1992-0.014-0.0175-0.036-0.0536-0.051-0.0723-0.3841-0.49464-0.9379-1.3741-1.582-2.0449-0.024-0.025-0.042-0.0577-0.066-0.082 0-2e-3 -0.01-3e-3 -0.01-6e-3 -0.6942-0.59368-1.2912-0.99352-1.9863-0.99414 0-1e-5 0 0-0.01 0-0.6981 2e-3 -1.2962 0.40021-1.6953 0.5-0.3 0.2-0.3016 0.2-0.6016 0.5-0.4 0.4-1 0.99844-1.5 1.3984-0.011 6e-3 -0.019 6e-3 -0.029 0.0117-0.4781 0.27848-0.8695 0.29464-1.3476 0.48047-0.01 3e-3 -0.014 5e-3 -0.022 8e-3 -0.5 0.1-1.1016 0.50078-1.6016 0.80078-0.031 0.0187-0.044 0.0314-0.074 0.0508-0.4379 0.27694-0.7964 0.59806-1.0742 0.71484-0.013 5e-3 -0.038 0.0309-0.051 0.0352-8e-4 5.5e-4 0-5.4e-4 0 0-0.01 3e-3 -0.013 5e-3 -0.018 8e-3 -0.2932 0.18687-0.6844 0.19597-1.2578 0.38282-0.01 3e-3 -0.015 4e-3 -0.025 8e-3 -0.6998 0.10083-1.6961 0.50173-2.1953 0.60156l-1 0.39844c-9e-4 1.8e-4 0-1.8e-4 0 0-0.4991 0.0998-1.4952 0.50066-1.9961 0.60156 0 4.3e-4 -9e-4 -4.2e-4 0 0-4e-4 9e-5 0-9e-5 0 0-0.5 0.2-0.5008 0.19922-0.8008-0.30078-0.4-0.5-0.9992-1.4992-1.1992-2.1992-0.2-0.6 0.2008-1.0008 0.8008-1.3008 0.018-8e-3 0.044-0.0173 0.062-0.0254 0.6774-0.28902 1.584-0.6602 2.082-0.94922 0.014-8e-3 0.042-0.0175 0.055-0.0254 0-3e-3 0.01-7e-3 0.012-0.01 0.4728-0.29115 0.4967-0.67068 0.7715-0.96484 0.01-8e-3 0.01-0.0176 0.018-0.0254 0.4-0.3 1-0.70078 1.5-0.80078v0c0.4982-0.19845 0.8958-0.19896 1.3945-0.39844 0.01-1e-3 0.012-7e-3 0.018-8e-3 0.4907-0.1032 1.0707-0.48737 1.4668-0.7832 0-3e-3 0.011-7e-3 0.016-0.01 0.3-0.3 0.3-0.70078 0.5-0.80078 0.047-0.0933 0.1634-0.14356 0.3203-0.2207 0.1776-0.0943 0.3324-0.14807 0.6582-0.46094 0.01-7e-3 0.014-0.01 0.022-0.0176 0.5-0.5 1.1008-1.4992 1.8008-2.1992 0.019-0.0164 0.034-0.0268 0.053-0.043 0.656-0.55641 1.2177-0.95022 1.6055-1.418 0.011-0.0137 0.03-0.0252 0.041-0.0391 0.3-0.5 0.3016-1.1016 0.6016-1.6016 0.4-0.5 1-0.9 1.5-1v0c0.012-5e-3 0.022-7e-3 0.033-0.0117 0.4697-0.18133 0.8644-0.20503 1.4219-0.47266 0.015-7e-3 0.025-8e-3 0.041-0.0156 0.7-0.4 1.7-0.99844 2.5-1.3984v0c0.023-7e-3 0.036-8e-3 0.059-0.0156 0.8372-0.26941 1.424-0.30091 2.082-0.57032 0.019-8e-3 0.036-8e-3 0.055-0.0156 0.012-7e-3 0.021-0.0165 0.033-0.0234 0.6728-0.39278 1.2477-0.95878 1.6406-1.3516 0.01-7e-3 0.019-0.0166 0.025-0.0234v-4e-3c0.2927-0.29276 0.2899-0.30591 0-0.78907v-8e-3c-0.4-0.5-1-1.4992-1.5-2.1992-0.5-0.6-0.8992-1.0008-1.1992-1.8008s-0.6992-2.2008-0.6992-2.8008c0-0.7 0.3992-0.69922 0.6992-1.1992 0.01-9e-3 0.012-0.0292 0.018-0.0391 0.2919-0.49774 0.6637-1.4305 0.7715-2.1152 0-0.0135 0.01-0.0316 0.012-0.0449 0-0.01 0-0.0175 0.01-0.0273 0.09-0.27673 0.134-0.51219 0.082-0.71289 0-0.0103 0-0.0212-0.01-0.0312-0.064-0.20528-0.2353-0.37524-0.5703-0.52149-0.01-2e-3 -0.01-6e-3 -0.012-8e-3 0-2e-3 -0.012-4e-3 -0.016-6e-3 -0.6038-0.29781-1.9713-0.68931-2.7675-0.79102 0-4.8e-4 -0.01-3e-3 -0.014-4e-3v0c-0.7958-0.19844-1.1969-0.19948-1.4961 0-0.3 0.1-0.6992 0.50078-1.1992 0.80078-0.01 5e-3 -0.018 7e-3 -0.025 0.0117-0.4894 0.29461-1.0692 0.67621-1.5586 0.78125-0.01 1e-3 -0.012 7e-3 -0.018 8e-3v0 2e-3c-0.4961 0.19752-0.8957 0.19727-1.4902 0.19727h-3.3945c-0.2991 0-0.7988 1e-3 -1.3223 0.0879-0.5252 0.0873-1.0746 0.26133-1.4746 0.61133-0.8 0.6-1.2 2.0008-1.5 2.8008-0.01 0.0253-0.016 0.0165-0.025 0.041-0.2904 0.74634-0.6551 1.1334-0.7637 1.2422 0 1e-3 -0.01 0.0162-0.012 0.0176-0.2 0.2-0.2 0.19844-0.5 0.39844-0.01 2e-3 -0.022 8e-3 -0.029 0.01-0.3974 0.1076-0.9794 0.48672-1.6621 0.5879 0 4.2e-4 0 3e-3 -0.01 4e-3v0c-0.7 0.2-1.3 0.19922-2-0.30078s-1.3008-1.5-1.8008-2c0-3e-3 -0.01-4e-3 -0.01-8e-3 -0.4864-0.47764-0.8764-0.4925-1.1718-0.6836-0.01-3e-3 -0.013-4e-3 -0.018-8e-3 0-1e-3 -0.01-7e-3 -0.012-8e-3 -0.2976-0.10611-0.6888-0.48761-1.1797-0.49024 0-2e-5 0-2e-3 -0.01-2e-3 -0.1846 6.1e-4 -0.4521 0.0798-0.6641 0.14844-0.3425 0.1132-0.7153 0.24577-1.1269 0.24805 0 1e-5 0 2e-3 -0.01 2e-3 -0.7 0-1.3008-0.4-1.8008-0.5 0-8.6e-4 0-1e-3 -0.01-2e-3 -0.4954-0.19431-0.8922-0.19605-1.3878-0.19605-0.4991 0-1.0986-3.9e-4 -1.7969-0.19922v0c-0.7-0.1-1.3008-0.50156-1.8008-1.1016-0.5-0.7-0.9-1.6992-1-2.1992-0.2-0.5-0.2-0.5-0.5-1 0-4e-3 -0.01-0.01-0.012-0.0137-0.3987-0.50223-0.9888-1.4802-1.877-1.7812 0-1e-3 -0.01-5e-3 -0.01-6e-3 -6e-4 -3e-4 0 2.9e-4 0 0-0.5802-0.2872-1.2471-0.1617-1.8847-0.14453-0.2467 8e-3 -0.487 7.6e-4 -0.711-0.0547v0c-0.9-0.2-1.4992-0.79922-2.1992-1.1992-0.023-0.01-0.042-0.0102-0.065-0.0195-0.6466-0.25951-1.2094-0.29017-1.6816-0.4668-0.016-6e-3 -0.035-8e-3 -0.051-0.0137v0c-0.5-0.1-0.8984-0.50078-0.8984-1.3008s0.4-2.2008 0.5-2.8008c0.2-0.7 0.2-0.69922 0.5-1.1992 0.01-9e-3 0.016-0.0263 0.023-0.0352 0.3925-0.49836 0.9514-1.4386 1.1582-2.125 0-0.0118 0.014-0.0274 0.018-0.0391v-0.0234c0.099-0.32317-0.022-0.59801-0.1074-0.87109 0-6e-3 0-0.0131-0.01-0.0195z" />
</svg>