<?xml version="1.0" encoding="UTF-8"?>
<svg id="svg1" width="1800" height="900" version="1.1" xmlns="http://www.w3.org/2000/svg">
 <MetaInfo xmlns="http://www.prognoz.ru">
  <Geo>
   <GeoItem X="0" Y="0" Latitude="90" Longitude="-180"/>
   <GeoItem X="1800" Y="900" Latitude="-90" Longitude="180"/>
  </Geo>
 </MetaInfo>
 <path d="m782 232c-1.0709 1.9996-1.0718 3.9992-3.8e-4 5.9989-1.1393 2.1121-1.8486 3.1465-3.6279 2.3153-2.1072 1.3561-4.374 2.0359-6.884 1.6858-3.6076-0.77075-7.0092 2.4469-7.4877 5.8512 0.74009 3.9859-1.5595 7.1669-2.8882 10.649 5.3569 1.3467 2.4857 8.2227-2.3109 5.3008-4.7368-2.7033-7.9794 4.7292-12.339-0.36327-2.288-1.7226-9.6137-10.543-9.7418-3.6086 5.1634 2.9537 3.095 10.875 8.9789 12.171 4.8837-1.801 8.2395 4.7626 3.8598 7.441-2.0835 3.3856-5.3754 5.2384-9.3598 4.559-4.1148-1.3366-5.3169-7.6426-10.708-6-4.6127 0.12287-7.375-7.2745-12.491-3.8008-1.4062 3.9063-14.196 2.0205-8.4621 7.2516 2.8445 3.1938 9.8086-3.5897 9.7629 2.0492-4.028 3.71-7.7279 7.46-11.475 11.46-6.1568 3.4194-7.6154-5.5337-13.326-5.1594-6.8445-2.1315 0.28643 4.0723 2.1992 5.6992 5.3098 2.5887 2.6936 13.978-4.1859 10.587-5.2221 2.9536-3.8591 10.632-5.7125 15.413-4.4473 1.8172-6.8465 6.5402-9.7137 10.038 3.6539 4.1896 4.5264 10.011 8.2137 14.161 5.475 0.78041-2.5325-8.1902 3.6613-8.2618 2.2661-5.9672-8.1957-0.28273-4.9488-5.9621 1.7507-3.8684 7.3535 0.22577 8.564-5.201 5.5743-1.6675 7.6968-7.9731 11.947-10.774 5.6272-1.5986 6.4214-7.828 9.4754-12.301 6.4219-5.1107 5.8601 8.0988 7.5 8.6015 2.1408-0.58753 4.3454-2.7103 6.3849-0.85835 2.3031-0.8988 4.8138-1.1246 7.3299-0.94245 1.9395 0.14591 0.91311 4.1092 3.7845 3.6664 1.9463 0.43903 4.2505 2.3944 5.4909-0.15655 2.356 0.10757 1.3719-3.8564 3.553-3.3608 1.8452 5e-3 4.7009 1.1745 5.9569 0.49976-0.58504-2.5088 2.6118-3.1266 4-4.6488 1.5021 1.5592 2.6264 3.9043 4.3512 5 2.4758 0.37213 2.2007 3.8261 3.2037 5.6649 0.40969 2.4635 5.3966 1.9675 4.5454-1.0266 1.9214-3.9595 10.947-4.2664 6.7004-9.8375 0.13627-5.7329 6.316-1.3909 9.5711 0.18372 4.2724-1.046 11.6 2.4783 12.94 2.4719 0.64994-5.4025-4.7387-5.8708-6.1585-9.9132 4.2615-3.3302 9.4718-7.819 9.5559-14.043 1.8727-5.3349 4.1405-11.498 2.2909-16.801-3.7802-3.3084 0.72867-4.4688 2.2221-4.9133 0.92731-1.1312 4.9866 0.23669 3.0132-2.8026-0.20355-2.9843-1.0528-3.192-3.3924-3.2974-0.94764-1.8953-1.8953-3.7906-2.8429-5.6858 3.2435-0.49322 1.6038-2.6562 0.58047-4.6084-1.168-1.6423-1.767-2.8437-4.1484-2.3916-2.2018 0.0887-4.5528-0.45486-6.432 1-1.5706-1.3562-1.8161-3.7128-4.199-4.0995-2.8917-0.37673-1.2754-3.3711-2.0117-5.1814-1.4501-1.3697-2.0617-4.4168-4.5454-3.7188z"/>
</svg>
