<?xml version="1.0" encoding="UTF-8"?>
<svg width="1800" height="900" version="1.1" xmlns="http://www.w3.org/2000/svg">
  <MetaInfo xmlns="http://www.prognoz.ru">
    <Geo>
      <GeoItem X="0" Y="0" Latitude="90" Longitude="-180"/>
      <GeoItem X="1800" Y="900" Latitude="-90" Longitude="180"/>
    </Geo>
  </MetaInfo>
  <path d="m775.64 231.75c-0.0585 0.31924-0.16658 0.65299-0.29883 0.98242 0.1345-0.33082 0.24015-0.66236 0.29883-0.98242zm6.3613 0.25195-1 3 1 3-2 3-1-1-4 2h-6l-0.64062 0.0293c-0.15227 0.11808-0.37772 0.23533-0.66016 0.4707-0.7 0.5-1.6984 1.5008-2.3984 2.3008-0.6 0.9-1.0016 1.4984-1.1016 1.8984-0.2 0.3-0.19922 0.30078-0.19922 0.80078v3.6992c0 0.5-7.8e-4 1.1-0.30078 2-0.4 0.8-0.99844 1.8008-1.3984 2.3008-0.3 0.5-0.3 0.50078-0.5 0.80078-0.1 0.4-0.50156 1-0.60156 1.5-0.2 0.5-0.2 0.89844 0.5 1.3984 0.6 0.5 2 1.1016 2.5 1.6016s0.10078 0.9-0.19922 1.5c-0.3 0.7-0.69922 1.7-1.1992 2-0.5 0.4-1.1016-2e-3 -1.6016-0.10156-0.5-0.2-0.89922-0.19922-1.1992-0.19922s-0.69922 7.8e-4 -1.1992-0.19922c-0.5-0.1-1.1008-0.50156-1.8008-0.60156-0.7-0.2-1.3-0.2-2 0-0.7 0.1-1.3008 0.50078-1.8008 0.80078s-0.89922 0.7-1.1992 1-0.70078 0.7-1.3008 0.5c-0.7-0.2-1.6992-0.79922-2.1992-1.1992-0.5-0.3-0.5-0.3-1-0.5-0.5-0.1-1.5008-0.50156-2.3008-1.1016-0.9-0.7-1.4984-1.6992-1.8984-2.1992-0.3-0.5-0.3-0.5-1-1-0.6-0.5-2.0008-1.5-2.8008-2s-1.2-0.5-1.5-0.5-0.7 7.8e-4 -1 0.30078c-0.3 0.4-0.7 0.99844-0.5 1.8984 0.2 0.8 0.8 1.8 1.5 2.5 0.7 0.6 1.3008 1.0016 1.8008 1.6016 0.5 0.7 0.9 1.6992 1 2.1992 0.2 0.5 0.19844 0.49922 0.39844 0.69922 0.1 0.1 0.5 0.5 0.5 1s-0.4 1.1 0 2c0.3 0.8 1.3016 1.8008 2.1016 2.3008 0.9 0.5 1.4984 0.5 1.8984 0.5h1c0.6 0 2.0008-7.8e-4 2.8008 0.19922 0.8 0.1 1.2 0.50078 1.5 1.3008s0.69922 2.2 0.69922 3-0.39844 1.1992-0.89844 1.6992l-1.6016 1.6016c-0.5 0.5-0.89844 0.9-1.3984 1.5-0.5 0.7-1.1016 1.6992-2.1016 2.1992s-2.4 0.5-3 0.5h-2.5c-0.5 0-0.89922 7.8e-4 -1.1992-0.19922-0.3-0.1-0.69922-0.5-1.1992-1s-1.1016-1.1-1.6016-2c-0.5-0.8-0.9-1.8008-1.5-2.3008-0.7-0.5-1.6984-0.5-2.3984-0.5h-4.3008l-0.5-0.30078c-0.5-0.4-1.4992-1-2.1992-1.5-0.6-0.5-1-0.89922-1.5-1.1992s-1.1016-0.7-1.6016-1-0.9-0.69922-1.5-0.69922c-0.7 0-1.6984 0.4-2.3984 0.5-0.6 0.2-1.0008 0.19844-1.3008 0.39844-0.3 0.1-0.69922 0.5-1.1992 1s-1.1 1.1-2 1.5c-0.8 0.3-1.8 0.30078-2.5 0.30078-0.6 0-1.0008 7.8e-4 -1.8008 0.30078-0.8 0.4-2.1992 1-2.6992 1.5s-0.1 0.9 0.5 1.5c0.7 0.7 1.6992 1.7 2.6992 2 1 0.4 1.9992-2e-3 2.6992-0.10156 0.6-0.2 1-0.2 1.5-0.5 0.5-0.4 1.1-0.99844 2-0.89844 0.8 0.2 1.8008 1.1992 2.3008 1.6992s0.50078 0.5-0.19922 1c-0.6 0.5-2.0016 1.4992-2.6016 2.1992-0.7 0.6-0.7 1-1 1.5-0.4 0.5-1 1.1-1.5 1.5-0.5 0.3-0.9 0.3-1 0.5-0.2 0.1-0.19922 0.5-0.69922 1s-1.5 1.1016-2 1.6016-0.5 0.9-1 1.5c-0.5 0.7-1.5008 1.7-2.3008 2-0.9 0.4-1.4992 0-2.1992 0s-1.2992 0.4-2.1992 0c-0.8-0.3-1.8008-1.3-2.3008-2-0.5-0.6-0.49922-1.0008-0.69922-1.3008-0.1-0.3-0.50156-0.7-1.1016-1-0.7-0.3-1.6984-0.70078-2.3984-0.80078-0.6-0.2-1.0008-0.19844-1.8008-0.39844-0.8-0.1-2.2008-0.5-2.8008-0.5-0.7 0-0.69922 0.4-0.19922 1 0.5 0.7 1.5 1.6992 2 2.1992l1 1c0.5 0.5 1.4992 1.5 2.1992 2 0.6 0.5 1 0.5 1.5 1s1.1008 1.5008 1.3008 2.3008c0.2 0.9-0.20078 1.4992-0.30078 2.1992-0.2 0.7-0.19922 1.3008-0.19922 1.8008v1.1992c0 0.3 0 0.69922-0.5 1.1992s-1.5008 1.1008-2.3008 1.3008c-0.9 0.2-1.4984-0.20078-2.3984-0.30078-0.8-0.2-1.8-0.19922-2.5 0.30078-0.6 0.5-1.0008 1.4992-1.3008 2.1992-0.3 0.6-0.70078 1.0016-0.80078 1.1016-0.2 0.2-0.19922 0.19922-0.19922 0.69922s7.8e-4 1.5008-0.19922 2.3008c-0.1 0.9-0.50156 1.5-0.60156 2-0.2 0.5-0.19844 0.89844-0.39844 1.3984-0.1 0.5-0.5 1.1016-0.5 1.6016s0.39844 0.9 0.39844 1.5c0 0.7-0.39844 1.6992-0.89844 2.1992s-1.1008 0.50078-1.8008 0.80078c-0.7 0.4-1.2992 0.99844-1.6992 1.3984l-0.5 0.5c-0.1 0.1-0.50078 0.5-0.80078 1s-0.69922 1.1008-1.1992 1.8008-1.1016 1.3008-1.6016 1.8008l-1.1992 1.1992c-0.3 0.3-0.70078 0.7-0.80078 1-0.2 0.3-0.19922 0.70078 0.30078 1.3008 0.5 0.7 1.5 1.7 2 2.5 0.5 0.9 0.49922 1.5 0.69922 2 0.1 0.5 0.50078 0.89844 0.80078 1.3984s0.70078 1.1 0.80078 1.5c0.2 0.3 0.19922 0.3 0.19922 0.5 0 0.1 7.8e-4 0.50156 0.30078 1.1016 0.4 0.7 0.99844 1.6992 1.3984 2.1992 0.3 0.5 0.3 0.50078 0.5 0.80078 0.1 0.4 0.50156 0.99844 1.1016 1.3984 0.7 0.3 1.7 0.30078 2-0.19922 0.4-0.5-2e-3 -1.5-0.10156-2-0.2-0.5-0.19844-0.49922-0.39844-1.1992-0.1-0.6-0.5-2.0008-0.5-2.8008s0.39844-1.2008 0.89844-1.3008c0.5-0.2 1.1-0.19844 1.5-0.39844 0.3-0.1 0.30078-0.50156 0.30078-1.1016 0-0.7-7.8e-4 -1.6992-0.30078-2.1992-0.4-0.5-0.99922-0.50078-1.6992-0.30078-0.7 0.1-1.2992 0.50156-1.6992 0.60156-0.3 0.2-0.30156 0.19844-0.60156-0.10156l-1.3984-1.3984c-0.3-0.3-0.3-0.30078 0-0.80078 0.4-0.5 1-1.4992 1.5-2.1992 0.5-0.6 0.89922-1 1.1992-1s0.70078 0.4 1.3008 0.5c0.7 0.2 1.6992 0.2 2.1992 0 0.5-0.1 0.49922-0.50156 0.69922-0.60156 0.1-0.2 0.5-0.19844 1-0.89844 0.5-0.6 1.1-2.0016 2-2.6016 0.8-0.7 1.8016-0.7 2.6016-1 0.9-0.4 1.4984-1 1.8984-1.5 0.3-0.5 0.30156-0.89922 0.60156-1.1992 0.4-0.3 0.99844-0.69922 1.3984-1.1992 0.3-0.5 0.30078-1.1016 0.80078-1.6016s1.5-0.9 2-1.5c0.5-0.7 0.5-1.7 1-2 0.5-0.4 1.4992 2e-3 2.1992-0.39844 0.6-0.3 1.0016-1.3008 1.6016-1.8008 0.7-0.5 1.6992-0.49922 2.1992-1.1992 0.5-0.6 0.49922-2.0016 0.69922-2.6016 0.1-0.7 0.5-0.69844 1-1.3984 0.5-0.6 1.1-2.0016 1.5-2.6016 0.3-0.7 0.3-0.7 0.5-1 0.1-0.4 0.50078-1 0.80078-1.5s0.70078-0.9 1.3008-1c0.7-0.2 1.6984-0.19844 2.3984 0.10156 0.6 0.4 1.0008 0.99922 1.3008 1.6992s0.7 1.3 1 2 0.69922 1.2992 0.69922 2.1992c0 0.8-0.39844 1.8-0.39844 2.5 0 0.6 0.39922 1 0.69922 1.5-0.0191-0.0319-0.0251-0.0645-0.0449-0.0957l0.0762-0.041-0.0313-0.06252 0.5-0.19922 4.5-1.8008 2 1 3-1h5l1 3 6 2 2-2h1l1-3 7 1v-2l4-3 4 5h1l1 1 2 6h3l0.2168 1.0801c-6e-3 0.059-8e-3 0.12215-0.0137 0.18164 0.0314-0.3224 0.0517-0.65473 0.0977-0.96094 0.4-2 0.99922-3.6 2.1992-4.5 0.57669-0.38446 1.2543-0.57701 1.9824-0.76953 0.33369-0.4205 0.61608-0.90927 1.0176-1.2305 1.5-1.1 3.4992-1.5008 3.6992-2.3008 0.1-0.8-1.4984-2.1992-1.3984-3.6992 0.079-0.59228 0.48317-1.1748 0.99414-1.6875-0.24745-0.45501-0.59164-1.0158-0.49414-1.1133 0.13949-0.10462 0.7684 0.20594 1.3242 0.45312 0.6531-0.40638 1.3773-0.69334 2.0742-0.65234 1.487 0.18587 2.828 1.8973 4.4512 3.1055 0.80308 0.0837 1.6046 0.0937 2.5488 0.0937 2 0 4.6008 0 6.8008 1 0.0675 0.0306 0.11133 0.0866 0.17773 0.11914l2e-3 2e-3h2e-3c0.73974-0.0692 1.4466-0.0893 2.1191 0.17969 1.2304 0.57417 2.2149 1.7799 2.6484 2.1719-0.0872-1.3132-0.61228-2.8241-0.94922-4.1719-0.21203-0.84813-0.32997-1.5805-0.47656-2.2695-1.1729-0.54861-2.4241-1.0381-3.3242-1.7305-1.4-1-1.9992-2.6016-1.1992-3.6016 0.49634-0.62043 1.6922-0.99463 3.0859-1.3203 1.1373-1.1885 1.7509-2.7246 3.1133-4.3789 0.67486-0.88251 1.4936-1.7391 2.3359-2.5957 0.029-1.4914 0.10736-2.9182 0.46484-4.2051 0.5-1.9 1.5-3.4992 2-5.1992 0.43974-1.4951 0.51204-2.9423 0.72266-4.5547l-0.22277-0.44531 0.36328-0.48633c0.39604-1.7245 0.92115-3.5915 0.63672-5.0137-0.0906-0.4531-0.32614-0.8044-0.5293-1.1856-0.16449-0.20561-0.30239-0.39643-0.4707-0.61523-1-1.4-2-2.9984-1-3.8984 0.5948-0.47586 1.8679-0.5432 3.2324-0.3125l-0.0156-1.0684 3.5234-0.39062-1.3398-5.4297-0.40041 0.40039h-2l-3-6 2.2559-1.127-2.0566-4.2734-0.3086-0.37695-0.89062-0.22266v-0.86523l-0.10938-0.13477h-6.8906l-2 1-1-1-1-2-4-2v-4l-3-4zm-6.7227 0.87695c-0.1379 0.32-0.29703 0.63658-0.47656 0.92383 0.17969-0.28749 0.33689-0.60298 0.47656-0.92383zm-0.47656 0.92383c-0.25 0.45-0.52539 0.82461-0.80078 1.1367 0.27539-0.31211 0.55078-0.68672 0.80078-1.1367zm-3.1016 1.8984c0.3 0.15 0.54961 0.22461 0.78711 0.22461-0.2375 0-0.48711-0.0746-0.78711-0.22461zm-3.7988 4.7754c0.3002 0.3998 0.49961 0.77539 0.59961 1.0254-0.1-0.25-0.29941-0.62559-0.59961-1.0254zm0.63281 1.3359c-3e-3 0.0103-0.0153 0.0175-0.0195 0.0273 4e-3 -0.01 0.0163-0.0171 0.0195-0.0273zm46.814 14.469c1.0151 1.0107 2.1205 2.3522 3.3633 3.4785-1.245-1.1283-2.342-2.4742-3.3633-3.4785zm-5.2441 24.348c-0.61973 0.55488-1.1786 1.1089-1.6152 1.6543-0.0722 0.57275-0.1875 1.1387-0.1875 1.7188 0 0.30286 0.0216 0.60405 0.0371 0.90625zm-41.992 39.775c-0.0191 0.34921-0.0251 0.70396-0.0312 1.0586 4e-3 -0.35553 0.0143-0.70882 0.0312-1.0586zm-44.137 0.58399c0.5748 0.0625 1.1254 0.11289 1.5254 0.21289-0.4-0.1-0.95059-0.15039-1.5254-0.21289zm6.3262 2.3144c0.2 0.2 0.44961 0.44902 0.69922 0.79883-0.24961-0.34981-0.49922-0.59883-0.69922-0.79883zm-5.6016 9.5c-0.35 0.25-0.77402 0.47402-1.1738 0.67383 0.39981-0.19981 0.82383-0.42383 1.1738-0.67383zm-2.8984 3.5c-0.05 0.35-0.17539 0.77461-0.30078 1.1992 0.12539-0.42461 0.25078-0.84922 0.30078-1.1992zm13.5 4.3984c0.0207 0.0311 0.0408 0.0996 0.0625 0.13476l0.0117-4e-3c-0.0239-0.0389-0.0515-0.0968-0.0742-0.13086z" />
</svg>