<?xml version="1.0" encoding="UTF-8"?>
<svg width="1800" height="900" version="1.1" xmlns="http://www.w3.org/2000/svg">
  <MetaInfo xmlns="http://www.prognoz.ru">
    <Geo>
      <GeoItem X="0" Y="0" Latitude="90" Longitude="-180"/>
      <GeoItem X="1800" Y="900" Latitude="-90" Longitude="180"/>
    </Geo>
  </MetaInfo>
  <path d="m766.39 409.04-15.775 4.7324c0.10633 0.16958 0.30022 0.37201 0.38281 0.52539 0.7 1.4 0.30078 1.9984-0.19922 3.3984-0.27946 0.72661-0.47192 1.9211-0.72656 2.9629 0.37513 0.7863 0.78146 1.6231 0.92578 2.5371 0.3 1.8-0.3 3.8 0 6 0.10674 0.74716 0.39055 1.483 0.64062 2.207 0.53793 1.0898 0.97642 2.0907 0.85938 2.793-0.2 1.0996-1.8008 1.5016-3.8008 1.1016-2-0.3-4.3992-1.3008-5.1992-0.80078s-0.2 2.5008 0 4.3008c0.2 1.9-0.20078 3.4992-0.80078 5.1992-0.25037 0.60804-0.71456 1.2586-1.0371 1.8594-0.44331 0.97777-1.052 2.0584-1.8613 3.3398-1.1 1.8-2.5 3.8016-4 5.6016-1.5 1.9-3.1008 3.4984-4.3008 5.3984-0.97508 1.4626-1.45 3.0661-1.6328 4.6856v2e-3c0.22042 0.36498 0.37439 0.74655 0.62109 1.1016 0.5125 0.7375 1.0109 1.4609 1.2109 2.2109 0.085 0.42486 0.0462 0.8533-0.0547 1.2715 0.21343 0.21641 4e-3 0.62451-0.32812 1.0957-0.14168 0.33966-0.39395 0.77396-0.58594 1.1445 0.0244 0.0963 0.0462 0.19276 0.0703 0.28906 0.5 2 0.89922 3.9992 0.19922 6.1992-0.65533 1.966-2.0312 4.1938-2.541 6.3574-3e-3 0.0403 0.049 0.10348 0.041 0.14258-0.0126 0.0628-0.12328 0.0908-0.14648 0.15039-0.01 0.0498-0.0437 0.10069-0.0527 0.15039-0.3 2.3 0.69844 4.7 0.39844 5-0.4 0.3-2-1.3008-4-2.8008-0.36937-0.27703-0.73439-0.52403-1.1172-0.79297-0.72517-0.11836-1.3855-0.36061-1.9551-0.72266l-5.1328 3.7129c0.42682 0.20111 0.85325 0.45274 1.2051 0.60352 0.6 0.3 1 0.70078 1 1.3008 0 0.7-0.4 1.6992-0.5 2.1992-0.2 0.5-0.19922 0.49922-0.19922 1.1992v3.8008c0 0.5 0 1.5008-0.5 2.3008-0.5 0.9-1.4992 1.5-2.1992 2-0.6 0.5-1.0016 0.9-1.1016 1-0.2 0.2-0.19844 0.2-0.39844 0.5-0.1 0.4-0.50078 0.99844-0.30078 1.8984 0.2 0.8 0.79922 1.8 1.6992 2 0.8 0.1 1.8-0.5 2.5-1 0.6-0.5 1.0008-0.89922 1.3008-1.1992s0.7-0.70078 1-0.80078c0.3-0.2 0.69922-0.19922 1.1992 0.30078s1.1 1.5008 1.5 2.3008c0.3 0.9 0.30156 1.5 0.60156 2 0.4 0.5 1 0.89844 1.5 1.3984s0.89922 1.1 1.1992 1.5c0.3 0.3 0.70078 0.3 1.3008 1 0.7 0.6 1.6992 2.0008 2.1992 2.8008s0.5 1.1992 0.5 1.6992v3.1016c0 0.7 0 1.6992-0.5 2.1992s-1.5 0.5-2 0.5h-3.8008c-0.4 0-0.99922 7.8e-4 -1.6992 0.30078-0.7 0.4-1.2992 0.99922-1.6992 1.6992-0.3 0.7-0.30156 1.2992-0.10156 1.6992 0.1 0.3 0.50078 0.3 1.3008 0.5 0.8 0.1 2.2008 0.50156 2.8008 0.60156 0.7 0.2 0.69922 0.2 1.1992 0 0.5-0.1 1.5-0.5 2-0.5s0.50078 0.39922 0.80078 1.1992c0.4 0.8 0.99844 2.2008 1.3984 2.8008 0.3 0.7 0.30078 0.69844 0.30078 0.89844 0 0.1 7.8e-4 0.5 0.30078 1 0.4 0.5 0.99922 1.1008 1.6992 1.3008s1.2992-0.2 2.1992 0c0.8 0.2 1.8008 0.80078 2.3008 1.3008s0.5 0.9 0.5 1v6c0 0.5-7.8e-4 0.89844 0.19922 1.3984 0.1 0.5 0.50156 1.1 1.1016 1.5 0.7 0.3 1.6984 0.30156 2.3984 0.10156 0.6-0.1 1-0.50156 1.5-0.60156 0.5-0.2 1.1008-0.19844 1.8008-0.39844 0.7-0.1 1.2992-0.50156 1.6992-0.60156 0.3-0.2 0.30156-0.19922 0.60156-0.69922 0.4-0.5 0.99844-1.5 1.3984-2 0.3-0.5 0.30078-0.5 0.80078-1s1.4992-1.5008 1.6992-2.3008c0.1-0.9-0.49844-1.4992-0.89844-2.1992-0.3-0.7-0.3-1.3-0.5-2-0.1-0.7-0.50156-1.2992-0.60156-2.1992-0.2-0.8001-0.19922-1.8008-0.19922-2.3008s-7.8e-4 -0.50078 0.19922-0.80078c0.1-0.4 0.50078-1 0.80078-1.5s0.7-0.89844 1-1.3984 0.7-1.1 0.5-2c-0.2-0.8-0.79922-1.8-1.1992-2.5-0.3-0.6-0.3-1-0.5-1.5-0.1-0.5-0.50078-1.1-0.80078-1.5-0.3-0.3-0.70078-0.30156-1.3008-0.60156-0.7-0.4-1.7-1-2.5-1-0.9 0-1.4984 0.6-1.8984 1-0.3 0.3-0.30156 0.30156-0.60156 0.10156-0.4-0.1-0.99922-0.50156-1.6992-1.1016-0.7-0.7-1.2992-1.6992-1.6992-2.1992-0.3-0.5-0.3-0.5-0.5-0.5-0.1 0-0.5 0-0.5-0.5s0.39844-1.5008 0.39844-2.3008c0-0.9-0.4-1.4992-0.5-2.1992-0.2-0.7-0.19922-1.3008 0.30078-1.8008s1.5-0.89844 2-1.3984 0.49922-1.1016 1.1992-1.6016c0.6-0.5 2-0.89922 3-0.69922s1.6016 0.79922 2.1016 1.1992c0.5 0.3 0.89922 0.3 1.1992 0.5 0.3 0.1 0.7 0.50156 1 0.60156 0.3 0.2 0.70078 0.19922 1.3008 0.69922 0.7 0.5 1.7 1.4992 2.5 1.6992 0.9 0.1 1.4984-0.49844 1.8984-0.89844 0.3-0.3 0.30078-0.30156 0.80078-0.60156 0.5-0.4 1.5-0.99844 2-1.3984 0.5-0.3 0.5-0.3 1-1 0.5-0.6 1.5008-2 2.3008-2.5 0.9-0.5 1.4984-0.1 1.8984 0 0.3 0.2 0.30078 0.19922 0.80078 0.19922h6.1992c0.6 0 1.0008 7.8e-4 1.3008 0.30078 0.3 0.4 0.70078 0.99922 0.80078 1.6992 0.2 0.7 0.2 1.3 0.5 2 0.4 0.7 0.99844 1.3 1.3984 2 0.3 0.7 0.30156 1.2992 0.60156 2.1992 0.4 0.8 0.99922 1.8008 1.6992 2.3008s1.3 0.5 2 0 1.3-1.5008 1.5-2.3008c0.2-0.9-0.2-1.4992 0-2.1992s0.79922-1.2992 1.6992-1.6992c0.8-0.3 1.8016-0.3 2.6016 0 0.9 0.4 1.5 0.99844 2 1.3984 0.5 0.3 0.89844 0.3 1.3984 1 0.5 0.6 1.1008 2.0016 1.8008 2.6016 0.7 0.7 1.3 0.7 2 0.5 0.7-0.1 1.3008-0.5 1.8008-0.5s0.89922 0.39844 1.6992 0.39844 2.2008-0.4 2.8008-0.5c0.7-0.2 0.7-0.2 1 0 0.4 0.1 0.99922 0.50078 1.6992 0.80078s1.3 0.70078 2 0.80078c0.7 0.2 1.3 0.19922 2 0.69922s1.3008 1.4992 2.3008 1.6992c1 0.1 2.4-0.5 3-1 0.7-0.5 0.69922-0.89922 1.1992-1.1992s1.5008-0.69922 2.3008-0.69922c0.9 0 1.4984 0.39922 1.8984 0.69922 0.3 0.3 0.30156 0.69922 0.10156 1.1992-0.1 0.5-0.5 1.1008-0.5 1.8008s0.39922 1.2992 0.69922 1.6992c0.3 0.3 0.7 0.30156 1 0.10156 0.3-0.1 0.70078-0.50156 1.3008-0.60156 0.7-0.2 1.6984-0.2 2.3984 0 0.6 0.1 1 0.50156 1.5 0.60156 0.5 0.2 1.1016 0.19844 1.6016 0.39844 0.5 0.1 0.89922 0.50078 1.6992 0.80078s2.2008 0.69922 2.8008 1.1992c0.7 0.5 0.69922 1.1016 0.69922 1.6016s7.8e-4 0.9 0.30078 1.5c0.4 0.7 0.99844 1.6992 1.3984 2.1992 0.3 0.5 0.30078 0.5 0.80078 1l2 2c0.5 0.5 0.5 0.5 1 0s1.5008-1.4992 1.8008-2.1992c0.4-0.6 0-1.0008 0-1.3008s0.4-0.7 1-1c0.7-0.3 1.7-0.69922 2.5-0.69922 0.9 0 1.4984 0.39844 2.3984 0.39844 0.8 0 1.8008-0.4 2.3008-0.5 0.5-0.2 0.49922-0.19844 0.69922 0.10156 0.1 0.4 0.50156 0.99844 1.1016 1.3984 0.7 0.3 1.7 0.30156 2.5 0.60156 0.9 0.4 1.4984 1 2.3984 1.5 0.8 0.5 1.8008 0.9 2.3008 1l1 0.39844c0.5 0.1 1.4992 0.50156 2.1992 0.60156 0.6 0.2 1.0008 0.19844 1.3008 0.39844 0.3 0.1 0.70078 0.50156 0.80078 0.60156 0.2 0.2 0.19922 0.2 0.69922 0.5 0.5 0.4 1.4992 0.99922 2.1992 1.6992 0.6 0.7 1.0016 1.2992 1.6016 1.6992 0.7 0.3 1.6992 0.30156 2.1992 0.10156 0.5-0.1 0.49922-0.5 1.1992-0.5 0.6 0 2.0008 0.39844 2.8008 0.39844s1.2008-0.4 1.3008-0.5c0.2-0.2 0.19922-0.19922 0.69922-0.19922h2.1992c0.6 0 1.0016 7.8e-4 1.6016 0.30078 0.7 0.4 1.6984 0.99922 2.3984 1.1992 0.6 0.2 1-0.19922 1.5-0.19922s1.1 0.39844 2 0.39844c0.8 0 1.8008-0.39844 2.3008-0.39844s0.49922 0.39922 1.1992 0.19922c0.6-0.2 2.0008-0.80078 2.8008-0.80078s1.2008 0.6 1.8008 1c0.7 0.3 1.6992 0.30078 2.1992 0.30078s0.49922 7.8e-4 1.1992-0.19922c0.6-0.1 2.0008-0.5 2.8008-0.5s1.1992 0.39922 1.6992 0.19922 1.1-0.79922 2-1.1992c0.8-0.3 1.8016-0.30156 2.6016-0.10156 0.9 0.1 1.4984 0.50078 1.8984 0.80078 0.3 0.3 0.3 0.69922 0.5 1.1992 0.1 0.5 0.50156 1.1016 0.60156 1.6016 0.2 0.5 0.19844 0.89922 0.39844 1.1992 0.1 0.3 0.50078 0.7 0.80078 1s0.69922 0.7 1.1992 1 1.1016 0.70078 1.6016 1.3008c0.5 0.7 0.9 1.6992 1.5 2.1992 0.7 0.5 1.6992 0.49922 2.1992 0.19922 0.5-0.4 0.5-1 1-1.5s1.5008-0.89922 1.8008-1.1992c0.4-0.3-7.8e-4 -0.70078 0.19922-1.3008 0.2-0.7 0.79922-1.7 1.6992-2 0.8-0.4 1.8 7.8e-4 2.5 0.30078 0.6 0.3 1.0008 0.7 1.3008 1s0.70078 0.69922 0.80078 1.1992c0.2 0.5 0.2 1.1008 0.5 1.8008 0.4 0.7 0.99922 1.3 1.6992 1.5s1.3-0.2 2 0 1.3 0.8 2 1 1.3008-0.19922 1.8008-0.19922 0.9 0.39844 1.5 0.39844c0.7 0 1.6992-0.4 2.1992-0.5 0.5-0.2 0.49922-0.19922 0.19922-0.69922-0.4-0.5-1-1.5-1.5-2s-0.89844-0.50078-1.3984-0.80078c-0.5-0.4-1.1008-0.99922-1.3008-1.6992s0.20078-1.3008 0.30078-1.8008c0.2-0.5 0.19844-0.89922 0.39844-1.1992 0.1-0.3 0.5-0.7 1-1s1.1008-0.7 1.3008-1.5-0.20078-2.2-0.80078-3c-0.7-0.8-1.6984-1.1992-2.3984-1.6992-0.6-0.5-1-1.1008-1.5-1.8008s-1.1008-1.3-1.3008-2 0.2-1.3 0-2-0.79922-1.3008-1.1992-1.8008c-0.3-0.5-0.30078-0.89844-0.80078-1.3984s-1.5-1.1016-2-1.6016-0.5-0.9-0.5-1c0-0.2 0-0.19844-0.5-0.89844-0.5-0.6-1.5-2.0016-2-2.6016-0.5-0.7-0.49922-0.69844-0.69922-0.89844l-1-1c-0.5-0.5-1.1016-1.1008-1.6016-1.3008s-0.89844 0.20078-1.3984-0.19922c-0.5-0.3-1.1016-1.3008-1.6016-1.8008s-0.89844-0.5-1.3984-1-1.1016-1.5-1.6016-2-0.89844-0.5-1.3984 0-1.1016 1.5-1.6016 2-0.89922 0.50078-1.1992 0.80078c-0.3 0.4-0.70078 0.99844-0.80078 1.3984-0.2 0.3-0.19844 0.30078-0.39844 0.80078-0.1 0.5-0.50156 1.5-0.60156 2-0.2 0.5-0.19922 0.5-0.19922 1s7.8e-4 1.4992-0.19922 2.1992c-0.1 0.6-0.50156 1-0.60156 1.5-0.2 0.5-0.2 1.1008-0.5 1.8008-0.4 0.7-0.99844 1.2992-1.3984 1.6992-0.3 0.3-0.30078 0.3-0.30078 0.5 0 0.1 0 0.50078-0.5 0.80078s-1.5008 0.7-2.3008 0.5c-0.9-0.2-1.4984-0.80078-1.8984-1.3008-0.3-0.5-0.3-0.9-0.5-1.5-0.1-0.7-0.50156-1.6984-0.60156-2.3984-0.2-0.6-0.19922-1.0016-0.19922-1.6016v-2.1992c0-0.5 0-0.50078 0.5-0.80078 0.5-0.4 1.5-1 2-1.5s0.5-0.89844 1-1.3984 1.5-1.1 2-1.5c0.5-0.3 0.5-0.30078 1-0.80078l2-2c0.5-0.5 0.50078-0.5 0.80078-1 0.4-0.5 1-1.5 1.5-2s0.89844-0.50078 1.3984-0.80078c0.5-0.4 1.1-0.99844 1.5-1.3984 0.3-0.3 0.30078-0.3 0.80078 0 0.5 0.4 1.5 1 2 1.5s0.5 0.89844 1 1.3984 1.5008 1.1 2.3008 1.5c0.9 0.3 1.5 0.30156 2 0.10156 0.5-0.1 0.89844-0.5 1.3984-0.5s1.1016 0.39844 1.6016 0.39844 0.89844-0.39844 1.3984-0.89844 1.1016-1.1 1.6016-1.5c0.5-0.3 0.9-0.30156 1.5-0.10156 0.7 0.1 1.6984 0.50078 2.3984 0.80078 0.6 0.3 1.0016 0.69922 1.6016 1.1992 0.7 0.5 1.6984 1.1 2.3984 1.5 0.6 0.3 1.0008 0.30078 1.3008 0.30078h1.5c0.8 0 2.2-7.8e-4 3 0.19922 0.8 0.1 1.2008 0.50078 1.3008 0.80078 0.2 0.3 0.2 0.70078 0 1.3008-0.1 0.7-0.50156 1.6984-0.60156 2.3984-0.2 0.6-0.2 1.0008-0.5 1.3008-0.4 0.3-0.99844 0.69922-1.3984 1.1992-0.3 0.5-0.30156 1.1016-0.60156 1.6016-0.4 0.5-1 0.9-1.5 1-0.5 0.2-0.89844 0.2-1.3984 0-0.5-0.1-1.1008-0.5-1.8008-0.5s-1.3008 0.39844-1.8008 0.89844c-0.25 0.25-0.47539 0.52461-0.58789 0.84961s-0.11213 0.70039 0.0879 1.1504c0.3 0.8 1.3008 1.8008 1.8008 2.3008s0.5 0.50078 1 0.80078c0.5 0.4 1.5 1 2 1.5s0.5 0.9 1 1c0.5 0.2 1.5 0.19844 2 0.39844 0.5 0.1 0.49922 0.50156 1.1992 0.60156 0.6 0.2 2.0016 0.19922 2.6016 0.19922 0.7 0 0.69922 7.8e-4 1.1992 0.30078 0.5 0.4 1.5 1 2.5 1s2-0.60156 2.5-1.1016 0.49922-0.89922 0.69922-1.1992c0.1-0.3 0.50156-0.7 1.1016-1 0.7-0.3 1.6984-0.69922 2.3984-1.1992 0.6-0.5 1-1.1016 1.5-1.6016s1.1008-0.9 1.8008-1c0.7-0.2 1.2992-0.19922 1.6992-0.19922 0.3 0 0.3-7.8e-4 1 0.19922 0.6 0.1 2.0008 0.50156 2.8008 0.60156 0.8 0.2 1.2 0.19922 1.5 0.19922s0.7-7.8e-4 1 0.19922c0.3 0.1 0.70078 0.50078 1.3008 0.80078 0.7 0.3 1.6992 0.7 2.6992 0.5s2-0.79922 2.5-1.1992l1-0.60156c0.5-0.4 1.5-0.99844 2-1.3984 0.5-0.3 0.49922-0.3 0.69922-0.5 0.1-0.1 0.50078-0.5 0.80078-1s0.7-1.1008 0.5-1.8008-0.80078-1.2992-1.3008-1.6992c-0.5-0.3-0.9-0.3-1.5-1-0.7-0.6-1.6992-2.0016-2.1992-2.6016-0.5-0.7-0.5-0.69844-0.5-0.89844v-1.3008c0-0.8 7.8e-4 -2.2008-0.19922-2.8008-0.1-0.7-0.5-0.69922-0.5-1.1992s0.39844-1.4992 0.39844-2.1992c0-0.6-0.39844-1.0016-0.39844-1.6016 0-0.7 0.39844-1.6992 0.89844-2.1992s1.1008-0.5 1.8008-1 1.2992-1.5 1.6992-2l0.60156-1c0.4-0.5 0.99844-1.4992 1.8984-2.1992 0.8-0.6 1.8-1.0008 2.5-1.3008 0.6-0.3 1.0016-0.70078 1.1016-0.80078 0.2-0.2 0.19844-0.19922 0.89844-0.19922h2.6016c0.7 0 0.69844 7.8e-4 1.3984-0.19922 0.6-0.1 2.0008-0.50156 2.8008-0.60156 0.8-0.2 1.2-0.2 2-0.5 0.8-0.4 2.2008-0.99922 3.3008-1.1992 1.2-0.2 2.1984 0.19922 2.8984 0.19922 0.6 0 1.0016-0.4 1.6016 0 0.7 0.3 1.7 1.3008 2.5 1.8008 0.9 0.5 1.5 0.49922 2 0.19922 0.5-0.4 0.89844-1 1.3984-1.5s1.1-0.89922 1.5-1.1992c0.3-0.3 0.30157-0.7 0.60157-1 0.4-0.3 0.9984-0.70078 1.3984-1.3008 0.3-0.7 0.3016-1.6984 0.6016-2.3984 0.4-0.6 1-1.0016 1.5-1.6016 0.5-0.7 0.9-1.6992 1-2.1992l-0.6113-0.66211-4.1895-0.83789-1-3-2-1-3 1-3-2 1-3-0.76953-0.76953-3.8223 1.1172 1.5918 2.6523-4 3 1 1-2 6-3-2 2-5-7 2v-2l-6-3-1 2-1 3-2 1-2 3-2-2h-7v4l-4 2-2-1-6 3-2-7h7l2-3-1-4-7 3-3-3 1-4-1.5-0.5c-0.7823-0.26077-2.2008 0.79922-2.8008 1.1992-0.7 0.3-0.69922 0.3-1.1992 0.5-0.5 0.1-1.4992 0.50156-2.1992 0.60156-0.6 0.2-1.0016 0.19922-1.6016 0.19922-0.7 0-1.6984 7.8e-4 -2.3984 0.30078-0.6 0.4-1.0008 0.99844-1.8008 0.89844-0.8-0.2-2.2008-1.2-2.8008-1.5-0.7-0.4-0.69844 2e-3 -1.3984 0.10156-0.6 0.2-2.0008 0.19844-2.8008-0.10156-0.8-0.4-1.2008-0.99922-1.8008-1.1992-0.7-0.2-1.6984 0.19922-2.3984 0.19922-0.6 0-1.0016-0.4-1.1016-0.5-0.2-0.2-0.19922-0.19844-0.69922-0.39844-0.5-0.1-1.5-0.50078-2-0.80078s-0.49922-0.7-1.1992-1c-0.10505-0.0525-0.3436-0.0671-0.49023-0.12305h-4e-3l-3.5879-0.2207h-2e-3c-0.15381 0.0617-0.34506 0.11578-0.51758 0.14453-0.7 0.2-1.6984 0.19922-2.3984 0.19922-0.6 0-1.0016-7.8e-4 -1.6016 0.19922-0.7 0.1-1.6984 0.50078-2.3984 0.80078-0.6 0.3-1.0016 0.7-1.1016 1-0.2 0.3-0.19922 0.70078-0.19922 1.3008v2.1992c0 0.5-7.8e-4 0.5 0.19922 1 0.1 0.5 0.50156 1.5 0.60156 2 0.2 0.5 0.19922 0.49922 0.19922 0.69922v0.80078c0 0.3 0 0.70078-0.5 1.3008-0.5 0.7-1.5008 1.7-2.3008 2-0.9 0.4-1.5-2e-3 -2-0.60156-0.5-0.7-0.9-1.6992-1-2.1992l-0.39844-1c-0.1-0.5-0.50156-1.5-0.60156-2-0.2-0.5-0.2-0.49922-0.5-0.69922-0.39972-0.1-0.99908-0.50078-1.6991-0.80078s-1.2992-0.70078-1.6992-0.80078c-0.3-0.2-0.30078-0.2-0.80078-0.5-0.5-0.4-1.5-1-2.5-1s-1.9992 0.6-2.6992 1c-0.6 0.3-1.0016 0.30078-1.1016 0.30078-0.2 0-0.19844-7.8e-4 -0.89844 0.19922-0.6 0.1-2.0008 0.50078-2.8008 0.30078s-1.2-0.79922-1.5-1.1992c-0.3-0.3-0.70078-0.30078-1.3008-0.80078-0.7-0.5-1.7-1.5008-2.5-1.8008-0.9-0.4-1.5 0-2 0s-0.89922-0.39922-1.1992-0.69922-0.69922-0.7-0.69922-1.5 0.39844-2.2 0.39844-3-0.4-1.2-0.5-1.5c-0.2-0.3-0.19922-0.69922-0.69922-0.69922s-1.4992 0.4-2.1992 0.5c-0.6 0.2-1.0008 0.2-1.3008 0-0.3-0.1-0.70078-0.50078-0.80078-0.80078-0.2-0.3-0.2-0.70078-0.5-1.3008-0.4-0.7-0.99922-1.6992-1.6992-2.1992s-1.2992-0.49922-1.6992-0.69922c-0.3-0.1-0.30078-0.50078-0.30078-0.80078s7.8e-4 -0.69922-0.19922-1.1992c-0.1-0.5-0.50078-1.1016-0.80078-1.6016s-0.70078-0.89922-0.80078-1.1992c-0.2-0.3-0.2-0.7-0.5-1-0.4-0.3-0.99844-0.70078-1.8984-0.30078-0.8 0.3-1.8008 1.3-2.8008 1.5-1 0.1-2-0.49844-2.5-0.89844-0.5-0.3-0.49922-0.30078-0.69922-0.80078-0.1-0.5-0.50156-1.5-0.60156-2-0.2-0.5-0.19844-0.49922-0.39844-0.69922-0.1-0.1-0.50156-0.50078-1.1016-0.80078-0.7-0.3-1.6984-0.70078-2.3984-0.80078-0.6-0.2-1.0016-0.19922-1.1016 0.30078-0.2 0.5-0.19922 1.4992-0.19922 2.1992v1.3008c0 0.3-7.8e-4 0.69922-0.30078 1.1992-0.4 0.5-0.99844 1.1016-1.8984 1.1016-0.8 0-1.8-0.60078-2.5-0.80078-0.6-0.2-1 0.2-1.5 0s-1.1008-0.8-1.8008-1-1.3 0.2-2 0.5-1.3 0.70078-2 0.80078c-0.7 0.2-1.3 0.2-2 0.5-0.7 0.4-1.2992 0.99844-1.6992 1.3984-0.3 0.3-0.30078 0.30156-0.30078 0.60156 0 0.4 7.8e-4 0.99922-0.19922 1.6992-0.1 0.7-0.50156 1.3008-0.60156 1.8008-0.2 0.5-0.19922 0.9-0.19922 1.5 0 0.7 7.8e-4 1.7-0.19922 2.5-0.1 0.9-0.50078 1.4984-0.80078 1.8984-0.3 0.3-0.70078 0.3-1.3008 0-0.7-0.4-1.6984-1-2.3984-1.5-0.6-0.5-1.0008-0.89922-1.3008-1.1992l-2.6992-2.6992c-0.3-0.3-0.3-0.3-1 0-0.6 0.4-2.0016 1-2.6016 1.5-0.7 0.5-0.7 0.89922-1 1.1992-0.4 0.3-0.99844 0.7-1.3984 1-0.3 0.3-0.30156 0.69922-0.60156 1.1992-0.4 0.5-1 1.1016-1.5 1.6016s-0.9 0.89922-1 1.1992c-0.2 0.3-0.2 0.7-1 0.5-0.9-0.2-2.5-0.80078-3.5-1.8008s-1.4-2.3992-1.5-3.1992c-0.2-0.8-0.19922-1.2-0.19922-1.5s0-0.70078-0.5-1.3008c-0.5-0.7-1.5-1.6992-2.5-1.6992s-2 0.99922-2.5 1.6992c-0.5 0.6-0.5 1-1 1.5s-1.5 1.1016-2.5 1.1016-2-0.60156-2.5-1.1016-0.49922-0.9-0.19922-1.5c0.4-0.7 1-1.6992 1.5-2.1992s0.89922-0.50078 1.1992-0.80078c0.3-0.4 0.70078-1 1.3008-1.5 0.7-0.5 1.6984-0.9 2.3984-1 0.6-0.2 1-0.19922 1.5-0.69922s1.1-1.4992 1.5-2.1992c0.3-0.6 0.30156-1.0008 0.60156-1.3008 0.4-0.3 1-0.70078 1.5-1.3008 0.5-0.7 0.9-1.6992 1.5-2.1992 0.7-0.5 1.6984-0.49922 2.3984-0.19922 0.6 0.4 1 0.99922 1.5 0.69922s1.1016-1.7008 1.6016-2.3008c0.5-0.7 0.89922-0.69922 1.1992-1.1992s0.7-1.4992 1-2.1992c0.3-0.6 0.69922-1.0016 0.69922-1.6016 0-0.7-0.39844-1.6992-0.89844-2.1992s-1.1008-0.5-1.8008 0-1.3 1.5008-2 1.8008c-0.7 0.4-1.3-7.8e-4 -2 0.19922s-1.3008 0.79922-1.8008 1.1992c-0.5 0.3-0.89844 0.3-1.3984 0.5-0.5 0.1-1.1008 0.50156-1.8008 0.60156-0.7 0.2-1.2992 0.19922-2.1992 0.19922-0.8 0-1.8008-7.8e-4 -2.3008 0.19922-0.5 0.1-0.50078 0.50156-0.80078 0.60156-0.4 0.2-0.99844 0.19844-1.8984 0.39844-0.8 0.1-1.8008 0.50156-2.3008 0.60156-0.5 0.2-0.50078 0.19844-0.80078 0.39844-0.4 0.1-0.99922 0.5-1.6992 0.5s-1.2992-0.39844-1.6992-0.89844c-0.3-0.5-0.3-1.1016 0-1.6016 0.4-0.5 1-0.89922 1.5-1.1992s0.89922-0.7 1.1992-1 0.7-0.69922 1-1.1992 0.70078-1.1008 0.80078-1.8008c0.2-0.7 0.19844-1.3008-0.10156-1.8008-0.4-0.5-1-0.89922-2-0.69922s-2.4 0.80078-3 1.3008c-0.7 0.5-0.7 0.9-1 1.5-0.4 0.7-0.99922 1.6984-1.6992 2.3984-0.7 0.6-1.2992 1.0016-1.6992 1.1016-0.3 0.2-0.30156 0.19844-0.60156-0.10156-0.4-0.4-0.99844-0.99844-1.3984-1.8984-0.3-0.8-0.3-1.8016-0.5-2.6016-0.1-0.9-0.5-1.4992-0.5-2.1992s0.4-1.2992 0-2.1992c-0.3-0.8-1.3008-1.8016-2.3008-2.1016-1-0.4-1.9992 2e-3 -2.6992 0.10156-0.6 0.2-1 0.19844-1.5-0.10156-0.5-0.4-1.1016-0.99844-1.6016-1.3984-0.5-0.3-0.89844-0.30078-1.3984-0.80078s-1.1016-1.4992-1.6016-2.1992c-0.5-0.6-0.89922-1.0016-1.1992-1.1016-0.3-0.2-0.7-0.2-1-0.5-0.3-0.4-0.70078-0.99844-0.80078-1.8984-0.2-0.8-0.19922-1.8-0.19922-2.5v-1.5c0-0.5-7.8e-4 -1.1016 0.19922-1.6016 0.1-0.5 0.50156-0.89844 0.60156-1.3984 0.2-0.5 0.19922-1.1016 0.19922-1.6016v-1.1992c0-0.3 0-0.69922 0.5-1.1992 0.22308-0.22308 0.55925-0.47716 0.89258-0.75781zm-7.0566 80.031c0.29199-5e-3 0.58984 0.11328 0.96484 0.42578 0.7 0.5 1.6992 1.4992 1.6992 2.6992 0 1.1-1.0008 2.5016-1.8008 3.1016-0.9 0.7-1.5 0.69844-2 0.39844-0.5-0.4-0.89922-0.99922-1.1992-1.6992s-0.69922-1.3-0.69922-2 0.39844-1.3008 0.89844-1.8008 1.1016-0.9 1.6016-1c0.1875-0.075 0.35996-0.12207 0.53516-0.125zm-29.035 11.926h1.6992c0.7 0 1.3008-7.8e-4 1.8008 0.19922 0.5 0.1 0.9 0.50156 1 1.1016 0.2 0.7 0.19844 1.6984-0.10156 2.3984-0.4 0.6-0.99961 1.0012-1.5996 1.2012-0.6 0.3-1.0996 0.39961-1.5996 0.59961s-0.99961 0.30039-1.5996 0.40039-1.2012 0.10036-1.7012-0.0996c-0.5-0.30004-0.89922-0.80079-1.1992-1.3008s-0.70078-0.99961-0.30078-1.5996c0.3-0.6 1.3-1.2012 2-1.7012 0.6-0.5 1.0016-0.9 1.1016-1 0.2-0.2 0.2-0.19922 0.5-0.19922zm5.7148 20.447c0.42371 9e-3 0.70391 0.36601 0.78516 0.85351 0.2 0.7 0.19844 1.6992-0.10156 2.6992-0.4 1-0.99961 2.0004-1.5996 2.4004s-1.0996 0.29964-1.5996 0.0996c-0.5-0.2-0.99922-0.29922-1.1992-0.69922-0.1-0.5-7.8e-4 -1.1008 0.19922-1.8008s0.30039-1.3 0.90039-2 1.5988-1.3 2.2988-1.5c0.1125-0.0375 0.2187-0.0548 0.3164-0.0527z" />
</svg>