<?xml version="1.0" encoding="UTF-8"?>
<svg width="1800" height="900" version="1.1" xmlns="http://www.w3.org/2000/svg">
  <MetaInfo xmlns="http://www.prognoz.ru">
    <Geo>
      <GeoItem X="0" Y="0" Latitude="90" Longitude="-180"/>
      <GeoItem X="1800" Y="900" Latitude="-90" Longitude="180"/>
    </Geo>
  </MetaInfo>
  <path d="m583.7 354.2c-0.4 0.1-1 0.5-1.5 1s-0.89922 1.1016-1.1992 1.6016-0.70078 0.9-0.80078 1.5c-0.2 0.7-0.19844 1.6984-0.39844 2.3984-0.1 0.6-0.50078 1.0008-0.30078 1.8008s0.79922 2.2008 1.1992 2.8008c0.3 0.7 0.3 0.69844 0.5 0.89844 0.1 0.1 0.5 0.5 0.5 1s-0.4 1.1-0.5 1.5c-0.2 0.3-0.19922 0.30078-0.69922 0.80078s-1.5 1.5-2 2.5-0.5 2 0 2.5 1.5 0.5 2 0.5 0.49922 7.8e-4 1.1992-0.19922c0.6-0.1 2-0.50078 3-0.30078s1.6008 0.80078 2.3008 1.3008 1.3008 0.9 1.8008 1c0.5 0.2 0.9 0.19922 1 0.19922h2c0.5 0 0.89922 0 1.6992 0.5s2.2 1.5 3 2 1.2 0.50078 1.5 0.80078c0.3 0.4 0.70078 0.99844 0.80078 1.3984 0.2 0.3 0.19844 0.30078 0.39844 0.80078 0.1 0.5 0.50156 1.4992 1.1016 2.1992 0.7 0.6 1.6984 1 2.3984 1 0.6 0 1.0008-0.39844 1.3008-0.39844s0.7 0.39844 1.5 0.39844 2.2008-0.4 2.8008-0.5l1.3984-0.39844c0.6-0.1 2.0008-0.5 2.8008-0.5s1.2008 0.4 1.8008 0.5c0.7 0.2 1.6992 0.19922 2.1992 0.19922s0.5-7.8e-4 1 0.19922c0.5 0.1 1.4992 0.50156 2.1992 1.1016 0.6 0.7 1.0008 1.7 0.80078 2.5-0.2 0.9-0.80078 1.5-1.3008 2s-0.9 0.89922-1 1.1992c-0.2 0.3-0.2 0.7 0 1 0.1 0.3 0.50156 0.70078 0.60156 1.3008 0.2 0.7 0.2 1.6992 0.5 2.6992 0.4 1 0.99844 2 1.3984 2.5 0.3 0.5 0.30078 0.5 0.80078 1l2.5 2.5 0.5 0.30078c0.5 0.4 1.5 0.99844 2.5 1.3984 1 0.3 2 0.30078 2.5 0.30078h3.8008c0.4 0 1-7.8e-4 1.5 0.19922 0.5 0.1 0.9 0.50078 1 1.3008 0.2 0.8 0.2 2.2 0 3-0.1 0.8-0.50156 1.2-0.60156 1.5-0.2 0.3-0.2 0.69922-0.5 1.1992-0.4 0.5-0.99922 1.1016-1.6992 1.6016s-1.3008 0.89844-1.8008 1.3984-0.89922 1.1016-1.6992 1.6016-2.2 0.89922-3 1.6992-1.2 2.2008-1.5 2.8008c-0.3 0.7-0.70078 0.69922-0.80078 1.1992-0.2 0.5-0.19922 1.5-0.19922 2s7.8e-4 0.50078-0.19922 0.80078c-0.1 0.4-0.5 0.99922-0.5 1.6992s0.39922 1.3008 0.19922 2.3008-0.8 2.3992-1.5 3.1992-1.3008 1.2008-1.8008 1.3008c-0.5 0.2-0.89844 0.19844-1.3984 0.39844-0.5 0.1-1.1 0.50078-1.5 0.80078-0.3 0.3-0.30078 0.7-0.80078 1s-1.5 0.70078-2 0.80078c-0.5 0.2-0.50078 0.2-0.80078 0.5l-1.5 1.5c-0.5 0.5-0.89844 0.9-1.3984 1.5-0.5 0.7-1.1 1.6984-1.5 2.3984-0.3 0.6-0.30156 1-0.60156 1.5l11.301 7c0.7-0.2 1.2992 0.8 2.1992 1 0.8 0.1 1.8-0.49922 2.5-0.69922 0.6-0.2 1 0.19922 1.5 0.19922s1.1-0.4 1.5-1c0.3-0.7 0.3-1.6984 0.5-2.3984 0.1-0.6 0.50156-1 0.60156-1.5 0.2-0.5 0.19922-1.1016 0.69922-1.6016s1.5008-0.89922 2.3008-0.69922c0.9 0.2 1.4992 0.79922 2.1992 1.1992 0.7 0.3 1.3008 0.3 1.8008 0.5 0.5 0.1 0.89922 0.50156 1.1992 0.60156 0.3 0.2 0.69922 0.19844 1.1992-0.10156 0.5-0.4 1.1-0.99922 2-1.1992 0.8-0.2 1.8016 0.2 2.6016 0 0.9-0.2 1.4984-0.79922 1.8984-1.6992 0.3-0.8 0.30078-1.8 0.30078-2.5 0-0.6 0-1.0016 0.5-1.1016 0.5-0.2 1.5008-0.19844 2.3008 0.10156 0.9 0.4 1.5 1 2 1.5s0.89844 0.89922 1.3984 1.1992 1.1 0.7 1.5 1c0.3 0.3 0.3 0.70078 0.5 0.80078 0.1 0.2 0.5 0.19922 1 0.19922s1.1008-7.8e-4 1.8008 0.19922c0.7 0.1 1.3008 0.50078 1.8008 1.3008s0.89922 2.1992 1.1992 3.1992 0.7 1.6 1 2c0.3 0.3 0.7 0.30156 1 0.10156 0.3-0.1 0.7-0.50078 1.5-0.80078s2.1992-0.7 3.1992-0.5 1.6 0.79922 2.5 1.1992c0.8 0.3 1.8008 0.30078 2.8008 0.80078s2 1.5 2.5 2 0.5 0.49922 0.5 1.1992v2.8008c0 0.8-7.8e-4 1.2-0.30078 1.5-0.4 0.3-1 0.7-1.5 1s-0.89922 0.69922-1.6992 0.69922-2.1992-0.4-3.1992-0.5c-1-0.2-1.6016-0.19922-2.1016 0.30078s-0.89844 1.5008-0.89844 2.3008c0 0.9 0.39844 1.5 0.89844 2s1.1016 0.89922 1.6016 1.1992 0.89922 0.7 1.6992 1 2.2008 0.70078 2.8008 0.80078c0.7 0.2 0.7 0.19922 1 0.19922 0.4 0 0.99922 7.8e-4 1.6992-0.19922 0.7-0.1 1.2992-0.5 2.1992-0.5 0.8 0 1.8 0.39844 2.5 0.39844 0.6 0 1-0.4 1.5-0.5 0.5-0.2 1.1016-0.19922 1.6016-0.19922h1c0.2 0 0.19922 0 0.69922-0.5s1.4992-1.5 2.1992-2c0.6-0.5 1.0008-0.50078 1.3008-0.80078 0.3-0.4 0.7-0.99844 1.5-1.3984 0.8-0.3 2.2-0.3 3-0.5 0.8-0.1 1.2008-0.50078 1.8008-0.80078 0.7-0.3 1.7-0.7 2.5-0.5 0.9 0.2 1.4984 0.80078 1.8984 1.3008 0.3 0.5 0.30156 0.89922 0.60156 1.1992 0.4 0.3 1 0.69922 1.5 1.1992s0.9 1.1016 1.5 1.6016c0.7 0.5 1.6992 0.9 2.1992 1 0.5 0.2 0.5 0.19844 0.5 0.39844 0 0.1-7.8e-4 0.50078 0.19922 1.3008 0.1 0.8 0.5 2.2 0.5 3s-0.4 1.2-1 1c-0.7-0.2-1.6992-0.8-2.6992-1s-2 0.20078-2.5 0.80078c-0.5 0.7-0.49922 1.7-0.19922 2.5 0.4 0.9 0.99922 1.4984 1.6992 1.8984 0.7 0.3 1.3008 0.30078 1.8008 0.30078h1.3984c0.5 0 1.1008-7.8e-4 1.8008 0.19922 0.7 0.1 1.3008 0.50078 1.8008 0.80078s0.89922 0.7 1.6992 1 2.2 0.69922 3 1.1992 1.1992 1.1008 1.1992 1.8008-0.39844 1.3008-0.39844 1.8008 0.39922 0.89922 0.69922 1.1992 0.7 0.69922 1 1.1992 0.70078 1.1016 1.3008 1.6016c0.34818 0.2487 0.77097 0.39668 1.1934 0.5957l5.1328-3.7129c-0.10482-0.0666-0.22956-0.1063-0.32617-0.18359-0.59451-0.47561-0.94666-1.1522-1.1113-1.8418-0.12553-0.14522-0.41583-0.3226-0.49023-0.45898-0.7-1.2 0.30156-2.1984 1.6016-3.8984 0.7-0.8 1.4492-1.8016 2.0117-2.7266 0.51718-0.85048 0.80081-1.58 0.81641-2.0898-0.0211-0.12142-0.0489-0.2393-0.0781-0.35938-0.44091-0.72165-2.1496-0.50876-3.25-1.4258-0.55-0.5-0.92578-1.3484-1.0508-2.2734-0.0469-0.34848-0.0203-0.70744 8e-3 -1.0625-0.0441-0.0239-0.24201-0.15606-0.25781-0.16406-0.0222-0.0222 0.22131 0.0478 0.25781 0.0508 0.0563-0.54796 0.17901-1.0843 0.44141-1.5508 0.8-1.7 2.8016-2.7 3.6016-4 0.9-1.4 0.5-2.9984 1-4.3984 0.5-1.3 1.8992-2.3016 2.6992-3.6016 0.8-1.4 1.2008-2.9984 2.3008-4.3984 1.2-1.3 3.1992-2.3008 4.6992-3.8008 1.3325-1.3325 2.1747-3.0926 2.5078-5.0039v-2e-3c-0.0848-0.33425-0.0257-0.63151-0.20703-0.99414-0.8-1.8-2.8-4.2008-4-6.3008-0.30243-0.60486-0.43778-1.1521-0.64062-1.7246-0.10706-0.10072-0.26608-0.16142-0.35938-0.27539-0.8-1.2-0.8-3.1984-0.5-4.8984 0.0538-0.21516 0.15288-0.3758 0.21484-0.58203 0.10748-0.5251 0.28463-0.95712 0.50391-1.3652 0.0543-0.1051 0.11022-0.20494 0.16992-0.30274 0.11406-0.17134 0.17277-0.413 0.31055-0.55078 0.16662-0.16662 0.42707-0.22326 0.63672-0.35156l6e-3 -6e-3c0.13391-0.0912 0.20496-0.2783 0.35742-0.3418 0.0937-0.039 0.20854 9.6e-4 0.30664-0.0273 0.37277-0.1267 0.70774-0.10952 1.082-0.0977 0.21267 6e-3 0.40637-0.0706 0.61524-0.0371 8e-3 1e-3 0.0135-3e-3 0.0215-2e-3 0.725 0.1125 1.4738 0.36406 2.1738 0.66406 1.3 0.7 2.3016 1.6992 3.6016 2.1992 0.42284 0.15104 0.84637 0.15664 1.2754 0.21094 0.80249-0.83323 1.4723-2.0321 1.623-3.0117 0.0875-1.2253-0.33656-1.8801-0.58399-2.8184-0.40649-0.72171-0.86161-1.3701-1.1152-2.1816-0.5-1.7-0.50078-3.7 0.19922-5.5 0.0928-0.29398 0.29128-0.494 0.41797-0.76953-0.0383-0.61945-0.101-1.2545 0.082-1.7305 0.26327-0.73715 0.82881-1.2275 1.3809-1.4043 0.13003-0.0529 0.29647-4e-3 0.4375-0.0371 0.0772 3e-3 0.16483-0.0391 0.23633-0.0195 0.0124 3e-3 0.0171 0.0214 0.0293 0.0254 0.27281-0.0408 0.54672-0.0858 0.83008-0.0937 0.28336-8e-3 0.57619 0.0213 0.88672 0.13086 1.4994 0.61741 2.8223 2.2069 3.6172 3.4746l15.775-4.7324c0.41377-0.34839 0.8305-0.74373 1.1074-1.2422 0.5-0.8 0.5-1.8 1-2.5 0.5-0.6 1.5008-1.0016 1.8008-1.6016 0.4-0.7-7.8e-4 -1.6992-0.30078-2.1992s-0.7-0.5-1-1-0.70078-1.5-0.80078-2c-0.2-0.5-0.19922-0.50078-0.69922-0.80078-0.5-0.4-1.4992-0.99844-2.1992-1.3984-0.6-0.3-1-0.3-1.5-0.5-0.5-0.1-1.1016-0.50156-1.6016-0.60156-0.5-0.2-0.9-0.19922-1-0.19922-0.2 0-0.19922 7.8e-4 -0.69922-0.19922-0.5-0.1-1.4992-0.5-2.1992-0.5-0.6 0-1.0016 0.39844-1.6016 0.39844-0.7 0-1.6992-0.39922-2.1992-0.69922s-0.49922-0.70078-0.69922-0.80078c-0.1-0.2-0.50156-0.19922-0.60156-0.19922-0.2 0-0.19922 0-0.69922-0.5s-1.5-1.5-2.5-2-2-0.5-2.5-0.5-0.5-7.8e-4 -1-0.30078c-0.5-0.4-1.5008-0.99922-2.3008-1.1992-0.9-0.2-1.4992 0.19922-2.1992 0.19922s-1.2992-0.39844-1.6992-0.89844c-0.3-0.5-0.30078-1.1 0.19922-2 0.5-0.8 1.5-1.8016 1.5-2.6016 0-0.9-1-1.4984-2-1.3984-1 0.2-2 1.1992-2.5 1.6992l-0.69922 0.69922c-0.1 0.1-0.50156 0.50156-0.60156 1.1016-0.2 0.7-0.2 1.7 0 2.5 0.1 0.9 0.50156 1.4992 0.60156 2.1992 0.2 0.7 0.19922 1.3 0.19922 2s7.8e-4 1.2992-0.19922 1.6992c-0.1 0.3-0.50078 0.3-0.80078 0.5-0.3 0.1-0.69922 0.50156-1.1992 1.1016-0.5 0.7-1.1016 1.6992-1.6016 2.1992s-0.89844 0.50078-1.3984 0.80078c-0.5 0.4-1.1008 0.99844-1.3008 1.8984-0.2 0.8 0.2 1.8 0.5 2.5 0.3 0.6 0.69922 1.0008 1.1992 0.80078s1.1016-0.80078 1.6016-1.3008 0.9-0.89922 1.5-1.1992c0.7-0.3 1.7-0.70078 2.5-0.30078 0.9 0.3 1.4992 1.3016 1.6992 2.1016 0.2 0.9-0.19922 1.4984-0.69922 1.8984-0.5 0.3-1.1016 0.30156-1.6016 0.60156-0.5 0.4-0.9 0.99922-1.5 1.1992-0.7 0.2-1.7-0.2-2.5 0-0.9 0.2-1.5 0.8-2 1s-0.9-0.20078-1.5-0.30078c-0.7-0.2-1.6984-0.19844-2.3984-0.39844-0.6-0.1-1.0016-0.50078-1.1016-0.80078-0.2-0.3-0.19922-0.7-0.19922-1s7.8e-4 -0.7-0.19922-1c-0.1-0.3-0.5-0.7-1-1s-1.1008-0.69922-1.8008-0.69922-1.3008 0.39922-1.8008 0.69922-0.89922 0.70078-1.1992 0.80078c-0.3 0.2-0.70078 0.19844-1.3008 0.39844-0.7 0.1-1.6984 0.50078-2.3984 0.80078-0.6 0.3-1.0016 0.70078-1.6016 0.80078-0.7 0.2-1.6984 0.2-2.3984 0.5-0.6 0.4-1.0008 0.99844-1.8008 1.3984-0.8 0.3-2.2008 0.30078-2.8008 0.30078-0.7 0-0.7 7.8e-4 -1-0.19922-0.40036-0.09989-0.99958-0.50067-1.6996-0.80067s-1.2992-0.7-1.6992-1c-0.3-0.3-0.30156-0.70078-0.60156-1.3008-0.4-0.7-1-1.6984-1.5-2.3984-0.5-0.6-0.89844-1.0016-1.3984-1.1016-0.5-0.2-1.1016-0.2-1.6016-0.5-0.5-0.4-0.89922-1-1.1992-1.5s-0.7-0.89922-1-1.1992l-0.80078-0.80078c-0.2-0.2-0.19844-0.19844 0.10156-0.89844 0.4-0.6 0.99844-2 0.89844-3-0.2-1-1.1992-1.6008-2.1992-1.8008s-2 0.20078-2.5 0.30078c-0.5 0.2-0.49922 0.19844-1.1992 0.39844-0.6 0.1-2 0.50156-3 0.10156-1-0.3-1.6-1.3016-2.5-1.6016-0.8-0.4-1.8008 7.8e-4 -2.3008 0.30078s-0.50078 0.69922-0.80078 1.1992c-0.4 0.5-0.99844 1.1016-1.3984 1.6016-0.3 0.5-0.30156 0.89844-0.60156 1.3984-0.4 0.5-0.99922 1.1-1.6992 1.5-0.7 0.3-1.3 0.30156-2 0.10156-0.7-0.1-1.2992-0.5-1.6992-1-0.3-0.5-0.30156-1.1-0.10156-2 0.1-0.8 0.50078-1.8008 0.80078-2.3008s0.69922-0.5 1.1992-1 1.1016-1.5 1.6016-2 0.89922-0.5 1.1992-1 0.70078-1.5008 0.30078-2.3008c-0.3-0.9-1.3-1.4984-2-1.8984-0.6-0.3-1.0016-0.30078-1.6016-0.30078-0.7 0-1.6984 7.8e-4 -2.3984-0.19922-0.6-0.1-1-0.50156-1.5-0.60156-0.5-0.2-1.1-0.2-1.5 0-0.3 0.1-0.30078 0.50156-0.80078 0.60156-0.5 0.2-1.4992 0.19922-2.1992 0.19922-0.6 0-1.0016-7.8e-4 -1.6016 0.19922-0.7 0.1-1.6984 0.5-2.3984 0.5-0.6 0-1.0008-0.39922-1.8008-0.19922s-2.2 0.8-3 1-1.1992-0.19922-1.6992-0.19922-1.1 0.39844-1.5 0.89844c-0.3 0.5-0.30156 1.1016-0.60156 1.6016-0.4 0.5-1 0.89844-1.5 1.3984s-0.89922 1.1016-1.1992 1.6016-0.69922 0.89922-1.1992 0.69922-1.1-0.80078-2-0.80078c-0.8 0-1.8 0.60156-2.5 1.1016-0.6 0.5-1.0016 0.89922-1.6016 0.69922-0.7-0.2-1.6992-0.8-2.1992-1.5s-0.49922-1.3008-0.69922-1.8008c-0.1-0.5-0.50156-0.89844-0.60156-1.3984-0.2-0.5-0.19844-1.1008-0.39844-1.8008-0.1-0.7-0.5-1.3008-0.5-1.8008s0.39922-0.89844 0.19922-1.3984-0.80078-1.1016-1.3008-1.6016l-1.1992-1.1992c-0.3-0.3-0.70078-0.70078-1.3008-0.80078-0.7-0.2-1.6992-0.19844-2.1992-0.39844-0.5-0.1-0.49922-0.5-0.69922-1-0.1-0.5-0.50156-1.1016-1.1016-1.6016-0.7-0.5-1.6984-0.89922-2.3984-0.69922-0.6 0.2-1 0.80078-1.5 1.3008s-1.1016 0.9-1.6016 1c-0.5 0.2-0.89922 0.19844-1.1992-0.10156-0.3-0.4-0.69922-0.99844-1.1992-1.3984-0.5-0.3-1.1016-0.3-1.6016 0-0.5 0.4-0.9 0.99844-1.5 1.3984-0.7 0.3-1.6992 0.30156-2.1992 0.60156-0.5 0.4-0.49922 0.99922-1.1992 1.1992-0.6 0.2-2.0016-0.2-2.6016-0.5-0.7-0.3-0.69922-0.70078-1.1992-1.3008-0.5-0.7-1.4992-1.6992-2.1992-2.1992-0.6-0.5-1.0016-0.5-1.6016-1-0.7-0.5-1.6992-1.4992-2.1992-2.1992-0.5-0.6-0.5-1.0008-0.5-1.3008s7.8e-4 -0.70078-0.19922-1.3008c-0.1-0.7-0.50156-1.6992-0.60156-2.1992-0.2-0.5-0.19922-0.49922-0.19922-0.69922 0-0.1-7.8e-4 -0.50156 0.19922-1.1016 0.1-0.7 0.50078-1.6992 0.80078-2.1992s0.69922-0.49922 0.69922-1.1992c0-0.6-0.4-2.0008-1-2.8008-0.7-0.8-1.7-1.2-2.5-1-0.9 0.2-1.4984 0.79922-1.8984 1.1992-0.3 0.3-0.3 0.30078-0.5 0.80078-0.1 0.5-0.50156 1.5008-1.1016 1.8008-0.7 0.4-1.7-7.8e-4 -2.5 0.19922-0.9 0.2-1.4984 0.79922-2.3984 1.1992-0.8 0.3-1.8008 0.30078-2.3008 0.30078h-1c-0.5 0-1.4992-7.8e-4 -2.1992 0.19922-0.6 0.1-1.0016 0.5-1.6016 0.5-0.7 0-1.6984-0.39922-2.3984-0.69922-0.6-0.3-1.0016-0.7-1.1016-1-0.2-0.3-0.2-0.70078 0-1.3008 0.1-0.7 0.5-1.6992 0.5-2.6992s-0.39844-1.9992-0.89844-2.6992c-0.5-0.6-1.1-1.0016-1.5-1.1016-0.3-0.2-0.30156-0.2-0.60156 0zm167.3 60.102c0.35 0.7 0.42441 1.1996 0.34961 1.6992 0.0748-0.49961 3.9e-4 -0.99922-0.34961-1.6992zm13 4c0 0.7-7.8e-4 1.7 0.19922 2.5-0.2-0.8-0.19922-1.8-0.19922-2.5zm1 4.3984c0.3 0.3 0.7 0.3 1 0.5-0.3-0.2-0.7-0.2-1-0.5zm-12.684 10.248c0.16223 0.47423 0.24211 0.90083 0.18359 1.252 0.0585-0.35112-0.0214-0.77772-0.18359-1.252zm-3.6172 2.3535c1 0.2 1.901 0.19966 2.5762 0.0117-0.67519 0.18794-1.5762 0.18828-2.5762-0.0117zm-5.1992 3.5c0.1 0.95 0.0506 1.824-0.0996 2.6738 0.1502-0.8498 0.19961-1.7238 0.0996-2.6738zm-3.6992 10.398c-1.1 1.8-2.5 3.8016-4 5.6016 1.5-1.8 2.9-3.8016 4-5.6016zm-9.3125 16.789c0.5125 0.7375 1.0109 1.4609 1.2109 2.2109-0.2-0.75-0.69844-1.4734-1.2109-2.2109zm0.3125 6.0117c0.25 1 0.47402 2.0006 0.54883 3.0254-0.07481-1.0248-0.29883-2.0254-0.54883-3.0254zm-2.3008 16.25c0.17461 0.925 0.34922 1.6 0.19922 1.75 0.15-0.15-0.0246-0.825-0.19922-1.75zm-9.8008 3.0508c0 0.7-0.4 1.6992-0.5 2.1992 0.1-0.5 0.5-1.4992 0.5-2.1992z" />
</svg>