<?xml version="1.0" encoding="UTF-8"?>
<svg width="1800" height="900" version="1.1" xmlns="http://www.w3.org/2000/svg">
  <MetaInfo xmlns="http://www.prognoz.ru">
    <Geo>
      <GeoItem X="0" Y="0" Latitude="90" Longitude="-180"/>
      <GeoItem X="1800" Y="900" Latitude="-90" Longitude="180"/>
    </Geo>
  </MetaInfo>
  <path d="m558.5 323.5c-0.8-0.2-1.2008 0.19922-1.3008 0.69922-0.2 0.5-0.19922 1.1008 0.30078 1.8008s1.5008 1.2992 1.3008 2.1992c-0.1 0.8-1.5 1.8008-2 2.3008s-0.10156 0.50078-0.10156 0.80078c0 0.4-0.39844 1-0.89844 1.5s-1.1 0.89844-2 0.89844c-0.8 0-1.8-0.4-2.5-0.5-0.6-0.2-1-0.19922-1 0.30078s0.39922 1.5008 0.19922 2.3008c-0.2 0.9-0.79922 1.5-1.1992 2-0.3 0.5-0.30156 0.89844-0.60156 1.3984-0.4 0.5-0.99922 1.1-1.1992 2-0.2 0.8 0.2 1.8016 0 2.6016-0.2 0.9-0.8 1.4984-1.5 1.8984-0.7 0.3-1.2992 0.30078-1.6992 0.30078-0.3 0-0.30078-7.8e-4 -0.80078 0.19922-0.5 0.1-1.4992 0.5-2.1992 0.5-0.6 0-1.0016-0.39922-1.6016-0.19922-0.7 0.2-1.6984 0.8-2.3984 1-0.6 0.2-1.0016-0.2-1.6016 0-0.7 0.2-1.6984 0.8-2.3984 1-0.6 0.2-1.0016-0.19922-1.6016-0.19922-0.7 0-1.6992 0.4-2.6992 0-1-0.3-2-1.3-2.5-2-0.5-0.6-0.49922-1.0008-1.1992-1.3008-0.6-0.3-2.0008-0.69922-2.8008-0.69922s-1.2 0.4-1.5 1c-0.3 0.7-0.69922 1.6984-1.1992 2.3984-0.5 0.6-1.1 1-1.5 1.5-0.3 0.5-0.30078 1.1016-0.80078 1.6016s-1.5 0.89844-2 1.3984-0.50078 1.1016-0.30078 1.6016c0.1 0.5 0.50078 0.9 0.80078 1 0.3 0.2 0.69922 0.2 1.1992 0.5 0.5 0.4 1.1008 0.99922 1.8008 1.1992s1.3008-0.19922 1.8008-0.19922 0.9 0.4 1.5 0.5c0.7 0.2 1.6992 0.19922 2.1992 0.19922s0.50078 7.8e-4 1.3008-0.19922c0.9-0.1 2.4984-0.50078 3.3984-0.30078 0.8 0.2 0.80156 0.79922 0.60156 1.6992-0.1 0.8-0.5 1.8-1 2.5-0.5 0.6-1.1 1-1.5 1.5-0.3 0.5-0.30078 1.1-0.30078 1.5 0 0.3 7.8e-4 0.30156-0.19922 0.60156-0.1 0.4-0.5 1-1 1.5s-1.1008 0.89922-1.3008 1.6992 0.20078 2.2008 0.30078 2.8008c0.2 0.7 0.19844 0.69922 0.39844 1.1992 0.1 0.5 0.5 1.4992 0.5 2.1992 0 0.6-0.4 1.0008-0.5 1.3008-0.2 0.3-0.19844 0.69922-0.39844 1.1992-0.1 0.5-0.50156 1.1-0.60156 1.5-0.2 0.3-0.19922 0.3-0.69922 0.5-0.5 0.1-1.5 0.50156-2 0.60156-0.5 0.2-0.50078 0.2-0.80078 0-0.4-0.1-0.99844-0.5-1.3984-1.5-0.3-1-0.30156-2.6-0.10156-3.5 0.1-0.8 0.50156-0.80156 0.60156-1.1016 0.2-0.4 0.2-0.99844 0-1.8984-0.1-0.8-0.5-1.8-0.5-2.5 0-0.6 0.39844-1.0016 0.39844-1.6016 0-0.7-0.4-1.6984-0.5-2.3984-0.2-0.6-0.19922-1.0008-0.19922-1.3008s7.8e-4 -0.7-0.19922-1c-0.1-0.3-0.50078-0.69922-1.3008-1.1992s-2.2008-1.1-2.8008-1.5c-0.7-0.3-0.69922-0.30156-1.1992-0.60156-0.5-0.4-1.5-0.99844-2-1.3984-0.5-0.3-0.50078-0.30156-0.80078-0.10156-0.4 0.1-0.99844 0.50078-1.3984 1.3008-0.3 0.8-0.3 2.1992 0 3.1992 0.4 1 0.99844 1.6 1.3984 2l1.1016 1.1016c0.2 0.2 0.19922 0.19844 0.69922 0.89844 0.5 0.6 1.5008 2 1.8008 3 0.4 1 0 1.6008 0 2.3008s0.39844 1.2992 0.39844 2.1992c0 0.8-0.39844 1.8-0.39844 2.5 0 0.6 0.39844 1.0008 0.39844 1.8008s-0.4 2.2-0.5 3c-0.2 0.8-0.19922 1.1992-0.19922 1.6992s-7.8e-4 1.1008-0.30078 1.8008c-0.4 0.7-0.99844 1.3-1.8984 1.5-0.8 0.2-1.8-0.19922-2.5-0.69922-0.6-0.5-1.0016-1.1016-1.1016-1.6016-0.2-0.5-0.19922-0.89844 0.30078-1.3984s1.5-1.1016 2-2.1016 0.5-2.4 0-3.5c-0.5-1.2-1.5-2.1992-2-2.6992s-0.50078-0.5-0.80078-0.5c-0.4 0-1-7.8e-4 -2 0.19922-1 0.1-2.3992 0.50156-3.1992 1.1016-0.8 0.7-1.2 1.7-1.5 2.5-0.3 0.9-0.69922 1.5-1.1992 2s-1.1 0.89922-2 0.69922c-0.8-0.2-1.8008-0.8-2.3008-1s-0.5 0.2-1 0-1.5-0.79922-2-1.1992l-1-0.60156c-0.5-0.4-1.5-0.99922-2.5-1.1992s-2 0.20078-2.5 0.30078l-1 0.39844c-0.5 0.1-1.4992 0.50156-2.1992 1.1016-0.6 0.7-1 1.6984-1.5 2.3984-0.5 0.6-1.1 1.0008-1.5 1.3008-0.3 0.3-0.3 0.69922-0.5 1.1992-0.1 0.5-0.5 1.1-0.5 2 0 0.8 0.4 1.8 0.5 2.5 0.2 0.6 0.19844 1.0016 0.89844 1.1016 0.6 0.2 2.0016 0.19922 2.6016 0.19922 0.7 0 0.69844 0 0.89844 0.5 0.1 0.5 0.5 1.5008 0.5 2.3008 0 0.9-0.39844 1.5-0.39844 2s0.39844 0.9 0.39844 1.5c0 0.7-0.39844 1.7-0.39844 2.5 0 0.9 0.39922 1.4992 0.19922 2.1992s-0.80078 1.2992-1.8008 1.6992c-1 0.3-2.3992 0.3-3.1992 0.5-0.8 0.1-1.1992 0.50156-1.6992 0.60156-0.5 0.2-1.1008 0.19922-1.8008 0.19922s-1.3008-7.8e-4 -1.8008 0.19922c-0.5 0.1-0.89922 0.50156-1.6992 0.10156-0.8-0.3-2.2008-1.3016-2.8008-2.1016-0.7-0.9-0.69844-1.4992-0.89844-2.1992-0.1-0.7-0.50156-1.2992-0.60156-1.6992-0.2-0.3-0.19844-0.3-0.39844-0.5l-1-1c-0.5-0.5-1.1-1.1008-2-1.3008-0.8-0.2-1.8 0.19922-2.5 0.69922-0.6 0.5-1.0008 1.1-1.8008 1.5-0.8 0.3-2.2 0.30078-3 0.30078s-1.1992-7.8e-4 -1.6992 0.19922c-0.5 0.1-1.1008 0.5-1.8008 1s-1.2992 1.1016-1.6992 1.6016c-0.3 0.5-0.30156 0.9-0.60156 1.5-0.4 0.7-0.99844 1.6992-1.3984 2.1992-0.3 0.5-0.30078 0.49922-0.80078 0.19922-0.5-0.4-1.4992-0.99922-2.1992-1.6992-0.6-0.7-1.0016-1.2992-1.1016-1.6992-0.2-0.3-0.19844-0.3-0.39844-1-0.1-0.6-0.50156-2.0016-0.60156-2.6016-0.2-0.7-0.19922-0.69844-0.19922-1.3984 0-0.6 0-2-0.5-3s-1.5008-1.6008-2.3008-1.8008c-0.9-0.2-1.4984 0.20078-2.3984 0.30078-0.8 0.2-1.8 0.19844-2.5-0.10156-0.6-0.4-1.0016-1-1.1016-1.5-0.2-0.5-0.2-0.89844-0.5-1.3984-0.4-0.5-1-1.1-1-2 0-0.8 0.60156-1.8 0.60156-2.5 0-0.6-0.60078-1-0.80078-1.5s0.19922-1.1016 0.19922-1.6016-0.4-0.9-0.5-1.5c-0.2-0.7-0.19922-1.6992-0.19922-2.1992s0-0.5-0.5-0.5-1.4992 0-2.1992 0.5c-0.6 0.5-1.0016 1.4992-1.1016 2.1992-0.2 0.6-0.19922 1.0016-0.19922 1.6016v4.1992c0 0.8-7.8e-4 2.2-0.30078 3-0.4 0.8-0.99844 1.2-1.3984 2-0.3 0.8-0.3 2.2 0 3 0.4 0.8 1 1.1992 1.5 1.6992s0.89922 1.1016 1.6992 1.6016 2.2 0.9 3 1c0.8 0.2 1.2 0.19922 1.5 0.19922s0.70078 7.8e-4 0.80078 0.30078c0.2 0.4 0.2 1 0.5 1.5 0.4 0.5 1 0.9 1.5 1 0.5 0.2 0.9 0.2 1 0.5 0.2 0.4 0.19922 0.99922 0.19922 1.6992s7.8e-4 1.3008-0.19922 1.8008c-0.1 0.5-0.50078 0.89844-0.30078 1.3984s0.80078 1.1008 0.80078 1.8008-0.60156 1.3-0.60156 2 0.6 1.2992 1 2.1992c0.3 0.8 0.3 1.8008 0.5 2.3008 0.1 0.5 0.50156 0.50078 0.60156 0.80078 0.2 0.4 0.2 0.99922 0.5 1.6992 0.4 0.7 0.99844 1.3008 1.3984 1.8008 0.3 0.5 0.3 0.89844 0.5 1.3984 0.1 0.5 0.50078 1.1016 0.80078 1.6016s0.70078 0.9 0.80078 1c0.2 0.2 0.19922 0.2 0.19922 0.5v1.6992c0 0.7-7.8e-4 1.3008-0.30078 2.3008-0.4 1-1 2.4-1.5 3-0.5 0.7-0.89922 0.69922-1.1992 1.1992s-0.69922 1.4992-0.69922 2.1992c0 0.6 0.39844 1.0008 0.89844 1.3008s1.1 0.7 2 0.5c0.8-0.2 1.8-0.79922 2.5-1.1992 0.6-0.3 1.0016-0.3 1.6016-0.5 0.7-0.1 1.6992-0.50156 2.1992-0.60156 0.5-0.2 0.5-0.2 1-0.5 0.5-0.4 1.5008-0.99844 2.3008-1.3984 0.9-0.3 1.5-0.3 2 0 0.5 0.4 0.9 0.99844 1 1.3984 0.2 0.3 0.19844 0.30078 0.89844 0.80078 0.6 0.5 2.0016 1.5008 2.6016 1.8008 0.7 0.4 0.7-2e-3 1-0.60156 0.4-0.7 0.99844-1.6992 1.8984-2.1992 0.8-0.5 1.8008-0.50078 2.3008-0.80078 0.5-0.4 0.50078-1 0.80078-1.5 0.4-0.5 0.99922-0.89844 1.1992-1.8984s-0.19922-2.6-0.69922-3.5c-0.5-0.8-1.1016-0.80078-1.6016-0.80078h-1c-0.2 0-0.2-7.8e-4 -1 0.19922-0.9 0.1-2.5 0.50156-3.5 0.10156-1-0.3-1.4-1.3-1.5-2-0.2-0.6-0.19844-1.0016-0.39844-1.6016-0.1-0.7-0.5-1.6992-1-2.1992s-1.1016-0.50078-1.6016-0.30078c-0.5 0.1-0.89844 0.50156-1.3984 0.60156-0.5 0.2-1.1008 0.2-1.8008 0.5-0.7 0.4-1.3 0.99922-2 1.1992s-1.2992-0.2-1.6992-1c-0.3-0.8-0.3-2.2008-0.5-2.8008-0.1-0.7-0.5-0.69844-1-1.3984-0.5-0.6-1.1008-2.0008-1.3008-2.8008s0.2-1.2 0.5-1.5 0.7-0.70078 1-0.80078c0.3-0.2 0.70078-0.19922 0.80078-0.19922 0.2 0 0.2-7.8e-4 1-0.30078 0.9-0.4 2.4992-0.99922 3.6992-1.1992s1.7992 0.20078 2.1992 0.30078c0.3 0.2 0.30078 0.2 0.30078 0.5v1.5c0 0.5 7.8e-4 0.89922 0.30078 1.1992 0.4 0.3 1 0.69922 2 0.69922s2.3992-0.39844 3.1992-0.39844 1.1992 0.4 1.6992 0.5c0.5 0.2 1.1008 0.2 1.8008 0.5 0.7 0.4 1.3008 0.99844 1.8008 1.3984 0.5 0.3 0.89922 0.30078 1.1992 0.30078s0.7 0 1 0.5 0.70078 1.5 0.80078 2c0.2 0.5 0.2 0.5 0.5 1 0.4 0.5 0.99922 1.5 1.6992 2s1.2992 0.5 1.6992 1c0.3 0.5 0.30078 1.5008 0.80078 2.3008 0.5 0.9 1.5 1.5 2.5 1.5s2-0.60156 2.5-1.1016 0.49922-0.89844 1.1992-1.3984c0.6-0.5 2-1.1008 3-1.3008s1.6 0.2 2 1c0.3 0.8 0.30156 2.2008 0.10156 2.8008-0.1 0.7-0.5 0.69844-0.5 1.3984 0 0.6 0.39844 2 0.39844 3s-0.39844 1.6016-0.39844 2.1016 0.39844 0.89844 0.39844 1.3984-0.4 1.1016-0.5 1.6016c-0.2 0.5-0.19844 0.89844-0.39844 1.3984-0.1 0.5-0.50078 1.1-0.80078 1.5-0.3 0.3-0.70078 0.30156-1.3008 0.10156-0.7-0.1-1.6984-0.5-2.3984-0.5-0.6 0-1.0008 0.39922-1.3008 0.69922s-0.7 0.70078-0.5 1.3008c0.2 0.7 0.8 1.6992 1.5 2.1992s1.3 0.49922 2 0.69922c0.7 0.1 1.3 0.50156 1.5 1.1016 0.2 0.7-0.19922 1.6992-0.69922 2.1992s-1.1016 0.49922-1.6016 0.69922c-0.5 0.1-0.89844 0.50156-1.3984 0.60156-0.5 0.2-1.1 0.19844-2 0.39844-0.8 0.1-1.8008 0.50156-2.3008 1.1016-0.5 0.7-0.5 1.6992-0.5 2.1992s-7.8e-4 0.49922 0.19922 0.69922c0.1 0.1 0.50078 0.5 0.80078 1s0.69922 1.1 1.1992 1.5c0.5 0.3 1.1016 0.30156 1.6016 0.60156 0.5 0.4 0.9 0.99844 1 1.3984l0.39844 0.60156c0.1 0.4 0.5 1 1 1.5s1.1016 0.89844 1.6016 1.3984 0.89922 1.1 1.1992 1.5c0.3 0.3 0.7 0.30078 1 0.80078s0.69922 1.4992 1.1992 2.1992c0.5 0.6 1.1008 1.0008 1.8008 0.80078s1.3008-0.8 1.8008-1.5 0.89922-1.3008 1.1992-1.8008 0.7-0.89844 1-1.3984 0.7-1.1016 1-1.6016 0.7-0.89922 1-1.1992l1.1992-1.1992c0.5-0.5 1.1-1.1016 1.5-1.6016 0.3-0.5 0.3-0.9 0.5-1 0.1-0.2 0.50078-0.19922 1.3008-0.19922s2.2-7.8e-4 3 0.19922c0.8 0.1 1.1992 0.50078 1.6992 0.80078s1.1008 0.70078 1.8008 1.3008c0.7 0.7 1.2992 1.6992 1.6992 2.1992l0.60156 1c0.4 0.5 0.99844 1.5 1.3984 2 0.3 0.5 0.30078 0.49922 0.30078 0.69922v3.3008c0 0.5 0 0.49922 0.5 1.1992 0.5 0.6 1.5008 2.0008 2.3008 2.8008 0.9 0.8 1.5 1.2008 2 1.3008 0.5 0.2 0.89844 0.19922 1.3984 0.19922h7.5c0.6 0 1-7.8e-4 1.5 0.19922 0.5 0.1 1.1016 0.50156 1.6016 0.60156 0.5 0.2 0.9 0.19922 1 0.19922 0.2 0 0.19922 0 0.69922 0.5s1.5 1.5 2.5 2 2 0.5 2.5 0 0.5-1.4992 0-2.1992c-0.5-0.6-1.5-1.0016-2-1.6016-0.5-0.7-0.5-1.6992 0-2.1992s1.4992-0.50078 2.1992-0.80078c0.6-0.4 1-1 1.5-1.5s1.1016-0.89922 1.6016-1.1992 0.89844-0.69922 0.89844-1.1992-0.39922-1.1016-0.69922-1.6016-0.70078-0.89844-0.80078-1.3984c-0.2-0.5-0.19844-1.1008-0.39844-1.8008-0.1-0.7-0.50156-1.3008-0.60156-1.8008-0.2-0.5-0.19922-0.89922 0.30078-1.1992s1.4992-0.69922 2.1992-0.69922c0.6 0 1 0.39844 1.5 0.39844s1.1-0.4 1.5-0.5c0.3-0.2 0.30078-0.19844 0.30078-0.89844 0-0.6-7.8e-4 -2 0.19922-3 0.1-1 0.5-1.6 1-2 0.5-0.3 1.1016-0.30078 1.6016-0.30078h1.3984c0.5 0 1.1 7.8e-4 1.5-0.19922 0.3-0.1 0.30156-0.50156 0.60156-1.1016 0.4-0.7 0.99922-1.7 0.69922-2.5-0.3-0.9-1.7008-1.4984-2.3008-2.3984-0.7-0.8-0.69922-1.8008-0.19922-2.3008s1.5-0.5 2.5 0 2 1.5 2.5 2 0.5 0.49922 1 0.19922c0.5-0.4 1.4992-1 2.1992-1.5 0.6-0.5 1-0.89844 1-1.3984s-0.39844-1.1008-0.39844-1.8008 0.39844-1.3008 0.39844-1.8008-0.39844-0.89844-0.39844-1.3984 0.39922-1.1008 0.69922-1.8008 0.7-1.2992 1.5-1.6992c0.8-0.3 2.2008-0.30156 2.8008-0.10156 0.7 0.1 0.7 0.5 1 0.5 0.4 0 0.99922-0.4 1.6992-1 0.7-0.7 1.2992-1.6992 2.1992-2.1992 0.8-0.5 1.8016-0.50078 2.6016 0.19922 0.9 0.6 1.4984 2.0016 1.8984 2.6016 0.3 0.7 0.30156 0.7 0.10156 1-0.1 0.4-0.50156 1-1.1016 1.5-0.7 0.5-1.6984 0.89844-2.3984 1.3984-0.6 0.5-1.0016 1.1-0.60156 2 0.3 0.8 1.3016 1.8016 2.1016 2.1016 0.9 0.4 1.4992-2e-3 2.1992 0.39844 0.7 0.3 1.2992 1.3008 1.6992 1.8008 0.3 0.5 0.30156 0.50078 0.60156 0.80078 0.4 0.4 0.99844 1 1.3984 1.5 0.3 0.5 0.3 0.9 1 1.5 0.6 0.7 2.0016 1.6992 2.6016 2.1992 0.7 0.5 0.69844 0.5 0.89844 1 0.1 0.5 0.5 1.5008 1 2.3008 0.5 0.9 1.1 1.5 1.5 2 0.3 0.5 0.30078 0.89922 0.30078 1.1992s7.8e-4 0.70078-0.19922 1.3008c-0.1 0.7-0.50156 1.6992-1.1016 2.1992-0.7 0.5-1.7 0.5-2.5 1-0.9 0.5-1.5 1.5-2 2s-0.9 0.5-1.5 0.5h-2.1992c-0.5 0-0.5-7.8e-4 -1 0.19922-0.5 0.1-1.5 0.50156-2 0.60156-0.5 0.2-0.49922 0.19922-1.1992 0.69922-0.6 0.5-2 1.5-2.5 2s-0.1 0.50078 0 0.80078c0.2 0.4 0.2 0.99844 0.5 1.8984 0.4 0.8 0.99844 1.8016 1.3984 2.6016 0.3 0.9 0.30078 1.5 0.30078 2s7.8e-4 0.89922-0.69922 1.6992c-0.6 0.8-2 2.1992-2.5 3.1992s-0.10078 1.6 0.19922 2c0.3 0.3 0.7 0.30156 1 0.60156 0.3 0.4 0.69922 0.99922 1.1992 1.1992s1.1-0.2 2 0c0.8 0.2 1.8 0.79922 2.5 1.1992 0.6 0.3 1.0016 0.30156 1.6016 0.60156 0.7 0.4 1.6992 0.99844 2.1992 1.3984 0.5 0.3 0.50078 0.30156 0.80078 0.60156l2.1992 2.1992c0.5 0.5 1.5008 1.4992 2.3008 1.6992 0.9 0.1 1.4992-0.49844 1.6992-1.3984 0.2-0.8-0.20078-1.8008-0.30078-2.3008-0.2-0.5-0.19844-0.49922 0.10156-0.69922 0.4-0.1 0.99922-0.50156 1.6992-0.60156 0.7-0.2 1.3008-0.19922 1.8008 0.30078s0.9 1.5 1 2c0.2 0.5 0.19844 0.50078 0.39844 0.80078 0.1 0.4 0.50078 0.99844 1.3008 1.3984 0.8 0.3 2.2008 0.30078 2.8008 0.30078h5.8984c0.5 0 1.1016 0 1.6016-0.5s0.89844-1.5008 0.89844-2.3008c0-0.9-0.39922-1.4984-0.69922-1.8984-0.3-0.3-0.70078-0.30078-1.3008-0.80078-0.7-0.5-1.6992-1.5-2.1992-2l-0.80078-0.80078c-0.4-0.4-0.99844-1-1.3984-2-0.3-1-0.3-2.4 0-3 0.4-0.7 0.99844-0.69844 1.3984-0.89844 0.3-0.1 0.30078-0.5 0.80078-1s1.4992-1.1 2.1992-2c0.6-0.8 1.0008-1.8 1.3008-2.5 0.3-0.6 0.7-1.0016 1-1.1016 0.3-0.2 0.7-0.19844 1-0.39844 0.3-0.1 0.7-0.50078 1.5-0.80078s2.2008-0.69922 2.8008-1.1992c0.7-0.5 0.7-1.1008 1-1.8008 0.4-0.7 1-1.2992 1.5-1.6992 0.5-0.3 0.9-0.30078 1.5-0.30078 0.7 0 1.6984 7.8e-4 2.3984-0.19922 0.6-0.1 1.0008-0.5 1.8008-0.5s2.2 0.39844 3 0.39844 1.2-0.4 1.5-0.5c0.3-0.2 0.7-0.19922 1-0.69922s0.7-1.5 1-2 0.69922-0.49922 1.1992-1.1992c0.5-0.6 1.1008-2.0016 1.8008-2.1016l-11.301-7c-0.4 0.5-0.99844 1.1008-1.8984 1.3008-0.8 0.2-1.8-0.2-2.5-0.5-0.6-0.3-1.0008-0.7-1.3008-1s-0.7-0.70078-1-0.80078c-0.3-0.2-0.70078-0.19844-0.80078-0.39844-0.2-0.1-0.2-0.50078-1-0.80078-0.9-0.3-2.5-0.7-3.5-1s-1.4-0.70078-2-0.80078c-0.7-0.2-1.6984-0.19844-2.3984-0.39844-0.6-0.1-1.0008-0.50156-1.3008-1.1016-0.3-0.7-0.70078-1.6984-0.80078-2.3984-0.2-0.6-0.19922-1-0.19922-1.5s-7.8e-4 -1.1-0.30078-2c-0.4-0.8-0.99844-1.8008-1.3984-2.3008-0.3-0.5-0.3-0.50078-0.5-0.80078-0.1-0.4-0.50078-1-0.80078-1.5s-0.7-0.89922-1-1.1992-0.69922-0.70078-1.1992-0.80078c-0.5-0.2-1.1-0.2-2-0.5-0.8-0.4-1.8008-1-2.3008-2s-0.5-2.4-0.5-3v-1.5c0-0.2 0-0.2 0.5-0.5 0.5-0.4 1.4992-0.99922 2.1992-1.6992 0.6-0.7 1-1.2992 1.5-1.6992 0.5-0.3 1.1016-0.30078 1.6016-0.80078s0.9-1.5 1-2c0.2-0.5 0.19922-0.49922-0.30078-0.69922-0.5-0.1-1.5-0.5-2-1s-0.5-1.1-1-1.5c-0.5-0.3-1.5-0.30156-2-0.60156-0.5-0.4-0.50078-1-0.80078-1.5-0.4-0.5-0.99844-0.89922-0.89844-1.6992 0.2-0.8 1.1984-2.2 1.3984-3 0.1-0.8-0.5-1.1992-1-1.6992s-0.89922-1.1008-0.69922-1.8008 0.8-1.3008 1.5-1.8008 1.3-0.89922 2-1.1992 1.2992-0.70078 1.6992-1.3008c0.3-0.7 0.30078-1.6992 0.30078-2.1992s-7.8e-4 -0.5 0.19922-1c0.1-0.5 0.50078-1.5 0.80078-2s0.70078-0.5 1.3008-0.5h2.5c0.9 0 1.4984 0 2.3984-0.5 0.8-0.5 1.8008-1.4992 2.3008-2.1992 0.5-0.6 0.49922-1 0.19922-1.5-0.4-0.5-0.99844-1.1-1.8984-1.5-0.8-0.3-1.8008-0.30078-2.3008-0.30078s-0.5-7.8e-4 -1 0.19922c-0.5 0.1-1.5008 0.5-2.3008 0.5-0.9 0-1.4984-0.39922-1.8984-0.69922-0.3-0.3-0.30156-0.69922-0.60156-1.1992-0.4-0.5-1-1.1008-2-1.3008s-2.4 0.19922-3 0.69922c-0.7 0.5-0.7 1.1016-1 1.6016-0.4 0.5-0.99844 0.89922-1.8984 0.69922-0.8-0.2-1.8-0.8-2.5-1.5-0.6-0.7-1.0016-1.2992-1.1016-1.6992-0.2-0.3-0.2-0.30078 0-0.80078 0.1-0.5 0.50078-1.5008 0.30078-2.3008-0.2-0.9-0.80078-1.4992-0.80078-2.1992s0.6-1.2992 1-2.1992c0.3-0.8 0.3-1.8008 0.5-2.3008 0.1-0.5 0.50156-0.5 0.60156-1 0.2-0.5 0.19922-1.4992 0.19922-2.1992 0-0.6-7.8e-4 -1 0.19922-1.5 0.1-0.5 0.50156-1.1016 0.60156-1.6016 0.2-0.5 0.2-0.89844 0-1.3984-0.1-0.5-0.50078-1.1-1.3008-1.5-0.8-0.3-2.2-0.30156-3-0.10156-0.8 0.1-1.2 0.50156-1.5 0.60156-0.3 0.2-0.69922 0.19844-1.1992-0.10156-0.5-0.4-1.1-0.99922-1.5-1.6992-0.3-0.7-0.30078-1.3008 0.19922-1.8008s1.5-0.9 2-1c0.5-0.2 0.5-0.2 1-0.5 0.5-0.4 1.5-1 2-1.5s0.49922-0.89844 0.19922-1.3984c-0.4-0.5-0.99844-1.1-1.3984-2-0.3-0.8-0.30078-1.8008-0.30078-2.3008s7.8e-4 -0.49922-0.19922-1.1992c-0.1-0.6-0.50156-2.0016-1.1016-2.6016-0.7-0.7-1.6992-0.69922-2.6992-1.1992s-1.9992-1.5-2.1992-2.5c-0.1-1 0.5-1.9992 1-2.6992 0.5-0.6 0.89922-1.0008 1.1992-1.3008s0.70078-0.7 0.80078-1c0.2-0.3 0.2-0.7 0-1-0.1-0.3-0.50156-0.7-0.60156-1.5-0.2-0.8-0.2-2.1992-0.5-3.1992-0.4-1-1-1.6016-1.5-2.1016s-0.89844-0.9-1.3984-1c-0.5-0.2-1.1-0.19922-1.5-0.19922-0.3 0-0.30078 0-0.30078-0.5s7.8e-4 -1.5008-0.69922-2.3008c-0.6-0.9-2.0008-1.4992-2.8008-1.6992z" />
</svg>