<?xml version="1.0" encoding="UTF-8"?>
<svg width="1800" height="900" version="1.1" xmlns="http://www.w3.org/2000/svg">
  <MetaInfo xmlns="http://www.prognoz.ru">
    <Geo>
      <GeoItem X="0" Y="0" Latitude="90" Longitude="-180"/>
      <GeoItem X="1800" Y="900" Latitude="-90" Longitude="180"/>
    </Geo>
  </MetaInfo>
  <path d="m850 240-5 6-3-1-2 5-5-1-1 1 2 5-3 2h-2l-1 3-0.98242 1.7949c0.80066 0.51481 1.4542 1.0229 1.6816 1.7051 0.3 1.2-0.69922 2.7992-0.69922 4.1992 0 1.3 1.0008 2.3008 0.30078 3.8008-0.49438 1.236-2.2124 2.7872-3.9766 3.9746l0.0117 2e-3c-0.38006 0.25647-0.76322 0.50923-1.1367 0.72266-0.55 0.275-1.0883 0.50703-1.6133 0.6914-0.525 0.18438-1.0371 0.32071-1.5371 0.40821-1 0.175-1.9496 0.15039-2.8496-0.0996-0.42192-0.11103-0.82555-0.26953-1.2188-0.44727-0.3932-0.17773-0.77599-0.37469-1.1562-0.5625-1.1542 0.58877-2.3608 1.2831-3.5234 2.0098-0.10487 0.0684-0.19778 0.13827-0.30078 0.20703v3.5937l2 3h3l1 5 1 1 5-4-1 8h4l2 1 5-3v-3l-3-2v-4l4-1 1 5h4l2 2-2 6 6-1 2 2-2 4 1 2 4-1 4 3-1 4h-2l-2 3-3 1 1 5-1 1h-4l-1 1 1 4 3 1 1.3711 1.3711 0.32813-0.17187 1.9121 0.81055c1.1845-0.95274 2.7476-1.488 4.1894-2.209 0.28447-0.11978 0.52128-0.28626 0.79297-0.41601h2e-3c0.0401-0.073 0.0614-0.10985 0.10352-0.18555 0.55652-1.0574 1.3148-2.3126 2.209-3.4414 0.72194-1.1326 1.2651-2.1879 2.0918-3.2578 1.7-2.2 3.3-3.7992 4-5.6992 0.7-1.8 0.3-3.8008 1-4.8008 0.35645-0.50921 0.9533-0.75766 1.6973-0.91992 0.54156-0.65367 1.4607-0.43352 2.8027-0.88086 1.4069-0.46895 3.1921-1.7347 3.416-3.127-0.48365-1.1335-1.4968-2.4076-2.2168-3.2715-1-1.1-1.3992-1.5016-0.69922-2.1016 0.4855-0.4855 1.4229-1.0916 2.6074-1.3652 0.0363-8e-3 0.0667-0.0242 0.10352-0.0312 0.49372-0.10337 1.0194-0.16051 1.5898-0.10351 1.8455 0.0923 3.9867 1.2227 5.1777 0.85742 0.26143-0.4068 0.50615-0.7817 0.82226-1.2559 0.16946-0.25419 0.38763-0.53938 0.57617-0.80078 0.28105-1.0942 0.49117-2.4487 0.92383-3.8008 0.9-2.5 2.5-4.8992 4-6.6992 0.97956-1.1755 1.9056-2.1519 2.7441-2.875l-0.25198-0.34575-2.293 1.7207h-1l-3-6 3-3-4-6 1-1v-3l2-3-2-3v-1l-2-5h1l-1-5-4 1-1-2h-7v-1h-3l-2-1-5 2 1 6-1 1-4-2-2-3 1-1-1-5z" />
</svg>