<?xml version="1.0" encoding="UTF-8"?>
<svg width="1800" height="900" version="1.1" xmlns="http://www.w3.org/2000/svg">
  <MetaInfo xmlns="http://www.prognoz.ru">
    <Geo>
      <GeoItem X="0" Y="0" Latitude="90" Longitude="-180"/>
      <GeoItem X="1800" Y="900" Latitude="-90" Longitude="180"/>
    </Geo>
  </MetaInfo>
  <path d="m970 244-1 1-1 5h-3l-4 2-1 2-3 2h-1l-3 1-2 6 3 2 3-2 4 2h2l1.3516 0.67578 3.3477-0.17578 0.74805-0.0977-0.44727 0.5977 2 3 6-3 1 3-2 3 0.61328 0.61328c-0.13519-0.27598-0.2311-0.5606-0.11328-0.91406 0.2-0.7 0.80078-1.6984 1.8008-2.3984 1-0.6 2.4-1.0016 3-1.1016 0.7-0.2 0.7-0.19922 1-0.19922h4.6992c0.3 0 0.70078 7.8e-4 1.3008 0.30078 0.7 0.4 1.6984 0.99922 2.3984 1.6992 0.6 0.7 1.0008 1.3008 0.80078 1.8008-0.2 0.4-0.8 0.49922-1.5 0.69922s-1.3 0.29961-2 0.59961c-0.6 0.3-1.1992 0.7-1.6992 1-0.6 0.4-1.2016 0.8-1.6016 1s-0.49961 0.30039-0.59961 0.40039c-0.1 0.2-0.10039 0.30078-0.40039 0.80078-0.4 0.4-0.99922 0.99844-1.6992 1.3984-0.7 0.3-1.3 0.30156-2 0.10156-0.7-0.1-1.2992-0.5-1.6992-1-0.5-0.5-0.60078-1.1008-0.80078-1.8008s-0.29961-1.3008-0.59961-1.8008c-0.0151-0.0377-0.0357-0.0708-0.0527-0.10742l-4.8477 2.9082v2l-5 2-1 1v1l-4 4 1 3-2 1-2 5h1l5-1v-3l-1-2 5-4h1l5-1 1 1v5l3 2 3-2 3 2 3-7-1-1h1l4-1 3 2 4-2 2 6h3l2-2 6 2h3l2-6 1-2 4-1 3-1 2-4-6-2 5-6 0.1465-0.14648-4.836-6.2227c-0.2809 0.76136-0.7601 1.434-1.3105 1.6699-0.7 0.4-1.3008-7.8e-4 -1.8008-0.30078s-0.8984-0.69922-1.3984-0.69922c-0.5-0.1-1.1008-7.8e-4 -1.8008 0.19922s-1.2992 0.29961-1.6992 0.59961c-0.3 0.2-0.3008 0.60039-0.8008 0.90039s-1.4992 0.69922-2.1992 1.1992c-0.6 0.5-1.0008 1.1016-1.3008 1.6016s-0.6996 0.89922-1.0996 0.69922c-0.5-0.2-1.0996-0.8-1.5996-1.5-0.6-0.7-1.2004-1.2992-1.4004-1.6992-0.2-0.3-0.1-0.3 0-1 0.1-0.6 0.099-2-0.2012-3-0.4-1-0.9992-1.6-1.6992-2-0.7-0.3-1.3008-0.3-1.8008-0.5-0.49986-0.1-0.8992-0.50078-1.1992-0.80078l-1-1c-0.3-0.3-0.69922-0.7-1.1992-1s-1.1-0.69961-1.5-1.0996c-0.5-0.4-0.60078-0.90039-0.80078-1.4004s-0.29922-0.99961-0.69922-1.5996c-0.5-0.6-1.1016-1.2012-1.6016-1.7012-0.38788-0.38788-0.7089-0.71743-0.83594-1.125l-0.36328-0.07422-6-2 2 5-5 4-2-2-5 1-1-1 1-5z" />
</svg>