<?xml version="1.0" encoding="UTF-8"?>
<svg width="1800" height="900" version="1.1" xmlns="http://www.w3.org/2000/svg">
  <MetaInfo xmlns="http://www.prognoz.ru">
    <Geo>
      <GeoItem X="0" Y="0" Latitude="90" Longitude="-180"/>
      <GeoItem X="1800" Y="900" Latitude="-90" Longitude="180"/>
    </Geo>
  </MetaInfo>
  <path d="m1248.2 565.63c-0.3181-8.4e-4 -0.8176 0.19221-1.4082 0.39843-0.7875 0.275-1.7387 0.57461-2.6387 0.47461-0.5853-0.0616-1.1219-0.29341-1.6328-0.59961-2.2033 1.068-4.732 2.4178-6.7129 3.834 0 0.41811-0.055 0.88511-0.1367 1.3848 0.1845 0.36436 0.4613 0.68953 0.584 1.0781 0.35 0.9 0.5243 1.8496 0.4863 2.7871-0.037 0.93815-0.2868 1.8623-0.7871 2.7129-0.4218 0.67498-1.0708 1.2989-1.7871 1.9043-0.419 0.36493-0.8516 0.71599-1.3281 1.0625 0 3e-3 -0.012 7e-3 -0.012 0.01-0.208 0.35856-0.4101 0.72653-0.6738 1.0254-0.9901 1.0561-2.3652 1.5596-3.7656 1.9727-1.116 0.71413-2.2109 1.3732-3.2344 1.8281-0.9493 0.39972-1.8238 0.70029-2.5859 0.77539-0.3819 0.0375-0.7359 0.0187-1.0567-0.0723-0.3203-0.0907-0.6074-0.25391-0.8574-0.50391-0.5502-0.55019-0.8678-1.5348-1.0215-2.6328-0.118-0.43384-0.1871-0.81299-0.2832-1.2227l-0.1211 0.0742 0.7268 5.0799h1l1 5v1l5 3h1l-1.6504 2.75 5.6348 3.5352c-0.053 0.0146-0.1346-5.4e-4 -0.1836 0.0156-0.4 0.1-0.601 0.27402-0.7012 0.48633-0.1006 0.2123-0.1 0.46289-0.1 0.71289 0 0.5-8e-4 0.99961 0.1992 1.5996 0.098 0.58997 0.487 1.1789 0.7852 1.6738l1.2011 0.73828 2.0723 1.0586 1.543 0.5293 1.709 0.77344 1.8437-0.40039 1.4375-2.0059 0.209-2.1133 0.5508-1.123 0.2871-0.0684 0.1625-0.16205 1-1-2-4h4l1-2 4 1h4l1-2 6-1h1l4-1 4 4 1-5-2-2h-2l-1-1 1-5v-1l-4-5-6-5-3 1-3-1 0.7773-2.7188c-0.3301 0.43654-0.6889 0.77023-1.0781 0.91992-0.423 0.15107-0.8544 0.0904-1.2754-0.0586-0.2797-0.0355-0.5838-0.16714-0.8867-0.42774-0.5375-0.4625-1.0363-1.2137-1.2363-2.0137-0.3-1.7 0.6992-3.7 0.1992-4-0.062-0.05-0.1479-0.072-0.2539-0.0723z" />
</svg>