<?xml version="1.0" encoding="UTF-8"?>
<svg width="1800" height="900" version="1.1" xmlns="http://www.w3.org/2000/svg">
  <MetaInfo xmlns="http://www.prognoz.ru">
    <Geo>
      <GeoItem X="0" Y="0" Latitude="90" Longitude="-180"/>
      <GeoItem X="1800" Y="900" Latitude="-90" Longitude="180"/>
    </Geo>
  </MetaInfo>
  <path d="m1119 585-3 3h1l-2 6-5-3-3 6h-1l-3-2v-4l-4.498-3.5977-0.6114-0.18554-0.4941 0.98828-0.3965 0.79492v7l-8-2-1 4-3 1-3 4-5-5v-1l-7-3-2 3-3 3 2 4 5-1 1-1 4 5-2 3-4-2-5 1-1-1-4-1v-7l-2-2-3 4-1 2v2l1 1-1 6-1 2-4-2-3 2 4 5 3-2 2 1 4-1v1h3l1 2 3 2h1l2-1h2l4 6 2 2 5 2-2 5h-2l-2-2-5 1-1 2v9h4v1l4 4h2l3 1v2l-2 5 1 2 3-1 2 1v2.5c0-0.8 0-1.6996 0.5-2.0996s1.5008-0.40039 2.3008-0.90039c0.9-0.5 1.5-1.4992 2-2.1992 0.4-0.8 0.4992-1.3008 0.6992-1.8008s0.2996-1.0004 0.5996-1.4004c0.2-0.4 0.6004-0.79883 0.9004-1.2988s0.7-1.1008 1-1.8008 0.6996-1.3008 1.0996-1.8008 0.9004-0.89922 1.4004-1.1992 0.9996-0.69961 1.5996-1.0996 1.2004-0.90039 1.9004-1.4004 1.2992-0.99961 1.6992-1.5996c0.3-0.6 0.3004-1.2012 0.4004-1.7012s0.2-0.89922 0.5-1.1992 0.7012-0.7 1.2012-1c0.4-0.3 0.7992-0.70078 1.1992-1.3008 0.3-0.7 0.6992-1.6984 0.6992-2.3984 0-0.6-0.3992-1.0008-0.6992-1.3008s-0.6992-0.7-0.6992-1.5 0.3992-2.2 0.6992-3c0.225-0.6 0.5063-0.97578 0.8438-0.95703 0.1121 6e-3 0.2304 0.0562 0.3554 0.15625 0.5 0.3 1.1016 1.3008 2.1016 1.8008s2.3992 0.5 3.1992 0.5 1.2 7.8e-4 1.5 0.30078c0.3 0.4 0.7 0.99922 1 1.6992s0.7008 1.3004 0.8008 1.9004c0.2 0.6 0.1992 1.0996 0.1992 1.5996s-8e-4 0.99961 0.1992 1.5996c0.1 0.6 0.5008 1.1996 1.3008 1.5996 0.8 0.3 2.1992 0.30039 3.1992 0.40039s1.6008 0.20039 2.3008 0.40039 1.2992 0.30039 1.6992 0.90039c0.3 0.6 0.3008 1.6004 0.8008 1.9004 0.5 0.4 1.5008-2e-3 2.3008 0.39844 0.9 0.3 1.5 1.3016 2 2.1016 0.4 0.9 0.4992 1.4992 0.6992 2.1992s0.3 1.3008 0.5 1.8008c0.2 0.4 0.3 0.49883 0.5 0.79883 0.1 0.3 0.2008 0.70117 0.3008 1.2012 0 0.4 0.099 0.79844 0.1992 1.3984 0.2 0.6 0.3 1.5008 0.5 2.3008s0.3008 1.7008 0.3008 2.3008c-0.1 0.5-0.5016 0.89922-0.6016 1.6992-0.2 0.8-0.1988 2.2004-0.2988 2.9004-0.1 0.8-0.2004 0.89961-0.4004 1.0996-0.1 0.3-0.1996 0.49922-0.5996 0.69922s-1.1008 0.30039-1.8008 0.40039c-0.7 0.2-1.4004 0.30078-1.9004-0.19922-0.2569-0.20556-0.4879-0.60327-0.7187-0.97656l0.5254 1.5762h4v-0.91602c0.025-0.0161 0.025-0.0402 0.047-0.0566l6.9532 3.9727 3-1 6-1-3-5 1-1 4-1h2l2-2-3-6 3.998-4 4.9961-6-4.6836-2.8106-0.016 0.01-10.301-6.1995-1-4-3-2 1-3-4-2-1 1h-5l-1-1 2-3-3-5v-1h-3l-2-7 2-2v-1l1-3-2-4v-1l-2-5h-2l-2-2 2-3zm3.8008 78v2e-3c0-2e-5 0 2e-5 0.01 0-9e-4 0-1e-3 -2e-3 0-2e-3zm1.1308 0.54297c0.056 0.0471 0.1125 0.0887 0.168 0.13476-0.055-0.0516-0.1122-0.086-0.168-0.13476zm-2.3476 0.0293c-0.035 0.0293-0.057 0.0534-0.092 0.084 0.032-0.0281 0.059-0.057 0.092-0.084zm2.5781 0.16015 0.8399 1.2676h0.8984c-0.3002-0.125-0.5504-0.25-0.9004-0.5-0.2863-0.20447-0.5579-0.49846-0.8379-0.76758zm-3.5039 0.89844c-0.013 0.0221-0.046 0.0468-0.059 0.0684-0.01 0.0126 0 0.0149 0 0.0273 0.01-0.01 0.01-0.0175 0.014-0.0273 0.012-0.0213 0.035-0.0465 0.049-0.0684zm-0.2539 1.3379c0 7e-3 -0.01 0.0241 0 0.0312v0.13867c0-0.043 0.01-0.0991 0.01-0.13867 0-9e-3 0-0.0223-0.01-0.0312zm0 1.0527c0.01 0.0697-0.015 0.10363 0 0.17774 0.01 0.0493 0.055 0.12649 0.068 0.17773-0.015-0.056-0.048-0.12401-0.059-0.17773-0.013-0.0659 0-0.1153-0.01-0.17774zm0.6172 1.7695c0.035 0.0787 0.047 0.12763 0.082 0.20898 0.3 0.7 0.6008 1.3 0.3008 2-0.2746 0.48059-0.7481 0.84978-1.168 1.2363 0.4109-0.37144 0.9171-0.7802 1.1778-1.2363 0.3-0.7-8e-4 -1.3-0.3008-2-0.032-0.0752-0.06-0.1361-0.092-0.20898zm-34.022 0.20898c-0.3 0.7-0.7008 1.3008-0.8008 1.8008 0.1-0.5 0.5008-1.1008 0.8008-1.8008zm-0.8008 1.8008c-0.2 0.5-0.1992 0.89922-0.1992 1.6992 0-0.8-8e-4 -1.1992 0.1992-1.6992zm-0.1992 1.6992c0 0.8 8e-4 2.2004 0.3008 2.9004-0.3-0.7-0.3008-2.1004-0.3008-2.9004zm0.3008 2.9004c0.4 0.8 0.9992 0.89961 1.6992 1.0996-0.7-0.2-1.2992-0.29961-1.6992-1.0996zm33.498-2.7051c-0.022 0.03-0.082 0.0762-0.1 0.10547-0.01 0.0109 0 0.0185 0 0.0293 0.01-0.0103 0.01-0.0189 0.014-0.0293 0.02-0.0334 0.064-0.0711 0.09-0.10547zm-0.1718 0.75391c0.011 0.0194 0.024 0.0377 0.037 0.0566-0.013-0.0187-0.026-0.0375-0.037-0.0566zm0.6406 0.52344c0.015 8e-3 0.018 0.0198 0.033 0.0273 0.7 0.3 1.7 0.69922 2 1.1992 0.4 0.5 0 1.1008-0.6016 1.3008 0-8.2e-4 0.01 8.5e-4 0.01 0 0.6016-0.2 1.0015-0.80078 0.6015-1.3008-0.3-0.5-1.3-0.89922-2-1.1992-0.016-8e-3 -0.027-0.0191-0.043-0.0273zm1.4316 2.5273c-0.6852 0.19577-1.6504-0.17921-2.3476-0.19531 0.6947 0.0137 1.6607 0.38594 2.3476 0.19531zm-2.3984-0.19922s-0.01 4e-3 -0.012 4e-3c0.01-1.1e-4 0.011-4e-3 0.017-4e-3h-0.01zm-0.9492 0.26367c-0.2631 0.10744-0.4733 0.18904-0.8516 0.23633-0.012 3e-3 -0.029 5e-3 -0.041 8e-3 0.014-3e-3 0.037-4e-3 0.051-8e-3 0.3389-0.0424 0.6006-0.1395 0.8418-0.23633zm-3.6289 0.73243c-0.01 2e-3 -0.019 1e-3 -0.024 4e-3 -0.01 5e-3 0 0.0128-0.012 0.0176 0.01-5e-3 0.012-0.0123 0.022-0.0176 0-2e-3 0.01-2e-3 0.014-4e-3zm-23.723 0.90234c0.1514 0.25234 0.3253 0.53062 0.4121 0.80859-0.087-0.27811-0.2606-0.55612-0.4121-0.80859zm22.728 0.55859c-0.01 0.0146-0.021 0.0285-0.029 0.043-0.4 0.5-0.9992 0.9-1.6992 1-0.6964 0.19898-1.2937 0.19922-1.8906 0.19922 0.6 0 1.2004 7.8e-4 1.9004-0.19922 0.7-0.1 1.2992-0.5 1.6992-1 0.01-0.0137 0.012-0.0291 0.019-0.043zm-7.3281 1.584c-0.059 0.0199-0.139 0.0363-0.1992 0.0586 0.06-0.0222 0.1302-0.034 0.1992-0.0566zm-0.1992 0.0586c-0.4222 0.15604-0.8002 0.3337-1.4004 0.40039 0.5025-0.0558 0.9039-0.19706 1.2715-0.33594zm-1.4004 0.40039c-0.8 0.2-1.8 0.19922-2.5 0.19922 0.7 0 1.7 7.8e-4 2.5-0.19922zm-14.541-0.14453c-0.2579 0.17395-0.5062 0.35051-0.6602 0.54297 0.1553-0.19407 0.3999-0.36762 0.6602-0.54297zm-0.6602 0.54297c-0.4012 0.5-0.2992 1.1008-0.1 1.8008-0.2-0.7-0.3012-1.3008 0.1-1.8008zm-0.0996 1.8008c0.2 0.7 0.2996 1.2992 0.5996 1.6992-0.3-0.4-0.3996-0.99922-0.5996-1.6992zm0.5996 1.6992c0.2 0.3 0.5996 0.30078 1.0996-0.19922-0.5 0.5-0.8996 0.49922-1.0996 0.19922z" />
</svg>