<?xml version="1.0" encoding="UTF-8"?>
<svg width="1800" height="900" version="1.1" xmlns="http://www.w3.org/2000/svg">
  <MetaInfo xmlns="http://www.prognoz.ru">
    <Geo>
      <GeoItem X="0" Y="0" Latitude="90" Longitude="-180"/>
      <GeoItem X="1800" Y="900" Latitude="-90" Longitude="180"/>
    </Geo>
  </MetaInfo>
  <path d="m1242 605.75-0.4629 0.0137c0.2611 0.64659 0.4063 1.3839 0.1621 2.0352-0.4 0.9-0.9992 1.4984-1.6992 1.8984-0.678 0.29056-1.2537 0.27891-1.7441 0.0977l0.0566 0.20305h1.6875l2 2-1 1h-1.8477l1.1875 4.2461c0.2777-0.14422 0.5521-0.16975 0.8594-0.0469 0.5 0.1 1.1 0.50156 1.5 0.60156 0.3 0.2 0.3 0.19922 0.5 0.69922 0.1 0.5 0.5008 1.4992 0.8008 2.1992 0.3 0.6 0.7008 1.0016 0.8008 1.6016 0.2 0.7 0.2 1.6984 0.5 2.3984 0.4 0.6 1 1.0016 2 1.1016 1 0.2 2.4 0.19922 3 0.19922h1.1992c0.5 0 1.4992-7.8e-4 2.1992 0.19922 0.6 0.1 1 0.50156 1 1.1016 0 0.7-0.3984 1.6992-0.8984 2.1992s-1.1 0.49922-1.5 1.1992c-0.3 0.6-0.3008 2.0016-0.3008 2.6016v1.1992c0 0.5 0 1.4992 0.5 2.1992 0.5 0.6 1.5008 1.0008 1.8008 1.8008 0.4 0.8 0 2.2008 0.5 2.8008 0.5 0.7 1.8992 0.69922 2.6992 0.69922h3.1992c0.3 0 0.3 0 0.5 0.5 0.1 0.5 0.5 1.5008 0.5 2.3008 0 0.9-0.3984 1.4992-0.3984 2.1992s0.3984 1.3008 0.3984 1.8008-0.4 0.89844-0.5 1.3984c-0.2 0.5-0.1992 1.1016 0.3008 1.6016s1.5 0.89844 2 1.3984 0.5008 1.1016 0.3008 1.6016c-0.1 0.5-0.5008 0.9-1.3008 1-0.8 0.2-2.2 0.19922-3 0.19922h-1.5c-0.3 0-0.7008-7.8e-4 -0.8008 0.19922-0.2 0.1-0.1984 0.5-0.3984 1.5-0.1 1-0.5 2.6-0.5 3.5 0 0.8 0.3992 0.8 1.1992 1 0.8 0.1 2.2 0.50156 3 0.60156 0.8 0.2 1.2008 0.19922 1.3008 0.19922h2.8984c0.6 0 1.0008-7.8e-4 1.8008 0.19922 0.8 0.1 2.2 0.5 3 0.5s1.2008-0.39844 1.8008-0.39844c0.7 0 1.6992 0.39922 2.1992 0.69922s0.5008 0.7 0.8008 1c0.4 0.3 1 0.70078 1.5 1.3008 0.5 0.7 0.9 1.6984 1 2.3984 0.1 0.3 0.1496 0.55039 0.1992 0.80078v-0.5l4-1 1 1h3l4-2 3 3 4 2 2-1 1-5h1l5 5 5-2 1-2h2l3 3 4-3 1 5h2l3-3 5 4 2-5h5l4 3v4l3 2 4-6-1-1v-5l2-1v-6l-3 1-2-2v-4l-4-2-1-3h-6l-1-4-5 4h-2l-3 1-2-2-4-1-1 1 1 5-3 2-1-2-3 1-1.043-0.52148-4.1562 3.2207-0.037-0.0254 1.2362 4.3262h-1l-6-4-2 2h-2l-3-5h-1l-3-4 1-2-3-5v-1l-3-1 1-6-7 1v-1l-4 2-7 2-2-3h-4v-6l-1-1v-4l2-3-2-3 1-2-2-3-5-1-1 1-4-6-3 3-3-2zm89 67.248-1.4004 0.4668 1.5547-0.3125zm-53.801-2.6992c0.1 0.7 0.5016 1.6992 0.6016 2.1992 0.2 0.5 0.1992 0.49922 0.6992 0.69922-0.4651-0.18603-0.4873-0.24718-0.6504-0.65039l-0.1973-0.59375c-0.1597-0.52535-0.3781-1.1277-0.4531-1.6543zm34.801 9.3984c-0.2457 0-0.4738 0.0773-0.6934 0.17187l0.1211 0.0195c0.2024-0.0829 0.3498-0.1914 0.5723-0.1914zm4.5645 0.11914c0.1134 0.0428 0.2228 0.0939 0.33 0.14648-0.1086-0.0531-0.2152-0.10362-0.33-0.14648zm2.2363 0.0566c-0.084 0.0339-0.1643 0.0743-0.2442 0.11914 0.079-0.0449 0.1603-0.0849 0.2442-0.11914zm-1.6524 0.20898c0.2317 0.11519 0.4528 0.2168 0.6524 0.2168-0.1811 0-0.4441-0.11572-0.6524-0.2168zm0.6524 0.2168c0.1709 0 0.3307-0.0758 0.4902-0.16406-0.1526 0.0829-0.3267 0.16406-0.4902 0.16406zm4.3125 0.21289c-0.1267 0.15484-0.2641 0.26211-0.4141 0.28711 0.15-0.025 0.2874-0.13227 0.4141-0.28711zm-0.4141 0.28711c-0.175 0.05-0.3693 0.0258-0.5722-0.043 0.2029 0.0688 0.3972 0.093 0.5722 0.043z" />
</svg>