<?xml version="1.0" encoding="UTF-8"?>
<svg width="1800" height="900" version="1.1" xmlns="http://www.w3.org/2000/svg">
  <MetaInfo xmlns="http://www.prognoz.ru">
    <Geo>
      <GeoItem X="0" Y="0" Latitude="90" Longitude="-180"/>
      <GeoItem X="1800" Y="900" Latitude="-90" Longitude="180"/>
    </Geo>
  </MetaInfo>
  <path d="m1031 533-5 3-2.5-2.5c0.5 0.5 1.4992 1.5 2.1992 2.5 0.6 1 1 1.9992 1 2.6992 0 0.6-0.3992 1.0008-0.6992 1.3008s-0.7008 0.69922-1.3008 0.69922c-0.7 0-1.6984-0.39922-2.3984-0.69922-0.6-0.3-1.0008-0.70078-1.3008-0.80078-0.3-0.2-0.7-0.19844-1.5 0.10156-0.8 0.4-2.2008 0.99844-2.8008 1.3984-0.7 0.3-0.6984 0.3-1.3984 0.5-0.6 0.1-2 0.50156-3 0.60156-1 0.2-1.6016 0.19922-2.1016 0.19922s-0.9 7.8e-4 -1.5-0.19922c-0.7-0.1-1.6992-0.50156-2.1992-0.60156-0.5-0.2-0.5-0.19922-1 0.30078l-2.1992 2.1992-3 3c-0.3 0.3-0.3008 0.30156-0.8008 0.60156-0.5 0.4-1.5 0.99922-2 1.6992s-0.5 1.3008-1 1.8008-1.4992 0.9-2.1992 1c-0.6 0.2-1 0.19922-1.5 0.19922s-1.1-7.8e-4 -2-0.30078c-0.8-0.4-1.8008-0.99844-2.3008-1.3984l-1-0.60156c-0.5-0.4-1.5-0.99844-2-1.3984-0.5-0.3-0.49922-0.30078-0.69922-0.30078h-1c-0.5 0-1.1016 7.8e-4 -1.6016-0.19922-0.5-0.1-0.9-0.5-1.5 0-0.7 0.5-1.6984 1.9-1.8984 3-0.1 1.2 0.49844 2.1984 0.89844 2.8984 0.3 0.6 0.30156 1.0008 0.10156 1.3008-0.1 0.3-0.50078 0.70078-0.80078 1.3008-0.3 0.7-0.69922 1.6984-1.1992 2.3984-0.5 0.6-1.1016 1.0016-1.6016 1.6016-0.5 0.7-0.9 1.6992-1 2.1992-0.2 0.5-0.2 0.50078-0.5 1.3008-0.4 0.9-0.99844 2.4984-1.3984 3.3984-0.3 0.8-0.30156 0.80078-0.60156 1.3008-0.4 0.5-1 1.5-1 2.5s0.60156 2 1.1016 2.5 0.89922 0.50078 1.1992 0.80078c0.3 0.4 0.69922 0.99844 0.69922 1.8984 0 0.8-0.39922 1.8-0.69922 2.5-0.3 0.6-0.69922 1.0016-1.1992 1.1016-0.5 0.2-1.1008 0.19922-1.8008 0.19922h-4.3008c-0.7 0-1.6984 7.8e-4 -2.3984-0.19922-0.6-0.1-1.0016-0.50156-1.1016-1.1016-0.2-0.7-0.2-1.7-0.5-2.5-0.4-0.9-0.99844-1.4984-1.3984-1.8984-0.3-0.3-0.30078-0.3-0.80078 0-0.5 0.4-1.5 0.99844-2 1.3984-0.5 0.3-0.5 0.30156-0.5 0.60156 0 0.4-7.8e-4 1 0.19922 1.5 0.1 0.5 0.5 0.89844 0.5 1.3984s-0.4 1.1016-0.5 1.6016c-0.2 0.5-0.2 0.89844 0 1.3984 0.1 0.5 0.50156 1.1016 0.60156 1.6016 0.2 0.5 0.2 0.89844 0.5 1.3984 0.4 0.5 1 1.1008 1 1.8008s-0.60078 1.2992-1.3008 1.6992c-0.7 0.3-1.3008 0.30156-1.8008 0.10156-0.5-0.1-0.89922-0.50156-1.1992-0.60156-0.3-0.2-0.69922-0.2-1.1992-0.5-0.5-0.4-1.1-0.99844-1.5-1.3984-0.3-0.3-0.30156-0.30078-0.60156-0.30078-0.4 0-0.99922 7.8e-4 -1.6992 0.30078-0.7 0.4-1.3008 0.99922-1.8008 1.6992s-0.89922 1.3008-1.1992 1.8008-0.7 0.9-1 1c-0.3 0.2-0.7 0.19922-1.5 0.69922s-2.1992 1.5-2.6992 2.5-0.1 1.9992 0 2.6992c0.2 0.6 0.2 1 0.5 1.5 0.4 0.5 0.99922 1.1008 1.1992 1.8008s-0.19922 1.3008-0.69922 1.8008-1.1008 0.89922-1.8008 0.69922-1.2992-0.8-2.1992-1c-0.8-0.2-1.8 0.20078-2.5 0.30078-0.6 0.2-1.0016 0.19922-1.1016 0.19922-0.2 0-0.2-7.8e-4 -0.5 0.19922-0.4 0.1-1 0.50078-1.5 0.80078s-0.89844 0.7-1.3984 1-1.1 0.69922-1.5 1.1992c-0.3 0.5-0.3 1.1008-0.5 1.8008-0.1 0.7-0.5 1.3-0.5 2s0.4 1.3008 0.5 1.8008c0.2 0.5 0.19844 0.89922-0.10156 1.1992-0.4 0.3-0.99844 0.7-1.3984 1.5-0.3 0.8-0.3 2.2 0 3 0.4 0.8 0.99844 1.2008 1.3984 1.3008 0.3 0.2 0.3 0.19844 0.5 0.39844 0.1 0.1 0.50156 0.5 1.1016 0.5 0.7 0 1.7-0.39844 2.5-0.89844 0.9-0.5 1.4992-1.1016 1.6992-1.6016s-0.19922-0.9 0.30078-1.5c0.5-0.7 1.8992-1.6992 2.6992-2.1992s1.2008-0.5 1.3008-0.5h2.8984c0.6 0 1-7.8e-4 1.5 0.19922 0.5 0.1 1.1016 0.5 1.6016 0.5s0.89844-0.39844 1.3984-0.39844 1.1008 0.39922 1.8008 0.19922 1.2992-0.80078 1.6992-1.3008c0.3-0.5 0.30156-0.9 0.60156-1.5 0.4-0.7 0.99844-1.6984 1.3984-2.3984 0.3-0.6 0.30078-1.0016 0.30078-1.1016 0-0.2 7.8e-4 -0.2 0.30078-0.5 0.4-0.4 0.99922-1 1.6992-1.5s1.3008-0.9 1.8008-1c0.5-0.2 0.9-0.19844 1.5-0.39844 0.7-0.1 1.6992-0.50156 2.1992-0.60156 0.5-0.2 0.49922-0.19844 1.1992 0.10156 0.6 0.4 2.0016 1 2.6016 1.5 0.7 0.5 0.7 0.89922 1 1.1992 0.4 0.3 1 0.7 1.5 1s0.89844 0.70078 1.3984 0.80078c0.5 0.2 1.1016 0.19922 1.6016 0.69922s0.9 1.5 1 2c0.2 0.5 0.19844 0.50078 0.89844 0.80078 0.6 0.4 2 1 2.5 1.5s0.10156 0.89922-0.39844 1.1992-1.1016 0.70078-1.6016 1.3008c-0.5 0.7-0.89844 1.6992-0.39844 2.1992s1.8992 0.49922 2.6992 0.19922c0.8-0.4 1.1992-0.99844 1.6992-1.3984 0.5-0.3 1.1016-0.30078 1.6016 0.19922s0.89844 1.5 1.3984 2 1.1016 0.50078 1.6016 0.80078c0.5 0.4 0.89844 0.99844 1.3984 1.3984 0.5 0.3 1.1008 0.30078 1.8008 0.80078s1.3008 1.5 1.8008 2 0.9 0.5 1 0.5c0.2 0 0.19844-7.8e-4 0.39844 0.69922 0.1 0.6 0.5 2.0008 0.5 2.8008s-0.4 1.2-0.5 1.5c-0.2 0.3-0.19844 0.69922 0.10156 1.1992 0.4 0.5 1 1.1016 2 1.1016s2.3984-0.60156 2.8984-0.10156 0.1 2.1 0 3c-0.2 0.8-0.19844 0.80078-0.39844 1.3008-0.1 0.5-0.50156 1.5-0.60156 2-0.2 0.5-0.19922 0.5-0.69922 1l-2 2c-0.5 0.5-0.5 0.50078-1 0.80078-0.5 0.4-1.4992 0.99844-2.1992 1.8984-0.6 0.8-1.0016 1.8-0.60156 2.5 0.3 0.6 1.3 1.0016 2 1.1016 0.6 0.2 1.0016 0.19844 1.6016 0.39844 0.7 0.1 1.6992 0.5 2.1992 1s0.5 1.1 1 1.5c0.5 0.3 1.4992 0.3 2.1992 0.5 0.6 0.1 1.0016 0.50078 1.6016 0.80078 0.7 0.3 1.6992 0.70078 2.1992 0.80078l1 0.39844c0.5 0.1 1.4992 0.5 2.1992 0.5 0.6 0 1-0.39844 1.5-0.39844s1.1016 0.39922 1.6016 0.69922 0.8984 0.69922 0.8984 1.1992-0.3992 1.1-0.1992 2c0.2 0.8 0.8008 1.8008 1.3008 2.3008s0.9 0.50078 1 0.80078c0.2 0.4 0.1992 1 0.6992 1.5s1.5 0.9 2 1.5c0.5 0.7 0.5 1.6984 1 2.3984 0.5 0.6 1.4992 1 2.1992 1 0.6 0 1.0016-0.4 1.6016-0.5 0.7-0.2 1.6984-0.19844 2.3984 0.10156 0.6 0.4 1.0008 0.99844 1.3008 1.3984 0.3 0.3 0.7 0.30156 1 0.60156 0.3 0.4 0.6992 1 1.1992 1.5s1.1016 0.89844 1.6016 1.3984 0.8984 1.1016 1.3984 1.6016 1.1016 0.89922 1.6016 1.1992 0.9 0.69922 1.5 0.69922c0.7 0 1.6984-0.39844 2.3984-0.89844 0.6-0.5 1.0016-1.1016 1.6016-1.6016 0.7-0.5 1.6984-0.89844 2.3984-0.89844 0.6 0 1.0016 0.39844 1.6016 0.89844 0.7 0.5 1.6992 1.1 2.1992 1.5l0.5 0.30078 2-3h4l1 2 3 1 1-1-1-6h1l4 2 4-4 3 2h2l3-4-5-4v-2h-1l-2-2h-2l-2-6-5-1-5 1-2-5-3-2v-1l2-3-1-4-2-2 2-4-1.8867-0.62891c0.037 0.14418 0.068 0.28776 0.084 0.42969 0.1 1.9-1.5 3.5-3.5 4.5s-4.3993 1.3984-6.1993 0.39844-3.2-3.3992-4-4.6992c-0.4325-0.70274-0.8717-1.0842-1.2441-1.5137-0.2522-1e-3 -0.4776 0.0508-0.7559 0.0137-1.5-0.2-3.5-0.8-4.5-2s-1-2.7992-2-4.1992c-1-1.3-3.0007-2.3008-4.3007-3.8008-0.7355-0.78805-1.2489-1.7079-1.7168-2.627-0.086-0.0397-0.2012-0.0262-0.2832-0.0723-1.7-0.8-2.6993-2.8016-4.1993-4.1016-1.5-1.4-3.4992-1.9984-3.6992-2.8984-0.051-0.4049 0.3346-0.86726 0.8438-1.4394-0.5587-0.79174-0.9453-1.6391-0.9453-2.5606 0-1.8 1.6007-3.8016 3.3007-4.6016 1.7-0.9 3.2993-0.5 4.1993 0 0.047 0.0292 0.052 0.0696 0.094 0.0996 0 1e-3 0.01 9.5e-4 0.01 2e-3 0.7872 0.55107 1.2322 1.2996 1.7637 2.0762 0.9268 0.76474 2.3717 1.6455 4.1347 1.9238 1.8 0.4 3.8008 0 4.3008-1s-0.4992-2.6016-1.1992-4.1016c-0.2856-0.71394-0.5063-1.3922-0.5723-1.9746-0.01-9e-3 -0.019-0.0164-0.029-0.0254-0.7-0.9-0.7-1.4992 0.5-1.6992 0.1008-0.0184 0.2899 0.0314 0.4102 0.0234 0.2951-0.61764 0.7534-1.1501 1.207-1.3398 0.2431-0.10088 0.4821-0.10906 0.6816 0.0156 0.093 0.0584 0.1778 0.1631 0.2598 0.29101-0.01-0.011-0.012-0.0305-0.019-0.041l0.2604-2.4492v-1l1.6641-0.55469c0.037 2e-3 0.078-2e-3 0.1152 0-0.4475-0.02-0.8826-0.0564-1.2793-0.14453-1.8-0.3-3.1992-1.3016-4.6992-2.6016-1.5-1.4-3.1-2.9992-4-4.1992-0.8-1.2-0.8016-1.8008-1.6016-2.8008-0.8291-0.9212-2.2974-2.1406-4.0801-2.959-0.7644 0.23348-1.5276 0.27527-2.3183-0.041-0.5838-0.27245-1.1307-0.85182-1.6446-1.4297-0.1607-0.0568-0.2548-0.12655-0.4003-0.18555-0.525-0.13382-0.9924-0.32045-1.2559-0.58398-0.52106-0.52108-0.2826-1.2888 0.2461-2.0703-0.01-0.076-0.047-0.15507-0.047-0.23047 0-1.9 1.6008-3.4984 3.3008-4.3984 1.7-0.8 3.3008-0.80156 5.3008-0.60156 0.8632 0.0432 1.8137 0.12604 2.7617 0.15234 1.0391-0.29925 1.9858-0.6409 2.6367-1.1523 1.3-1.2 1.3016-3.2 2.1016-4 0.9-0.9 2.4984-0.49922 4.3984 0.30078 0.4928 0.21903 0.967 0.57042 1.459 0.86914 0.7367-0.50796 1.3937-0.84841 1.8418-0.56836 0.556 0.34753 0.8912 1.6143 0.8262 2.8574 0.1257 0.18162 0.285 0.3529 0.373 0.54102 0.6 1.5 0 3.1-1.3984 4-0.9518 0.58574-2.2641 0.74573-2.8281 1.0625-0.092 0.15869-0.1282 0.33446-0.2012 0.5039 0.2032 0.62248 2.4715 1.9654 4.2285 3.2344 1.8 1.3 3.2008 2.6992 4.3008 4.1992 1.2 1.5 2.2 3.1016 3 2.6016 0.1685-0.0936 0.3122-0.32176 0.457-0.54492 0.7097-1.4182 1.0124-3.1336 0.9414-4.5566-0.2-2-1.1992-3.3984-0.6992-4.8984 0.081-0.24195 0.3731-0.47844 0.5234-0.72266 0.023-0.0439 0.056-0.0871 0.08-0.13085l-2.1033 1.0527-1-5 1-3v-2l5.8047-0.9668 0.7871-4.2598-0.5918-1.7734v-5.7539l-0.045-0.29101-3.955-3.9551h-1l-2-6 1-2zm-10.988 58.006c0.031 0.0757 0.064 0.15077 0.094 0.23242-0.03-0.0815-0.063-0.15692-0.094-0.23242zm0.2735 0.74805c0.018 0.0535 0.035 0.10394 0.053 0.1582 6e-4 1.4e-4 0-1.4e-4 0 0-0.018-0.0557-0.036-0.10329-0.055-0.1582zm4.0566 1.7734c0.031 0.0191 0.06 0.0393 0.09 0.0586-0.03-0.0195-0.059-0.0394-0.09-0.0586zm1.3535 1.0059c0.4552 0.40491 0.8395 0.83648 1.1211 1.2852-0.2816-0.44853-0.666-0.88037-1.1211-1.2852zm1.3965 1.7969c0.01 0.0228 0.02 0.0455 0.029 0.0684-0.01-0.0229-0.019-0.0456-0.029-0.0684zm0.1992 0.63672c0 0.0111 0.01 0.0221 0.01 0.0332 0 0.0112 0 0.0221 0.01 0.0332v-0.0332c0-0.0111-0.01-0.0221-0.01-0.0332zm0.078 0.63086c0 0.23604-0.023 0.46784-0.064 0.69531 0.042-0.22786 0.068-0.45884 0.064-0.69531zm-0.3613 1.7695c-0.254 0.73838-0.5135 1.3754-0.3105 1.832 0.032 0.086 0.092 0.15791 0.1699 0.22266-0.077-0.0645-0.136-0.13707-0.168-0.22266-0.2027-0.45606 0.055-1.0948 0.3086-1.832zm0.1309 2.2285c0.2117 0.0506 0.4095 0.16902 0.623 0.20313-0.2134-0.0346-0.4112-0.15287-0.623-0.20313zm0.9511 0.28321c0.4465 0.0564 0.8929 0.0874 1.3301 0.10351-0.4372-0.0162-0.8836-0.0471-1.3301-0.10351zm2.6095 0.12109c0.8334 0 1.6139 3e-3 2.4238 0.0312-0.8079-0.0279-1.5922-0.0312-2.4238-0.0312zm11.25 2.3398c0.018 0.0182 0.035 0.0362 0.053 0.0547-0.01-9e-3 -0.015-0.0202-0.024-0.0293-0.01-9e-3 -0.02-0.0162-0.029-0.0254zm1.5215 3.1094c0 0.0126 0.01 0.0245 0.01 0.0371-2e-4 -2e-3 0-5e-3 0-8e-3 0-0.0107-0.01-0.0186-0.01-0.0293zm-14.498 3.9492c-0.092 0.01-0.1643 0.0382-0.2129 0.0879 0.049-0.0497 0.1204-0.0783 0.2129-0.0879zm-0.2129 0.0879c0.023 0.31148 0.1027 0.64379 0.2246 0.98828-0.1218-0.34449-0.2021-0.6768-0.2246-0.98828zm0.2246 0.98828c0.1218 0.34448 0.2854 0.70086 0.4707 1.0625-0.1853-0.36164-0.3489-0.71802-0.4707-1.0625zm0.4707 1.0625c0.3706 0.72328 0.8323 1.4653 1.2422 2.1621-0.4099-0.69681-0.8716-1.4388-1.2422-2.1621zm-0.1485-2.1113c0.2587 0.053 0.5844 0.17284 0.9493 0.3457-0.3649-0.17286-0.6906-0.2927-0.9493-0.3457zm0.9493 0.3457c0.3648 0.17287 0.7695 0.39797 1.1855 0.65821-0.416-0.26024-0.8207-0.48534-1.1855-0.65821zm1.1855 0.65821c0.416 0.26024 0.8438 0.55597 1.2559 0.87109-0.4121-0.31512-0.8399-0.61085-1.2559-0.87109zm12.053 1.1113c-0.084 0.27067-0.1815 0.53279-0.3007 0.78125 0.119-0.24825 0.2166-0.51083 0.3007-0.78125zm-12.67 2.3711c0.093 0.15184 0.1783 0.30035 0.2656 0.44922l-0.0898-0.36134zm0.9004 1.5312c0.1189 0.20623 0.2393 0.41372 0.3633 0.61914-0.1242-0.20458-0.2443-0.41387-0.3633-0.61914zm0.8965 1.4453c0.074 0.11013 0.1431 0.21898 0.2227 0.33008-0.08-0.11124-0.1478-0.21978-0.2227-0.33008zm0.3477 0.5c0.2203 0.29878 0.4565 0.60127 0.7285 0.91211-0.2719-0.31072-0.5073-0.61299-0.7285-0.91211zm2.623 3.2754c0.045 0.0585 0.091 0.11712 0.1348 0.17578-0.045-0.0602-0.089-0.11575-0.1348-0.17578zm0.9082 1.3242c0.033 0.0553 0.065 0.11077 0.096 0.16602-0.031-0.0555-0.063-0.11043-0.096-0.16602zm5.8496 50.012c0.4623 0.0754 0.9996 0.15078 1.3496 0.30078 0.2251 0.15003 0.4752 0.27472 0.6758 0.44922l-0.375-0.75zm6.6504 1-0.8711 0.2168c0.043-8e-3 0.1351-0.0115 0.1719-0.0176 0.7-0.2 0.6984-0.2 0.8984 0zm0.1992 0.19922c0.1 0.1 0.5 0.50156 0.5 1.1016 0 0.32074-0.1279 0.63824-0.2285 1.0078l0.1113-0.0527 0.418-1.2559z" />
</svg>