<?xml version="1.0" encoding="UTF-8"?>
<svg width="1800" height="900" version="1.1" xmlns="http://www.w3.org/2000/svg">
  <MetaInfo xmlns="http://www.prognoz.ru">
    <Geo>
      <GeoItem X="0" Y="0" Latitude="90" Longitude="-180"/>
      <GeoItem X="1800" Y="900" Latitude="-90" Longitude="180"/>
    </Geo>
  </MetaInfo>
  <path d="m1079 496.2c-0.7-0.2-1.3-0.19844-2 0.10156-0.7 0.4-1.3 0.99922-1.5 1.6992s0.2008 1.3008 0.3008 1.8008c0.2 0.5 0.1984 0.89922 0.3984 1.6992 0.1 0.8 0.5016 2.2008 0.6016 2.8008 0.2 0.7 0.1992 0.7 0.1992 1 0 0.4 8e-4 1-0.1992 1.5-0.1 0.5-0.5016 0.9-0.6016 1.5-0.2 0.7-0.2 1.6984-0.5 2.3984-0.4 0.6-1 1.0016-1.5 1.6016-0.5 0.7-0.8992 1.6992-1.1992 2.1992s-0.7008 0.5-1.3008 1c-0.7 0.5-1.6992 1.4992-2.1992 2.1992-0.5 0.6-0.4992 1-0.6992 1-0.1 0-0.5008-0.4-1.3008-0.5-0.8-0.2-2.2008-0.19922-2.8008-0.19922-0.7 0-0.7-7.8e-4 -1 0.19922-0.4 0.1-1 0.50156-1.5 0.60156-0.25 0.1-0.4746 0.14961-0.6992 0.19922h0.5v4l3 1-1 6h2l5 1 1 5 3 1 1 2 1 1v5l-3 2 1.6172 4.0488c0.1913 0.0982 0.3839 0.18938 0.582 0.25195 1.8 0.7 3.8-0.3 5.5-0.5 1.6-0.1 3.0016 0.49922 4.1016 0.19922 1.2-0.3 2.2-1.6992 3.5-2.6992 0.9885-0.70609 2.0588-1.212 3.1054-1.7656 0.9178-1.0464 1.3823-2.2344 2.3946-2.2344 0.2197 0 0.5616 0.1996 0.8281 0.2793 0.5141-0.2642 1.0204-0.41678 1.5703-0.2793 0.815 0.29637 1.8237 1.1817 2.8867 1.9414v2e-3c1.4388 0.32926 2.7614 0.0727 4.4102 0.25586 0.5461 0.0607 1.1973 0.16767 1.8203 0.26562 1.7688-0.49315 3.7163-1.0774 5.3789-1.5664 0.8-0.25 1.5516-0.47422 2.2891-0.57422 0.1889-0.0256 0.3785 0.0529 0.5664 0.0449 0.4555-0.38715 0.8321-0.46825 1.2324-0.37695 0.4686-0.0362 0.9318 0.12514 1.5137 0.70703 0.085 0.0852 0.241 0.32668 0.332 0.42578 0.2339 0.17065 0.5812 0.44932 0.8516 0.66211 0.8454 0.60959 1.738 1.3402 2.7148 2.1113 0.5458 0.45485 1.0793 0.92184 1.6231 1.3867l4.8125-20.854c-0.4601-0.1424-0.9755-0.44453-1.3301-0.5332-0.3-0.2-0.3-0.19844-1-0.39844-0.6-0.1-2-0.50156-3-0.10156-1 0.3-1.6008 1.3016-2.3008 1.6016-0.7 0.4-1.3008 0-2.3008 0s-2.4 0.39844-3 0.39844c-0.7 0-0.6992-0.39844-1.1992-0.39844s-1.4992 0.39844-2.1992 0.89844c-0.6 0.5-1.0008 1.1-1.3008 1.5-0.3 0.3-0.7 0.30078-1 0.80078s-0.7 1.5-1 2-0.7008 0.5-1.3008 0.5h-2.1992c-0.5 0-0.5-7.8e-4 -0.5-0.30078 0-0.4-8e-4 -1-0.3008-1.5-0.4-0.5-1-0.89922-1.5-1.1992s-0.8984-0.7-1.3984-1-1.1008-0.70078-1.8008-0.80078c-0.7-0.2-1.2992-0.19922-1.6992-0.19922h-0.5c-0.1 0-0.5016 0-1.1016 0.5-0.7 0.5-1.6992 1.5-2.1992 2s-0.5008 0.50078-0.8008 0.30078c-0.4-0.1-1-0.5-2-0.5s-2.3992 0.39922-3.1992 0.69922-1.1992 0.7-1.6992 1-1.1016 0.70078-1.6016 0.80078c-0.5 0.2-0.8984 0.19844-1.3984-0.10156-0.5-0.4-1.1-1-1.5-1.5-0.3-0.5-0.3-0.89922-0.5-1.1992-0.1-0.3-0.5016-0.70078-0.6016-1.3008-0.2-0.7-0.2-1.7 0-2.5 0.1-0.9 0.5016-1.5 0.6016-2 0.2-0.5 0.1984-0.9 0.3984-1 0.1-0.2 0.5008-0.19922 0.8008-0.69922s0.6992-1.4992 1.1992-2.1992c0.5-0.6 1.1016-1.0008 1.6016-1.3008s0.9-0.7 0.5-1.5c-0.3-0.8-1.3008-2.2-1.8008-3s-0.4992-1.2008-0.6992-1.8008c-0.1-0.7-0.5-1.6984-0.5-2.3984 0-0.6 0.3984-1.0016 0.3984-1.6016 0-0.7-0.3984-1.6984-0.3984-2.3984 0-0.6 0.3984-1.0016 0.3984-1.6016 0-0.7-0.3992-1.6984-0.6992-2.3984-0.3-0.6-0.6992-1.0016-0.6992-1.6016 0-0.7 0.3984-1.6984 0.3984-2.3984 0-0.6-0.4-1-0.5-1.5-0.2-0.5-0.2-1.1016-0.5-1.6016-0.4-0.5-0.9992-0.9-1.6992-1z" />
</svg>