<?xml version="1.0" encoding="UTF-8"?>
<svg width="1800" height="900" version="1.1" xmlns="http://www.w3.org/2000/svg">
  <MetaInfo xmlns="http://www.prognoz.ru">
    <Geo>
      <GeoItem X="0" Y="0" Latitude="90" Longitude="-180"/>
      <GeoItem X="1800" Y="900" Latitude="-90" Longitude="180"/>
    </Geo>
  </MetaInfo>
  <path d="m1316 501-5 2v6l-5-1-4-2-4 2v3l-5 2v5l-4 2-8-1 1-6h-4l-8-1h-2l-2-1-1.9043 1.2695c0.213 0.0648 0.4246 0.13101 0.6055 0.23438 0.359 0.2209 0.6097 0.58097 0.8125 1.0059 0.2577 0.037 0.5232 0.0655 0.6875 0.19335 0.5189 0.38915 0.3469 1.5717 0.1972 2.875 0.098 0.4191 0.166 0.8162 0.3028 1.2266 0.6 2.2 2.0008 4.2 2.3008 5.5 0.3 1.4-0.3 1.9992-1.5 1.1992-0.1359-0.0906-0.3287-0.32616-0.4747-0.45313-0.9116 0.32492-2.239 0.30945-3.2246-0.34766-1.1334-0.75556-1.7577-2.3063-2.8125-3.582-1.2899-0.0764-2.6366 0.14768-3.9882 0.0801-2-0.2-4.0008-1.2-5.3008-0.5-1.4 0.6-2 3.0016-3.5 4.6016-1.1328 1.2839-2.5952 2.1621-3.6778 3.0352-0.023 0.66985-0.083 1.3628-0.023 1.9648 0.1312 1.3124 0.4881 2.3611 0.9355 3.3828 0.5696 0.5138 1.0925 1.0317 1.4239 1.6016l2.1402 0.71287v5l1 1h5l1-2h4l2 2-3 5 2 1 5-1h5v-6l7 1 1-1-4-5 3-3 4 7-1 1 2 5h3l3-4 5 3 1-1 3-1 4 3v1l3 1 2 2 2-1 3 2 2-2 2-1h5.5004c0.8 0 1.6992-3.9e-4 2.1992 0.0996 0.5 0.1 0.6 0.20078 1 0.30078 0.4 0 1.0016-0.0996 1.6016-0.0996 0.5-0.1 1.0996-0.20078 1.5996-0.80078 0.4-0.5 0.8-1.5004 1-2.4004 0.3-0.9 0.3996-1.7996 0.5996-2.5996s0.3008-1.6996 0.8008-2.0996c0.4-0.4 0.9996-0.40039 1.5996-0.40039h4.5996c0.5 0 1.0004 0 1.4004-0.5s0.8004-1.5008 0.9004-2.3008c0.2-0.9 0.1992-1.5 0.1992-2v-1.1992h4v-2l1.834-1.2227c0.2934-0.12372 0.6229-0.20814 0.8652-0.27734l6-10.699-6.6953-6.6953c-0.1031 0.0602-0.1933 0.14571-0.3008 0.19531-1.4 0.7-2.9992 0.69844-4.6992-0.10156-1.7-0.9-3.3008-2.4984-4.8008-3.3984-1.5-0.8-2.8992-0.80156-4.6992-1.6016-1.8-0.9-4.2008-2.4992-5.8008-2.6992-0.083-0.01-0.1465 0.0225-0.2265 0.0195-0.9153 0.2941-1.7893 0.68627-2.6719 0.98047-1.5 0.5-3.1016 0.50078-4.1016-0.69922-1.5158-1.6674-1.7035-3.8008-1.7035-3.8008zm-69.562 41.977c-0.5621 0.9752-1.1867 1.9262-1.6367 2.8262 0.45-0.89997 1.0746-1.851 1.6367-2.8262z" />
</svg>