<?xml version="1.0" encoding="UTF-8"?>
<svg width="1800" height="900" version="1.1" xmlns="http://www.w3.org/2000/svg">
  <MetaInfo xmlns="http://www.prognoz.ru">
    <Geo>
      <GeoItem X="0" Y="0" Latitude="90" Longitude="-180"/>
      <GeoItem X="1800" Y="900" Latitude="-90" Longitude="180"/>
    </Geo>
  </MetaInfo>
  <path d="m1128 250-7 2 3 3 0.2578 0.12891-4.5586 3.8711c0.3 0.7 0.3016 1.3 0.6016 2 0.4 0.7 0.9988 1.3008 1.2988 1.8008 0.2 0.5 0.1016 0.89844-0.1 1.3984-0.1 0.5-0.1992 1.1008-0.1992 1.8008-0.1 0.7-0.2016 1.3-0.6016 2s-0.9992 1.3008-1.1992 1.8008 0.2 0.89844 0.5 1.3984 0.7 1.1016 1 1.6016 0.7 0.89922 1 1.1992 0.6992 0.7 1.1992 1 1.1016 0.70078 1.1016 1.3008c0 0.7-0.6008 1.6992-1.3008 2.1992s-1.3008 0.50078-1.8008 0.30078c-0.5-0.1-0.8992-0.5-1.1992-0.5s-0.7 0.39844-1 0.39844-0.7008-0.39922-1.3008-0.69922c-0.7-0.3-1.6984-0.69922-2.3984-0.69922-0.6 0-1.0016 0.39922-1.6016 0.19922-0.7-0.2-1.6984-0.80078-2.3984-1.3008-0.8-0.5-1.3008-0.89922-1.8008-1.1992s-0.9996-0.70078-1.0996-1.3008c-0.1-0.7 0.2984-1.6992 0.1-2.6992-0.2-1-0.8008-1.9992-1.3008-2.6992-0.5-0.8-0.8992-1.3008-1.1992-1.8008s-0.6992-1-1.1992-1.5c-0.6-0.5-1.5008-1-2.3008-1.5s-1.6992-0.99922-2.1992-1.1992c-0.5-0.3-0.6-0.30078-1-0.30078h-1.5c-0.6 0-1.2-7.8e-4 -2 0.19922-0.8 0.1-1.8 0.50156-2.5 0.60156-0.8 0.2-1.3008 0.19922-1.8008 0.19922s-0.9996 7.8e-4 -1.5996-0.19922c-0.6-0.1-1.1996-0.50156-2.0996-0.60156-0.8-0.2-1.8004-0.19922-2.4004-0.19922h-0.9004c-0.2 0-0.5004 3.6e-4 -0.9004-0.0996-0.3-0.1-0.7992-0.20039-1.1992-0.40039-0.5-0.2-0.9008-0.29961-1.3008-0.59961-0.4-0.2-0.7988-0.60039-1.2988-0.90039s-1.1008-0.7-1.8008-1.5l-2.0996 1.5312-3.7012 5.3691-2.1992 1.5996-3.3008-0.69922-2.6992 0.69922h-5l-1 5-3 1-2 2-3-2-2 1-4-1-3 6 1 5 3 2h1l3-2 2 1 2 6h-10l-1 4h4l2 2-1 5h-3l-1 3h-5v5h-5l-2 2-4-1-1 5 5 1 1-1 3 1 4-6 3 1 1 1v3l6 3v10l5 1v3l-2 3-4-2-1 6h-4v5h5l1-4 4-1h4l1-1 7 1-1-5 2-1 4 1 1-1 5 2 1 3-3 2 1 6h-1l-2.5859 4.3086 0.2851 0.39063 2.3008 1.1016 6.3008-0.80078-0.1016 2.4004 2.3008 0.90039 1.6992-0.10156 5 2.5 4.3008-2.1992 5.5 2.4004 2.4004-1.7012-0.5-4.7988 4.0996-0.5 0.5 0.29883 2.3008 4-0.3008 2.3008c0.5-0.2 1-0.3 1.5-0.5 0.6-0.2 1.2008-0.3 1.8008-0.5 0.5-0.2 1.1-0.30039 1.5-0.40039s0.4984-0.0988 0.8984-0.29883l1.3008-1.3008c0.5-0.5 1.0008-0.99961 1.3008-1.5996 0.2-0.6 0.2-1.2004 0.5-1.9004 0.4-0.7 0.9992-1.3 1.1992-2s-0.1996-1.3008-0.5996-1.8008-0.9004-0.89922-1.4004-1.1992-0.9996-0.70039-1.5996-0.90039c-0.6-0.3-1.2004-0.39961-1.9004-0.59961s-1.3-0.29961-2-0.59961c-0.7-0.2-1.2992-0.60117-1.6992-1.2012-0.3-0.7-0.3-1.6984 0-2.3984 0.4-0.6 0.9984-1 1.8984-1 0.8 0 1.8016 0.4 2.6016 0.5 0.9 0.2 1.5 0.2 2 0 0.5-0.1 0.9-0.5 1-1 0.032-0.0799 0.056-0.1716 0.08-0.25586l-3.5801-3.8457 4.5-4.8984 3 0.5 0.1992-3.6016 5.1992 1.6016 0.3242-0.58008c-1.659 0.20573-3.5174-0.75477-3.3242-1.7207 0.1-1 2.5016-2 3.6016-3.5 0.63-0.78753 0.9145-1.7255 1.0566-2.7598-0.2344-0.75892-0.4651-1.545-0.6582-2.2402-0.5-1.8-0.8992-3.1992-0.6992-4.6992s0.8008-3.1008 1.8008-4.3008c0.1763-0.21163 0.4335-0.33642 0.6347-0.51562 0.3751-0.84524 0.8407-1.6582 1.5645-2.6836 1.2-1.6 2.7992-4.0016 4.1992-4.1016l7.2012-6.5996 0.2715-0.42773c-0.2538-0.1931-0.512-0.39524-0.7578-0.62305-0.1251-0.0759-0.225-0.19012-0.3301-0.29492-0.087-0.10009-0.2052-0.14129-0.2832-0.25391-0.015-0.0287-0.01-0.0796-0.025-0.10938-0.021-0.0362-0.057-0.051-0.076-0.0898-0.5247-0.82459-0.654-2.3799-0.2656-3.5703v-2e-3c0.1297-0.39688 0.3164-0.7543 0.5664-1.0293 0.5-0.6 1.2504-0.89844 2.1504-1.0234 0.3375-0.0469 0.6961-0.0692 1.0703-0.0742 0.6237-7e-3 1.291 0.0352 1.9785 0.0977 2.1 0.1 4.5 0.5 6.5 1 0.4672 0.11679 0.7832 0.29111 1.1914 0.42773 0.1362-0.0423 0.2908-0.15085 0.4102-0.12695 0.2145 0.0429 0.3847 0.23864 0.5371 0.4668 0.7174 0.3489 1.2462 0.78108 1.3965 1.3984l3.4648 0.33399 4.1016-4.1992 1.5-2 7.1992-2.9004-5-5.4004-0.6992-1-1.1016-2.1992 2.6289-15h0.6714l1-2h0.5684l-0.053-0.23633c-0.049 2e-3 -0.101 0.0241-0.1504 0.0234-0.3605 0.0278-0.8966-0.11041-1.8632-0.48633-1.5358-0.51193-4.2153-1.5484-6.5899-1.7344-0.5031 0.37497-0.9875 0.76698-1.6094 1.1328-1.6 1-4 1.6-6 2-2 0.3-3.6 0.3-5 1-0.7006 0.32333-1.2942 0.88224-1.664 1.4824-0.042 0.12745-0.1145 0.28851-0.1485 0.41211 0 1e-3 -7e-4 3e-3 0 4e-3 0.6959 1.0008 1.7272 2.0807 2.3106 3.1016 0.4499 0.65 0.5734 1.2262 0.4609 1.7012 0 0.0124-0.018 0.0209-0.018 0.0332-0.011 0.0591-0.063 0.10507-0.086 0.16407-0.1555 0.37461-0.435 0.69111-0.8574 0.90234-0.2036 0.10176-0.5285 0.12626-0.7793 0.19336-0.1363 0.10371-0.1664 0.2027-0.3223 0.30664-1.3569 0.90459-3.4447 1.8005-5.164 1.9648-0.1814 0.0173-0.3635 0.0352-0.5352 0.0352-1.8 0-3.2-0.99922-4-2.1992-0.1309-0.18004-0.2132-0.4762-0.3262-0.67187v-2e-3c-0.046-0.0712-0.1005-0.12827-0.1465-0.20117-0.1644-0.25961-0.3283-0.52941-0.4941-0.79687-0.3131-0.50522-0.6389-1.0047-1.0312-1.4297-0.5994-0.69926-1.2988-1.1982-1.9981-1.6973v-0.00205c-0.7-0.49961-1.4-0.99922-2-1.6992-0.089-0.0963-0.1677-0.20316-0.25-0.30664-1.029-1.2937-1.5508-3.1052-1.5508-4.4941v-0.0312c0-0.75926 0.1732-1.3954 0.4473-2.0312 0.1479-0.3599 0.413-0.81105 0.6836-1.2715l-0.8333 0.83393zm33.77 12.074c0.1875 3e-3 0.4305 0.05 0.7305 0.125 0.8 0.1 2.2008 0.50156 2.8008 1.1016 0.7 0.7 0.7 1.6984 0.5 2.3984-0.3 0.6-0.8008 1.0008-1.3008 1.3008s-1.0004 0.70078-1.4004 0.80078c-0.4 0-0.8-0.10117-1-0.70117-0.3-0.5-0.3996-1.3988-0.5996-2.2988-0.2-1-0.2992-1.9008-0.1992-2.3008 0-0.3125 0.1562-0.43066 0.4687-0.42578zm-77.77 18.227c0.7 0 1.3008 0.39844 1.8008 0.89844s0.8984 1.1012 0.8984 1.7012-0.3992 1.0996-0.6992 1.5996-0.7008 0.99922-0.8008 1.6992c-0.2 0.6-0.1992 1.5008-0.1992 2.3008s-8e-4 1.7004-0.3008 2.4004c-0.4 0.8-0.9984 1.3996-1.3984 2.0996-0.3 0.7-0.3 1.3-0.5 2-0.1 0.7-0.5 1.3008-0.5 1.8008s0.3992 0.89922 0.6992 1.1992 0.6992 0.70078 1.1992 0.80078c0.5 0.2 1.1012 0.2 1.7012 0 0.6-0.1 1.0996-0.50078 1.5996-0.80078s1.0008-0.7 1.8008-1c0.7-0.3 1.7-0.69922 2.5-0.69922 0.9 0 1.5 0.39922 2 0.69922s0.9 0.69922 1.5 1.1992c0.7 0.5 1.6984 1.1008 2.3984 1.8008 0.6 0.7 1 1.3 1 2s-0.4 1.3-0.5 2c-0.2 0.7-0.1984 1.3-0.3984 2-0.1 0.7-0.5 1.3-0.5 2-0.1 0.7-8e-4 1.3 0.1992 2s0.2996 1.3008 0.5996 1.8008c0.2 0.5 0.6004 0.89922 0.9004 1.1992l2.5 2.5c0.5 0.5 1.0008 0.99961 1.8008 1.5996 0.7 0.6 1.6984 1.2012 2.3984 1.7012 0.6 0.5 1.0008 0.89922 1.3008 1.1992s0.5008 0.7 0.8008 1c0.2 0.3 0.4992 0.7 0.6992 1s0.2996 0.69922 0.5996 1.1992c0.2 0.5 0.6012 1.1 0.7012 2 0.2 0.8 0.1988 1.8008-0.2012 2.3008-0.3 0.6-1.0988 0.70078-1.7988 0.80078-0.8 0-1.5 0.0992-2 0.19922-0.5 0.2-0.6 0.30078-1 0.80078-0.5 0.4-1.1016 0.99922-1.6016 1.6992s-0.8984 1.3008-1.3984 1.8008c-0.5 0.4-1.1008 0.49922-1.8008 0.69922s-1.3004 0.30078-1.9004 0.30078-1.0996-0.10078-1.5996-0.30078-0.9992-0.29922-1.6992-0.69922c-0.8-0.5-1.8012-1.1012-2.2012-1.7012s-0.2984-1.0996-0.1-1.5996c0.2-0.5 0.3008-1 0.3008-1.5 0-0.6-0.1008-1.1992-0.3008-1.6992-0.2-0.6-0.2996-1.2016-0.5996-1.6016-0.2-0.4-0.5996-0.49844-1.0996-0.89844-0.5-0.5-1.1016-1.1008-1.6016-1.3008s-0.8984 0.19922-1.3984 0.19922-1.1-0.39844-2-0.39844c-0.8 0-1.8 0.39922-2.5 0.19922-0.6-0.2-1.0004-0.79922-1.4004-1.1992-0.4-0.5-0.9004-0.60078-1.4004-0.80078s-1-0.3-1.5-0.5c-0.6-0.2-1.1992-0.49922-1.6992-0.69922-0.6-0.3-1.2016-0.50156-1.6016-0.60156-0.4 0-0.4988 0.10036-0.7988-0.0996-0.2-0.3-0.6004-0.89961-0.9004-1.5996s-0.6992-1.3004-1.1992-1.9004-1.1008-1.0996-1.8008-1.5996-1.3008-0.99922-1.8008-1.6992c-0.5-0.8-0.8992-1.8-1.1992-2.5-0.3-0.6-0.6996-1.0004-0.5996-1.4004s0.5996-0.90039 1.0996-1.4004 1.0004-0.99961 1.4004-1.5996 0.7988-1.2012 1.2988-1.7012 1.1016-0.89844 1.6016-1.3984 0.8992-1.1016 1.1992-1.6016 0.7-0.89844 1-1.3984 0.7008-1.1012 0.8008-1.7012c0.1-0.5 0-0.89883 0-1.2988-0.1-0.5-0.2008-0.90117-0.3008-1.2012-0.2-0.3-0.2992-0.39922-0.6992-0.69922-0.3-0.2-0.8008-0.60039-1.3008-0.90039s-0.9996-0.70078-1.0996-1.3008c-0.1-0.7 0.2992-1.6984 0.6992-2.3984 0.4-0.6 0.9004-1.0008 1.4004-1.3008s1-0.7 1.5-1 1-0.7 1.5-1 1.0008-0.69922 1.8008-1.1992c0.7-0.5 1.6992-1.1008 2.1992-1.8008s0.5008-1.3008 0.8008-1.8008c0.4-0.5 0.9992-0.89844 1.6992-0.89844zm46.256 0.75977c0.7286-3e-3 1.4824 0.0715 2.0449 0.24023 1 0.4 1.3992 0.99922 1.1992 1.6992s-0.7992 1.2992-1.6992 1.6992c-0.8 0.3-1.8 0.30156-2.5 0.10156-0.6-0.1-1.0008-0.5-1.3008-1s-0.6992-1.1016-0.6992-1.6016 0.3984-0.9 1.3984-1c0.4375-0.0875 0.99-0.13611 1.5567-0.13867z" />
</svg>