<?xml version="1.0" encoding="UTF-8"?>
<svg width="1800" height="900" version="1.1" xmlns="http://www.w3.org/2000/svg">
  <MetaInfo xmlns="http://www.prognoz.ru">
    <Geo>
      <GeoItem X="0" Y="0" Latitude="90" Longitude="-180"/>
      <GeoItem X="1800" Y="900" Latitude="-90" Longitude="180"/>
    </Geo>
  </MetaInfo>
  <path d="m1108.2 342.48c0.023 0.0704 0.034 0.14919 0.062 0.21484-0.026-0.061 0.022-0.14386 0-0.20899zm-49.238 2.5156v1l-5 1 1 5-1 1-5-1h-1v1l2 7-1 2-5-2-4 2 3 5 5-1v7l4 1 1 6 2 1 5-3 2 1 4-2-1-4v-1l3 1v4l2 3 2-1 4 1v5h-5l1 4-2.2949 1.5293 0.2011 0.31836c0.056-0.0238 0.1188-0.069 0.1719-0.082 0.283-0.077 0.5355-0.0806 0.7207 0.0352 0.2329 0.12938 0.372 0.39192 0.459 0.73242 0.01 0.047 0.01 0.11592 0.018 0.16602 0.063 0.31975 0.09 0.67859 0.09 1.0898 0.029 0.0137 0.1078-4e-3 0.1328 0.0117 0.2031 0.12692 0.3117 0.31066 0.3477 0.51758 0.061 0.27861-0.014 0.65426-0.123 1.0527-0.1321 0.45763-0.333 0.96673-0.5665 1.5098-0.075 0.74852-0.1353 1.4568-0.2343 2.0566-0.1133 0.68019-0.2849 1.2785-0.6231 1.7617-0.3 0.5-0.7996 0.89961-1.2246 1.4121v2e-3c-0.4242 0.51213-0.7734 1.1372-0.7734 2.0859 0 1.8 1.4 4.8 2 6.5 0.7 1.6 0.6992 2.0008 0.6992 2.8008 0 0.41167-0.01 0.98913-0.074 1.6641 0.043 0.66315 0.074 1.3189 0.074 2.0352 0 1.8-8e-4 3.8008-0.8008 4.3008-0.5452 0.30291-1.399 0.07-2.3691-0.2168-0.01 3e-3 -0.019 0.0146-0.029 0.0176-0.3864 0.14052-0.8293 0.0207-1.3028-0.16601-0.2768-0.0958-0.5866-0.17965-0.8964-0.32422-1.0852-0.0315-2.2191 0.0482-3.3516 0.0625-0.6973 0.0935-1.3875 0.0473-2.0508-0.17383-0.6671-0.2458-1.2945-0.68259-1.918-1.1797-0.5992 2e-3 -1.2349 0.12945-1.7812-0.0195l-5.5-1.5s-0.04-0.1009 0 0l-1 1h-4l-2 6h7l-1 4 1 2h4l-2-5h6v4l2 1 3 4 2-2 5 1 0.4023-0.90039c0.3-0.4 0.8997-0.79961 1.5997-1.0996s1.3007-0.69961 1.8007-1.0996 0.8993-0.90039 1.1993-1.4004 0.6992-1.0004 0.6992-1.4004-0.4-0.79883-0.5-1.2988c-0.2-0.5-0.1992-1.1008-0.1992-1.8008 0.1-0.7 0.2007-1.3 0.3007-2 0-0.7 0.099-1.3008 0.1993-1.8008 0.2-0.5 0.2996-0.89922 1.0996-0.69922 0.7 0.2 2.1011 0.79922 2.7011 1.6992 0.7 0.8 0.7 1.8004 1 2.4004 0.2 0.6 0.6993 0.70039 1.1993 0.90039s0.9996 0.30034 1.5996-0.0996c0.6-0.4 1.2004-1.4012 1.4004-2.2012 0.2-0.9-0.2-1.4992-0.5-2.1992s-0.7008-1.3-1.3008-2c-0.7-0.7-1.6989-1.3008-2.2989-1.8008s-0.8996-0.89922-1.0996-1.1992c-0.3-0.3-0.5007-0.7-0.8007-1-0.2-0.3-0.3-0.69922-0.5-1.1992s-0.3-1.1008-0.5-1.8008-0.2997-1.3-0.5997-2c-0.2-0.7-0.6003-1.4992-0.9003-2.1992-0.3-0.8-0.7-1.5-1-2s-0.6993-0.60117-0.6993-1.2012 0.4-1.6004 0.5-2.4004c0.2-0.9 0.1985-1.5 0.3985-2 0.1-0.5 0.5-0.89844 0.5-1.3984s-0.3985-1.1008-0.3985-1.8008 0.3985-1.2992 0.8985-1.6992c0.5-0.3 1.1011-0.3 1.7011-0.5 0.6-0.3 1.0997-0.80078 1.5997-1.3008l1.4003-1.4004c0.4-0.4 0.8004-0.79883 0.9004-1.2988 0.2-0.5 0.1985-1.1008 0.3985-1.8008 0.1-0.7 0.5015-1.2992 1.1015-1.6992 0.7-0.3 1.7-0.30156 2.5-0.10156 0.7 0.1 1.1993 0.50078 1.6993 0.80078s0.9996 0.7 1.5996 1 1.2004 0.70078 1.9004 0.80078c0.7 0.2 1.3007 0.19844 1.8007 0.39844 0.5 0.1 0.8985 0.50156 1.3985 0.60156 0.5 0.2 1.1011 0.19922 1.7011 0.19922 0.6-0.1 1.0997-0.19922 1.5997-0.19922 0.5-0.1 1.0003-0.20117 1.4003-0.20117 0.4 0.1 0.8004 0.2 1.4004 0 0.7-0.3 1.6985-0.89961 2.3985-1.5996 0.6-0.7 1-1.2992 1.5-1.6992 0.5-0.3 1.1015-0.30078 1.6015-0.80078s0.8985-1.5008 1.3985-1.8008c0.5-0.4 1.1015 2e-3 1.6015-0.39844 0.5-0.3 0.8993-1.3016 0.6993-2.1016-0.2-0.9-0.7993-1.4996-1.1993-2.0996-0.3008-0.6002-0.3036-1.0998-0.3036-1.5998v-5.5c0-0.7 8e-4 -1.3-0.1992-2-0.1-0.7-0.5-1.3008-1-1.8008s-1.1-0.89844-1.5-1.3984c-0.3-0.5-0.3-1.1016-0.5-1.6016-0.1-0.5-0.5016-0.89883-0.6016-1.2988-0.2-0.4-0.1992-0.90039-0.1992-1.4004s-8e-4 -0.99922 0.1992-1.6992c0.1-0.8 0.5004-1.8004 0.9004-2.4004s0.9004-0.70039 1.4004-0.90039l0.3008-2.3008-2.3008-4-0.5-0.29883-4.0996 0.5 0.5 4.7988-2.4004 1.7012-5.5-2.4004-4.3008 2.1992-5-2.5-1.6992 0.10156-2.3008-0.90039 0.1016-2.4004-6.3008 0.80078-2.3008-1.1016-0.2851-0.39063-0.4141 0.69141v6l-1 1-4-2 3-5-3-3v-1l-2-3zm22.34 15.07c0.2325-0.0137 0.4356 0.0801 0.5606 0.33008 0.3 0.4 0.3996 1.2996 0.5996 2.0996s0.2996 1.6996 0.5996 2.5996c0.2 0.9 0.6012 1.9012 0.7012 2.7012 0.2 0.9 0.2 1.4984 0.5 2.3984 0.4 0.8 1 1.8016 1.5 2.1016 0.5 0.4 0.9 0 1.5 0 0.7 0 1.7 0.39844 2.5 0.39844 0.9 0 1.4992-0.4 1.6992-1 0.2-0.7-0.1992-1.6992-0.6992-2.1992s-1.1008-0.50078-1.8008-0.80078c-0.7-0.4-1.3-0.99922-1.5-1.6992s0.1992-1.3008 0.6992-1.8008 1.1012-0.89844 1.7012-0.89844 1.0996 0.39922 1.5996 0.69922 1.0008 0.7 1.8008 1c0.7 0.3 1.6984 0.7 2.3984 1 0.6 0.3 1.0016 0.69922 1.6016 0.69922 0.7 0 1.6992-0.39922 2.6992-0.19922s2 0.80039 2.5 1.4004 0.5 1.0996 0.5 1.5996v1.8008c0 0.7-8e-4 1.6984 0.1992 2.3984 0.1 0.6 0.5016 1.0004 0.6016 1.4004 0 0.4-0.1008 0.90039-0.3008 1.4004s-0.2996 1.0008-0.5996 1.8008c-0.2 0.7-0.6012 1.7-0.7012 2.5-0.2 0.9-0.2 1.4992-0.5 2.1992-0.4 0.7-1 1.3-1.5 1.5s-0.8992-0.19922-1.1992-0.69922-0.6992-1.1008-0.6992-1.8008 0.3984-1.3 0.3984-2-0.3984-1.3008-0.3984-1.8008 0.4-0.89844 0.5-1.3984c0.2-0.5 0.2-1.1 0-1.5-0.3-0.5-0.8008-0.60078-1.3008-0.80078s-0.9996-0.29966-1.5996-0.0996c-0.6 0.3-1.1996 0.9-1.5996 1.5s-0.5 1.0996-0.5 1.5996c-0.1 0.5-0.2008 1.0004-0.3008 1.4004-0.2 0.4-0.2996 0.79961-0.5996 1.0996-0.2 0.3-0.6004 0.7-1.4004 1s-2.1996 0.69961-3.0996 0.59961c-0.9 0-1.4004-0.29922-1.9004-0.69922s-1.0004-0.8-1.4004-1-0.7996-0.30039-1.0996-0.40039c-0.3-0.2-0.7-0.30039-1-0.40039s-0.7-0.0996-1-0.0996h-1c-0.3 0-0.7008 7.8e-4 -1.3008-0.19922-0.7-0.1-1.6984-0.50156-2.3984-1.1016-0.6-0.7-1-1.6984-1-2.3984 0-0.6 0.4-1 0.5-1.5 0-0.5-0.1008-1.1008-0.3008-1.8008s-0.2992-1.3008-0.1992-1.8008c0-0.5 0.3996-0.89844 0.5996-1.3984 0.3-0.5 0.3996-1.1008 0.5996-1.8008s0.3004-1.3008 0.4004-2.3008 0.1004-2.3992 0.4004-3.1992c0.2-0.8 0.6992-1.2 1.1992-1.5s1.0004-0.70078 1.4004-0.80078c0.15-0.075 0.3-0.1207 0.4394-0.12891zm-14.006 8.377c0.1594-7.4e-4 0.3168 0.0152 0.4668 0.0527 0.9 0.2 1.5 0.79922 1.5 1.6992 0 0.8-0.6 1.8016-1.5 2.1016-0.8 0.4-1.8008-3.9e-4 -2.3008-0.40039s-0.5-0.90039-0.5-1.4004 0-1.0004 0.5-1.4004c0.4062-0.325 1.143-0.64917 1.834-0.65234z" />
</svg>