<?xml version="1.0" encoding="UTF-8"?>
<svg width="1800" height="900" version="1.1" xmlns="http://www.w3.org/2000/svg">
  <MetaInfo xmlns="http://www.prognoz.ru">
    <Geo>
      <GeoItem X="0" Y="0" Latitude="90" Longitude="-180"/>
      <GeoItem X="1800" Y="900" Latitude="-90" Longitude="180"/>
    </Geo>
  </MetaInfo>
  <path d="m1212 238-3 3h-4l-0.4805 0.96094-1.6523-1.9609h-3.8672l-2 1-3-2v10l-1 3-6-2v-3l-0.8828-0.2207c0.017-0.018 0.036-0.0352 0.055-0.0527-1.5016 1.5883-3.8779 2.9777-5.3692 3.5742-1.5 0.7-2.1007 0.7-3.8007 1.5-1.7 0.9-4.3008 2.4984-5.8008 3.3984-0.7141 0.38085-1.1953 0.55113-1.6836 0.57617l0.0505 0.22457h-0.5684l-1 2h-0.6719l-2.6289 15 1.1016 2.1992 0.6992 1 5 5.4004-7.1992 2.9004-1.5 2-4.1016 4.1992-3.4375-0.33203c0.025 0.10519 0.039 0.21482 0.039 0.33203 0 1.3-1.6016 3.3-3.1016 4-1.5 0.6-2.8984 2e-3 -4.3984 1.1016-1.5 1.2-3.1008 4.1992-4.3008 5.1992l-7.4082 6.2031c-0.2106 1.4975-0.7027 2.9612-1.3926 3.9961-0.313 0.46948-0.6739 0.77386-1.0254 1.1191-0.01 0.12273 0.046 0.26091 0.025 0.38086-0.3155 1.262-1.3039 2.4195-2.082 3.6289-0.037 1.0883 0.014 2.2599-0.1172 3.3711-0.2 1.6-0.8008 3-1.8008 4.5s-2.4 3.1-4 3.5c-0.058 0.0102-0.1172 0.0142-0.1758 0.0215l-0.3242 0.58008-5.1992-1.6016-0.1992 3.6016-3-0.5-4.5 4.8984 3.5801 3.8457c0.125-0.44301 0.1678-0.9256 0.4199-1.3457 0.4-0.5 0.9988-0.89844 1.7988-0.89844 0.7 0 1.6004 0.39922 2.4004 0.69922s1.6996 0.70078 2.5996 0.80078c0.9 0.2 1.9004 0.2 2.4004-0.5 0.5-0.6 0.5-2.0016 1-2.6016 0.5-0.7 1.4992-0.7 2.1992-0.5 0.6 0.1 1.0008 0.50078 1.3008 0.80078s0.7008 0.7 0.8008 1c0.2 0.3 0.2 0.69922 0.5 1.1992 0.2 0.5 0.6992 1.1008 1.1992 1.8008s0.9996 1.3 1.5996 1.5 1.2012-0.19922 1.7012-0.69922c0.4-0.5 0.4992-1.1008 0.6992-1.8008s0.3-1.3 0.5-2c0.3-0.7 0.5008-1.3 0.8008-2 0.2-0.7 0.4992-1.3008 0.6992-1.8008s0.3008-0.89844 0.8008-1.3984c0.4-0.5 1-1.1012 1.5-1.7012 0.4-0.5 0.4992-0.89883 0.6992-1.2988 0.2-0.5 0.2996-0.90117 0.5996-1.2012 0.2-0.3 0.5996-0.4 1.0996-1s1.1008-1.5996 1.8008-2.0996 1.3004-0.50078 1.9004-0.80078c0.5-0.4 0.9004-0.99922 1.4004-1.6992 0.4-0.7 0.7996-1.3008 1.0996-1.8008s0.4-0.89844 0-1.3984-1.4012-1.1-2.2012-1.5c-0.9-0.3-1.4992-0.30078-2.1992-0.30078s-1.2992 0-1.6992-0.5c-0.3-0.5-0.3-1.4996 0-2.0996 0.4-0.6 0.9992-0.70039 1.6992-0.90039s1.3-0.30039 2-0.40039 1.3-0.0996 2-0.0996 1.3008-7.8e-4 1.8008 0.19922c0.5 0.1 0.9 0.50156 1.5 0.60156 0.7 0.2 1.7 0.19844 2.5 0.39844 0.7 0.1 1.1992 0.50078 1.6992 0.80078s1 0.7 1.5 1c0.4 0.3 0.8008 0.7 1.3008 1 0.4 0.3 0.7996 0.70078 1.0996 0.80078 0.3 0.2 0.4004 0.19922 0.9004 0.19922h1.6997c0.7 0 1.3008-7.8e-4 1.8008-0.30078 0.5-0.4 0.8988-1 1.2988-1.5s0.9004-0.89922 1.4004-1.1992 1.0004-0.70078 1.4004-0.80078c0.4-0.2 0.7988-0.19883 1.2988-0.29883 0.6-0.1 1.3016-0.20039 2.1016-0.40039 0.7-0.2 1.4984-0.30039 1.8984-0.40039 0.5-0.1 0.6016-0.0996 1.1016-0.0996 0.4 0 1 7.8e-4 1.5-0.19922 0.5-0.1 0.8992-0.50156 1.6992-0.60156 0.8-0.2 2.2-0.2 3 0 0.8 0.1 1.1996 0.50117 1.5996 0.70117 0.4 0.3 0.9004 0.39961 1.4004 0.59961s1.0004 0.29965 1.4004 0.0996c0.4-0.3 0.7996-0.89961 1.0996-1.5996s0.7004-1.3 0.9004-2c0.3-0.6 0.3996-1.1992 0.5996-1.6992 0.2-0.6 0.3004-1.2016 0.4004-1.6016s0.1004-0.49844 0.4004-0.89844c0.4-0.3 0.9992-0.80078 1.6992-1.3008s1.3008-0.99961 1.8008-1.5996 0.8996-1.2008 1.0996-1.8008c0.3-0.6 0.3996-1.0996 0.5996-1.5996s0.3008-0.99922 0.3008-1.6992c-0.1-0.8-0.5-1.8-0.5-2.5 0-0.6 0.3992-1.0008 0.6992-1.3008s0.6996-0.69922 1.0996-1.1992 0.9004-1.1008 1.4004-1.8008 1.0004-1.3 1.4004-2 0.7988-1.2992 1.2988-1.6992c0.5-0.3 1.1016-0.3 1.6016-0.5 0.5-0.1 0.8992-0.5 1.6992-0.5s2.1992 0.39844 2.6992-0.10156 0.1008-1.9 0.3008-3c0.2-1.2 0.8-2.2 1.5-2.5 0.7-0.4 1.2992 0 1.6992 1 0.3 1 0.3016 2.6016 0.1016 3.6016-0.1 1-0.5008 1.3992-0.8008 1.6992l-1.1992 1.1992c-0.5 0.5-1.1 1.1008-2 1.3008-0.8 0.2-1.8-0.2-2.5 0-0.6 0.2-1.0008 0.8-1.3008 1.5s-0.7 1.3008-1 1.8008-0.6992 0.9-0.6992 1.5c0 0.7 0.3992 1.7 0.1992 2.5-0.2 0.9-0.8 1.5-1 2s0.2008 0.89883 0.3008 1.2988c0 0.4-0.1008 0.90039-0.3008 1.4004s-0.2992 1.0008-0.6992 1.8008c-0.5 0.7-1.1008 1.7-1.3008 2.5-0.2 0.9 0.2 1.5 0.5 2s0.7008 0.89844 1.3008 0.89844c0.7 0 1.6984-0.4 2.3984-1 0.6-0.7 1.0008-1.6984 1.3008-2.3984 0.3-0.6 0.7-1 1-1.5s0.7-1.1016 1-1.6016 0.6992-0.9 1.1992-1c0.5-0.2 1.1016-0.19844 1.6016-0.39844 0.5-0.1 0.8984-0.50078 1.3984-0.80078s1.1016-0.69922 1.6016-0.69922 0.9 0.39844 1.5 0.39844c0.7 0 1.7-0.4 2.5 0 0.9 0.3 1.5 1.3016 2 1.6016 0.5 0.4 0.8988 0 1.2988 0 0.4-0.1 0.9004-7.8e-4 1.4004 0.19922s0.9996 0.29961 1.5996 0.59961c0.6 0.2 1.2004 0.60117 1.9004 0.70117 0.7 0.2 1.3008 0.19844 1.8008-0.10156 0.4-0.4 0.4992-0.99922 0.6992-1.6992s0.2996-1.3 0.5996-2c0.2-0.7 0.6004-1.3 1.4004-1.5s2.2 0.20078 3 0.80078c0.8 0.7 1.1992 1.6984 1.1992 2.3984 0 0.6-0.3992 1.0008-0.6992 1.3008l-1.1992 1.1992c-0.5 0.5-1.1008 1.1012-1.3008 1.7012s0.2 1.0996 0.5 1.5996 0.6992 1 1.1992 1c0.5 0.1 1.1008-0.29922 1.8008-0.69922 0.7-0.5 1.2992-0.90117 1.6992-1.2012 0.3-0.3 0.3016-0.39883 0.6016-0.79883 0.4-0.5 0.9992-1.1 1.6992-1.5 0.6-0.5 1.2008-0.60078 1.8008-0.80078 0.5-0.2 1.1-0.29961 1.5-0.59961 0.4-0.2 0.4996-0.60039 1.0996-0.90039s1.5988-0.69922 2.2988-1.1992c0.6-0.5 1.0016-1.1 1.6016-1.5 0.6-0.5 1.5-0.60078 2.5-0.80078 0.9-0.2 1.7988-0.30039 2.2988-0.40039 0.6-0.1 0.7-0.0996 1-0.0996 0.2 0 0.5996-7.8e-4 1.0996-0.30078 0.5-0.4 1.1008-0.99844 1.8008-1.3984 0.7-0.3 1.3008-0.30156 1.8008-0.60156 0.4-0.4 0.4992-0.99922 0.6992-1.6992s0.298-1.3008 0.1-1.8008c-0.3-0.5-0.9-0.89922-1.5-1.1992s-1.0996-0.7-1.5996-1-0.9996-0.69961-1.5996-1.0996-1.2004-0.90039-1.9004-1.4004-1.3-1.0004-2-1.4004-1.2992-0.79883-2.1992-0.79883c-0.8 0-1.8016 0.39922-2.6016 0.19922-0.9-0.2-1.5-0.8-2-1s-0.9 0.20078-1.5-0.19922c-0.7-0.3-1.7-1.3016-2.5-1.6016-0.9-0.4-1.5 7.8e-4 -2-0.19922s-0.8984-0.80078-1.3984-1.3008c-0.5-0.4-1.3-0.69844-2-0.89844-0.8-0.2-1.5-0.4-2-0.5-0.5 0-0.6004 0.19844-0.9004 0.39844-0.2 0.1-0.6004 0.20078-0.9004 0.30078-0.3 0.2-0.6992 0.29922-1.1992 0.69922-0.5 0.3-1.1008 0.80078-1.8008 1.3008s-1.3 1.0008-2 1.8008c-0.7 0.7-1.3 1.6984-2 2.3984-0.7 0.6-1.3 1.0008-2 0.80078s-1.2992-0.8-1.6992-1.5c-0.3-0.7-0.3016-1.3-0.1016-2 0.1-0.7 0.5008-1.3 0.8008-2s0.7-1.3008 1-1.8008 0.7-0.89922 1-1.1992 0.7008-0.70078 0.8008-1.3008c0.2-0.7 0.1984-1.7-0.1016-2.5-0.4-0.9-0.9988-1.4992-1.2988-2.1992-0.2-0.7-0.102-1.3 0.1-2 0.2-0.7 0.2996-1.3008 0.5996-1.8008 0.2-0.5 0.6012-0.9 0.7012-1.5 0.2-0.7 0.1984-1.6984 0.3984-2.3984 0.1-0.8 0.5008-1.3008 0.8008-1.8008s0.6992-0.99922 1.1992-1.1992c0.5-0.3 1.1008-0.30078 1.8008-0.30078s1.3-7.8e-4 2-0.30078c0.7-0.4 1.2992-0.99922 1.6992-1.6992 0.3-0.7 0.3008-1.3 0.3008-2s-8e-4 -1.3008 0.1992-2.3008c0.1-1 0.5-2.3988 0.5-3.2988 0.1-0.9-0.1984-1.4004-0.3984-1.9004-0.091-0.15137-0.1539-0.29862-0.2266-0.44727l-1.075-0.05277h-4l-2-4-4 1-1-1v-3l-2-3zm-71.557 49.789c-0.014 0.01-0.028 0.0192-0.041 0.0293 0.014-0.0101 0.027-0.0195 0.041-0.0293zm13.394 1.1777c0.1862 0.0906 0.3555 0.18864 0.5156 0.29101-0.1574-0.10349-0.3295-0.20051-0.5156-0.29101zm-21.19 12.674c-0.015 0.011-0.031 0.0219-0.047 0.0332 0.015-0.0113 0.031-0.0222 0.047-0.0332zm-5.791 18.1c-0.071 0.51712-0.178 1.0104-0.3457 1.4727 0.1677-0.46222 0.2747-0.95554 0.3457-1.4727zm-0.3457 1.4727c-0.084 0.23111-0.1833 0.45508-0.3008 0.66992 0.1175-0.21484 0.217-0.43881 0.3008-0.66992zm-0.3008 0.66992c-0.1174 0.21485-0.2526 0.42031-0.4101 0.61719 0.1575-0.19688 0.2927-0.40234 0.4101-0.61719zm-0.4101 0.61719c-0.1375 0.1875-0.2957 0.36621-0.4668 0.53906 0.1711-0.17285 0.3293-0.35156 0.4668-0.53906zm-1.0137 1.0391c-0.3814 0.32031-0.7869 0.61719-1.1621 0.89844 0.3752-0.28125 0.7807-0.57813 1.1621-0.89844zm-2.3926 3.1524c0 7e-3 0.01 0.013 0.014 0.0195-0.01-6e-3 -0.01-0.0131-0.014-0.0195zm0.6485 0.53125c0.046 0.0267 0.086 0.055 0.1347 0.0801-0.048-0.025-0.089-0.0535-0.1347-0.0801zm1.1992 0.43945c0.022 4e-3 0.041 0.0117 0.062 0.0156-0.021-4e-3 -0.041-0.0114-0.062-0.0156zm0.5117 0.0684c0.061 5e-3 0.1219 0.0118 0.1836 0.0137-0.062-2e-3 -0.1224-9e-3 -0.1836-0.0137z" />
</svg>