<?xml version="1.0" encoding="UTF-8"?>
<svg width="1800" height="900" version="1.1" xmlns="http://www.w3.org/2000/svg">
  <MetaInfo xmlns="http://www.prognoz.ru">
    <Geo>
      <GeoItem X="0" Y="0" Latitude="90" Longitude="-180"/>
      <GeoItem X="1800" Y="900" Latitude="-90" Longitude="180"/>
    </Geo>
  </MetaInfo>
  <path d="m1152.2 404.8c-0.5-0.1-0.8984 0-1.3984 0.5-0.5 0.4-1.1 0.99961-1.5 1.5996-0.3 0.6-0.3008 1.0996-0.3008 1.5996s8e-4 0.99961-0.1992 1.5996c-0.1 0.6-0.5008 1.2012-0.8008 1.7012s-0.7 0.89922-1 1.1992-0.6992 0.70078-1.1992 0.80078c-0.5 0-1.3-0.10078-2-0.30078-0.8-0.2-1.5-0.30039-2-0.40039s-0.6-0.0988-1 0.20117c-0.5 0.4-1.1 1-1.5 2-0.3 1-0.3016 2.3992-0.6016 3.1992-0.4 0.8-0.9984 1.1992-1.8984 1.1992-0.8 0-1.8-0.39922-2.5-0.69922-0.6-0.3-1-0.7-1.5-1s-1.1016-0.7-1.6016-1-0.9-0.70078-1-1.3008c-0.2-0.7-0.2-1.6984-0.5-2.3984-0.4-0.6-0.9992-1-1.6992-1s-1.3 0.39922-2 0.69922-1.2992 0.69922-2.1992 1.1992c-0.8 0.5-1.8012 1.1008-2.2012 1.8008-0.4 0.6-0.2984 1.2008-0.1 1.8008 0.2 0.5 0.3004 1.1 0.4004 1.5s0.1 0.49844 0 0.89844c-0.1 0.3-0.2004 0.80078-0.4004 1.3008s-0.2996 0.99961-0.5996 1.5996c-0.2 0.6-0.6004 1.2012-0.9004 1.7012s-0.7 0.9-1 1.5c-0.3 0.7-0.6992 1.6992-1.1992 2.1992s-1.1008 0.49922-1.8008 0.19922c-0.7-0.4-1.3008-0.99922-1.8008-1.1992s-0.8984 0.19922-1.3984 0.19922-1.1016-0.4-1.6016-1c-0.5-0.7-0.8984-1.6984-0.3984-2.3984 0.5-0.6 1.9-1 2.5-1.5 0.7-0.5 0.7-1.1008 1-1.8008 0.4-0.7 0.9988-1.3004 1.2988-1.9004s0.2012-1.0996 0.2012-1.5996c-0.1-0.5-0.2012-1.0004-0.2012-1.4004 0.1-0.4 0.2-0.79883 0-1.2988-0.3-0.5-0.8988-1.1-1.7988-1.5-0.8-0.3-1.8-0.30156-2.5-0.10156-0.8 0.1-1.3008 0.50078-1.8008 0.80078s-1.0004 0.69961-1.4004 1.0996-0.7996 0.90039-1.0996 1.4004-0.6996 0.99961-1.0996 1.5996-0.9004 1.2004-1.4004 1.9004-0.9992 1.3-1.6992 2c-0.8 0.7-1.8 1.2992-2.5 1.6992-0.8 0.3-1.3008 0.30078-1.8008 0.30078s-1.0004 7.8e-4 -1.9004-0.19922c-0.9-0.1-2.2996-0.5-3.0996-0.5s-1.1992 0.39844-1.1992 0.89844c-0.1 0.5-8e-4 1.1008 0.1992 1.8008s0.3004 1.2992 0.4004 2.1992c0.1 0.8 0.1 1.8016 0.1 2.6016 0 0.9 8e-4 1.5 0.3008 2 0.2 0.5 0.6992 0.7 1.1992 1 0.5 0.2 1.0004 0.49922 1.4004 0.69922s0.7996 0.30039 1.0996 0.40039 0.6992 0.0988 1.1992 0.29883c0.5 0.1 1.1008 0.50117 1.8008 0.70117 0.6 0.2 1.2008 0.30039 1.8008 0.40039 0.5 0 1.1 0.0992 1.5 0.19922 0.4 0.2 0.4996 0.30078 1.0996 0.80078 0.6 0.4 1.5988 0.99922 2.2988 1.1992 0.6 0.2 1-0.19922 1.5-0.19922s1.1008 0.39922 1.3008 1.1992-0.1992 2.2-0.6992 3c-0.4996 0.7994-1.0995 1.1986-1.7988 1.1992 0.7 0 1.3007-0.39922 1.8007-1.1992 0.3278-0.52451 0.3583-1.2646 0.459-1.9668l12.936 6.4746c-8e-4 5e-3 7e-4 0.0122 0 0.0176 1e-3 -8e-3 7e-4 -0.0173 0-0.0254 0.1-1.3 2.5-1.7 4.5-1s3.6008 2.3 5.3008 3c1.4598 0.60108 2.8906 0.33015 4.5195-0.12109 0.3205-0.45094 0.545-0.83449 0.9805-1.3789 1.2-1.5 2.8-3.5008 4-5.3008 1.2-1.9 1.8008-3.4992 2.8008-4.6992s2.4-1.7992 4-2.1992c1.7-0.3 3.6992-0.30156 5.1992-1.1016 0.9722-0.5833 1.6912-1.4805 2.0527-2.543 0.1397-0.59862 0.3181-1.1869 0.2481-1.8555-0.1-1.8-1.5016-3.8016-1.1016-5.1016 0.1025-0.47845 0.4511-0.83503 0.8828-1.1426-0.028-0.1196-0.097-0.27382-0.082-0.35742 0.095-0.57293 0.5132-0.86266 1.0293-0.91016 2.475-2.4608 3.0545-5.3161 3.0645-7.4277-0.4155-0.8528-0.7439-1.8566-0.8946-2.8613-0.3295-1.6477-0.082-3.2358 0.7305-3.877-0.038-0.3703-0.1289-0.841-0.1289-1.123 0-0.58231 0.092-0.9784 0.2519-1.3613l-0.3535-0.1875c-0.175 0.1872-0.2003 0.39898-0.5 0.54883-0.7 0.3-1.7 0.69961-2.5 0.59961-0.9 0-1.4992-0.39883-2.1992-0.79883-0.7-0.5-1.3008-0.9-1.8008-1z" />
</svg>