<?xml version="1.0" encoding="UTF-8"?>
<svg width="1800" height="900" version="1.1" xmlns="http://www.w3.org/2000/svg">
  <MetaInfo xmlns="http://www.prognoz.ru">
    <Geo>
      <GeoItem X="0" Y="0" Latitude="90" Longitude="-180"/>
      <GeoItem X="1800" Y="900" Latitude="-90" Longitude="180"/>
    </Geo>
  </MetaInfo>
  <path d="m1197.9 344.99c0 3e-3 3e-4 5e-3 -0.01 8e-3 -0.4 0.5-0.9004 1-1.4004 1.5s-0.9996 1.0004-1.5996 1.4004-1.2012 0.79961-1.7012 1.0996-0.8984 0.70078-1.3984 0.80078c-0.6 0.2-1.5008 0.19922-2.3008 0.19922s-1.7004-7.8e-4 -2.4004 0.19922c-0.8 0.1-1.4004 0.50039-1.9004 0.90039s-0.8992 0.90039-1.1992 1.4004-0.7008 1.0004-0.8008 1.4004c-0.2 0.4-0.1992 0.79922-0.1992 1.1992s-0.1 0.90039-0.1 1.4004c-0.1 0.5-0.1012 1.0004-0.2012 1.4004 0 0.4-0.099 0.80039-0.1992 0.90039-0.2 0.2-0.2992 0.19922-0.1992 0.69922 0 0.5 0.3984 1.5 0.3984 2.5s-0.4 1.9992-1 2.6992c-0.7 0.6-1.6984 1.0016-2.3984 1.1016-0.8 0.2-1.3008 0.19922-1.8008 0.19922s-0.9996 7.8e-4 -1.5996 0.30078c-0.6 0.4-1.1996 0.99844-2.0996 1.3984-0.8 0.3-1.8 0.30078-2.5 0.80078-0.6 0.5-1.0016 1.5-1.6016 2-0.7 0.5-1.6984 0.5-2.3984 0-0.6-0.5-1.0016-1.4992-1.6016-2.1992-0.7-0.6-1.6984-1.0016-2.3984-1.1016-0.8-0.2-1.3008-0.19922-1.8008-0.19922s-0.9996 0-1.5996 0.5-1.1996 1.5-2.0996 2c-0.8 0.5-1.8008 0.49922-2.3008 1.1992-0.5 0.6-0.5 2.0008-1 2.8008s-1.5008 1.1992-2.3008 1.1992c-0.9 0-1.4984-0.39883-1.8984-0.79883-0.5-0.4-0.6008-0.90039-0.8008-1.4004s-0.2996-1-0.5996-1.5c-0.2-0.5-0.6004-1-0.9004-1.5s-0.6992-1.0008-1.1992-1.3008c-0.5-0.4-1.1008-0.49922-1.8008-0.69922s-1.3-0.29922-2-0.19922c-0.7 0-1.3 0.39922-2 0.69922s-1.3004 0.69961-1.9004 1.0996-1.0996 0.90039-1.5996 1.4004l-1.5996 1.5996-1.8958 1.9002c-0.7 0.7-1.3008 1.3-1.3008 2s0.6008 1.3 1.3008 1.5 1.3-0.2 2-0.5 1.3-0.7 2-1 1.3-0.7 2-1 1.3008-0.69922 1.8008-0.69922 0.8992 0.39922 1.1992 0.69922 0.6992 0.70078 0.6992 1.3008c0 0.7-0.3992 1.6984-0.6992 2.3984-0.3 0.6-0.6992 1.0016-1.1992 1.1016-0.5 0.2-1.1 0.19922-2 0.69922-0.8 0.5-1.8008 1.5008-2.3008 2.3008-0.5 0.7-0.5 1.1992-0.5 1.6992v1.4004c0 0.4-8e-4 0.79883 0.1992 1.2988 0.1 0.5 0.5012 1.1012 0.7012 1.7012s0.3004 1.0996 0.4004 1.5996c0 0.5 0.099 1.0004 0.1992 1.4004 0.2 0.4 0.3008 0.79922 0.8008 1.1992 0.4 0.4 0.9992 0.90039 1.6992 1.4004s1.3 0.99961 2 1.0996 1.3-0.29961 2-0.59961 1.3-0.7 2-0.5 1.3004 0.80078 1.9004 0.80078c0.6-0.1 1.0996-1.0008 1.5996-1.8008s1.0004-1.7004 1.4004-2.4004 0.7-1.1988 1-1.7988c0.4-0.5 0.7-1.1 1-1.5 0.3-0.3 0.5988-0.40039 0.7988-0.40039 0.3-0.1 0.6008-3.5e-4 0.8008 0.0996 0.2 0.2 0.2996 0.30039 1.0996 0.40039 0.7 0.1 2.1012 0.0996 2.7012 0.59961 0.5 0.4 0.3992 1.3008 0.1992 2.3008-0.2 0.9-0.2996 1.7988-0.5996 2.2988-0.2 0.6-0.6004 0.7-0.9004 1-0.3 0.2-0.6992 0.60039-1.1992 1.4004s-1.1016 2.1992-1.1016 3.1992 0.6016 1.6016 1.1016 2.1016 0.8992 0.89883 1.1992 1.2988 0.7 0.90039 1 1.4004 0.6992 1.0004 0.6992 1.4004c0 0.20055-0.326 0.36293-0.5019 0.55078l0.3535 0.1875c-0.01 0.0211-0.013 0.0452-0.022 0.0664 0.195-0.49672 0.509-0.95484 0.9707-1.7051 0.8-1.3 2.2-3.7 3.5-6s2.7008-4.7 4.3008-6c1.7-1.3 3.6992-1.7 5.6992-2 1.9993-0.29989 3.9993-0.69894 5.7988-0.69922 1.8991 2.8e-4 3.497 0.39879 4.8965 1.3984 0.9538 0.73373 1.7379 1.7904 2.0136 2.7754l6.4063-1.1211 1.8853-2.3535-2-2 1-3 3-3-1-3 5-1 3 1-1 3 1 1 5 1 1-5-4-2v-4l-1-1-5 2-2-2 1-3h6v1l2.8906-0.96484c-0.7232-0.0368-1.391-0.10444-1.8926-0.33594-0.7259-0.39089-1.1453-1.1799-1.4492-2.0332v-2e-3c-0.1794-0.24812-0.3596-0.49186-0.5254-0.77539v-2e-3c-0.475-0.8125-0.9254-1.7359-1.5254-2.5859-0.1459-0.19455-0.3392-0.31228-0.496-0.49805v-2e-3c-1.3 0.2-3.7008 1.1992-5.3008 1.1992-0.425 0-0.8052-0.0617-1.1348-0.17578-0.3791-0.13113-0.6657-0.3449-0.8965-0.5957-0.4403-0.39216-0.7732-0.86155-0.8672-1.4277-0.1-1.1 0.4993-2.5 1.1993-3.5 0.2588-0.36976 0.5276-0.59451 0.8046-0.81445 0.3402-0.6252 0.6851-1.1652 0.9961-1.7871 0.2504-0.50076 0.4747-1.0997 0.7754-1.6504 0.3-0.55 0.6746-1.0496 1.2246-1.3496 0.091-0.0534 0.2321-0.0653 0.3321-0.11133v-2e-3c0.2329-0.1977 0.3657-0.38576 0.666-0.58594l0.8984-5.6992zm12.705 24.219c0.2161 0.18043 0.4095 0.40725 0.6016 0.64062-0.1884-0.23634-0.3823-0.45753-0.6016-0.64062zm1.3887 1.7109v1.0781l1.877 0.9375c-0.4437-0.37304-0.8534-0.74507-1.1797-1.1367-0.2622-0.28836-0.4851-0.58493-0.6973-0.8789zm-46.301 8.3789c0.6 0 1.0004 0.39883 0.9004 0.79883s-0.5996 0.90039-1.0996 1.4004-1.0004 1.0008-1.4004 0.80078c-0.4-0.3-0.8004-1.3-0.4004-2 0.3-0.6 1.3-1 2-1zm55.797 1.1973c0.062 0.1875 0.1031 0.36869 0.1211 0.54101-0.018-0.17224-0.057-0.35156-0.1192-0.53906zm-0.01 1.4883c-0.076 0.19249-0.1912 0.36917-0.3203 0.53906 0.033-0.0429 0.072-0.0827 0.1016-0.12695 0.087-0.1312 0.1617-0.26794 0.2187-0.41211zm-0.8925 1.1289c-0.2691 0.21536-0.5754 0.40704-0.9004 0.58204-0.6995 0.29976-1.4497 0.55172-2.2364 0.78906 0.7874-0.2375 1.5364-0.48711 2.2364-0.78711 0.325-0.175 0.6315-0.36843 0.9004-0.58399zm-3.1387 1.3711c-0.7873 0.2375-1.6129 0.46094-2.4629 0.71094-0.4244 0.12482-0.8414 0.25817-1.2285 0.40625 0.3874-0.14844 0.8054-0.2793 1.2304-0.4043 0.8494-0.24982 1.6742-0.47558 2.461-0.71289zm-4.7071 1.6094c-0.01 5e-3 -0.021 8e-3 -0.029 0.0137-0.1505 0.0972-0.2856 0.20339-0.4043 0.3164 0.1257-0.11897 0.2728-0.22833 0.4335-0.33008zm-0.6972 0.64453c-0.011 0.0165-0.029 0.0301-0.039 0.0469-0.016 0.0259-0.021 0.0573-0.035 0.084 0.024-0.0439 0.046-0.089 0.074-0.13086zm-0.2539 0.9043c7e-4 0.0186-0.01 0.0338 0 0.0527 0.023 0.14504 0.076 0.30181 0.1465 0.46289-0.07-0.16078-0.1221-0.31624-0.1446-0.46094v-0.0547zm-0.6035 0.35352c-0.1147 0-0.2081 0.0342-0.2813 0.0937 0.073-0.0592 0.1666-0.0918 0.2813-0.0918l0.01 4e-3c0-1e-4 -0.01-6e-3 -0.01-6e-3zm11.859 2.2695c0.2724 0.39755 0.6151 0.80352 0.9805 1.2148-0.3604-0.41122-0.7091-0.81847-0.9805-1.2148zm-2.0703 0.29883c-0.7248 0.20664-1.4113 0.45797-2.0879 0.67578 0.675-0.21738 1.3651-0.46958 2.0879-0.67578zm-2.7207 0.86523c-0.055 0.0141-0.1092 0.0281-0.164 0.041 0.054-0.0129 0.1095-0.0269 0.164-0.041zm-31.773 3.8789c-0.1679 0.2308-0.394 0.43665-0.6641 0.62695 0.2703-0.19044 0.4961-0.39593 0.6641-0.62695zm-27.299 10.146c-0.1301 0.13758-0.176 0.28862-0.3145 0.41797 0.1391-0.12924 0.1877-0.27974 0.3145-0.41797zm0.1796 0.77344c-0.045 0.22347-0.07 0.47184-0.07 0.76953 0 0.28205 0.091 0.75275 0.1289 1.123-0.098 0.0774-0.186 0.17182-0.2675 0.27539 0.082-0.10429 0.1708-0.19748 0.2695-0.27539-0.038-0.3703-0.1289-0.841-0.1289-1.123 0-0.29988 0.026-0.54334 0.068-0.76953zm-0.2441 2.2188c-0.059 0.0796-0.1127 0.16559-0.1621 0.25781 0.049-0.0918 0.1037-0.17848 0.1621-0.25781zm-0.2656 0.5293c-0.076 0.18642-0.1443 0.37899-0.1895 0.59765 0.045-0.21801 0.1138-0.41168 0.1895-0.59765zm-0.2403 0.95507c-0.026 0.21099-0.043 0.42428-0.045 0.65235 0-0.22641 0.018-0.44281 0.045-0.65235zm-0.031 1.0898c0.01 0.0973 0 0.18821 0.01 0.28711l0.021-0.0234c-0.01-0.0877-0.024-0.17728-0.029-0.26367zm-13.416 2.6836 0.022 0.043c0.2145 0.0216 0.4433 0.0508 0.6074 0.0508-0.1572 0-0.4249-0.0739-0.6289-0.0937z" />
</svg>