<?xml version="1.0" encoding="UTF-8"?>
<svg width="1800" height="900" version="1.1" xmlns="http://www.w3.org/2000/svg">
  <MetaInfo xmlns="http://www.prognoz.ru">
    <Geo>
      <GeoItem X="0" Y="0" Latitude="90" Longitude="-180"/>
      <GeoItem X="1800" Y="900" Latitude="-90" Longitude="180"/>
    </Geo>
  </MetaInfo>
  <path d="m1260.9 240.9c0.1188 1.8246 0.1342 1.7764 0 0zm0.1 1.3672c0.3135 3.4875-3.3264 5.4578-5.6992 7.2324-2.6954 1.9676-3.7064 7.3175-7.7044 6.9487-2.137 1.4884-7.1617 0.42281-4.8587 4.8136 1.3742 3.3682-0.702 5.0664-3.6748 5.7756-1.829 2.0003-0.7885 4.9573-1.0625 7.4274 0.8118 4.6375 7.1603 3.2008 10.301 5.5347 3.1954 3.6674 5.5508-1.6262 9.2071-1.0015 3.7183 0.70561 4.3892-2.2866 5.6913-4.6977 2.7853-1.3499 7.154-2.5598 8.6665 1.2056 1.7351 3.4115-5.6587 2.1271-5.128 6.2682-0.7112 4.0741-4.4621 7.0476-4.7299 11.1-0.2673 3.614 4.9378 5.0866 4.293 0.52618 4.2314-4.0603 7.0182 3.52 4.3984 6.5996-3.2534 1.3387-10.117-1.4941-9.2994 4.6044 1.4257 4.5279-7.3624 3.0479-5.4002 8.1196 0.7291 3.3298-1.2671 7.7278-5.2377 5.5762-3.792 1.7964 1.4993 7.227-2.2577 9.7419-3.2685 2.1603-7.0857 3.1934-9.98 5.9702-3.0416 1.9184-1.0161 8.2154 0.8239 9.3644 1.5452-0.29387 3.0466-0.64644 3.5579-2.3254 0.9775-1.3964 1.6725-3.1476 2.8229-4.3269 3.2358-1.2262 6.5856-2.03 9.984-2.6541-1.1463-1.0817-0.5874-2.6798-0.7137-4.0703 1.6344-1.472 2.1669-3.7456 3.6063-5.4094 0.8084-1.2213-0.043-2.9393 1.2628-4.039 1.0308-1.5272 1.6923-3.3427 3.1309-4.5515 1.2229 0.39305 2.6452 2.7985 3.6825 1.3175 1.5449-0.074 1.9607-1.558 2.6125-2.9075 0.2772-1.9635 2.1573-1.3335 3.6008-1.41 1.4182-0.1604 3.4453 0.66428 3.7517-1.295 0.5655-1.4624 2.712-0.3666 3.9722-0.70497 2.9257 0.45004 2.8018-1.2748 2.015-3.5488-2.2137-2.4099-5.2291-7.0877-1.8453-9.668-0.2522-1.7009 2.5301 0.36999 2.0523-2.0449 3.1742-1.8459 6.0993 3.8286 9.0756 5.0362 2.3098 2.7788 4.2344 6.2938 8.4756 5.7782-0.3334-3.4619-0.7059-6.9654-0.492-10.453-0.8962-0.85632-3.3115-1.132-3.2436-2.3568 0.5435-1.5816 1.0869-3.1632 1.6303-4.7447-2.9674-1.6384-8.1297 4.1454-8.2492-1.9488-1.2134-4.249 7.6328 0.67373 5.8996-5.0246-0.7548-3.0513-4.8256-6.6976-7.8512-4.6461-2.3328 2.2285-6.0271-0.50162-5.0868-3.4032-0.015-2.3612 0.3408-5.0663-1.6992-6.7761-4.0657-2.2152 0.7351-7.0637-0.4821-5.411-1.3095 1.3937-2.3533 1.2372-3.1218-0.52564-0.8934-1.2055-2.3431-2.3609-0.9415-3.7734 0.3284-1.178-2.4885-1.0532-3.4183-1.7101-1.5447-0.31946-2.882-0.83103-2.8053-2.6519 0.07-1.9644-1.1005-1.8976-2.111-2.8993-0.6574-1.2543-2.3156-2.3065-2.3037-3.696-0.08-1.2125 1.646-3.2552 0.2354-3.8555-1.5459-1.3127-3.3856 0.0551-5.098 0.26106-0.4997 0.33854-0.142-0.49698-0.2541-0.66972zm15.801 36.033c5.8666-0.95658 4.8182 8.3074-0.5 6.3984-3.0023-1.9023-4.3914-5.7305 0.5-6.3984z" />
</svg>