<?xml version="1.0" encoding="UTF-8"?>
<svg width="1800" height="900" version="1.1" xmlns="http://www.w3.org/2000/svg">
  <MetaInfo xmlns="http://www.prognoz.ru">
    <Geo>
      <GeoItem X="0" Y="0" Latitude="90" Longitude="-180"/>
      <GeoItem X="1800" Y="900" Latitude="-90" Longitude="180"/>
    </Geo>
  </MetaInfo>
  <path d="m1255.6 316.84c-0.3329 0.8571 0.2886 0.61149 0 0zm-31.406 11.438c-3.1634 0.47293-7.0848 1.1339-8.662 4.232 0.8315 2.4127 4.3436 7.7067-0.7345 7.4906-2.607 0.55612-3.6297-2.1674-5.3336-3.5328-1.7898-1.7764-3.6308-3.5276-4.9918-5.667-2.8199-1.5277-6.4121 3.2147-3.5208 5.3582 3.7497 0.79084 3.6636 6.6252-0.6538 6.1424-1.5844 1.0074-3.3351 3.1366-0.576 3.5435 1.5743 0.20473 0.6267 1.7486 0.6048 2.801-0.1762 1.1182-0.3525 2.2365-0.5288 3.3548 3.5503-1.1426 4.7349-4.7208 6.9365-6.9374 2.6103 0.83724 5.4889 0.1452 7.96 1.2422 1.1569 2.0605 2.7526 5.7606 5.3987 2.8725 2.4776-2.0812 6.1607-2.0919 9.2583-0.97437 3.7079 1.2087 7.4991 3.3593 8.8127 7.2718 1.4629 2.4666 2.0562 6.5861 5.4321 6.8641 2.7579 1.2008 4.9931 2.4935 8.0926 1.9189 2.4167 0.63025 3.8874-3.5085 6.8309-3.104 2.8077-0.27673 5.6876-0.0951 8.4794-0.15366 1.1565-0.6618 1.0671-1.8397 1-3.0083-0.1118-1.2199-0.151-2.3948 1.3064-2.6449 1.299-0.30766 0.4546-1.94 0.6936-2.9028-0.2207-0.89829 0.6504-2.8883-0.9129-2.444-1.124 4e-3 -2.4239 0.31879-2.7446-1.0959-0.7808-1.3014-1.5617-2.6028-2.3425-3.9041 0.8854-0.56328 2.4733-0.69242 2-2.0954v-5.9046c-1.669 1.0774-3.5374 1.9703-5.0816 3.1633-0.492 1.0108-0.8539 2.5116-1.9818 1.1278-1.6455-1.097-3.2911-2.1941-4.9366-3.2911 1-0.66667 2-1.3333 3-2-0.6875-0.81074-1.0273-2.4709-2.3595-1.706-3.1319 0.52081-6.1589 1.4298-9.1405 2.5068-1.1999 1.9662-2.3998 3.9323-3.5997 5.8984-1.084 0.28776-2.1679 0.57552-3.2519 0.86328 1.7713 3.4467-3.8215 4.0633-4.0568 0.62825-1.2877-2.915-3.9955-4.6217-5.8292-7.0642-1.2833-2.6771-0.5055-6.0316-3.0078-8.2786-0.3531-0.51347-0.9901-0.58631-1.5593-0.57056zm50.332 34.391c1.5413 0.85749 1.5409 0.85743 0 0z" />
</svg>