<?xml version="1.0" encoding="UTF-8"?>
<svg width="1800" height="900" version="1.1" xmlns="http://www.w3.org/2000/svg">
  <MetaInfo xmlns="http://www.prognoz.ru">
    <Geo>
      <GeoItem X="0" Y="0" Latitude="90" Longitude="-180"/>
      <GeoItem X="1800" Y="900" Latitude="-90" Longitude="180"/>
    </Geo>
  </MetaInfo>
  <path d="m1379.8 233.5c-0.8 0.2-1.8 0.8-2.5 1-0.6 0.2-1-0.2-1.5 0s-1.1016 0.79922-1.6016 1.1992c-0.5 0.3-0.9 0.30078-1.5 0.80078-0.7 0.5-1.6984 1.5-2.3984 2-0.6 0.5-1 0.5-1.5 0.5s-1.1-7.8e-4 -1.5 0.69922c-0.3 0.6-0.3016 2-0.6016 3-0.4 1-0.9984 1.6016-1.3984 2.1016-0.3 0.5-0.3008 0.89922-0.8008 1.1992s-1.4992 0.69922-2.1992 1.1992c-0.6 0.5-1.0008 1.1-1.8008 1.5-0.8 0.3-2.2 0.3-3 0.5-0.8 0.1-1.2 0.5-1.5 1s-0.7008 1.1-0.8008 1.5c-0.2 0.3-0.1984 0.30156 0.1016 1.1016 0.4 0.9 0.9984 2.4992 0.8984 3.6992-0.1 0.6-0.399 1.0506-0.7363 1.4004-0.3373 0.34981-0.7129 0.59883-0.9629 0.79883-0.5 0.3-0.5008 0.30156-0.8008 0.60156-0.4 0.4-1 0.99844-1.5 1.3984-0.5 0.3-0.8992 0.3-1.1992 1-0.3 0.6-0.7 2.0016-1 2.6016-0.3 0.7-0.7 0.69922-1 1.1992s-0.6992 1.4992-1.1992 2.1992c-0.5 0.6-1.1016 1.0016-1.6016 1.1016-0.5 0.2-0.9 0.19922-1.5 0.69922-0.7 0.5-1.6984 1.5-2.3984 2-0.6 0.5-1 0.49922-1.5 0.69922-0.5 0.1-1.1 0.50156-2 0.60156-0.8 0.2-1.8 0.19844-2.5 0.39844-0.6 0.1-1.0016 0.50078-1.1016 1.3008-0.2 0.8-0.2 2.2 0 3 0.1 0.8 0.5 1.2008 1 1.3008 0.5 0.2 1.1016 0.19844 1.6016 0.39844 0.5 0.1 0.9 0.5 1 1 0.2 0.5 0.2 1.1 0 2-0.014 0.11517-0.1316 0.18191-0.1582 0.30273l6.1582 0.99805 1.2344 0.32812-1.0352-0.82812 1-4 2-1 3 1v6l4-2 2 2 2-1 1-6 3-5 3 2 1-2 6-1-3-5 1-1 2-1 4 1 2-2 4 2 2-4h2l2-2v-5h-5l-1-2-1-1 2-6-0.752-0.75195 0.168-0.10157c-0.1278-0.14089-0.3121-0.17249-0.416-0.3457-0.3-0.5-0.7-1.1-0.5-2 0.2-0.8 0.8-1.8008 1-2.8008s-0.2-2-0.5-2.5-0.7008-0.5-0.8008-1c-0.2-0.5-0.1992-1.5-0.1992-2s-8e-4 -0.49922-0.3008-0.69922c-0.4-0.1-0.9984-0.50078-1.8984-0.30078z" />
</svg>