<?xml version="1.0" encoding="UTF-8"?>
<svg width="1800" height="900" version="1.1" xmlns="http://www.w3.org/2000/svg">
  <MetaInfo xmlns="http://www.prognoz.ru">
    <Geo>
      <GeoItem X="0" Y="0" Latitude="90" Longitude="-180"/>
      <GeoItem X="1800" Y="900" Latitude="-90" Longitude="180"/>
    </Geo>
  </MetaInfo>
  <path d="m1383.4 245.15-0.168 0.10157 0.752 0.75195-2 6 1 1 1 2h5v5l-2 2h-2l-2 4-4-2-2 2 1 6h4l2 4 5-5 3 3-6 3 4 3 4-2h1l2 6 1 1 2 3v6l-7 1h-3l-1 1v6l-2 5h-10l-4-2-2 1h-5l-5-3h-1l-2-2-4 1v5h-2l-4-6-3 1h-1l-1-2-5 1-2-4v-1l3-3v-2l4-1 2 2 5-3v-2l-3.9648-3.1719-1.2344-0.32812-6.1582-0.99805c-0.1581 0.71849-0.4298 1.542-0.9434 1.7988-0.7 0.4-1.6984-2e-3 -2.3984-0.10156-0.6-0.2-1-0.19922-1.5-0.19922h-1.6016c-0.5 0-0.9 0-1.5-0.5-0.7-0.5-1.7-1.5-2-2.5-0.4-1 0-2.0008-0.5-2.8008-0.5-0.9-1.8992-1.4992-2.6992-1.6992s-1.2008 0.20078-1.8008-0.19922c-0.7-0.3-1.7-1.3016-2.5-1.6016-0.9-0.4-1.5 7.8e-4 -2-0.19922s-0.8984-0.79922-1.3984-1.1992c-0.5-0.3-1.1008-0.30156-1.8008-0.10156-0.7 0.1-1.3 0.5-2 0.5s-1.3-0.39844-2-0.39844-1.3008 0.39922-1.8008 0.69922-0.8984 0.7-1.3984 1-1.1016 0.70078-1.6016 1.3008c-0.5 0.7-0.9 1.6992-1 2.1992-0.2 0.5-0.2 0.49922-0.5 1.1992-0.4 0.6-0.9992 2.0008-1.1992 2.8008s0.1992 1.2008 0.1992 1.8008c0 0.7-0.3992 1.7-0.6992 2.5-0.3 0.9-0.6992 1.4984-1.1992 1.8984-0.5 0.3-1.1 0.30078-1.5 0.30078h-3c-0.01 0-0.01-2e-3 -0.014-2e-3l-1.7871 5.2012 3.4004 1.9004-0.1 2.9004 0.5 7.1992 0.088 0.33984c1.3878 0.023 2.586-0.20429 3.9082-0.0391 1.7 0.2 3.6992 0.79922 5.6992 2.1992 1 0.65 2 1.4766 2.9375 2.2266s1.8125 1.4234 2.5625 1.7734c1.5 0.6 2.4992 0 3.1992 1 0.6 1 1.0016 3.6 1.1016 6 0.2 2.3 0.1984 4.3016 0.3984 6.1016 0.1 1.9 0.5 3.5 0.5 5s-0.3984 2.8984 0.1016 4.3984 1.8984 3.1008 2.8984 4.8008 1.6 3.2992 3 4.6992c1.3 1.3 3.3008 2.3 3.8008 3.5 0.5 1.1-0.4992 2.5008-2.1992 2.8008-1.6 0.3-4.0008-0.3-5.8008-0.5-0.038-4e-3 -0.064 2e-3 -0.1016-2e-3 -0.4519 0.21263-0.9156 0.41423-1.4199 0.47461l-0.7637 0.76367 0.7897 0.26381 1 3 3 5-1 3 3 2 0.5879 0.58789c0.038-0.0277 0.065-0.0606 0.1035-0.0879 0.1326-0.0994 0.3298-0.12199 0.4727-0.21289-0.031-0.27931-0.051-0.5658 0.1289-0.98633 0.7-1.3 2.6984-3.3016 3.8984-3.1016 0.049 4e-3 0.076 0.0685 0.1231 0.082 0.3205-0.18709 0.6371-0.39517 0.9785-0.48047 2-0.5 4.3984 0.89922 6.3984 2.1992s3.6008 2.7 4.8008 4.5 1.8008 4.2 3.3008 5 3.8992 0.20078 5.6992-0.19922c1.2455-0.20758 2.2819-0.24914 3.0781-4e-3l0.1289-4.1973 0.8008-1.5-2-4.1992-2.1992 0.40039-2.6016-2.3008-1.1992-1.3008-3-3.0996 11.801-7.2988c-0.3-0.8-0.3008-1.8 0.1992-2.5 0.5-0.6 1.4992-1.0016 2.1992-1.1016 0.6-0.2 1.0008-0.19922 1.3008-0.19922s0.7-7.8e-4 1-0.30078c0.3-0.4 0.7008-0.99844 1.3008-1.3984 0.7-0.3 1.6992-0.30156 2.1992-0.60156 0.5-0.4 0.5-1 1-1.5s1.5-0.89844 2-1.3984 0.4992-1.1016 0.6992-1.6016c0.1-0.5 0.5016-0.9 1.1016-1 0.7-0.2 1.6992-0.2 2.1992-0.5 0.5-0.4 0.4992-1 1.1992-1.5 0.6-0.5 2.0016-0.89844 2.6016-0.89844 0.7 0 0.6984 0.39922 1.3984 0.69922 0.6 0.3 2.0016 0.70078 2.6016 0.80078 0.7 0.2 0.6984 0.19922 0.8984 0.19922 0.1 0 0.5016 0 1.1016-0.5 0.7-0.5 1.7-1.5008 2.5-1.8008 0.9-0.4 1.4984 2e-3 2.3984 0.10156 0.8 0.2 1.8 0.19922 2.5 0.19922h1.6016c0.7 0 1.6992-7.8e-4 2.1992 0.19922 0.5 0.1 0.4992 0.50078 0.6992 0.80078 0.1 0.3 0.5008 0.69922 1.3008 1.1992s2.2 1.1 3 1.5c0.8 0.3 1.2008 0.30156 1.8008 0.60156 0.7 0.4 1.7 0.99844 2.5 0.89844 0.9-0.2 1.4984-1.1984 1.8984-1.8984 0.3-0.6 0.3016-1.0016 0.6016-1.6016 0.4-0.7 1-1.6984 1.5-2.3984 0.5-0.6 0.8984-1 1.3984-1s1.1008 0.4 1.8008 0.5c0.7 0.2 1.3008 0.2 1.8008 0 0.5-0.1 0.9-0.50156 1.5-0.60156 0.7-0.2 1.7-0.2 2.5-0.5 0.9-0.4 1.4992-1 1.6992-2s-0.2008-2.4-0.3008-3c-0.2-0.7-0.1992-0.69844-0.1992-1.3984v-3.5c0-0.1 8e-4 -0.50078 0.3008-0.80078 0.4-0.3 1-0.70078 1.5-1.3008 0.5-0.7 0.9-1.6984 1-2.3984 0.2-0.6 0.2-1 0.5-1.5 0.4-0.5 0.9992-1.1 1.1992-2 0.2-0.8-0.2008-1.8008-0.3008-2.3008-0.2-0.5-0.2-0.49922 0-0.69922 0.1-0.1 0.5016-0.5 0.6016-1 0.2-0.5 0.1984-1.1 0.3984-1.5 0.1-0.3 0.5016-0.30078 1.1016-0.30078 0.7 0 1.6992 7.8e-4 2.1992 0.30078 0.5 0.4 0.5008 0.99844 1.3008 1.3984 0.9 0.3 2.4984 0.30078 3.3984 0.30078 0.8 0 0.8 0 1-0.5 0.1-0.5 0.5016-1.5 0.6016-2 0.2-0.5 0.2-0.49922 0-0.69922-0.1-0.1-0.5016-0.50078-0.6016-1.3008-0.2-0.8-0.2-2.2-0.5-3-0.4-0.8-0.9984-1.2008-1.8984-1.3008-0.8-0.2-1.8008-0.2-2.3008 0-0.5 0.1-0.4992 0.50156-1.1992 0.60156-0.6 0.2-2.0008 0.2-2.8008 0-0.8-0.1-1.2008-0.5-1.3008-1-0.2-0.5-0.1984-1.1016-0.3984-1.6016-0.1-0.5-0.5016-0.89922-0.6016-1.1992-0.2-0.3-0.2-0.69922 0-1.1992 0.1-0.5 0.5-1.1 0.5-2 0-0.8-0.4-1.8 0-2.5 0.3-0.6 1.3016-1.0016 1.6016-1.6016 0.4-0.7 0-1.6984 0-2.3984 0-0.6 0.3992-1.0008 0.1992-1.8008s-0.7992-2.2008-1.1992-2.8008l-0.6016-1.3984c-0.4-0.6-0.9992-2.0016-1.6992-2.6016-0.7-0.7-1.2992-0.69922-2.1992-0.69922h-3.6016c-0.2 0-0.2 7.8e-4 -0.5-0.19922-0.4-0.1-0.9984-0.5-1.8984-1-0.8-0.5-1.8008-1.1016-2.3008-1.6016s-0.4992-0.89844-0.6992-1.3984c-0.1-0.5-0.5016-1.1-1.1016-1.5-0.7-0.3-1.6984-0.30078-2.3984-0.30078h-3.8008c-0.5 0-0.5008-7.8e-4 -0.8008-0.30078-0.4-0.4-0.9984-0.99844-1.3984-1.8984-0.3-0.8-0.3008-1.8008-0.3008-2.3008s8e-4 -0.5-0.1992-1c-0.1-0.5-0.5-1.5008-0.5-2.3008 0-0.9 0.3984-1.5 0.8984-2s1.1-0.89922 1.5-1.1992c0.3-0.3 0.3-0.70078 1-0.80078 0.6-0.2 2-0.19922 3-0.69922s1.6008-1.5 1.8008-2.5-0.2008-2-0.3008-2.5c-0.2-0.5-0.1984-0.50078-0.3984-0.80078-0.1-0.4-0.5008-1-1.3008-1.5s-2.2008-0.89922-2.8008-1.1992c-0.7-0.3-0.7-0.70078-1-0.80078-0.4-0.2-1-0.19844-1.5-0.39844-0.5-0.1-0.9-0.50156-1-0.60156l-0.5-0.5c-0.4-0.4-1-0.99844-1.5-1.3984-0.5-0.3-0.9-0.3-1-0.5-0.2-0.1-0.1984-0.5-0.8984-1-0.6-0.5-2.0008-1.1008-2.8008-1.3008s-1.2 0.20078-2 0.30078c-0.8 0.2-2.2008 0.19922-2.8008 0.19922h-1c-0.4 0-1 7.8e-4 -1.5-0.19922-0.3268-0.0654-0.5421-0.38847-0.7832-0.6543z" />
</svg>