<?xml version="1.0" encoding="UTF-8"?>
<svg width="1800" height="900" version="1.1" xmlns="http://www.w3.org/2000/svg">
  <MetaInfo xmlns="http://www.prognoz.ru">
    <Geo>
      <GeoItem X="0" Y="0" Latitude="90" Longitude="-180"/>
      <GeoItem X="1800" Y="900" Latitude="-90" Longitude="180"/>
    </Geo>
  </MetaInfo>
  <path d="m1464.7 335.2c-0.4 0.1-0.9992 0.5-1.6992 0.5s-1.3-0.39844-2-0.39844-1.3 0.39844-2 0.39844-1.2992-0.39922-2.1992-0.19922c-0.8 0.2-1.8008 0.80078-2.3008 1.3008s-0.5 0.89844-1 1.3984-1.5 1.1016-2 1.6016-0.4992 0.9-0.6992 1c-0.1 0.2-0.5016 0.2-0.6016 1-0.2 0.9-0.1992 2.4984-0.6992 3.3984-0.5 0.8-1.4992 0.8-2.1992 0.5-0.6-0.4-1.0016-1-1.6016-1.5-0.7-0.5-1.6984-0.89844-2.3984-1.3984-0.6-0.5-1-1.1-1.5-1.5-0.5-0.3-1.1016-0.30078-1.6016-0.30078s-0.9-7.8e-4 -1 0.69922c-0.2 0.6-0.1984 2.0008 0.1016 2.8008 0.4 0.8 1 1.2008 1.5 1.3008 0.5 0.2 0.8984 0.2 1.3984 0.5 0.5 0.4 1.1016 0.99844 1.6016 1.3984 0.5 0.3 0.8992 0.3 1.1992 0.5 0.3 0.1 0.6992 0.50078 0.6992 1.3008s-0.3992 2.2008-0.6992 2.8008c-0.3 0.7-0.7 0.7-1 0.5-0.3-0.1-0.7008-0.50078-1.3008-0.30078-0.7 0.2-1.6992 0.8-2.1992 1.5s-0.4992 1.3008-0.6992 1.8008c-0.1 0.5-0.5 0.9-1 1-0.5 0.2-1.1008 0.2-1.8008 0-0.7-0.1-1.3-0.5-2-0.5s-1.2992 0.39844-2.1992 0.39844c-0.8 0-1.8-0.39922-2.5-0.69922-0.6-0.3-1.0016-0.69922-1.6016-0.69922-0.7 0-1.6992 0.39844-2.1992 0.89844s-0.5008 1.1-1.3008 1.5c-0.9 0.3-2.4984 0.30078-3.3984 0.30078-0.8 0-0.8 0-1-0.5-0.1-0.5-0.5016-1.5-0.6016-2-0.2-0.5-0.1984-0.49922-0.3984-1.1992-0.1-0.6-0.5-2.0008-1-2.8008s-1.1-1.2008-1.5-1.3008c-0.3-0.2-0.3008-0.2-0.8008-0.5-0.5-0.4-1.5-0.99922-2-1.6992s-0.5-1.3008-1-1.8008-1.4992-0.89844-2.1992-0.89844c-0.6 0-1.0016 0.4-1.6016 0.5-0.7 0.2-1.6992 0.19922-2.1992 0.19922s-0.5-7.8e-4 -1-0.30078c-0.5-0.4-1.4992-0.99844-2.1992-1.3984-0.6-0.3-1.0016-0.30078-1.6016-0.30078-0.7 0-1.7-7.8e-4 -2.5-0.30078-0.9-0.4-1.4992-0.99922-2.1992-1.1992s-1.2992 0.2-2.1992 0c-0.8-0.2-1.8008-0.79922-2.3008-1.1992-0.5-0.3-0.4992-0.30078-0.6992-0.30078-0.1 0-0.5016 7.8e-4 -1.1016 0.30078-0.7 0.4-1.6984 0.99844-2.3984 1.3984-0.6 0.3-1.0016 0.30156-1.6016 0.60156-0.7 0.4-1.6992 0.99844-2.6992 0.89844-1-0.2-2-1.1984-2.5-1.8984-0.5-0.6-0.4992-1-0.6992-1.5-0.1-0.5-0.5-1.1-1.5-1.5-1-0.3-2.6-0.30078-3.5-0.30078-0.8 0-0.8 7.8e-4 -1 0.30078-0.1 0.4-0.5 1-1 1.5s-1.1016 0.89922-1.6016 1.1992-0.8992 0.7-1.1992 1-0.6992 0.70078-0.6992 1.3008c0 0.7 0.3992 1.7 0.1992 2.5-0.2 0.9-0.8 1.4984-1 2.3984-0.2 0.8 0.1992 1.8008 0.1992 2.8008s-0.3992 2-0.6992 2.5-0.6992 0.50078-1.1992 0.30078c-0.5-0.1-1.1016-0.50078-1.6016-0.80078s-0.9-0.69922-1.5-1.1992c-0.7-0.5-1.6984-1.1-2.3984-1.5-0.6-0.3-1.0008-0.30078-1.3008-0.30078h-1c-0.3 0-0.6992-7.8e-4 -1.1992-0.30078-0.5-0.4-1.1-0.99844-1.5-1.8984l-11.801 7.2988 3 3.0996 1.1992 1.3008 2.6016 2.3008 2.1992-0.40039 2 4.1992-0.8008 1.5-0.1289 4.1973c0.3545 0.1092 0.6754 0.25746 0.9219 0.5039 0.8 0.9 1.2008 2.4992 2.3008 3.6992 0.5934 0.59342 1.3855 1.0343 2.2734 1.2617 0.9115-0.48261 1.8196-1.0727 2.7461-1.6621 0.2001-0.9156 0.2663-2.06 0.3789-3.2988 0.1-2.1 0.5016-4.5 1.6016-5 1.2-0.5 3.1984 0.9 4.3984 2.5 1.1 1.7 1.5008 3.6984 0.3008 5.3984-0.014 0.0209-0.046 0.0396-0.062 0.0605 0.4671 0.75773 0.5707 1.9696 0.062 3.2402-0.8 2-3.2008 4.0008-3.8008 5.8008-0.7 1.9 0.3008 3.4984 0.3008 5.3984 0 1.8-1 3.8016-1 5.6016 0 1.9 1.0008 3.5 0.3008 4.5-0.1619 0.26982-0.4709 0.48743-0.8575 0.67578 0 5e-3 0.059 0.0184 0.059 0.0234 0.028 0.0426-0.4025 0.0836-0.4785 0.12695-0.3582 0.1342-0.7666 0.23032-1.2129 0.32032-0.2164 0.0348-0.1676 0.0746-0.4101 0.10742v2e-3c-0.8127 0.67347-2.1549 0.17317-3.6953 0.94336-1.7 0.8-3.6985 3.2008-5.8985 4.8008-2.1 1.7-4.5 2.6992-6.5 4.1992s-3.6008 3.4992-5.3008 4.6992c-0.718 0.46461-1.3987 0.77703-2.0585 1.0898-0.082 0.13348-0.1572 0.27975-0.2422 0.41016-1.4 2-2.9993 3.6-4.1993 5.5-0.6 0.9-1.05 1.8496-1.375 2.7871-0.3253 0.93804-0.5249 1.8624-0.625 2.7129-0.2 1.6 0.2008 3.0016-0.6992 4.1016-0.1765 0.26477-0.5006 0.50041-0.7617 0.75-0.025 0.0427-0.01 0.10714-0.039 0.14844-0.021 0.0299-0.067 0.0352-0.09 0.0644-0.044 0.0777-0.056 0.15943-0.1094 0.23633-0.4717 0.76646-1.3284 1.5595-1.9785 2.293-0.011 1.0861 1.4877 2.4463 1.877 3.9062 0.3 1.5-0.6993 3.1008-1.6993 4.8008s-1.9992 3.2992-3.1992 4.1992c-0.6877 0.50015-1.4461 0.75569-2.1484 1.0703-0.417 0.26836-0.818 0.5772-1.1875 0.81445v6e-3c-0.6224 0.82937-0.9477 2.2937-1.1172 3.8574 0.1388 0.17838 0.1762 0.40779 0.3574 0.55273 1 0.8 2.6 1.1992 3.5 2.1992 0.8 1 0.8016 2.6016 1.1016 4.6016 0.4 2 0.9984 4.4 1.8984 6 0.2795 0.594 0.6209 1.0091 0.9531 1.4492 0.175 0.17323 0.4913 0.35425 0.6485 0.55078 0.1284 0.14268 0.2948 0.41194 0.4141 0.57031 0.3503 0.28953 0.6797 0.60939 1.0859 0.82813 1.4 0.6 2.9992 1.0008 4.1992 2.3008 1.0382 1.1247 1.5969 3.1184 2.0606 5.2422 1.4603 1.0607 2.4498 1.4786 3.1386 2.7578 0.6016 1.3 1.0016 3.6992 0.6016 6.1992-0.034 0.27984-0.119 0.51355-0.168 0.79492 0.9815 1.1452 1.9306 2.1867 2.0664 3.2051 0.1 1.5-1.4992 3.1-1.6992 5-0.2 1.8 1.1992 3.8008 2.1992 5.8008s1.6 3.9992 1.5 5.6992c-0.1835 1.4679-1.0551 2.7381-2.1992 3.4062l6.6953 6.6953-0.5039 0.89844c0.6337-0.10522 1.2041 0 1.6055 0 0.5 0 0.8984-0.39922 1.3984-0.69922s1.1016-0.7 1.6016-1 0.8984-0.70078 1.3984-0.80078c0.5-0.2 1.1008-0.19922 1.8008-0.69922s1.3008-1.5 1.8008-2 0.8984-0.49922 1.3984-1.1992c0.5-0.6 1.1016-2.0016 1.6016-2.6016 0.5-0.7 0.8984-0.7 1.3984-1 0.5-0.4 1.1016-1 1.6016-1.5s0.8984-0.89922 1.3984-1.1992 1.1016-0.69922 1.6016-1.1992 0.9-1.1016 1.5-1.6016c0.7-0.5 1.7-0.89922 2.5-0.69922 0.9 0.2 1.5 0.8 2 1.5s0.9 1.2992 1 1.6992c0.2 0.3 0.2 0.3 0.5 0.5 0.4 0.1 0.9984 0.50156 1.8984 0.10156 0.8-0.3 1.8016-1.3016 2.1016-2.1016 0.4-0.9-8e-4 -1.5 0.1992-2s0.7992-0.9 1.6992-1c0.8-0.2 1.8008-0.19922 2.3008-0.19922h3c0.5 0 0.5 7.8e-4 0.5-0.69922v-13.301c0-0.3-8e-4 -0.69922 0.1992-1.1992 0.1-0.5 0.5016-1.1008 0.6016-1.8008 0.2-0.7 0.2-1.3008 0-1.8008-0.1-0.5-0.5016-0.89844-0.6016-1.3984-0.2-0.5-0.1984-1.1008-0.3984-1.8008-0.1-0.7-0.5-1.3008-0.5-1.8008s0.3984-0.89844 0.8984-1.3984l1.6016-1.6016c0.5-0.5 0.8984-0.89922 1.3984-1.1992s1.1016-0.69922 1.6016-1.1992 0.8992-1.1008 0.6992-1.8008-0.8008-1.3008-1.3008-1.8008l-1.3984-1.3984c-0.5-0.5-1.1008-1.1-1.3008-2-0.2-0.8 0.1992-1.8016 0.6992-2.6016 0.5-0.9 1.1-1.5 1.5-2 0.3-0.5 0.3008-0.89844 0.8008-1.3984s1.5-1.1016 2-1.6016 0.5-0.89844 1-1.3984 1.4992-1.1 2.1992-1.5c0.6-0.3 1-0.3 1.5-0.5 0.5-0.1 1.1008-0.50156 1.8008-0.60156 0.7-0.2 1.3-0.2 2-0.5 0.7-0.4 1.3-0.99844 1.5-1.8984 0.2-0.8-0.1992-1.8016-0.1992-2.6016 0-0.9 0.3992-1.4984 0.6992-1.8984 0.3-0.3 0.7008-0.30078 1.3008-0.30078 0.7 0 1.6984 7.8e-4 2.3984-0.19922 0.6-0.1 1.0008-0.50156 1.8008-0.60156 0.8-0.2 2.2-0.2 3 0 0.8 0.1 1.1992 0.50156 1.6992 0.60156 0.5 0.2 1.1016 0.2 1.6016 0.5 0.5 0.4 0.9 0.99844 1 1.3984 0.2 0.3 0.1992 0.30156 0.6992 0.60156 0.5 0.4 1.5008 0.99922 2.3008 0.69922 0.9-0.3 1.4992-1.7008 1.6992-2.3008 0.2-0.7-0.2-0.69922-0.5-1.1992s-0.6992-1.5008-0.6992-2.3008c0-0.9 0.4-1.4984 0.5-1.8984 0.2-0.3 0.1992-0.30078 0.1992-0.80078s8e-4 -1.5 0.8008-2c0.9-0.5 2.4984-0.5 3.3984-0.5 0.8 0 0.8-7.8e-4 1 0.19922 0.1 0.1 0.5 0.50078 1 0.30078s1.1016-0.79922 1.6016-1.1992c0.5-0.3 0.9-0.3 1.5-0.5 0.7-0.1 1.6992-0.50156 2.1992-0.60156l1-0.39844c0.5-0.1 1.4992-0.5 2.1992-0.5 0.6 0 1.0016 0.39844 1.6016 0.39844 0.7 0 1.6984-0.4 2.3984-1 0.6-0.7 1.0016-1.6984 1.1016-2.3984 0.2-0.6 0.2-1 0.5-1.5 0.4-0.5 0.9984-1.1016 1.3984-1.6016 0.3-0.5 0.3016-0.9 0.6016-1 0.4-0.2 0.9992-0.2 1.6992-1 0.7-0.9 1.2992-2.4984 1.6992-3.3984 0.3-0.8 0.3008-0.8 0.3008-1.5 0-0.6-8e-4 -2.0008 0.6992-2.8008 0.6-0.8 2-1.2 3-1s1.6008 0.79922 2.3008 1.1992c0.7 0.3 1.2992 0.30078 1.6992 0.30078h0.3005l0.5 0.30078c0.5 0.4 1.5 0.99922 2.5 1.1992s2-0.20078 2-0.80078c0-0.7-1.0008-1.6984-1.3008-2.3984-0.4-0.6 0-1.0016 0.6016-1.1016 0.7-0.2 1.6984-0.19844 2.3984-0.39844 0.6-0.1 1.0016-0.50078 1.6016-0.80078 0.7-0.3 1.6984-0.7 2.3984-1 0.6-0.3 1.0016-0.69922 1.6016-0.69922 0.7 0 1.7 0.39844 2.5 0.39844 0.9 0 1.5-0.39922 2-1.1992s0.8992-2.2 0.6992-3-0.7992-1.2008-1.1992-1.8008c-0.3-0.7-0.3-1.7 0-2.5 0.4-0.9 0.9984-1.5 1.3984-2 0.3-0.5 0.3008-0.89844-0.1992-1.3984s-1.4992-1.1-2.1992-1.5c-0.6-0.3-1-0.30078-1.5-0.80078s-1.1008-1.5-1.8008-2-1.2992-0.49922-1.6992-0.69922c-0.3-0.1-0.3008-0.50078-0.3008-0.80078s-8e-4 -0.69922-0.3008-1.1992c-0.4-0.5-0.9984-1.1008-1.3984-1.8008-0.3-0.7-0.3008-1.3 0.1992-2s1.5008-1.2992 2.3008-1.6992c0.9-0.3 1.4992-0.30156 2.1992-0.60156 0.7-0.4 1.2992-1 1.6992-1.5 0.3-0.5 0.3-0.89844 0-1.3984-0.4-0.5-0.9992-1.1016-2.1992-1.1016s-2.7992 0.60156-4.1992 0.60156c-1.3 0-2.3008-0.60156-2.8008-1.1016s-0.5-0.9-0.5-1c0-0.2-8e-4 -0.19844 0.1992-0.39844l1-1c0.5-0.5 1.1016-1.1008 1.6016-1.8008s0.9-1.3 1.5-2c0.7-0.7 1.6984-1.3 2.3984-1.5 0.6-0.2 1 0.19922 1.5 0.19922s1.1008-0.39844 1.8008-0.39844 1.3 0.39844 2 0.39844 1.3-0.39922 2-0.19922 1.3008 0.80078 1.8008 0.80078 0.8984-0.60078 0.8984-1.3008-0.3984-1.2992-0.3984-2.1992c0-0.8 0.3992-1.8 0.6992-2.5 0.3-0.6 0.7-1.0016 1-1.1016 0.3-0.2 0.6992-0.19844 1.1992 0.10156 0.5 0.4 1.1016 0.99844 2.1016 1.3984 1 0.3 2.3992 0.30156 3.1992 0.10156 0.8-0.1 1.2-0.50078 1.5-0.80078s0.7-0.70078 1-0.80078c0.3-0.2 0.7008-0.19922 0.8008-0.19922 0.2 0 0.2 7.8e-4 0.5-0.69922 0.4-0.6 1-2.0016 2-2.6016 1-0.7 2.4-0.69922 3-0.69922h3.1992c0.5 0 0.4992-7.8e-4 1.1992 0.19922 0.6 0.1 2 0.5 3 0.5s1.6-0.39922 2-0.69922c0.3-0.3 0.3016-0.69922 0.1016-1.1992-0.1-0.5-0.5-1.1008-1-1.8008s-1.1-1.2992-1.5-1.6992c-0.3-0.3-0.3008-0.3-0.8008-0.5-0.5-0.1-1.4992-0.50156-2.1992-0.60156-0.6-0.2-1.0016-0.19844-1.6016-0.39844-0.7-0.1-1.6984-0.50078-2.3984-1.3008-0.6-0.8-1-2.2008-1-2.8008 0-0.7 0.3984-0.69922 0.8984-0.69922s1.1008 7.8e-4 1.8008-0.19922c0.7-0.1 1.2992-0.5 2.1992-0.5 0.8 0 1.8 0.39922 2.5 0.19922 0.6-0.2 1.0008-0.80078 1.8008-0.80078s2.2008 0.60156 2.8008 1.1016c0.7 0.5 0.7 0.89922 1 1.1992 0.4 0.3 0.9984 0.7 1.3984 1.5 0.3 0.8 0.3 2.2 0.5 3 0.1 0.8 0.5016 1.2 0.6016 1.5 0.2 0.3 0.1984 0.7 0.8984 1 0.6 0.3 2.0008 0.69922 2.8008 0.69922s1.1992-0.4 1.6992-1c0.5-0.7 1.1-1.6992 1.5-2.1992 0.3-0.5 0.3016-0.5 0.1016-1-0.1-0.5-0.5016-1.5-0.6016-2-0.2-0.5-0.2-0.49922-0.5-1.1992-0.4-0.6-0.9992-2.0016-1.6992-2.6016-0.7-0.7-1.2992-0.69922-1.6992-1.1992-0.3-0.5-0.3008-1.5008-0.8008-2.3008-0.5-0.9-1.5008-1.5-1.8008-2-0.4-0.5 8e-4 -0.89844-0.1992-1.3984s-0.7992-1.1016-1.1992-1.6016c-0.3-0.5-0.3016-0.89844-0.6016-1.3984-0.4-0.5-0.9992-1.1-1.1992-2-0.2-0.8 0.2008-1.8008 0.3008-2.3008 0.2-0.5 0.1992-0.5-0.3008-0.5s-1.5008 0-2.3008-0.5c-0.9-0.5-1.4984-1.4992-1.8984-2.1992-0.3-0.6-0.3-1-0.5-1.5-0.1-0.5-0.5-1.1-1-1.5-0.5-0.3-1.1008-0.3-1.8008 0-0.7 0.4-1.2992 1-2.1992 1.5-0.8 0.5-1.8 0.9-2.5 1-0.6 0.2-1.0016 0.19844-1.6016 0.39844-0.7 0.1-1.7 0.5-2.5 1-0.9 0.5-1.4984 1.1016-1.8984 1.6016-0.3 0.5-0.3 0.89922-0.5 1.6992-0.1 0.8-0.5008 2.2008-1.3008 2.8008-0.8 0.7-2.2008 0.69922-2.8008 0.69922-0.7 0-0.6984-7.8e-4 -0.8984-0.30078-0.1-0.4-0.5016-0.99844-1.1016-1.3984-0.7-0.3-1.7-0.3-2.5-1-0.9-0.6-1.4992-2.0016-2.1992-2.6016-0.7-0.7-1.3008-0.69922-1.8008-0.69922h-1.6992c-0.8 0-2.2 7.8e-4 -3-0.19922-0.8-0.1-1.2008-0.50078-1.3008-0.80078-0.2-0.3-0.1984-0.70078-0.8984-1.3008-0.6-0.7-2.0016-1.6992-2.6016-2.1992-0.7-0.5-0.7-0.50078-1-0.30078z" />
</svg>