<?xml version="1.0" encoding="UTF-8"?>
<svg width="1800" height="900" version="1.1" xmlns="http://www.w3.org/2000/svg">
  <MetaInfo xmlns="http://www.prognoz.ru">
    <Geo>
      <GeoItem X="0" Y="0" Latitude="90" Longitude="-180"/>
      <GeoItem X="1800" Y="900" Latitude="-90" Longitude="180"/>
    </Geo>
  </MetaInfo>
  <path d="m1366 545-1 2-5 5-4-2-1 6 0.6484 1.2969 0.3516 0.70312-3 4v1h-1l4 6-3 2-1 3-3-1-1-1-5-3-2 5 3 3v3l-5 3-1 2 2 1 5 2v3l4 2 1-2 6-1 1 2h1l5-1 2 1 3-6h2l3-1 3 1v4l-3 2v4l-6 1-2-1-3 2-1 1 5 5v2l1 1 4 1 1 2h2l5-2 3 2 2-5h1l3 5 2-2h5v4l4 2 1-1-2-6 2-1 5 4 2-2 4-1 1-1 3 1v1l8 3v-4h6l1 1 4 2v1l1 4h5l3-2h1l0.2988 0.29883c0.2817 0.15355 0.5606 0.40039 1.2012 0.40039 0.3502 0 0.9044-0.088 1.4004-0.17383l2.0996-0.52539 1.2949 0.64844c0.2102 0.0668 0.4906 0.1217 0.7051 0.15234 0.35 0.1 0.675 0.14961 1 0.19922h1l2 1v0.45117c0.1172 0.23389 0.188 0.43607 0.5 0.74805 0.4023 0.40234 1.0806 0.8315 1.6094 1.207l0.4394 0.29297c0.4093 0.24427 0.4931 0.24427 0.9024 0l1.0488-0.69922c0.375-0.24961 0.75-0.49922 1-0.69922 0.5-0.3 0.5-0.30078 1-0.80078s1.5-1.4992 2.5-1.6992c1-0.1 1.9992 0.49844 2.6992 0.89844 0.6 0.3 1.0008 0.30156 1.8008 0.60156 0.8 0.4 2.2008 0.99844 2.8008 1.3984 0.7 0.3 0.6984 0.3 0.8984 0 0.1-0.4 0.5016-1 1.1016-1.5 0.7-0.5 1.6984-0.9 2.3984-1 0.6-0.2 1.0008-0.19922 1.3008-0.19922h2.8008c0.5 0 0.9 7.8e-4 1-0.19922 0.2-0.1 0.1992-0.50078 0.6992-0.80078s1.5-0.70078 2-1.3008c0.5-0.7 0.5008-1.6992 1.3008-2.1992 0.9-0.5 2.5-0.49922 3.5-0.19922 1 0.4 1.4 1 1.5 1.5 0.2 0.5 0.1984 0.9 0.3984 1 0.1 0.2 0.5008 0.19922 0.8008 0.19922s0.6992 7.8e-4 1.1992 0.30078c0.5 0.4 1.1 1 1.5 1.5 0.3 0.5 0.3008 0.89844 0.8008 1.3984s1.5 1.1008 2 1.8008 0.4992 1.2992 1.1992 1.6992c0.6 0.3 2.0008 0.30156 2.8008 0.10156 0.8-0.1 1.2008-0.5 1.8008-0.5 0.7 0 1.6992 0.4 2.1992 0.5 0.5 0.2 0.5 0.19922 1 0.19922s1.5 7.8e-4 2.5 0.30078c1 0.4 1.9992 1 2.6992 1.5 0.6 0.5 1.0016 0.89922 1.1016 1.1992 0.2 0.3 0.1992 0.70078 0.1992 0.80078v0.39844c0 0.1 0 0.5 0.5 1s1.4992 1.1008 2.1992 1.8008c0.6 0.7 1.0016 1.3008 1.6016 1.8008 0.7 0.5 1.6992 0.9 2.1992 1 0.5 0.2 0.4992 0.19844 0.6992 0.39844 0.1 0.1 0.5016 0.5 1.1016 0.5 0.7 0 1.7-0.39922 2.5-0.19922 0.9 0.2 1.4984 0.80078 2.3984 0.80078 0.8 0 1.8008-0.6 2.3008-1.5 0.5-0.8 0.4992-1.8008 0.6992-2.3008 0.1-0.5 0.5016-0.5 0.6016-1 0.2-0.5 0.1992-1.4992 0.1992-2.1992 0-0.6-8e-4 -1.0008 0.1992-1.3008 0.1-0.3 0.5-0.69922 1-1.1992l1.6016-1.6016c0.5-0.5 0.9-0.9 1.5-1 0.7-0.2 1.7-0.2 2.5 0 0.9 0.1 1.4992 0.50156 2.1992 0.60156 0.7 0.2 1.3008 0.19844 1.8008 0.39844 0.5 0.1 0.8984 0.50156 1.3984 0.60156 0.5 0.2 1.1008 0.2 1.8008 0 0.7-0.1 1.3008-0.50078 1.8008-0.80078s0.9-0.7 1-1c0.2-0.3 0.1984-0.70078-0.1016-1.3008-0.4-0.7-0.9992-1.6984-1.6992-2.3984-0.7-0.6-1.3-1.0016-2-1.1016-0.7-0.2-1.3008-0.19922-1.8008-0.19922s-0.9-7.8e-4 -1.5 0.19922c-0.7 0.1-1.6984 0.50156-2.3984 0.60156-0.6 0.2-1 0.19922-1.5-0.30078s-1.1-1.4992-1.5-2.1992c-0.3-0.6-0.3008-1.0016-0.3008-1.1016v-4.5c0-0.4-8e-4 -0.99922 0.1992-1.6992 0.1-0.7 0.5016-1.3 0.6016-2 0.2-0.7 0.1984-1.3008 0.3984-1.8008 0.1-0.5 0.5016-0.89922 0.6016-1.6992 0.2-0.8 0.1992-2.2008-0.3008-2.8008-0.5-0.7-1.4992-0.69844-2.1992-0.39844-0.6 0.4-1.0016 1-1.6016 1.5-0.7 0.5-1.6992 0.9-2.1992 1-0.5 0.2-0.4992 0.19922-0.6992 0.19922-0.1 0-0.5 7.8e-4 -1-0.19922-0.5-0.1-1.1008-0.50156-1.8008-0.60156-0.7-0.2-1.3008-0.19844-1.8008-0.39844-0.5-0.1-0.8984-0.50156-1.3984-0.60156-0.5-0.2-1.1008-0.2-1.8008-0.5-0.7-0.4-1.3-1-2-1.5s-1.3008-0.89922-1.8008-1.1992-0.9-0.70078-1.5-0.80078c-0.7-0.2-1.7-0.19922-2.5 0.30078-0.9 0.5-1.5 1.5-2 2s-0.9 0.5-1 0.5c-0.2 0-0.1992-7.8e-4 -0.6992 0.19922-0.5 0.1-1.4992 0.50156-2.1992 0.60156-0.6 0.2-1 0.2-1.5 0.5-0.5 0.4-1.1008 0.99922-1.8008 1.1992s-1.3-0.20078-1.5-0.80078c-0.2-0.7 0.2008-1.6992-0.1992-2.6992-0.3-1-1.3008-2-1.8008-2.5s-0.4992-0.5-0.6992-0.5h-0.8008c-0.3 0-0.7008 7.8e-4 -0.8008 0.30078-0.2 0.4-0.1992 0.99922-0.1992 1.6992s8e-4 1.2992-0.1992 2.1992c-0.1 0.8-0.5008 1.8-0.8008 2.5-0.3 0.6-0.7008 1.0016-0.8008 1.1016-0.2 0.2-0.2 0.19844-0.5 0.39844-0.4 0.1-0.9992 0.50156-1.6992 0.60156-0.7 0.2-1.3 0.19922-2-0.30078s-1.3-1.5-1.5-2.5 0.2008-2 0.3008-2.5c0.2-0.5 0.2-0.50078 0-0.80078-0.1-0.4-0.5016-0.99922-0.6016-1.6992-0.2-0.7-0.1992-1.2992-0.1992-1.6992 0-0.3 8e-4 -0.30078-0.1992-0.80078-0.1-0.5-0.5016-1.5-0.6016-2-0.1905-0.47636-0.1891-0.53625-0.1894-1.1426l-1.4414 0.0703-3.5684-1.4277-1 1 0.3184 1.2695-5.0176 4.9297-0.059 0.17969-3.2418 1.6211-2-2v-5l-3-2 3-5-3-3-1-2h-7l-1 3h-2l-1 2-1 4h-4l-1-4h-6l-1-1 1-3 6-3v-4l-1-1-4 1-3-1h-3l-2-4-3 1-1 2-5 2-1-1-1-5 2-1 1-5-2-6h-1l-3 1v4l-3 3-2-1-4-5-1-1-2 2-6-2-2 3-3 2-4-4h-3l-2 3-2 1-1 5-5-1v-2l-2-4-4 2h-1l-2-3-2-1-2 3-4 1v-6l5-1v-2z" />
</svg>