<?xml version="1.0" encoding="UTF-8"?>
<svg width="1800" height="900" version="1.1" xmlns="http://www.w3.org/2000/svg">
  <MetaInfo xmlns="http://www.prognoz.ru">
    <Geo>
      <GeoItem X="0" Y="0" Latitude="90" Longitude="-180"/>
      <GeoItem X="1800" Y="900" Latitude="-90" Longitude="180"/>
    </Geo>
  </MetaInfo>
  <path d="m1498.7 417.5c-0.7-0.2-1.7 0.20078-2.5 0.80078-0.9 0.7-1.4984 1.6992-1.8984 2.1992-0.3 0.5-0.3 0.50078-1 0.80078-0.6 0.4-2.0016 1-2.6016 1.5-0.7 0.5-0.6992 0.9-0.6992 1 0 0.2 8e-4 0.2-0.1992 0.5-0.1 0.4-0.5008 1-0.8008 1.5s-0.7008 0.89922-0.8008 1.1992c-0.2 0.3-0.1992 0.70078-0.1992 1.3008 0 0.7 8e-4 1.7 0.3008 2.5 0.4 0.9 1 1.4992 1 2.1992 0 0.22952-0.069 0.44987-0.1524 0.67188-0.1703 0.46943-0.4171 0.90226-0.3476 1.5273 0.2 0.8 1.2 1.8 1.5 2.5 0.4 0.6 0 1.0016 0 1.6016 0 0.7 0.4 1.6992 0.5 2.1992 0.2 0.5 0.1992 0.50078 0.1992 0.80078 0 0.4-8e-4 1-0.3008 1.5-0.4 0.5-0.9984 0.9-1.8984 1-0.8 0.2-1.8 0.2-2.5 0-0.6-0.1-1.0016-0.50078-1.1016-0.80078-0.2-0.3-0.2-0.70078-0.5-1.3008-0.4-0.7-0.9992-1.7-1.6992-2-0.35-0.2-0.675-0.19902-1-0.11133-0.325 0.0877-0.65 0.26211-1 0.41211-0.7 0.3-1.3008 0.70078-1.3008 1.3008 0 0.7 0.6 1.6992 1 2.1992l0.6016 1c0.4 0.5 0.9984 1.5 1.3984 2.5 0.3 1 0.3 1.9992 0 2.6992-0.4 0.6-1 1.0016-1.5 1.1016-0.5 0.2-0.8992 0.19922-1.1992 0.19922h-1.1992c-0.5 0-1.1008-7.8e-4 -1.8008 0.19922-0.35 0.05-0.675 0.17539-1 0.30078s-0.65 0.25078-1 0.30078c-0.7 0.2-1.3008 0.2-1.8008 0-0.5-0.1-0.8984-0.50078-1.3984-0.80078s-1.1008-0.7-1.8008-0.5-1.3 0.79922-1.5 1.6992c-0.103 0.41187-0.051 0.83744 0 1.2871 0.05 0.4375 0.1 0.86289 0 1.2129-0.2 0.6-0.8 1.0016-1.5 1.1016-0.7 0.2-1.3008 0.19844-1.8008 0.39844-0.5 0.1-0.9 0.5-1.5 0.5-0.7 0-1.6984-0.39922-2.3984-0.69922-0.6-0.3-1.0008-0.70078-1.8008-0.80078-0.8-0.2-2.2008-0.2-2.8008 0-0.7 0.1-0.6992 0.5-1.1992 1s-1.4992 1.1008-2.1992 1.3008c-0.3 0.1-0.5496 0.05-0.7871 0-0.2247-0.0472-0.4753-0.0951-0.7129 0-0.5 0.2-1.1008 0.80078-1.8008 1.3008s-1.3 0.89844-2 0.89844-1.3008-0.4-1.8008-0.5c-0.5-0.2-0.9-0.19922-1-0.19922h-0.1992l-0.5 0.5c-0.5 0.5-1.4992 1.5008-2.6992 1.8008-0.55 0.2-1.176 0.19902-1.7637 0.11133-0.5877-0.0877-1.1371-0.26211-1.5371-0.41211-0.8-0.3-1.2008-0.7-1.3008-1-0.2-0.3-0.1984-0.70078-0.3984-1.3008-0.1-0.7-0.5-1.6992-1-2.1992s-1.1-0.5-1.5-0.5h-0.8008c-0.5 0-1.5 7.8e-4 -2-0.19922-0.5-0.1-0.5-0.5-1-0.5s-1.5 0.4-2 0c-0.25-0.15-0.3756-0.47461-0.4004-0.84961-0.025-0.375 0.051-0.80039 0.2012-1.1504 0.4-0.6 0.9984-1 1.3984-1.5 0.3-0.5 0.3016-1.1016 0.1016-1.6016-0.1-0.5-0.5016-0.89844-1.1016-0.89844-0.7 0-1.6984 0.39844-2.3984 0.89844-0.6 0.5-1.0016 1.1-1.1016 1.5-0.2 0.3-0.1992 0.3-0.1992 1 0 0.6 8e-4 2.0008-0.1992 2.8008-0.1 0.8-0.5 1.1992-0.5 1.6992s0.3992 1.1016 0.6992 1.6016 0.7 0.89844 1 1.3984 0.7 1.1016 1 1.6016 0.7 0.89922 1 1.1992 0.7008 0.69922 1.3008 1.1992c0.7 0.5 1.6992 1.1 2.1992 1.5 0.5 0.3 0.5008 0.3 0.8008 0.5 0.4 0.1 1 0.50156 1.5 0.60156 0.5 0.2 0.8984 0.2 1.3984 0.5 0.5 0.4 1.1016 0.99922 1.6016 1.6992s0.8984 1.3008 1.3984 1.8008 1.1 0.9 1.5 1l0.6016 0.39844c0.4 0.1 0.9992 0.50156 1.6992 0.60156 0.7 0.2 1.3 0.2 2 0.5 0.7 0.4 1.3 0.99922 2 1.1992s1.3008-0.19922 1.8008-0.19922 0.9 0.39922 1 0.69922c0.2 0.3 0.1984 0.70078 0.3984 1.3008 0.1 0.7 0.5016 1.6984 0.1016 2.3984-0.3 0.6-1.3016 1.0016-2.1016 1.1016-0.9 0.2-1.5 0.2-2 0-0.5-0.1-0.8992-0.50156-1.1992-0.60156-0.3-0.2-0.7008-0.19922-1.3008-0.19922-0.7 0-1.6984-7.8e-4 -2.3984 0.19922-0.6 0.1-1.0016 0.50156-1.6016 0.10156-0.7-0.3-1.7-1.3016-2.5-1.6016-0.9-0.4-1.4992 7.8e-4 -2.1992-0.19922s-1.3008-0.79922-1.8008-1.1992c-0.5-0.3-0.8992-0.30078-1.1992-0.30078s-0.7-7.8e-4 -1-0.30078c-0.3-0.4-0.7-1-1.5-1.5s-2.2008-0.9-2.8008-1c-0.7-0.2-0.7-0.19844-0.5 0.60156 0.1 0.9 0.5016 2.4984 0.6016 3.3984 0.2 0.8 0.2 0.8 0.5 1.5 0.4 0.6 0.9992 2 1.6992 2.5s1.2992 0.10078 2.1992 0.30078c0.8 0.2 1.8 0.79922 2.5 1.1992 0.6 0.3 1 0.30156 1.5 0.60156 0.5 0.4 1.1 0.99922 1.5 1.6992 0.3 0.7 0.3 1.2992 0 2.1992-0.2 0.4-0.4496 0.85039-0.7617 1.2383s-0.6867 0.71328-1.1367 0.86328c-0.8 0.4-1.8016 0-2.6016 0-0.9 0-1.5 0.39844-2 0.89844s-0.9 1.1-1 1.5c-0.2 0.3-0.1992 0.30078-0.1992 0.80078s8e-4 1.4992-0.1992 2.1992c-0.1 0.6-0.5016 1.0008-0.6016 1.3008-0.2 0.3-0.1992 0.69922-0.6992 1.1992s-1.4992 1.1-2.1992 1.5c-0.6 0.3-1.0008 0.30078-1.3008 0.30078h-5c-0.3 0-0.6992-7.8e-4 -1.1992 0.19922-0.5 0.1-1.1 0.50156-1.5 1.1016-0.3 0.7-0.3 1.6984 0 2.3984 0.4 0.6 0.9992 1 1.1992 1.5 0.1 0.25 0.05 0.52598 0 0.82617-0.053 0.32048-0.1082 0.59576 0 0.97461 0.2 0.7 0.8 1.3008 1 1.8008s-0.1992 0.89922-0.6992 1.1992-1.1016 0.69922-1.6016 1.1992-0.8984 1.1-1.3984 1.5c-0.25 0.15-0.5254 0.22539-0.8008 0.30078-0.2754 0.0754-0.5508 0.15078-0.8008 0.30078-0.5 0.4-0.9 0.99922-1 1.6992-0.2 0.7-0.1984 1.3-0.3984 2-0.1 0.7-0.5 1.3-0.5 2s0.3984 1.3 0.3984 2-0.3984 1.2992-0.8984 1.6992c-0.25 0.15-0.5254 0.22539-0.8008 0.30078-0.2754 0.0754-0.5508 0.15078-0.8008 0.30078-0.5 0.4-0.8992 0.99844-1.1992 1.3984-0.3 0.3-0.6992 0.30156-1.1992 0.60156-0.5 0.4-1.1 0.99844-1.5 1.3984-0.3 0.3-0.3016 0.3-0.6016 1-0.4 0.6-0.9984 2.0008-1.3984 2.8008-0.3 0.8-0.3 1.1992-0.5 1.6992-0.1 0.5-0.5008 1.1-0.8008 1.5-0.3 0.3-0.6992 0.30156-1.1992 0.10156-0.5-0.1-1.1016-0.5-1.6016-0.5s-0.8992 0.4-1.6992 0.5c-0.8 0.2-2.2 0.19922-3 0.19922h-2c-0.8 0-2.1992-7.8e-4 -3.1992 0.19922-1 0.1-1.6016 0.5-2.1016 0.5s-0.8992-0.4-1.1992-0.5c-0.3-0.2-0.7008-0.19922-1.3008-0.19922h-2.5c-0.9 0-1.4992 0-2.1992-0.5s-1.3-1.4992-2-2.1992c-0.7-0.6-1.3008-1-1.8008-1s-0.9 0.39922-1 0.69922c-0.2 0.3-0.2 0.70078-0.5 0.80078-0.4 0.2-0.9992 0.2-1.6992 0-0.7-0.1-1.3008-0.5-1.8008-1s-0.9-1.1016-1.5-1.6016c-0.7-0.5-1.6984-0.89922-2.3984-0.69922-0.6 0.2-1.0016 0.8-1.1016 1.5-0.2 0.7-0.1984 1.3008-0.8984 1.8008-0.6 0.5-2.0016 0.89922-2.6016 1.1992-0.7 0.3-0.6992 0.69922-1.1992 0.69922s-1.5008-0.39844-2.3008-0.89844c-0.9-0.5-1.4992-1.1008-1.6992-1.8008s0.1992-1.3008 0.1992-1.8008-0.3984-0.89844-0.3984-1.3984 0.4-1.1008 0.5-1.8008c0.2-0.7 0.2-1.3008 0-1.8008-0.1-0.5-0.5016-0.9-1.1016-1-0.7-0.2-1.6984-0.19922-2.3984-0.19922-0.6 0-1.0016 0-1.1016 0.5-0.2 0.5-0.2 1.4992-0.5 2.1992-0.4 0.6-0.9984 1-1.3984 1.5-0.3 0.5-0.3008 1.1016-0.8008 1.6016s-1.4992 0.89844-2.1992 0.89844c-0.2576 0-0.4717-0.0178-0.6875-0.0859l0.3867 0.38668v4h3l1 1v5l5 1v6l6-1 3 1 1-2 6 3v2l-5 1v6l4-1 2-3 2 1 2 3h1l4-2 2 4v2l5 1 1-5 2-1 2-3h3l4 4 3-2 2-3 6 2 2-2 1 1 4 5 2 1 3-3v-4l3-1h1l2 6-1 5-2 1 1 5 1 1 5-2 1-2 3-1 2 4h3l3 1 4-1 1 1v4l-6 3-1 3 1 1h6l1 4h4l1-4 1-2h2l1-3h7l1 2 3 3-3 5 3 2v5l2 2 3.2422-1.6211 0.059-0.17969 5.0176-4.9297-0.3188-1.2695 1-1 3.5684 1.4277 1.4414-0.0703c-1e-4 -0.0301-0.01-0.0235-0.01-0.0566v-8.3008c0-0.3 8e-4 -0.70078-0.1992-1.3008-0.1-0.7-0.5016-1.6984-0.6016-2.3984-0.2-0.6-0.2-1.0016-0.5-1.1016-0.4-0.2-0.9984-0.19844-1.3984-0.39844-0.3-0.1-0.3008-0.50078-0.3008-0.80078s-8e-4 -0.7 0.6992-1.5c0.6-0.8 2.0016-2.2 2.6016-3 0.7-0.8 0.7-1.2008 1-1.8008 0.4-0.7 0.9984-1.7 1.8984-2 0.4268-0.21341 0.9114-0.20263 1.4219-0.20313 0.4686 3.9e-4 0.8866 2e-3 1.3789-0.19531 1-0.3 2-1.3 2.5-2 0.5-0.6 0.4992-1.0016 0.1992-1.6016-0.4-0.7-0.9984-1.6992-1.3984-2.1992l-0.6016-1c-0.4-0.5-0.9992-1.5008-1.1992-2.3008-0.2-0.9 0.2-1.4992 0.5-2.1992s0.6992-1.3 1.1992-1.5 1.1008 0.2 1.8008 0.5 1.3008 0.69922 1.8008 1.1992 0.8992 1.1016 1.1992 1.6016 0.6992 0.89922 0.6992 1.6992-0.4 2.1992 0 3.1992c0.3 1 1.3008 1.6 1.8008 2 0.5 0.3 0.4992 0.3 0.6992 0 0.1-0.4 0.5016-1 1.1016-1.5 0.7-0.5 1.6984-0.9 2.3984-1 0.6-0.2 1-0.19922 1.5-0.69922s1.1016-1.5 1.1016-2.5-0.6016-2-1.1016-2.5-0.9-0.5-1-0.5c-0.2 0-0.2 0-0.5-0.5-0.4-0.5-0.9984-1.5008-1.3984-2.3008-0.3-0.9-0.3-1.4992 0-2.1992 0.4-0.7 0.9992-1.2992 1.6992-1.6992 0.35-0.15 0.675-0.22539 1-0.17578 0.325 0.0496 0.65 0.22422 1 0.57422 0.7 0.6 1.2992 2.0016 1.6992 2.6016 0.3 0.7 0.3008 0.7 0.8008 1 0.5 0.4 1.5 0.99922 2 1.6992s0.5 1.2992 1 1.6992c0.5 0.3 1.4992 0.30078 2.1992 0.80078 0.6 0.5 1.0008 1.5 1.3008 2s0.7008 0.49922 0.8008 0.69922c0.2 0.1 0.2 0.50078 0.5 0.80078 0.4 0.3 1 0.69922 1.5 1.1992s0.8984 1.1008 1.3984 1.8008 1.1016 1.3008 1.6016 1.8008 0.8984 0.9 1.3984 1c0.5 0.2 1.1016 0.19844 1.6016 0.39844 0.5 0.1 0.9 0.50078 1 0.80078 0.2 0.3 0.2 0.70078 0.5 1.3008 0.4 0.7 0.9984 1.7 1.8984 2 0.3994 0.19969 0.8496 0.19862 1.2617 0.11133 7e-4 -1.3e-4 0 1.3e-4 0 0 0.4119-0.0878 0.7875-0.26235 1.0371-0.41211 0.5-0.3 0.5008-0.7 0.8008-1 0.4-0.3 0.9984-0.69922 1.3984-1.1992 0.3-0.5 0.3008-1.1008 0.8008-1.8008s1.5008-1.3008 2.3008-1.3008c0.9 0 1.4992 0.60078 2.1992 0.80078s1.2992-0.19922 2.1992-0.19922c0.8 0 1.8 0.39844 2.5 0.39844 0.6 0 1-0.39844 1.5-0.39844s1.1016 0.39844 1.6016 0.39844 0.9-0.4 1-0.5c0.2-0.2 0.1984-0.19922 0.3984-0.19922h3.3008c0.5 0 0.4992-7.8e-4 1.1992 0.19922 0.6 0.1 2.0008 0.5 2.8008 0.5 0.3982 0 0.6967-0.099 0.8965-0.25977 6e-4 -5e-4 0-1e-3 0-2e-3v-6e-3c0.1964-0.16177 0.2969-0.38304 0.2969-0.63086 0-0.5-0.3984-1.1008-0.3984-1.8008 0-0.35 0.1-0.675 0.1992-1 0.1-0.325 0.1992-0.65 0.1992-1 0-0.7-0.3984-1.3-0.3984-2s0.4-1.3 0-2c-0.3-0.7-1.3-1.2992-2-1.6992-0.6-0.3-1.0016-0.30078-1.1016-0.30078-0.2 0-0.1984 7.8e-4 -0.3984 0.30078-0.1 0.4-0.5 1-1 1.5s-1.1 0.89922-1.5 1.1992c-0.3 0.3-0.3016 0.69922-0.6016 1.1992-0.4 0.5-0.9984 1.1008-1.8984 1.3008-0.8 0.2-1.8-0.20078-2.5-0.80078-0.6-0.7-1.0016-1.6992-1.1016-2.1992-0.2-0.5-0.1992-0.5-0.6992-1l-2-2c-0.5-0.5-0.5008-0.49922-0.8008-0.69922-0.4-0.1-1-0.5-1.5-1s-0.8984-1.1008-0.8984-1.8008 0.3992-1.3008 0.6992-1.8008 0.7-0.9 1.5-1c0.8-0.2 2.2-0.19922 3 0.30078s1.2008 1.5 1.3008 2c0.2 0.5 0.1984 0.50078 0.3984 0.30078 0.1-0.1 0.5016-0.5 1.1016-0.5 0.7 0 1.6984 0.39922 2.3984 0.19922 0.6-0.2 1-0.79922 1.5-1.1992 0.5-0.3 1.1016-0.30078 1.6016-0.80078s0.8984-1.5008 0.8984-2.3008c0-0.9-0.3992-1.4984-0.6992-1.8984-0.3-0.3-0.7-0.30078-1-0.80078s-0.7008-1.4992-0.8008-2.1992c-0.2-0.6-0.1984-1 0.1016-1.5 0.4-0.5 0.9992-1.1 1.6992-1.5 0.7-0.3 1.2992-0.30078 2.1992-0.80078 0.8-0.5 1.8-1.5008 3-1.8008 1.1-0.4 2.5016 2e-3 3.1016 0.10156 0.7 0.2 0.6984 0.19922 0.8984 0.19922 0.1 0 0.5016-7.8e-4 1.1016 0.19922 0.7 0.1 1.7 0.50156 2.5 0.60156 0.45 0.1 0.8246 0.15039 1.1367 0.0879 0.3121-0.0625 0.5617-0.23789 0.7617-0.58789 0.3-0.6 0.3-2 0-3-0.4-1-0.9984-1.6016-1.3984-2.1016-0.3-0.5-0.3-0.89844-0.5-1.3984-0.1-0.5-0.5-1.1016-1-1.6016s-1.1016-0.9-1.6016-1c-0.5-0.2-0.8984-0.19922-1.3984 0.30078s-1.1 1.5-2 2c-0.8 0.5-1.8 0.50078-2.5 0.30078-0.6-0.1-1.0016-0.50078-1.1016-0.80078-0.2-0.3-0.1992-0.69922-0.6992-1.1992s-1.5-1.1-2-2c-0.5-0.8-0.4992-1.8-0.6992-2.5-0.1-0.6-0.5016-1.0016-0.6016-1.1016-0.2-0.2-0.1992-0.2-0.1992-0.5 0-0.4-8e-4 -1 0.1992-1.5 0.1-0.5 0.5016-0.89844 0.6016-1.3984 0.2-0.5 0.2-1.1 0.5-2 0.4-0.8 0.9984-1.8016 1.3984-2.6016 0.3-0.9 0.3016-1.5 0.1016-2-0.1-0.5-0.5016-0.9-0.6016-1-0.2-0.2-0.1992-0.19844-0.6992-0.39844-0.5-0.1-1.4992-0.50156-2.1992-0.60156-0.6-0.2-1.0008-0.19844-1.8008-0.89844-0.8-0.6-2.2008-2.0016-2.8008-2.6016-0.7-0.7-0.7-0.69844-1-0.89844-0.4-0.1-1-0.50156-2-0.60156-1-0.2-2.4-0.19844-3 0.10156-0.3939 0.22508-0.5116 0.42921-0.6758 0.67383 0 3e-3 0 5e-3 -0.01 8e-3 -0.1473 0.2213-0.2708 0.41885-0.5176 0.51758-0.5 0.2-1.4992-0.20078-2.1992 0.19922-0.17 0.085-0.306 0.21037-0.4531 0.36914-0.3795 0.40424-0.7118 0.93164-1.1485 0.93164-0.35 0-0.7754-0.24941-1.1504-0.59961-0.375-0.35019-0.6996-0.80117-0.8496-1.2012-0.4-0.9 0-1.4984 0.1016-2.3984 0.2-0.8 0.1992-1.8008 0.1992-2.3008v-0.80078c0-0.4-8e-4 -0.99844 0.1992-1.3984 0.1-0.3 0.5016-0.3 1.1016-0.5 0.7-0.1 1.7-0.50078 2.5-1.3008 0.9-0.8 1.4992-2.2008 1.6992-2.8008 0.2-0.7-0.1992-0.69922-0.1992-0.69922s0.3984-7.8e-4 0.8984-0.30078c0.5-0.4 1.1016-1 1.6016-1.5l1.3984-1.3984c0.25-0.25 0.5254-0.52598 0.6758-0.82617 0.1504-0.3002 0.1758-0.62461-0.074-0.97461-0.5-0.7-2.1-1.3-3-1.5-0.4-0.1-0.601-0.05-0.7637 0.0625s-0.2871 0.2875-0.5371 0.4375c-0.5 0.3-1.5008 0.7-2.3008 0.5-0.9-0.2-1.4984-0.8-1.8984-1.5-0.3-0.7-0.3008-1.2992-0.3008-1.6992 0-0.3-8e-4 -0.3-0.3008-1-0.4-0.6-1-2.0008-1-2.8008 0-0.4 0.1504-0.69941 0.3633-0.91211 0.2129-0.21269 0.4883-0.33867 0.7383-0.38867 0.5-0.2 0.8992-0.2 1.1992-0.5 0.3-0.4 0.7008-0.99844 1.3008-1.3984 0.7-0.3 1.6984-0.30078 2.3984-0.30078 0.6 0 1-7.8e-4 1.5-0.30078 0.5-0.4 1.1016-0.99844 1.6016-1.3984 0.5-0.3 0.8984-0.30156 1.3984-0.60156 0.5-0.4 1.1008-0.99844 1.8008-1.3984 0.7-0.3 1.3008-0.30156 1.8008-0.60156 0.5-0.4 0.8984-0.99844 1.3984-1.3984 0.5-0.3 1.1016-0.3 1.6016-1 0.5-0.6 0.8984-2 1.3984-2.5s1.1008-0.10078 1.8008-0.30078 1.3008-0.79922 1.8008-1.1992c0.5-0.3 0.9-0.30078 1-0.30078 0.2 0 0.1992-7.8e-4 0.6992 0.19922 0.5 0.1 1.5008 0.5 2.3008 0.5 0.9 0 1.4984-0.4 1.8984-1 0.3-0.7 0.3008-1.7-0.1992-2.5-0.5-0.9-1.5-1.4984-2-1.8984-0.5-0.3-0.5008-0.3-0.8008-0.5-0.4-0.1-0.9984-0.50156-1.8984-0.60156-0.8-0.2-1.8-0.19844-2.5 0.10156-0.6 0.4-1.0008 0.99844-1.3008 1.3984-0.3 0.3-0.7008 0.30156-1.3008 0.60156-0.7 0.4-1.6992 1-2.6992 1s-2-0.60156-2.5-1.1016-0.4992-0.89922-0.6992-1.1992c-0.1-0.3-0.5016-0.70078-0.6016-1.3008-0.2-0.7-0.1984-1.6984-0.3984-2.3984-0.1-0.6-0.5-1-0.5-1.5s0.4-1.1008 0-1.8008c-0.3-0.7-1.3008-1.3-1.8008-1.5s-0.4992 0.20078-1.1992 0.30078c-0.6 0.2-2.0008 0.2-2.8008 0-0.8-0.1-1.2-0.50156-1.5-0.60156-0.3-0.2-0.7-0.19844-1 0.10156-0.3 0.4-0.7008 0.99922-0.8008 1.6992-0.2 0.7-0.1984 1.3-0.3984 2-0.1 0.7-0.5016 1.3-1.1016 1.5-0.7 0.2-1.6984-0.19922-2.3984-0.19922-0.6 0-1.0008 0.39844-1.3008 0.89844s-0.6992 1.1008-0.6992 1.8008 0.3992 1.2992 0.1992 2.1992c-0.1 0.4-0.3006 0.84961-0.5879 1.2246s-0.6613 0.67539-1.1113 0.77539c-0.473 0.0591-1.0201-0.12357-1.5918-0.28516-0.4157-0.11901-0.7774-0.21484-1.209-0.21484-1 0-2.0008 0.60078-2.8008 0.80078-0.9 0.2-1.4984-0.20078-1.8984-0.30078-0.3-0.2-0.3008-0.19844-0.8008-0.39844-0.5-0.1-1.4992-0.50156-2.1992-0.60156-0.6-0.2-1.0016-0.19844-1.6016-0.39844-0.7-0.1-1.6984-0.50078-2.3984-0.80078-0.6-0.3-1.0008-0.70078-1.3008-0.80078-0.3-0.2-0.6992-0.19922-1.1992-0.69922s-1.1008-1.4992-1.8008-2.1992c-0.7-0.6-1.3008-1.0008-1.8008-1.8008s-0.9-2.2008-1-2.8008c-0.2-0.7-0.1984-0.69922-0.8984-0.69922h-2.7888c-0.8 0-1.2 7.8e-4 -1.5-0.19922-0.3-0.1-0.6992-0.50156-0.6992-1.1016 0-0.7 0.3992-1.6984 1.1992-2.3984 0.8-0.6 2.2008-1 2.8008-1.5 0.7-0.5 0.7-1.1 1-1.5 0.4-0.3 0.9984-0.30156 1.8984-0.60156 0.8-0.4 1.8-0.99844 2.5-1.3984 0.6-0.3 1-0.3 1.5-0.5 0.5-0.1 1.1016-0.50078 1.6016-0.80078s0.9-0.70078 1-1.3008c0.2-0.7 0.1984-1.7-0.1016-2.5-0.4-0.9-0.9984-1.4984-1.8984-1.8984-0.8-0.3-1.8016-0.30078-2.6016 0.19922-0.9 0.5-1.4992 1.5-2.1992 2s-1.3 0.5-2 1-1.3 1.5-2 2-1.3008 0.5-1.8008 0.5-0.8992 7.8e-4 -1.1992-0.69922c-0.3-0.6-0.7008-2.0016-0.8008-2.6016-0.2-0.7-0.1992-0.69922 0.3008-1.1992s1.5-1.5008 2-2.3008c0.5-0.9 0.5-1.4984 0.5-1.8984 0-0.3 8e-4 -0.30078-0.1992-0.80078-0.1-0.5-0.5016-1.4992-0.6016-2.1992-0.2-0.6-0.1984-1-0.3984-1.5-0.1-0.5-0.5-1.1008-0.5-1.8008s0.3992-1.3 0.1992-2-0.8-1.2992-1-2.1992c-0.2-0.8 0.2008-1.8008 0.3008-2.3008 0.2-0.5 0.2-0.50078 0-0.80078-0.1-0.4-0.5016-0.99922-1.1016-1.1992zm-31.699 73.801c0.7 0 1.3004 0.4 1.9004 0.5 0.6 0 1.0996-0.10078 1.5996-0.30078s1.0004-0.30036 1.4004 0.0996c0.4 0.4 0.8004 1.4012 0.4004 2.2012-0.3 0.9-1.3 1.5-2 2-0.6 0.5-1 0.9-1.5 1-0.5 0.2-1.1008 0.19922-1.8008 0.19922s-1.3-7.8e-4 -2 0.19922c-0.7 0.1-1.2992 0.5-2.1992 0-0.8-0.5-1.8016-1.8992-2.1016-2.6992-0.4-0.8 0-1.2008 0.6016-1.3008 0.7-0.2 1.6984-0.19844 2.3984-0.39844 0.6-0.1 1-0.50078 1.5-0.80078s1.1008-0.69922 1.8008-0.69922z" />
</svg>