<?xml version="1.0" encoding="UTF-8"?>
<svg width="1800" height="900" version="1.1" xmlns="http://www.w3.org/2000/svg">
  <MetaInfo xmlns="http://www.prognoz.ru">
    <Geo>
      <GeoItem X="0" Y="0" Latitude="90" Longitude="-180"/>
      <GeoItem X="1800" Y="900" Latitude="-90" Longitude="180"/>
    </Geo>
  </MetaInfo>
  <path d="m384.3 369.7c-0.3 0.3-0.3 0.3-0.3 0.5 0 0.1 0 0.5 0.2 1 0.1 0.5 0.5 1.1 0.5 2 0 0.8-0.4 1.8-0.4 2.5 0 0.6 0.4 1 0.4 1.8s-0.4 2.2-0.5 3c-0.2 0.8-0.2 1.2-0.4 1.3-0.1 0.2-0.5 0.2-0.5 0.7s0.4 1.5 0.9 2.2c0.5 0.6 1.1 1 1.3 1.8s-0.2 2.2-0.3 2.8c-0.2 0.7-0.2 0.7-0.2 1.2v2c0 0.5 0 0.5-0.2 1-0.1 0.5-0.5 1.5 0.2 2s2.3 0.5 3.2 0.5c0.8 0 0.8 0 1.3-0.2 0.5-0.1 1.5-0.5 2.2-0.5 0.6 0 1 0.4 1.1 0.7 0.2 0.3 0.2 0.7 0.5 1.2 0.4 0.5 1 1.1 1.5 1.6s0.9 0.9 1.2 1.4 0.7 1.1 1.2 1.8 1.1 1.3 1.6 1.5 0.9-0.2 1.2 0.2c0.3 0.3 0.7 1.3 1.2 1.8s1.1 0.5 1.8 0.2c0.7-0.4 1.3-1 1.5-1.9 0.2-0.8-0.2-1.8-0.7-2.3s-1.1-0.5-1.6-1-0.9-1.5-1-2.2c-0.2-0.6-0.2-1-0.2-1.6v-2.4-1.3-1.3c0-0.7 0-1.7 0.2-2.4 0.1-0.6 0.5-1 0.5-1.8s-0.4-2.2-0.4-3.2 0.4-1.6 0.4-2.3-0.4-1.3-0.5-1.7c-0.2-0.3-0.2-0.3-0.4-0.5-0.1-0.1-0.5-0.5-0.6-0.8-0.2-0.3-0.2-0.7-0.5-1.2-0.4-0.5-1-1.1-1.5-1.5-0.5-0.3-0.9-0.3-1.5-0.8-0.7-0.5-1.7-1.5-1.9-2.3-0.1-0.9 0.5-1.5 0.9-2.2 0.3-0.7 0.3-1.3 0-1.8-0.4-0.5-1-0.9-1.5-1-0.5-0.2-0.9-0.2-1-0.4-0.2-0.1-0.2-0.5-0.7-0.6-0.5-0.2-1.5-0.2-2.2-0.2-0.6 0-1 0-1.6 0.2-0.7 0.1-1.7 0.5-2.5 1-0.9 0.5-1.5 1.1-1.9 1.5" />
</svg>