<?xml version="1.0" encoding="UTF-8"?>
<svg width="1800" height="900" version="1.1" xmlns="http://www.w3.org/2000/svg">
  <MetaInfo xmlns="http://www.prognoz.ru">
    <Geo>
      <GeoItem X="0" Y="0" Latitude="90" Longitude="-180"/>
      <GeoItem X="1800" Y="900" Latitude="-90" Longitude="180"/>
    </Geo>
  </MetaInfo>
  <path d="m757 306-4 3v2l-7-1-1 3h-1l-2 2-6-2-1-3h-5l-3 1-2-1-4.5 1.8008-0.5 0.19922 0.0312 0.0625-0.0762 0.041c0.0198 0.0312 0.0258 0.0638 0.0449 0.0957 0.3 0.5 0.69922 1.1008 0.69922 1.8008s-0.4 1.3008-0.5 1.8008c-0.2 0.5-0.19922 0.89844-0.19922 1.3984s7.8e-4 1.1008 0.30078 1.8008c0.4 0.7 1 1.2992 2 1.6992 0.69843 0.20953 1.4866 0.26241 2.2344 0.34961 0.35959 0.0405 0.70023 0.0842 0.96484 0.15039 0.5759 0.072 0.94339 0.29749 1.291 0.45703 0.11543 0.0505 0.28808 0.12051 0.4082 0.14453 0.25 0.1 0.52539 0.14961 0.80078 0.19922 0.27539 0.0496 0.55078 0.0992 0.80078 0.19922 0.5 0.1 0.9 0.50156 1 0.60156l0.5 0.5c0.4 0.4 0.99844 0.99922 1.3984 2.1992 0.3 1.2 0.3 2.8008 0 3.8008-0.4 1-0.99844 1.4-1.3984 1.5-0.3 0.2-0.3 0.19922-0.5 0.19922h-1.1016c-0.7 0-1.6984 7.8e-4 -2.3984 0.30078-0.6 0.4-1.0016 1-1.6016 1.5-0.7 0.5-1.6992 0.89922-2.1992 1.1992s-0.5 0.7-0.5 1 7.8e-4 0.70078-0.19922 1.3008c-0.05 0.35-0.17539 0.77461-0.30078 1.1992s-0.25078 0.84922-0.30078 1.1992c-0.2 0.6-0.19922 1-0.19922 1.5v1.6016c0 0.5 0 0.9 0.5 1 0.5 0.2 1.5008 0.19844 2.3008-0.10156 0.31716-0.14096 0.51537-0.25763 0.77539-0.42188 0.51073-0.3178 0.94664-0.641 1.4238-0.77734 0.35-0.1 0.67441-0.05 1.0371 0 0.39096 0.0533 0.71444 0.10985 1.2637 0 1-0.2 2.4-0.79922 3-1.1992 0.7002-0.29996 0.69932-0.30076 1.1993-0.30076h2c0.5 0 0.50078-7.8e-4 0.80078 0.69922 0.4 0.6 0.99922 2.0016 1.1992 2.6016 0.1 0.35 0.0494 0.52461-0.0879 0.63672-0.13731 0.11211-0.36133 0.16172-0.61133 0.26172-0.5 0.1-1.1 0.50078-1.5 0.80078-0.3 0.3-0.30078 0.7-0.80078 1s-1.5008 0.70078-1.8008 1.3008c-0.1586 0.27755-0.18424 0.617-0.19727 0.95117-0.019 0.50513-3e-3 1.028-0.30273 1.4473-0.5 0.6-1.9 1.0008-2.5 1.3008-0.33212 0.14234-0.42341 0.23604-0.56836 0.38086-0.199 0.18984-0.33084 0.35992-0.63086 0.41992-0.5 0.2-1.4992 0.19922-2.1992 0.19922h-1.6016c-0.7 0-1.6984 7.8e-4 -2.3984 0.30078-0.6 0.4-1.0016 1-1.6016 1.5-0.7 0.5-1.6992 0.89922-2.1992 1.1992-0.21906 0.13143-0.39753 0.35574-0.52539 0.52539-0.14981 0.19981-0.32383 0.42383-0.67383 0.67383-0.22356 0.1863-0.56607 0.3878-0.92383 0.5918-0.60469 0.34507-1.2609 0.69452-1.5762 1.0098-0.30365 0.30365-0.28218 0.57538-0.30273 0.84961-0.0135 0.17591-0.0415 0.35411-0.19727 0.54883-0.15 0.25-0.47598 0.52598-0.82617 0.82617-0.3735 0.32048-0.704 0.59576-0.97461 0.97461-0.37467 0.52454-0.44962 0.93715-0.59961 1.3496-0.0551 0.15755-0.1163 0.30972-0.20117 0.45117-0.4 0.5-0.99844 0.89844-1.8984 0.89844-0.8 0-1.8008-0.39922-2.3008-0.69922s-0.50078-0.7-0.80078-1c-0.4-0.3-0.99922-0.7-1.6992-0.5-0.22312 0.0638-0.48552 0.19924-0.70117 0.31836-0.44607 0.25003-0.90596 0.55006-1.498 0.68164-0.8 0.2-1.8016-0.19922-2.6016 0.30078-0.45 0.25-0.82402 0.72402-1.1113 1.2363-0.28729 0.5123-0.48788 1.0629-0.58788 1.4629s-0.05 0.69941 0.0625 0.91211c0.1125 0.21269 0.2875 0.33867 0.4375 0.38867 0.3 0.2 0.69922 0.2 1.1992 0 0.5-0.1 1.1-0.5 2-0.5 0.4 0 0.85039 0.099 1.2383 0.29883 0.38789 0.1998 0.71328 0.50039 0.86328 0.90039 0.2 0.4 0.19902 0.94941 0.11133 1.4746-0.0877 0.52519-0.26211 1.0262-0.41211 1.3262-0.11999 0.27997-0.25432 0.43572-0.38086 0.56836-0.16041 0.16056-0.36737 0.36809-0.41992 0.63086-0.0654 0.16344-0.12396 0.47651-0.16406 0.71875-0.0766 0.48128-0.14549 1.0361-0.33594 1.4805-0.4 0.6-1 1.0016-1 1.6016 0 0.7 0.60156 1.6984 1.1016 2.3984 0.5 0.6 0.9 1.0016 1.5 1.1016 0.7 0.2 1.6992 0.19922 2.1992 0.19922h5.8008c0.4 0 1 7.8e-4 1.5-0.19922 0.5-0.1 0.9-0.50078 1.5-0.80078 0.7-0.3 1.6984-0.7 2.3984-1 0.3-0.15 0.55039-0.325 0.80078-0.5s0.50078-0.35 0.80078-0.5c0.7-0.3 1.6992-0.70078 2.1992-0.80078 0.5-0.2 0.49922-0.19844 1.1992-0.39844 0.6-0.1 2.0016-0.50078 2.6016-1.3008 0.35-0.4 0.52539-0.94941 0.58789-1.4746 0.0625-0.52519 0.0121-1.0262-0.0879-1.3262-0.0384-0.26876-0.10419-0.39578-0.1914-0.53711-0.14473-0.24323-0.3086-0.41098-0.3086-0.86133 0-0.6 0.39922-2.0016 0.69922-2.6016 0.15-0.35 0.32559-0.52539 0.52539-0.52539 0.19981 0 0.42383 0.17539 0.67383 0.52539 0.25 0.3 0.52539 0.80039 0.80078 1.3008s0.55078 1.0008 0.80078 1.3008c0.5 0.7 0.89922 0.7 1.1992 1 0.3 0.4 0.70078 1 0.80078 1.5 0.2 0.5 0.19844 0.89922 0.39844 1.6992 0.1 0.8 0.50156 2.2008 0.60156 2.8008 0.2 0.7 0.19922 0.7 0.19922 1 0 0.4 7.8e-4 1 0.30078 1.5 0.4 0.5 1 0.9 1.5 1 0.5 0.2 0.9 0.19844 1.5-0.10156 0.7-0.4 1.6992-0.99844 2.1992-1.3984 0.5-0.3 0.5-0.30078 1-0.80078l2-2c0.5-0.5 0.5-0.49922 1-0.19922 0.25 0.2 0.625 0.44961 1 0.69922s0.75 0.49922 1 0.69922c0.5 0.3 0.50078 0.3 0.80078 0.5 0.2 0.05 0.44961 0.17539 0.69922 0.30078s0.49922 0.25078 0.69922 0.30078c0.3 0.2 0.30078 0.19922 0.80078-0.30078 0.19431-0.19431 0.49864-0.4907 0.79688-0.77734l0.0195 0.0351c0.47828-0.46119 0.94263-0.94339 1.3828-1.2578 0.6-0.5 1-0.5 1.5 0s1.1 1.5 1.5 2c0.3 0.5 0.3 0.5 0.5 0.5 0.1 0 0.50156 7.8e-4 1.1016 0.30078 0.7 0.4 1.7 1 2.5 1 0.9 0 1.4984-0.6 2.3984-1 0.8-0.3 1.8008-0.3 2.3008 0 0.5 0.4 0.50078 0.99922 0.30078 1.6992-0.1 0.7-0.5 1.2992-0.5 2.1992 0 0.8 0.39922 1.8008 1.1992 2.3008s2.2 0.5 3 0 1.2008-1.5008 1.3008-2.3008c0.2-0.9 0.19922-1.5 0.19922-2s7.8e-4 -0.89922 0.30078-1.1992c0.4-0.3 1-0.69922 2-0.69922s2.3992 0.4 3.1992 0.5c0.8 0.2 1.2 0.19922 1.5 0.19922s0.70078-7.8e-4 1.3008-0.30078c0.7-0.4 1.6992-1 2.1992-1.5s0.49922-0.89922 0.69922-1.1992c0.1-0.3 0.50156-0.70078 1.1016-0.80078 0.55275-0.15793 1.29-0.18215 1.9707-0.041l0.94532-5.9004c-4e-3 -0.0243-0.0143-0.0326-0.0176-0.0586-0.0464-0.20897 6.8e-4 -0.52214-0.0117-0.78906-0.55784-0.29978-1.1095-0.72078-1.8867-1.1094-1.3-0.6-3.3016-1.0008-5.6016-0.80078-2.4 0.2-5 0.79922-6.5 1.1992-0.79289 0.15858-1.2657 0.21068-1.6211 0.14258-0.49743 0.0429-0.99282 0.1582-1.7773 0.1582-1.5 0-4.1016-7.8e-4 -5.1016-0.80078-1-0.9-0.39844-2.4984-0.39844-4.3984 0-0.12793-9e-3 -0.25896-0.0156-0.38867h-2e-3c-0.0198-0.41931-0.0719-0.8469-0.1582-1.2734-2e-3 -0.0104-4e-3 -0.0209-6e-3 -0.0312-0.0859-0.4161-0.207-0.82961-0.36133-1.2363-0.0206-0.0539-0.0446-0.10661-0.0664-0.16015-0.0596-0.14708-0.12028-0.29531-0.18946-0.43946-0.0447-0.0927-0.0958-0.18218-0.14453-0.27343-0.0656-0.12326-0.12807-0.24705-0.20117-0.36719-3e-3 -4e-3 -5e-3 -9e-3 -8e-3 -0.0137-5e-3 -7e-3 -0.011-0.014-0.0156-0.0215-0.11522-0.18688-0.23897-0.3712-0.37304-0.54882-1e-3 -2e-3 -3e-3 -4e-3 -4e-3 -6e-3 -4e-3 -5e-3 -8e-3 -9e-3 -0.0117-0.0137-0.138-0.18149-0.28494-0.3576-0.44336-0.52734-0.65-0.75-1.4762-1.375-2.1387-1.9375-0.33125-0.28125-0.62236-0.54688-0.83008-0.80469-0.10386-0.1289-0.18695-0.25488-0.24414-0.38086v-2e-3c-0.05626-0.12515-0.08746-0.25034-0.08746-0.37476 0-0.125 0.0318-0.24957 0.0898-0.375s0.14292-0.2523 0.25-0.37891c0.10052-0.11885 0.22139-0.23688 0.35743-0.35742 9e-3 -8e-3 0.016-0.0152 0.0254-0.0234 0.14739-0.12887 0.31165-0.25904 0.49023-0.39062 0.44743-0.32969 0.97995-0.67014 1.5234-1.0254 0.3348-0.21863 0.63367-0.41605 0.96289-0.64844 0.4-0.275 0.78789-0.56846 1.168-0.85156 0.38007-0.28311 0.75234-0.55586 1.1211-0.78711 0.1899-0.11909 0.37943-0.22489 0.56836-0.31641 0.18893-0.0915 0.37726-0.16874 0.56641-0.22851 0.0648-0.0282 0.11133-0.0917 0.17773-0.11719 0.35-0.125 0.71279-0.21807 1.0859-0.27734 0.37314-0.0593 0.75664-0.0848 1.1504-0.0723s0.79795 0.062 1.209 0.15234c0.41104 0.0903 0.82891 0.22149 1.2539 0.39649 0.39142 0.13815 0.77843 0.32353 1.1641 0.5332l1.3008-3.4844c-0.23449-0.0601-0.45915-0.13876-0.66406-0.24805-1.5-0.8-2.1008-3.1992-1.3008-5.1992 0.0501-0.12527 0.19386-0.22345 0.25586-0.3457-0.0844-0.19063-0.0801-0.4043 0.0449-0.6543 0.0152-0.0304 0.0888-0.0837 0.10742-0.11523-0.1013-0.19911-0.23495-0.39499-0.35742-0.5918s-0.23376-0.39456-0.28906-0.59375c-0.26242-0.925-0.26102-1.8492 0.0391-2.6992 0.7-1.6 2.7-3.0016 3.5-4.6016 0.9-1.7 0.49844-3.6984 0.39844-5.8984-0.1751-1.8385-0.18135-3.892 0.0176-5.7207l-0.21681-1.0801h-3l-2-6-1-1h-1z" />
</svg>