<?xml version="1.0" encoding="UTF-8"?>
<svg width="1800" height="900" version="1.1" xmlns="http://www.w3.org/2000/svg">
  <MetaInfo xmlns="http://www.prognoz.ru">
    <Geo>
      <GeoItem X="0" Y="0" Latitude="90" Longitude="-180"/>
      <GeoItem X="1800" Y="900" Latitude="-90" Longitude="180"/>
    </Geo>
  </MetaInfo>
  <path d="m813 278.41c-1.9009 1.269-3.4877 2.5959-4.5117 3.875-0.0722 0.57275-0.1875 1.1387-0.1875 1.7188 0 2 0.39844 4.0008 0.39844 5.8008 0 1.7791-0.38258 3.3304-1.084 5.3223-0.10182 1.9466-0.39525 3.9171-0.81445 5.6777-0.25 1.1-0.52656 2.1484-0.72656 3.0859-0.0908 0.42555-0.0745 0.72235-0.125 1.0957v4e-3c0.0566 0.12961 0.0532 0.30007 0.11328 0.42578 0.4125 0.8625 0.88672 1.6387 1.1367 2.3887 0.5 1.5 0.10078 2.8992-1.1992 3.6992-0.25486 0.15683-0.70719 0.26872-1.0391 0.40234-0.59661 0.62733-1.248 1.2694-1.9609 1.8984-1.7 1.5-3.2992 2.8992-5.1992 3.1992-0.9 0.14998-1.8516 0.0746-2.9141-0.0879-0.54687-0.0836-1.2307-0.2032-1.8457-0.31445-0.35013 0.11916-0.68746 0.31064-1.041 0.40234-2.7 0.7-5.3 0.29922-7.5 0.19922-0.56808-0.0517-1.0072-0.0245-1.5039-0.0391h-2e-3c-2.0232 1.0338-3.041 2.8867-4.1934 4.0391-1.1 1.1-2.5016 1.5008-3.6016 2.8008-0.0174 0.0188-0.0257 0.0549-0.043 0.0742-0.0202 0.75211 0.0975 1.5394 0.34375 2.4258 0.5 1.8 1.4992 4.2008 2.1992 5.8008 0.6 1.7 1.0016 2.6984 1.1016 3.8984 0.2 1.1 0.19922 2.5016-0.30078 3.6016-0.5 1.2-1.4992 2.2-2.6992 3-0.0945 0.0773-0.27014 0.11635-0.36914 0.18945-0.23253 0.54306-0.43945 1.3672-0.73242 1.709-0.67893 0.58194-1.6651 0.9358-3.2734 0.32031-1.5439 0.59306-3.5008 1.1028-4.9609 0.72852l-1.3027 3.4883c1.2893 0.70096 2.5745 1.7177 4.0371 2.5644 1.8 1.2 3.8016 2.2 5.6016 2.5 1.9 0.4 3.4992-7.8e-4 4.1992 1.1992 0.22993 0.39421 0.2992 0.95562 0.29883 1.5527 0.56777 0.25007 0.94779 0.51097 0.90039 0.74805-0.0137 0.0344-0.1575 0.0756-0.1875 0.10938 0.27575 0.28579 0.65535 0.48948 0.78906 0.89062 0.5 1.5-0.10078 3.9 0.69922 5 0.5604 0.84059 1.6787 1.1398 2.4688 1.4902 0.43954 0.0847 0.79723 0.23161 0.83203 0.50976 0.0235 0.10557 0.0147 0.22122-0.0176 0.34375l2.2169-1.1446 3-3 4 2 2-1 2 5 2.2578-0.56445 2.3496 6.3613-0.60742 0.20312-1 3 2 3-3 5 3 2 6-5 1 1h1l7-4 1 1 6-1 1-2-1-4-3.3086 1.1035 0.23828-1.2832c-0.90546 8e-3 -1.7588-0.1654-1.9297-0.62109-0.3-0.9 1.2992-2.5 2.6992-4.5 1.3-2 2.3016-4.4 3.1016-6 0.2233-0.42179 0.42617-0.65531 0.63086-0.98633 0.12995-0.1914 0.22419-0.43211 0.37695-0.58594 0.51391-0.66404 1.0858-1.127 1.9922-1.127 1.5 0 3.9 0.99922 6.5 0.69922 2.7-0.4 5.6992-2 7.1992-3s1.5008-1.3984 2.3008-2.3984c0.9-1 2.4984-2.6008 3.3984-4.3008 0.8-1.7 0.8-3.2992 1.5-4.6992 0.29979-0.64954 0.80113-1.2251 1.3008-1.8496v-2e-3c0.5-0.625 1.0008-1.2984 1.3008-2.1484 0.7-1.6 0.69922-4.0016 0.19922-5.1016-0.5-1.2-1.5-1.1984-2.5-1.8984-0.0873-0.0524-0.13841-0.17438-0.22461-0.23828-0.39206-0.21974-0.7108-0.52413-0.90625-0.96094-0.21147-0.3435-0.38824-0.68082-0.39844-1.0527-0.0141-0.27813 0.0535-0.57461 0.22852-0.84961 6e-3 -0.0113 0.0213-0.0219 0.0273-0.0332 0.081-1.1688 0.37365-2.4099 1.0742-3.3652 0.23875-0.29844 0.51633-0.55438 0.81055-0.79101l-1.9121-0.81055-0.32813 0.17187-1.371-1.371-3-1-1-4 1-1h4l1-1-1-5 3-1 2-3h2l1-4-4-3-4 1-1-2 2-4-2-2-6 1 2-6-2-2h-4l-1-5-4 1v4l3 2v3l-5 3-2-1h-4l1-8-5 4-1-1-1-5h-3l-2-3zm-47.838 70.83c-0.38557-0.20962-0.77076-0.39899-1.1621-0.53711 0.39135 0.13812 0.77654 0.32749 1.1621 0.53711zm-1.1621-0.53711c-0.425-0.175-0.84287-0.30615-1.2539-0.39649 0.41104 0.0903 0.82891 0.22149 1.2539 0.39649zm-1.2539-0.39649c-0.41103-0.0903-0.81523-0.13984-1.209-0.15234 0.39375 0.0125 0.79795 0.062 1.209 0.15234zm-1.209-0.15234c-0.39375-0.0125-0.77725 0.013-1.1504 0.0723 0.37314-0.0593 0.75664-0.0848 1.1504-0.0723zm-1.1504 0.0723c-0.37315 0.0593-0.73594 0.15234-1.0859 0.27734 0.35-0.125 0.71279-0.21807 1.0859-0.27734zm7.8301-29.143c-0.0995 0.91433-0.14702 1.8856-0.14844 2.8574 1e-3 -0.97178 0.049-1.9431 0.14844-2.8574zm-0.14844 2.8574c-1e-3 0.97178 0.0433 1.944 0.13086 2.8633-0.0875-0.91925-0.13228-1.8915-0.13086-2.8633zm-3.8066 16.062c0.0553 0.19919 0.16659 0.39694 0.28906 0.59375-0.12247-0.19681-0.23376-0.39456-0.28906-0.59375zm-28.262 6-2 1v0.45508c0.0882-0.15964 0.1638-0.3181 0.30078-0.45508 0.4-0.3 1-0.70078 1.5-0.80078 0.19174-0.0767 0.35429-0.13087 0.48828-0.19922zm-3.2656 2.4219-1.7344 0.57812 0.48828 1.4648c0.0116-0.41265 0.0165-0.82387 0.21094-1.1641 0.18217-0.36434 0.60523-0.63944 1.0352-0.8789zm26.389 2.1953c-0.37829 0.11955-0.75497 0.30674-1.1348 0.54492 0.3798-0.23818 0.75648-0.42537 1.1348-0.54492zm-1.1348 0.54492c-0.7375 0.4625-1.4891 1.0887-2.2891 1.6387 0.8-0.55 1.5516-1.1762 2.2891-1.6387zm-2.2891 1.6387c-0.85 0.6-1.7738 1.1488-2.4863 1.6738 0.7125-0.525 1.6363-1.0738 2.4863-1.6738zm-2.4863 1.6738c-0.35625 0.2625-0.65889 0.51826-0.87305 0.77148 0.21416-0.25322 0.5168-0.50898 0.87305-0.77148zm-0.88086 2.2832c0.20772 0.25781 0.49883 0.52344 0.83008 0.80469-0.33125-0.28125-0.62236-0.54688-0.83008-0.80469zm4.793 10.617c-0.0127 0.3748 6e-3 0.71929 0.0898 1.0254-0.0842-0.3061-0.10253-0.65059-0.0898-1.0254zm-27.125 7.1621v0.46289l0.5625 2.248c-0.14738-0.61209-0.30297-1.2655-0.36328-1.748-0.1-0.4-0.14961-0.70059-0.19922-0.96289zm1 4.7637v1.6992l2 1h1l3-2 0.5-0.5c-0.5 0.5-0.5 0.50078-1 0.80078-0.5 0.4-1.4992 0.99844-2.1992 1.3984-0.6 0.3-1 0.30156-1.5 0.10156-0.5-0.1-1.1-0.5-1.5-1-0.3-0.5-0.30078-1.1-0.30078-1.5z" />
</svg>