<?xml version="1.0" encoding="UTF-8"?>
<svg width="1800" height="900" version="1.1" xmlns="http://www.w3.org/2000/svg">
  <MetaInfo xmlns="http://www.prognoz.ru">
    <Geo>
      <GeoItem X="0" Y="0" Latitude="90" Longitude="-180"/>
      <GeoItem X="1800" Y="900" Latitude="-90" Longitude="180"/>
    </Geo>
  </MetaInfo>
  <path d="m890.22 293.24c-0.39265-0.0176-0.78108-5.3e-4 -1.1562 0.0684h-2e-3c-0.44801 0.52453-0.88577 1.0605-1.3652 1.6875-1.4 1.7-2.9992 3.3008-3.6992 5.3008s-0.30078 4.3984-0.80078 6.3984-1.9 3.6-3.5 4.5c-1.7 0.8-3.6992 0.8-5.6992 2-2 1.1-3.9992 3.5008-5.6992 5.3008-1.6 1.8-3.0008 3.1992-3.8008 4.6992-0.13022 0.24416-0.17005 0.52573-0.27734 0.77734-0.0404 0.61263 0.10094 1.1876 0.23632 1.7656 0.36625 1.1129 1.0795 2.1681 2.041 3.2578 1.5 1.7 3.5 3.3008 4 5.3008 0.1408 0.56328 0.14034 1.1537 0.0723 1.7402 0.0359 0.83568-0.49697 2.0765-1.2949 2.9141-0.17658 0.22457-0.28438 0.58399-0.47656 0.74414-1.0468 0.9516-2.3809 0.61408-3.8848 0.15039-0.40866-0.024-0.77054-0.0711-1.2168-0.0488-1.9126 0.19126-4.1166 1.1213-5.0117 2.0762-0.15072 0.91631-0.17457 1.9457 0.0117 2.9238 0.3 2.2 1.3 4.1992 0.5 5.1992-0.9 1-3.4992 0.99922-4.6992 1.6992-1.2 0.6-0.79922 2.0016-1.1992 3.6016-0.0418 0.23669-0.19001 0.4728-0.25781 0.7168-0.0852 0.96876-0.13739 1.9938-0.34375 2.6816-0.4 1-0.99922 1.6-2.6992 2.5-1.7 0.8-4.3 1.8008-6.5 2.8008-2e-3 1e-3 -3e-3 9.5e-4 -4e-3 2e-3 -0.38996 0.36661-0.81248 0.66428-1.2969 0.79883-0.13546 0.0356-0.2972-4e-3 -0.43945 0.0117-1.3865 0.66217-2.6979 1.2447-4.2598 1.3867-2.1294 0.0966-4.6219-0.42696-6.7754-0.01-0.47597 0.38371-0.98741 0.7776-1.4238 1.1113-1.022 0.89428-1.9362 1.4007-2.6387 1.4336-0.28186 0.32912-0.65314 0.64099-0.86133 0.96484-0.8 1.3-0.8 2.3008-2 2.8008-0.47342 0.21519-1.187 0.31443-1.8711 0.32031l-0.23828 1.2832 3.3087-1.1034 1 4-1 2-6 1-1-1-7 4h-1l-1-1-6 5-3-2 3-5-2-3 1-3 0.60742-0.20312-2.3496-6.3613-2.2578 0.56445-2-5-2 1-4-2-3 3-2.2168 1.1445c0.0323-0.12253 0.0411-0.23818 0.0176-0.34375 0.2 0.9-1.8 2.4984-3 3.3984-1.0642 0.77397-1.4678 0.78222-1.584 0.0586l-0.95313 5.9434c0.1798 0.0375 0.37018 0.037 0.53711 0.0996 0.9 0.4 1.4984 0.99844 1.8984 1.3984 0.3 0.3 0.30156 0.30078 0.60156 0.80078 0.4 0.5 1 1.5 1.5 2s0.89922 0.5 1.1992 1 0.7 1.4992 1 2.1992c0.3 0.6 0.7 1 1 1.5s0.70078 1.1008 1.3008 1.3008c0.7 0.2 1.6984-0.20078 2.3984 0.19922 0.6 0.3 1.0008 1.3016 0.80078 2.1016-0.2 0.9-0.80078 1.5-0.80078 2s0.60078 0.9 0.80078 1.5c0.2 0.7-0.20078 1.6984-0.30078 2.3984-0.2 0.6-0.2 1-0.5 1.5-0.4 0.5-0.99844 1.1008-1.3984 1.8008-0.3 0.7-0.3 1.3008-0.5 1.8008-0.1 0.5-0.50078 0.89844-0.80078 1.8984s-0.70078 2.6016-0.80078 3.6016c-0.2 1-0.19922 1.4-0.19922 1.5 0 0.2-7.8e-4 0.19844 0.19922 0.39844 0.1 0.1 0.50156 0.50078 1.1016 0.80078 0.7 0.3 1.6984 0.70078 2.3984 1.3008 0.6 0.7 1.0016 1.6992 1.6016 2.1992 0.7 0.5 1.6984 0.5 2.3984 0.5h1.3008c0.3 0 0.69922 0 1.1992 0.5s1.1 1.5008 1 2.3008c-0.2 0.9-1.1992 1.4992-1.6992 2.1992s-0.49922 1.3008-0.19922 1.8008c0.4 0.5 0.99922 0.89844 1.6992 0.89844s1.2992-0.39922 2.1992-0.19922c0.8 0.2 1.8016 0.79922 2.6016 1.1992 0.9 0.3 1.4984 0.30078 1.8984 0.80078 0.3 0.5 0.30078 1.4992 0.80078 2.1992 0.5 0.6 1.5008 1 2.3008 1 0.9 0 1.4984-0.39844 1.8984-0.89844 0.3-0.5 0.30078-1.1008 0.80078-1.8008s1.5-1.2992 2-1.6992c0.5-0.3 0.49922-0.3 0.69922-0.5 0.1-0.1 0.50156-0.5 1.1016-1 0.7-0.5 1.6992-1.1 2.1992-1.5 0.5-0.3 0.5-0.3 1 0 0.5 0.4 1.5 0.99844 2 1.3984 0.5 0.3 0.5 0.30156 0.5 0.60156 0 0.4 0 0.99844-0.5 1.8984-0.5 0.8-1.4992 1.8-2.1992 2.5-0.6 0.6-1.0016 1-1.6016 1.5-0.7 0.5-1.6992 1.1016-2.1992 1.6016s-0.50078 0.89844-0.30078 1.3984c0.1 0.5 0.50156 1.1016 1.1016 1.6016 0.7 0.5 1.6992 0.9 2.1992 1 0.5 0.2 0.50078 0.19844 0.80078 0.39844 0.4 0.1 1 0.5 1.5 0.5s0.9-0.4 1.5-0.5c0.7-0.2 1.6984-0.19844 2.3984-0.39844 0.6-0.1 1-0.50156 1.5-0.60156 0.5-0.2 1.1008-0.19844 1.8008 0.10156 0.7 0.4 1.3 0.99844 2 1.3984 0.7 0.3 1.3008 0.3 1.8008 0 0.5-0.4 0.9-0.99922 1-1.6992 0.2-0.7 0.19844-1.2992 0.39844-2.1992 0.1-0.8 0.50156-1.8 1.1016-2.5 0.7-0.6 1.6992-1.0016 2.6992-0.60156 1 0.3 2 1.3 2.5 2 0.5 0.6 0.5 1.0016 1 1.6016 0.5 0.7 1.5 1.6992 2 2.1992l0.80078 0.80078c0.4 0.4 0.99844 1 1.3984 1.5 0.3 0.5 0.3 0.89844 1 1.3984 0.6 0.5 2.0016 1.1 2.6016 1.5 0.7 0.3 0.69922 0.30156 1.1992 0.10156 0.5-0.1 1.5008-0.50078 2.3008-0.30078 0.9 0.2 1.5 0.79922 2 1.1992 0.5 0.3 0.9 0.30078 1 0.30078 0.2 0 0.2 0 0.5 0.5 0.4 0.5 0.99844 1.5008 1.3984 2.3008 0.3 0.9 0.30078 1.4992 0.80078 2.1992s1.4992 1.3008 2.1992 1.8008c0.6 0.5 1.0008 0.9 1.3008 1 0.3 0.2 0.7 0.2 1 0.5 0.3 0.4 0.7 0.99922 1 1.6992s0.70078 1.3 0.80078 2c0.2 0.7 0.19844 1.3 0.39844 2 0.1 0.7 0.50156 1.2992 1.1016 1.6992 0.7 0.3 1.6992 0.3 2.6992 0 1-0.4 2-0.99844 2.5-1.3984 0.5-0.3 0.49922-0.3 0.69922-0.5 0.1-0.1 0.5-0.50156 1-0.60156 0.5-0.2 1.1-0.2 2 0.5 0.8 0.6 1.8 2 2.5 2.5 0.6 0.5 1.0008 0.1 1.3008 0 0.3-0.2 0.69922-0.19922 0.69922-0.69922s-0.39922-1.5-0.19922-2.5 0.80078-2 1.3008-2.5 0.89844-0.50078 1.3984-0.30078c0.5 0.1 1.1 0.50078 1.5 0.80078 0.3 0.3 0.30078 0.69922 0.80078 1.1992s1.5008 1.1 2.3008 1.5c0.9 0.3 1.4984 0.30078 1.8984 0.30078 0.3 0 0.30078-7.8e-4 0.80078 0.19922 0.5 0.1 1.5 0.50156 2 0.60156 0.5 0.2 0.5 0.19922 1 0.19922s1.4992 7.8e-4 2.1992 0.30078c0.6 0.4 1.0008 0.99844 0.80078 1.8984-0.2 0.8-0.8 1.8008-0.5 2.8008s1.7008 2.0008 2.3008 2.3008c0.7 0.4 0.69844 0 0.89844-0.5 0.1-0.5 0.5-1.1016 1.5-1.6016s2.6016-0.89844 3.6016-0.39844 1.3992 1.9 1.6992 2.5c0.3 0.7 0.70078 0.7 0.80078 1 0.2 0.4 0.19844 1 0.89844 1.5 0.6 0.5 2.0008 0.9 2.8008 1 0.8 0.2 1.2 0.19844 2 0.39844 0.8 0.1 2.2 0.5 3 0.5s1.1992-0.39844 1.6992-0.39844 1.1016 0.4 2.1016 0.5c1 0.2 2.4 0.19922 3 0.19922 0.7 0 0.69844-7.8e-4 0.89844 0.19922l0.80078 0.80078c0.3 0.3 0.7 0.70078 1.5 1.3008 0.8 0.7 2.2 1.6992 3 2.1992s1.2 0.50078 1.5 0.30078c0.3-0.1 0.70078-0.50156 1.3008-0.60156 0.7-0.2 1.6992-0.2 2.6992-0.5 1-0.4 2-0.99844 2.5-1.3984 0.5-0.3 0.50078-0.30156 0.80078-0.60156 0.4-0.4 0.99922-0.99844 1.6992-1.3984 0.7-0.3 1.3-0.3 2-0.5 0.7-0.1 1.3008-0.50156 1.8008-0.60156 0.5-0.2 0.9-0.2 1.5 0.5 0.7 0.6 1.6992 2.0016 1.6992 3.1016 0 0.6-0.25 1.149-0.5625 1.6113-0.176 0.26037-0.34519 0.41487-0.52734 0.61328l0.041 0.0234-0.45116 0.45121-0.5 0.5-1 4 3 3 7-3 1 4-2 3h-7l2 7 6-3 2 1 4-2v-4h7l2 2 2-3 2-1 1-3 1-2 6 3v2l7-2-2 5 3 2 2-6-1-1 4-3-1.5918-2.6523 3.8223-1.1172 0.76953 0.76953-1 3 3 2 3-1 2 1 1 3 5 1v-6l-0.9492-0.94922c-0.1748-0.12514-0.2497-0.15066-0.6504-0.45117-0.06-0.0515-0.1629-0.16551-0.2324-0.22266l-3.168-2.377-2 2-4-2 1-1-3-3-1-7 1-1 2-4h5l2 5 5-3h2l-1-7-0.9395-0.93945-0.037-0.36719c-0.078-0.0736-0.1484-0.1191-0.2226-0.19336-0.6-0.5-1.2-1.0008-1.5-1.3008-0.3-0.4-0.3008-0.49922-0.3008-0.69922v-0.79102l-0.4688 0.0566-3.5313-1.7656-3 4-3-1v-1l-4-3 3-6h-1l-5 1-1-4-5-1-1-1-3-5-4.7988 1.9199-3.9102-7.9199h0.70898l0.1582-0.19141c-2.1835 0.49553-4.1682 0.88697-5.8574 0.19141-1.6-0.7-3-2.2992-2.5-3.6992 0.5-1.3 2.9-2.3008 4.5-3.8008 0.54296-0.47909 0.99859-1.0063 1.3691-1.5273l-0.26953-0.87305-2.2012-1.7402c-0.30819 0.0514-0.59885 0.10537-0.89844 0.14062-1.6 0.2-3.0008-0.19922-4.8008-0.19922-1.6841 0-3.8937 0.34827-5.0723-0.42578-3.9579 0.19002-9.8524-0.39155-14.854-4.3965-0.18883 0.0555-0.38184 0.11721-0.54492 0.13671-0.2929 0.0402-0.55241 0.0106-0.72852-0.11523-0.25749-0.21459-0.28839-0.71663-0.24609-1.3809-0.11177-0.11078-0.2255-0.21522-0.33594-0.33008l0.56055-2.5781c5e-3 -0.1397 0.0215-0.26844 0.0215-0.41016 0-2.1-0.60156-4.5016-1.6016-6.6016-1-2.2-2.4-4.1992-3-5.6992-0.7-1.5-0.69922-2.4992-0.69922-4.1992 0-0.7033-0.0367-1.5786-0.16406-2.4297-0.0854-0.22704-0.14053-0.45763-0.14453-0.71093-0.20908-0.81889-0.54348-1.5986-1.1914-2.1602-1.5-1.3-4.5-1.6992-4.5-1.6992s3 0.39844 5.5 0.39844 4.4992-0.39844 6.1992 0.60156c1.6 1 3.0016 3.3984 4.6016 3.8984 1.6834 0.49511 3.6482-0.87195 3.8809-1.9668-0.29604-1.445-1.5404-2.4288-1.9824-3.9316-0.5-1.6 0.10156-4.0016-0.89844-4.6016-0.0116-8e-3 -0.0349-4e-3 -0.0469-0.0117-1.6037 0.2294-3.2123 0.47123-4.0547 0.0117-0.0886-0.0517-0.13073-0.1519-0.20703-0.2168-0.34263-0.0363-0.69194-0.058-0.99219-0.18164-0.85-0.3-1.4254-1.0512-1.9004-1.7637s-0.84883-1.3871-1.2988-1.5371c-0.8-0.3-1.8016 1.3-3.1016 2-1.4 0.7-2.9992 0.30078-5.1992 0.30078s-4.8008 0.39844-5.8008-0.10156-0.4-1.9 1-2.5c1.3-0.7 3.3-0.69844 3.5-1.3984 0.1-0.6-1.4992-2.0016-3.1992-3.1016-1.7-1.2-3.2992-2.1984-4.1992-1.8984-0.8 0.4-0.80156 1.9992-2.1016 3.1992-1.4 1.2-3.9984 1.8-5.3984 2-1.3 0.2-1.3-0.2-1-1 0.39868-0.79735 0.99334-2.193 1.1953-3.9844 0.16138-1.9642-0.2047-4.2722-0.49609-6.2148-0.0521-0.34733-0.086-0.64741-0.12695-0.96484l-6e-3 -4e-3 -0.86704-4.3319-1-5-2-2 6-3-1-2h-6l-1-2 5.2051-3.4707 0.5957-0.0293-0.30273-0.16602 0.39062-0.25976 1.252-6.1094-0.14062 0.03516-2-4 1-4 1.7637 0.88281 0.0371-0.58203-3.7734-7.3418-0.02733 0.04102-0.31836 0.10547 0.0176-0.10547-0.85742-2.6641c-1.1964 0.78098-2.4196 1.6238-3.541 2.4648-2 1.5-3.6 2.9-5.5 3.5-0.44061 0.17136-0.87528 0.14646-1.3223 0.22656-0.38776 0.21605-0.75591 0.29703-1.0938 0.18555-0.96124-0.0144-1.832-0.24876-2.3848-0.91211-0.8395-0.92345-0.81026-2.7728-0.24023-4.582-0.0114-0.0676-0.0506-0.15315-0.0606-0.21875-0.4-2 0-3 1-4.5 0.88227-1.3234 2.1584-3.0313 2.2578-4.6523-0.42263-0.57201-0.97244-1.1106-1.7578-1.5469-0.82942-0.43653-1.8132-0.73371-2.793-0.91797-0.39408-0.0688-0.79095-0.12108-1.1836-0.13867zm-37.676 43.131c0.1067 0.28124 0.18833 0.62353 0.23828 1.0078-0.0488-0.39064-0.13072-0.72398-0.23828-1.0078zm0.24414 1.1289c0.0404 0.35911 0.0613 0.74298 0.0488 1.1426 0.0145-0.40359-0.01-0.77981-0.0488-1.1426zm-88.529 0.49609c0.0553 0.19919 0.16659 0.39694 0.28906 0.59375-0.12247-0.19681-0.23376-0.39456-0.28906-0.59375zm88.51 1.2852c-0.0258 0.24728-0.0362 0.49584-0.084 0.73828 0.0484-0.24289 0.0572-0.49016 0.084-0.73828zm-100.44 15.473c0.20772 0.25781 0.49883 0.52344 0.83008 0.80469-0.33125-0.28125-0.62236-0.54688-0.83008-0.80469zm27.648 2.6738c0.16005 0.12612 0.24245 0.2506 0.21875 0.36914 0.0237-0.11854-0.0587-0.24302-0.21875-0.36914zm44.457 7.1172c-0.51289 1.05-1.0883 2.1504-1.7383 3.1504 0.65-1 1.2254-2.1004 1.7383-3.1504zm-4.1992 7.9316c0.0195 0.0137 0.047 0.0225 0.0684 0.0351-0.0208-0.0129-0.0493-0.0215-0.0684-0.0351zm168.52 67.52h0.24609l-0.22852 0.57227zm19.34 6.9062-0.0938 0.09375 0.1504 0.0645zm-19.273 9.9141 0.17969 0.17969-0.16797 0.25195zm-81.32 9.4805c-0.56997 0-0.9021 0.20254-1.2832 0.35547l3.5938 0.2207c-0.69082-0.26353-1.6506-0.57617-2.3106-0.57617z" />
</svg>