<?xml version="1.0" encoding="UTF-8"?>
<svg width="1800" height="900" version="1.1" xmlns="http://www.w3.org/2000/svg">
  <MetaInfo xmlns="http://www.prognoz.ru">
    <Geo>
      <GeoItem X="0" Y="0" Latitude="90" Longitude="-180"/>
      <GeoItem X="1800" Y="900" Latitude="-90" Longitude="180"/>
    </Geo>
  </MetaInfo>
  <path d="m968.45 265.4-0.74805 0.0977-3.3477 0.17578 0.64844 0.32418-2 7h-1l-3-5h-4l-1 2v3l-6 3 1 1-2 3-5-2-1 5h-2l-3 5h-1l-3-1-3 4 1 3-1 2 5 4h2l1 6v1l-5-2-1-1-4 5-2-7h-2l-2-2-5 2-2-1h-1.082c-0.91267 0.49525-1.8557 0.89244-2.918 1.4434v1.5566l-1.9727 2.959 0.80469 1.5645 2.9688 5.7773-0.0371 0.58203-1.7637-0.88281-1 4 2 4 0.14062-0.0352-1.252 6.1094-0.39062 0.25976 0.30273 0.16602-0.5957 0.0293-5.2051 3.4707 1 2h6l1 2-6 3 2 2 1 5 0.86719 4.332 6e-3 4e-3c-0.10223-0.79283-0.17718-1.5308-0.16797-2.1875-0.0477-0.60427 0.0139-1.1667 0.29492-1.6484 0.7-1.2 2.2992-1.7992 4.1992-2.6992 1.35-0.6 2.8125-1.3137 4.2188-1.5059 0.23437-0.0319 0.46836-0.0489 0.69922-0.0488s0.45859 0.0172 0.68359 0.0547c0.68181 0.14354 1.3267 0.45643 1.9727 0.80274 0.0521 0.0279 0.10796 0.0575 0.16015 0.0859 0.61811 0.33787 1.2441 0.6945 1.9102 1.0117 0.10754 0.0507 0.21627 0.0991 0.32617 0.14649 0.13915 0.0606 0.27841 0.11999 0.42188 0.17382 0.29315 0.10894 0.59288 0.20764 0.9082 0.2793 0.70995 0.16136 1.4212 0.22945 2.1074 0.25977 0.68621 0.0303 1.3474 0.0229 1.9551 0.0352 0.36041-0.0221 0.70052-0.0267 0.99805 2e-3 0.29752 0.0286 0.55248 0.0905 0.74023 0.20312 0.125 0.0875 0.22422 0.19438 0.30469 0.31836 0.0809 0.12427 0.14243 0.26521 0.18945 0.41797 0.0937 0.30454 0.13125 0.65684 0.15625 1.0254s0.0363 0.7521 0.0801 1.1191 0.11953 0.71758 0.26953 1.0176c0.0757 0.11903 0.21797 0.19801 0.32227 0.30078 0.54905-0.0177 1.094-0.0533 1.6523-0.0664 0.55704-0.0131 1.1274-4e-3 1.7246 0.0664 0.92326 0.10862 1.8275 0.35862 2.7559 0.70312 0.56737-0.0939 1.1342-0.17391 1.7188-0.1914 0.58453-0.0175 1.1868 0.0276 1.8262 0.1875 0.5 0.125 1.0252 0.3186 1.5547 0.57031s1.0635 0.56153 1.582 0.91797 1.0212 0.76001 1.4883 1.1992 0.89844 0.91406 1.2734 1.4141c1.2338 1.645 1.8122 3.3221 2.2734 4.2285 0.32584 0.19865 0.64486 0.29791 0.95898 0.36132 5e-3 -6e-3 0.0126-0.01 0.0176-0.0156 0.425-0.475 0.80156-1.0742 1.3516-1.5742 0.3-0.25 0.65054-0.47461 1.0254-0.68555 1.1246-0.63275 2.473-1.1394 3.373-1.8144 0.275-0.2 0.50727-0.41196 0.68555-0.63867 0.17827-0.22671 0.30254-0.46817 0.36523-0.72461 0.0627-0.25644 0.0624-0.52915-0.01-0.81836-0.0717-0.28921-0.21445-0.59492-0.43945-0.91992-0.34254-0.59945-0.87073-1.2249-1.4062-1.8398-0.53552-0.61501-1.0784-1.2196-1.4531-1.7774-0.25301 0.0352-0.57026 0.13869-0.74219 0.11719-0.19274-0.0428-0.31915-0.11894-0.38867-0.21484-0.0695-0.096-0.0815-0.21263-0.0488-0.33594 0.0327-0.12332 0.11066-0.25209 0.22461-0.37696 0.11411-0.12538 0.26262-0.24468 0.4375-0.3457 4e-3 -0.20235 0.0633-0.3822 0.17187-0.54101 0.10855-0.15882 0.26676-0.29666 0.47071-0.41407 0.40788-0.2348 0.99769-0.38885 1.7344-0.4707 0.475-0.05 0.99273-0.062 1.541-0.0371 1.0966 0.0498 2.3136 0.24976 3.5352 0.59961 0.61079 0.17493 1.2223 0.38672 1.8223 0.63672 1.15 0.5 2.226 1.1504 3.2637 1.8008s2.0371 1.3008 3.0371 1.8008 1.9994 0.84961 2.9121 1.1992c0.45635 0.1748 0.89133 0.34937 1.293 0.54297 0.40163 0.1936 0.7707 0.40625 1.0957 0.65625 0.30736 0.21954 0.57293 0.46612 0.79102 0.72461 0.21808 0.25849 0.38783 0.52917 0.50781 0.79687 0.11998 0.26771 0.19008 0.53211 0.20312 0.7793 0.0131 0.24719-0.0301 0.47689-0.13281 0.67383 0.0297 0.31837 2.3e-4 0.60865-0.10547 0.83984s-0.28765 0.40329-0.56445 0.48633c-0.28017 0.084-0.63603 0.0898-1.0273 0.0273-0.39132-0.0624-0.81811-0.19306-1.2363-0.38281-0.2929 0.0496-0.57936 0.10883-0.8418 0.19531-0.26244 0.0865-0.50085 0.20027-0.69531 0.35938-0.3 0.2-0.52554 0.47446-0.69727 0.80273s-0.28965 0.71036-0.37695 1.123c-0.17461 0.82539-0.22422 1.7758-0.32422 2.6758-0.0455 0.86483-0.13844 1.6504-0.14844 2.4004 0.7181 0.53453 1.4096 1.0424 2.0195 1.5996 0.30492 0.27862 0.59087 0.56952 0.84765 0.88281 0.25678 0.3133 0.48523 0.64833 0.67969 1.0156 0.12552 0.25105 0.19999 0.53164 0.25586 0.82422 0.0559 0.29257 0.0932 0.59714 0.14453 0.89453 0.30253 0.28284 0.55873 0.57418 0.70117 0.88281 0.17761 0.35522 0.24321 0.72106 0.22461 1.0644-0.0106 0.2727-0.0693 0.54494-0.16601 0.8125-0.0968 0.26757-0.23199 0.5295-0.39649 0.78125-0.32909 0.50409-0.77421 0.96529-1.2637 1.3418-0.35 0.25-0.71257 0.46289-1.0859 0.63477-0.37336 0.17187-0.75674 0.30312-1.1504 0.39062s-0.79812 0.13008-1.209 0.12695c-0.41087-3e-3 -0.82891-0.0523-1.2539-0.15234-0.425-0.075-0.84414-0.19321-1.2598-0.34961-0.41562-0.15639-0.82773-0.35098-1.2402-0.57617-0.825-0.45039-1.65-1.0258-2.5-1.6758-0.29463-0.24263-0.54654-0.43701-0.83203-0.67969-0.2914 0.11169-0.59816 0.29997-0.9082 0.53125-0.11583 0.0863-0.23136 0.19967-0.34766 0.29688-0.2012 0.16841-0.40349 0.32914-0.60156 0.51757l-4e-3 4e-3c-0.59344 0.56492-1.1597 1.1832-1.6074 1.6309-0.34979 0.3498-0.6481 0.55467-0.9375 0.66797s-0.56989 0.13503-0.88281 0.11523c-0.17607 0.2753-0.37803 0.51587-0.59766 0.73047s-0.45781 0.40377-0.70703 0.57617c-0.49844 0.3448-1.0412 0.62316-1.5742 0.91016-0.96057 0.51723-2.2012 1.0895-3.4727 1.6992-0.0771 0.20063-0.11203 0.41831-0.22656 0.60156-0.25 0.425-0.60071 0.80593-1.0117 1.1387s-0.8831 0.61651-1.377 0.84766-1.0093 0.40906-1.5078 0.5293c-0.49818 0.11943-0.97919 0.18332-1.4042 0.18332-0.042 0-0.0649-0.0166-0.10547-0.0176-0.59278 0.43343-1.2512 0.84469-1.6953 1.3184-0.31795 0.36034-0.5836 0.73416-0.80274 1.1211-0.21913 0.38685-0.39175 0.78698-0.52343 1.1973 1.584 1.4559 3.7151 3.3648 6.0176 5.2793 1.1513 0.95727 2.3454 1.9163 3.5352 2.8203s2.3757 1.7533 3.5098 2.4922c0.59992-0.086 1.2319-0.11818 1.8652-0.0684 0.575 0.0453 1.1492 0.15742 1.6992 0.35742s1.0618 0.49961 1.5508 0.84961 0.95596 0.75039 1.4121 1.1504 0.90203 0.80039 1.3535 1.1504 0.90781 0.64961 1.3828 0.84961c0.45 0.2 0.91196 0.31296 1.3809 0.35352 0.46889 0.0405 0.94473 9e-3 1.4199-0.0781 0.47519-0.0876 0.95103-0.23165 1.4199-0.41601 0.4689-0.18445 0.93086-0.41016 1.3809-0.66016 0.95-0.5 1.8254-1.0996 2.4629-1.5117s1.0371-0.63672 1.0371-0.38672c0 0.125-0.0998 0.36826-0.25 0.69141-0.15019 0.32314-0.35078 0.72617-0.55078 1.1699s-0.40059 0.92803-0.55078 1.4141c-0.1502 0.48604-0.25 0.97383-0.25 1.4238s0.0999 0.87546 0.27344 1.2832c0.17358 0.40774 0.4209 0.79854 0.71484 1.1797 0.58789 0.7623 1.3633 1.4863 2.1133 2.2363s1.474 1.5246 2.2363 2.2871 1.5629 1.5129 2.4629 2.2129c0.9 0.65 1.9494 1.2254 2.9121 1.7383s1.8387 0.96328 2.3887 1.3633c0.3 0.225 0.52554 0.43047 0.68945 0.63672 0.16392 0.20625 0.26622 0.41367 0.32227 0.63867 0.0561 0.225 0.0646 0.46875 0.041 0.75s-0.0793 0.59961-0.1543 0.97461c-0.2 0.75-0.45039 1.724-0.77539 2.4863-0.1625 0.38115-0.34375 0.70945-0.54688 0.92969-0.10156 0.11012-0.20742 0.19474-0.32031 0.24414s-0.23242 0.0641-0.35742 0.0391c-0.05 0.1-0.13477 0.17852-0.2461 0.23633-0.11126 0.0578-0.24849 0.0945-0.40624 0.11328-0.31563 0.0375-0.71055 3.7e-4 -1.123-0.0996-0.4125-0.1-0.84375-0.26211-1.2344-0.47461-0.39062-0.2125-0.74023-0.47539-0.99023-0.77539-0.23375-0.2805-0.37725-0.57997-0.44336-0.86914-0.0661-0.28918-0.0557-0.56768 0.0234-0.81055 0.15818-0.48574 0.58514-0.82427 1.1894-0.79492-0.22864-0.27513-0.43329-0.59149-0.66797-0.82617-0.375-0.375-0.7561-0.68054-1.1484-0.92578-0.39233-0.24524-0.7959-0.4294-1.2148-0.56055s-0.85376-0.20945-1.3086-0.24219c-0.45484-0.0327-0.92969-0.0207-1.4297 0.0293-1 0.1-2.1004 0.29941-3.2129 0.53711-1.1125 0.23769-2.2371 0.51367-3.2871 0.76367-0.0144 3e-3 -0.0266 5e-3 -0.041 8e-3v2e-3l-0.15816 0.1892h-0.70898l3.9102 7.9199 4.7988-1.9199 3 5 1 1 5 1 1 4 5-1h1l-3 6 4 3v1l3 1 3-4 3.5312 1.7656 0.4688-0.0566v-2.1094c0-0.8-8e-4 -1.6988 0.1992-2.2988 0.1-0.6 0.5008-1.0016 0.8008-1.6016 0.3-0.7 0.7004-1.6984 0.9004-2.3984 0.3-0.8 0.3996-1.3008 0.5996-1.8008s0.3-0.99961 0.5-1.5996 0.3-1.2004 0.5-1.9004 0.3004-1.3004 0.4004-1.9004 0.1-1.0996 0.1-1.5996 8e-4 -1.0004 0.3008-1.4004c0.4-0.4 0.9984-0.79961 1.8984-1.0996 0.8-0.3 1.8-0.69922 2.5-0.69922 0.6 0 1.0016 0.4 1.6016 0.5 0.7 0.2 1.7 0.19844 2.5 0.39844 0.7 0.1 1.1992 0.50078 1.6992 0.80078s1.0008 0.69922 1.3008 1.6992c0.2 1 0.1992 2.6012 0.1992 3.7012v2.0996c0 0.5 8e-4 1.0008-0.1992 1.3008-0.3 0.2-0.8008 0.19922-1.3008 0.19922s-0.9992 0-1.6992-0.5c-0.8-0.5-1.8-1.5008-2.5-1.8008-0.6-0.4-1.0008 7.8e-4 -1.3008 0.30078s-0.7008 0.69922-0.8008 1.1992c-0.2 0.5-0.2 1.1008-0.5 1.8008-0.4 0.7-0.9984 1.2992-1.3984 2.1992-0.3 0.8-0.3008 1.8004-0.3008 2.4004s-8e-4 0.70039 0.1 0.90039c0.1 0.3 0.2004 0.50039 0.4004 0.90039 0.1 0.5 0.2008 1.0992 0.3008 1.6992 0 0.7 0.099 1.2996-0.3008 2.0996-0.5 0.8-1.4996 1.8008-2.0996 2.3008s-0.6996 0.50078-1.0996 0.30078c-0.3406-0.25544-0.832-0.68527-1.2774-1.1074l0.037 0.36719 0.9388 0.93945 1 7h-2l-5 3-2-5h-5l-2 4-1 1 1 7 3 3-1 1 4 2 2-2 3.168 2.377c-0.7399-0.60852-1.9203-1.4628-2.4688-2.377-0.69984-1-0.6984-2.0008 0.1016-2.3008 0.2812-0.125 0.6295-0.172 1.0078-0.16211 0.8322 0.0217 1.8047 0.31836 2.4922 0.66211 1 0.5 1.3992 1.1 2.1992 1.5 0.8 0.3 2.2 0.3 2.5 1 0.3 0.6-0.3 2.0016-1 2.6016-0.6 0.6-1.1992 0.5-1.6992 0.5-0.6-0.1-1.2016-0.20078-1.6016-0.30078-0.1996-0.0998-0.4742-0.32451-0.6484-0.44922l0.9492 0.94922v5.875l0.5 0.32422c0.5 0.1 1.4992 0.5 2.1992 0.5 0.6 0 1.0016-0.39922 1.6016-0.19922 0.7 0.2 1.6984 0.8 2.3984 1 0.6 0.2 1-0.19922 1.5-0.19922s1.1016 0.4 1.6016 0.5c0.5 0.2 0.8984 0.19844 1.3984 0.39844 0.5 0.1 1.1016 0.50078 1.6016 0.80078s0.8984 0.7 1.3984 1 1.1 0.7 1.5 1c0.3 0.3 0.3016 0.70078 0.6016 0.80078 0.4 0.2 0.9992 0.2 1.6992 0 0.7-0.1 1.3008-0.50156 1.8008-1.1016 0.5-0.7 0.8992-1.7 1.6992-2.5 0.8-0.9 2.2-1.4992 3-1.6992s1.2 0.19922 1.5 0.69922 0.7 1.1016 1 1.6016 0.7008 0.89922 0.8008 1.6992c0.2 0.8 0.1984 2.2008 0.8984 2.8008 0.6 0.7 2.0008 0.7 2.8008 0.5 0.8-0.1 1.2008-0.50156 1.8008-0.60156 0.7-0.2 1.6984-0.19922 2.3984-0.69922 0.6-0.5 1.0016-1.4992 1.1016-2.1992 0.2-0.6 0.1992-1.0016 0.1992-1.1016 0-0.2-8e-4 -0.19922 0.1992-0.69922 0.1-0.5 0.5-1.5008 0.5-2.3008 0-0.9-0.3992-1.5-0.6992-2s-0.6992-0.89844-1.1992-1.3984-1.1-1.1016-1.5-1.6016c-0.3-0.5-0.3016-0.89922-0.6016-1.1992-0.4-0.3-0.9992-0.70078-1.1992-1.3008-0.2-0.7 0.1992-1.6984 0.6992-2.3984 0.5-0.6 1.1008-1.0008 1.8008-0.80078s1.2992 0.79922 1.6992 1.1992c0.3 0.3 0.3016 0.3 0.6016 0.5 0.4 0.1 1 0.50156 1.5 1.1016 0.5 0.7 0.9 1.6984 1.5 2.3984 0.6972 0.5976 1.6891 0.99727 2.3887 1.2969l0.3964-0.17382 1.9121-3.8223-0.998-1 2.998-2v-2l0.9864-0.98828c-0.2987 0.2986-0.6947 0.6875-1.2871 0.6875-0.7 0-1.6985-0.4-2.3985-1-0.6-0.7-1-1.6992-1-2.6992s0.3989-2 0.7989-2.5 0.9003-0.5 1.4003-0.5 1.0008 7.8e-4 1.8008-0.19922c0.7-0.1 1.6985-0.5 2.3985-1 0.6-0.5 1-1.1 1.5-1.5 0.5-0.3 1.1011-0.30039 1.7011-0.40039s1.0996-0.20039 1.5996-0.40039 1.0004-0.29961 1.4004-0.59961c0.4-0.2 0.7996-0.60117 1.0996-1.2012 0.3-0.7 0.7-1.6984 1-2.3984 0.3-0.6 0.7-1 1-1.5s0.7-1.1016 1-1.6016 0.6993-0.9 0.6993-1.5v-0.0156c-0.01-0.69927-0.3976-1.6874-0.795-2.3828-0.5-0.6-1.0996-1.0008-1.5996-1.3008-0.6-0.3-1.2015-0.7-1.6015-1s-0.4989-0.69922-0.7989-1.1992c-0.2-0.5-0.5996-1.1008-0.5996-1.8008s0.3989-1.3008 0.7989-1.8008 0.9003-0.89922 1.4003-1.1992c0.2596-0.15576 0.5195-0.33361 0.793-0.44531 0.1215-0.0499 0.2446-0.0905 0.3731-0.10352 0.01-1e-3 0.01 2e-3 0.017 2e-3 0.1338-0.0114 0.2721-1e-3 0.4161 0.0469 0.6 0.2 1.2003 0.79922 1.4003 1.6992 0.2 0.8-0.2 1.8016 0 2.6016 0.2 0.9 0.8008 1.5 1.3008 2s0.8989 0.89922 1.2989 0.69922c0.3971-0.19859 0.8941-0.79266 1.3906-1.4863 0-5e-3 0.01-9e-3 0.01-0.0137 0.01-8e-3 0.01-0.0154 0.018-0.0234 0.4884-0.68147 0.9742-1.2762 1.3672-2.1484 4e-4 -8.6e-4 0-1e-3 0-2e-3 0-0.01 0.01-0.0158 0.014-0.0254 0-8e-3 0.012-0.0174 0.012-0.0254 0.396-0.79593 0.7896-1.7816 0.8886-2.4746v-0.0234 0.0234c0-0.0148-0.01-0.0186-0.01-0.0332h0.01c-0.01-0.43974-0.1038-0.70543-0.17-1.0176l-0.6315-1.25-5-1-2 2 0.2812 0.28125-0.4746-0.15234 0.1934-0.12891-3-4-2-1v-4h-6l2 5h-4l-1-2 1-4h-7l2-6h4l1-1-0.2773-0.55469c-1.78-1.1941-3.7439-2.7694-5.2227-4.4453-0.6986-0.79169-1.2806-1.5596-1.8633-2.3281-0.1303-0.0632-0.3088-0.10328-0.4375-0.17188-1.5-0.8-2.9-2.2-3.5-4-0.056-0.1441-0.037-0.3331-0.084-0.48438-0.9541-0.99647-1.8136-1.9902-2.1152-3.0156-0.1243-0.42109-0.1533-0.83554-0.1133-1.252v-2e-3c0.1235-1.264 0.9102-2.543 1.8125-4.0469 0.7284-1.3244 1.5441-2.7994 1.9258-4.0391-0.058-0.0793-0.1059-0.16323-0.1719-0.23633-0.5914 0.23535-2.1829 1.7132-3.9531 2.7754-2 1.1-4.0008 1.5-5.8008 1-0.6821-0.17951-1.2312-0.57666-1.7851-0.95117-0.3-0.0263-0.6514 0.0606-0.9141-0.0488-1.2-0.5-1.8008-1.8992-2.3008-3.6992-0.1083-0.38984-0.2079-0.81136-0.2949-1.2422-3.2736-1.0244-7.6583-1.5738-10.635-1.8496-1.043 1.8646-1.5831 3.7408-1.7695 5.791-0.2 2.1 0.2 4.5008-0.5 6.3008s-2.3 3.2008-4 4.3008c-1.2816 0.90464-2.5023 1.6899-3.1133 1.7246-0.1932 0.0167-0.3357-0.0471-0.3867-0.22461-0.2-0.6 1.2-3.0016 0.5-5.1016-0.7-2.2-3.3-4.2-5-5.5-1.7-1.4-2.3008-1.9992-2.3008-3.1992s0.60006-2.7992 2-3.1992c1.3-0.3 3.3016 0.69922 4.6016 0.19922 1.4-0.5 2-2.5 3-3.5s2.3984-1 3.3984-2.5 1.6008-4.5 2.8008-6c0.6-0.75 1.2996-1.125 1.9746-1.1875 0.084-8e-3 0.169-0.0118 0.252-0.01 0.5836 0.0128 1.1347 0.25977 1.5722 0.69727 0.4217 0.42171 0.7357 1.0222 0.9063 1.7246 6.4439-0.0548 9.1006 3.1644 10.172 5.4668 0.1393 0.013 0.3238-0.0536 0.4218 8e-3 0.078 0.0435 0.095 0.13075 0.1543 0.18945 0.1123 0.0464 0.2414 0.0471 0.3457 0.11133 1.4 0.8 1.9992 3.2008 3.1992 3.3008 1.2 0.2 2.7993-1.8 2.6993-3.5-0.2-1.6-2.1993-3.0008-2.1993-3.8008 0-0.39963 0.5007-0.70022 1.2247-0.83789 0.7247-0.13712 1.675-0.11112 2.5742 0.13867 1.9 0.5 3.5 1.9 5 2.5 1.5 0.7 2.9 0.69844 4 1.8984 0.2118 0.19417 0.398 0.55161 0.5996 0.8125 0.531 0.20586 1.0612 0.37082 1.5996 0.6875 1.7 1 3.3008 2.6 4.8008 4 1.5 1.3 2.8992 2.3008 3.6992 3.3008s1.2 2 2.5 3.5c0.5301 0.61171 1.2843 1.2614 2.0176 1.8359 0.093-0.10869 0.1971-0.20474 0.2851-0.31836 0.026-0.0337 0.062-0.0596 0.088-0.0937 0.5625-0.75 1.0121-1.5746 1.4121-2.2246 0.45-0.7 0.8235-1.1984 1.2735-1.5859 0.4504-0.38832 0.9755-0.66372 1.7265-0.91406 0.1935-0.0645 0.4558-0.0889 0.6739-0.14844 0.5323-0.82348 1.1533-1.4739 1.7734-1.875 0.082-0.0563 0.1524-0.0802 0.2324-0.12695 0.1489-0.0817 0.2884-0.14204 0.4277-0.20117l-0.2011-0.31836 0.6621-0.44141 1.6327-1.0879-1-4h5v-5l-4-1-2 1-2-3v-4l-3-1v1l1 4-4 2-2-1-5 3-2-1-1-6-4-1v-7l-5 1-3-5 4-2 5 2 1-2-2-7v-1h1l5 1 1-1-1-5 5-1v-1h5l2 3v1l3 3-3 5 4 2 1-1v-6l0.4141-0.69141 2.5859-4.3086h1l-1-6 3-2-1-3-5-2-1 1-4-1-2 1 1 5-7-1-1 1h-4l-4 1-1 4h-5v-5h4l1-6 4 2 2-3v-3l-5-1v-10l-6-3v-3l-1-1-3-1-4 6-3-1-1 1-5-1 1-5 4 1 2-2h5v-5l-5 2-2-2v-1l-4-2-1-2h-3l-3-3-4 1-2-3-3 2-3-4-3 1h-1l-5 1-2-4 3-2-2-6-4 2-3-2-4 1h-1l1 1-3 7-3-2-3 2-3-2v-5l-1-1-5 1h-1l-5 4 1 2v3l-5 1h-1l2-5 2-1-1-3 4-4v-1l1-1 5-2v-2l4.8691-2.9219c-0.0435-0.0931-0.0303-0.19745-0.0781-0.2871l-0.79104-0.79102 2-3-1-3-6 3-2-3zm79.252 208.6c0.3 0.15 0.5496 0.32441 0.7246 0.53711-0.175-0.2127-0.4246-0.38711-0.7246-0.53711zm1 1.3008c0 0.35-0.1 0.77539-0.1992 1.2129 0.1-0.4375 0.1992-0.86289 0.1992-1.2129z" />
</svg>