<?xml version="1.0" encoding="UTF-8"?>
<svg width="1800" height="900" version="1.1" xmlns="http://www.w3.org/2000/svg">
  <MetaInfo xmlns="http://www.prognoz.ru">
    <Geo>
      <GeoItem X="0" Y="0" Latitude="90" Longitude="-180"/>
      <GeoItem X="1800" Y="900" Latitude="-90" Longitude="180"/>
    </Geo>
  </MetaInfo>
  <path d="m1345.7 529.5c-0.2423 0.0692-0.5718 0.15362-0.8652 0.27734l-1.834 1.2227v2h-4v1.1992c0 0.5 8e-4 1.1-0.1992 2-0.1 0.8-0.5004 1.8008-0.9004 2.3008s-0.9004 0.5-1.4004 0.5h-4.5996c-0.6 0-1.1996 3.9e-4 -1.5996 0.40039-0.5 0.4-0.6008 1.2996-0.8008 2.0996s-0.2996 1.6996-0.5996 2.5996c-0.2 0.9-0.6 1.9004-1 2.4004-0.5 0.6-1.0996 0.70078-1.5996 0.80078-0.6 0-1.2016 0.0996-1.6016 0.0996-0.4-0.1-0.5-0.20078-1-0.30078s-1.3992-0.0996-2.1992-0.0996h-5.5004l-2 1-2 2-3-2-2 1-2-2-3-1v-1l-4-3-3 1-1 1-5-3-3 4h-3l-2-5 1-1-4-7-3 3 4 5-1 1-7-1v6h-5l-5 1-2-1 3-5-2-2h-4l-1 2h-5l-1-1v-5l-2.1406-0.71289c0.2189 0.37613 0.3697 0.76993 0.3398 1.2148-0.025 0.19173-0.1475 0.41058-0.2265 0.61719 0.5127 1.2466 0.9269 2.5467 0.7265 3.8828-0.4 2-1.9984 4.0008-2.8984 5.8008-0.3731 0.88616-0.5512 1.6979-0.6778 2.4942-0.087 0.55397-0.155 1.1008-0.207 1.6445 0.1212 0.54358 0.1414 0.93636 0.2832 1.5605 0.3844 1.6914 0.9215 3.435 1.6582 4.7676 0.9219 0.35444 1.9926 0.64414 3.1426 0.93164 1.7247 0.43118 3.3811 0.97538 4.0156 2.0684 0.5479 0.35793 1.0086 0.84193 1.2852 1.5332 0.7 1.5 0.6992 3.8993 0.1992 6.1992-0.3468 1.5954-0.9455 3.2007-1.707 4.2246l-0.7926 2.7734 3 1 3-1 6 5 4 5v1l-1 5 1 1h2l2 2-1 5-4-4-4 1h-1l-6 1-1 2h-4l-4-1-1 2h-4l2 4-2 2v3l3 2 3-3 4 6 1-1 5 1 2 3-1 2 2 3-2 3v4l1 1v6h4l2 3 7-2 4-2v1l7-1-1 6 3 1v1l3 5-1 2 3 4h1l3 5h2l2-2 6 4h1l-1.2363-4.3262 0.037 0.0254 4.1562-3.2207 1.0431 0.52147 3-1 1 2 3-2-1-5 1-1 4 1 2 2 3-1h2l5-4 1 4h6l1 3 4 2v4l2 2 3-1v6l4 1 2-2h3l2 3v1l5 3 2-1 5 3v3l3 1 2-2 5-2v-1l6-4h4l1 1-1 7 1 1 6-3 2-4-1-1 4-8 3 3h2l3-2 5 4-1 3 5 3h1l4-1v4l3 2 2-1 3 2 2-4 2 1h2l4 1v0.0586l0.3047-0.0625c0.4-0.69801 0.9965-1.298 1.8945-1.7969 0.8-0.5 1.8008-0.9 2.3008-1 0.5-0.2 0.5008-0.19844 1.3008-0.89844 0.9-0.6 2.4984-2 3.3984-3 0.4-0.5 0.601-0.90039 0.6387-1.2383 0.038-0.33789-0.088-0.61328-0.3379-0.86328-0.5-0.5-1.5-0.89922-2.5-0.69922s-2 0.79922-2.5 1.1992l-1 0.60156c-0.5 0.4-1.4992 0.99922-2.6992 1.1992-1.1 0.2-2.5016-0.20078-3.1016-0.30078-0.7-0.2-0.6984-0.19844-0.8984-0.39844l-0.6016-0.60156c-0.2-0.2-0.2-0.2-0.5 0-0.4 0.1-0.9992 0.50078-1.6992 0.80078-0.35 0.15-0.6756 0.32441-1.0254 0.41211s-0.7238 0.0887-1.1738-0.11133c-0.4-0.15-0.851-0.47461-1.2012-0.91211s-0.5996-0.98789-0.5996-1.5879c0-0.55 0.2506-1.176 0.5879-1.7637 0.3373-0.5877 0.7613-1.1371 1.1113-1.5371 0.6-0.8 1-1.2 1.5-1.5s1.1-0.7 1.5-1c0.3-0.3 0.3-0.7 0.5-1 0.1-0.3 0.5016-0.7 0.6016-1 0.2-0.3 0.1992-0.7-0.3008-1.5s-1.5-2.2008-2-2.8008l-0.5-0.69923-0.5-0.19922c-0.5-0.1-1.4992-0.50078-2.1992-0.80078-0.6-0.3-1.0016-0.7-1.1016-1.5-0.2-0.8-0.1992-2.2008-0.1992-2.8008v-0.69922l0.1992-0.30078c0.1-0.4 0.5016-0.99844 0.6016-1.8984 0.2-0.8 0.2-1.8 0-2.5-0.1-0.6-0.5008-1.0016-0.8008-1.1016-0.3-0.2-0.7008-0.19844-1.3008-0.89844-0.7-0.6-1.6992-2-2.1992-3s-0.5-1.6-0.5-2c0-0.3 0-0.30078 0.5-0.30078h2.3008c0.9 0 1.4992-7.8e-4 2.1992-0.30078 0.7-0.4 1.2992-0.99844 1.6992-1.3984 0.3-0.3 0.3016-0.30078 0.6016-0.80078 0.4-0.5 0.9992-1.4992 1.6992-2.1992 0.7-0.6 1.3008-1.0008 1.8008-1.3008s0.9-0.70078 1-0.80078c0.2-0.2 0.1992-0.19922 0.1992-0.69922s8e-4 -1.5 0.3008-2.5c0.4-1 0.9984-1.9992 1.3984-2.6992 0.3-0.6 0.3-1.0008 0-1.3008-0.4-0.3-0.9984-0.7-1.3984-1-0.3-0.3-0.3016-0.69922-0.6016-1.1992-0.4-0.5-0.9984-1.1008-1.3984-1.8008-0.3-0.7-0.3008-1.2992-0.3008-1.6992v-0.30078h-5l-1-4v-1l-4-2-1-1h-6v4l-8-3v-1l-3-1-1 1-4 1-2 2-5-4-2 1 2 6-1 1-4-2v-4h-5l-2 2-3-5h-1l-2 5-3-2-5 2h-2l-1-2-4-1-1-1v-2l-5-5 1-1 3-2 2 1 6-1v-4l3-2v-4l-3-1-3 1h-2l-3 6-2-1-5 1h-1l-1-2-6 1-1 2-4-2v-3l-5-2-2-1 1-2 5-3v-3l-3-3 2-5 5 3 1 1 3 1 1-3 3-2-4-6h1v-1l3-4-1-2 1-6 4 2 5-5-3-1-6 1v-6l-5-1v-5l-1-1h-3v-4l-0.3867-0.38672c-0.287-0.0906-0.5717-0.22742-0.9141-0.11328z" />
</svg>