<?xml version="1.0" encoding="UTF-8"?>
<svg width="1800" height="900" version="1.1" xmlns="http://www.w3.org/2000/svg">
  <MetaInfo xmlns="http://www.prognoz.ru">
    <Geo>
      <GeoItem X="0" Y="0" Latitude="90" Longitude="-180"/>
      <GeoItem X="1800" Y="900" Latitude="-90" Longitude="180"/>
    </Geo>
  </MetaInfo>
  <path d="m1160.3 495.3c0.3015 0.60307 0.8711 1.0452 1.5351 1.4473zm-6.7617 7.3379c-0.6498 1.0813-1.3067 2.4697-2.543 3.5606-1.3588 1.1989-3.1786 1.773-4.666 2.2305-0.6758 0.31679-1.4163 0.55796-2.1953 0.77148l1.6347 3.1543-1.7734-0.35547v4l-5 2v1h-4v3.207l-3-0.30469v-1.9023l-5 1 0.5 0.5c0.5 0.5 1.5008 1.5008 2.3008 1.8008 0.9 0.4 1.4992-7.8e-4 2.1992 0.19922s1.3 0.80078 1.5 1.8008-0.2008 2.3992-0.8008 3.1992c-0.7 0.8-1.6984 1.1992-2.3984 1.1992-0.6 0-1.0016-0.4-1.1016-0.5-0.2-0.2-0.1984-0.19922-0.3984-0.19922-0.1 0-0.5 7.8e-4 -1-0.19922-0.054-0.0108-0.1141-0.0474-0.1699-0.0645l-4.8125 20.85c1.2494 1.0682 2.4211 2.1378 2.9785 3.1133 0.9 1.3 0.5 2.3008 0.5 3.8008s0.3984 3.5008 0.8984 5.3008c0.5 1.9 1.1 3.4984 1 5.3984-0.1266 1.1398-0.6009 2.3287-1.293 3.2734-0.043 0.0668-0.053 0.16876-0.1054 0.22656-0.029 0.0362-0.083 0.0454-0.1153 0.0781-0.3509 0.41594-0.7373 0.78441-1.1855 1.0234-0.7736 0.46413-1.676 0.58546-2.5098 0.75586v2e-3c-0.058 0.0568-0.1305 0.0765-0.1855 0.14063-1.1 1.3-1.5 4.3008-2 5.8008s-1.1 1.5008-2 0.30078c-0.077-0.10652-0.1915-0.32618-0.2735-0.45508-1.0697 0.30546-2.6824-0.56568-3.7265-2.0449-0.9113-1.3255-1.3695-3.021-1.9453-4.0801-0.4441-0.23963-0.8333-0.58651-1.2813-0.84375-0.1583-0.0774-0.2949-0.21393-0.4512-0.29883-0.6892-7e-3 -1.4826 0.0898-2.3222-0.0781-1.5-0.3-3.1-1.6992-5-1.6992-1.8 0-3.8008 1.4-5.3008 2.5-1.5 1.2-2.4992 2.1992-4.1992 2.6992-1.2934 0.40418-2.8978 0.55681-3.8633 0.94141-0.2478 0.63059-0.2858 1.2209-0.3398 1.8711 0.4067 0.49467 0.9323 1.0173 1.7031 1.4883 1.9 1.2 4.4992 2.2 5.6992 3.5 1.2 1.4 0.8 2.9984-0.5 3.8984-0.2095 0.1289-0.4547 0.23205-0.7129 0.32617l1.002 0.47461h-0.1778l0.2852 1.2051 0.4941-0.98828 0.6114 0.18554 4.498 3.5977v4l3 2h1l3-6 5 3 2-6h-1l3-3 3 2-2 3 2 2h2l2 5v1l2 4-1 3v1l-2 2 2 7h3v1l3 5-2 3 1 1h5l1-1 4 2-1 3 3 2 1 4 10.301 6.1992 0.016-0.01 4.6832 2.8108-4.9961 6 2 1 1 2 2 2 4-2v-5l3-1 4 2 2-3h2l3 6c-0.025 0.0171 3e-4 4.9e-4 0.049 0.72258 0.021-2e-3 0.026-0.0283 0.047-0.0293 0.071-0.1306 0.1242-0.26481 0.1992-0.39258 1-1.6 2.3992-3.0016 3.6992-3.6016 1.2897-0.69445 2.6736-0.70717 3.6719-1.6836 1.0373-1.5379 1.5507-3.2074 1.0274-4.5156-0.7-1.5-0.3-3.8008-1-4.8008-0.025-6.8962-0.3786-12.885 2.5-19.5 0.025-0.475 0.132-0.93008 0.3007-1.3535 0.1689-0.42376 0.4004-0.81437 0.6758-1.1582 0.5499-0.68652 1.2739-1.1868 2.0235-1.3867 0.1-0.0198 0.1987 0.0109 0.2988 2e-3 0.237-0.17897 0.4964-0.30273 0.8027-0.30273 1 0 2.3985 1.0008 3.8985 1.3008 0.019 5e-3 0.034 5.8e-4 0.053 6e-3 0.015 3e-3 0.03 3e-3 0.045 6e-3 4.6052-3.0386 6.177-8.1728 6.7168-11.34-0.111-0.62757-0.1141-1.2994-0.014-1.9727 0.1549-1.0325 0.6075-2.0531 1.1836-2.8379 0.4139-0.75431 1.1144-1.5309 1.8164-1.9629 0.4875-0.33752 0.9891-0.49077 1.4571-0.50977 0.156-6e-3 0.3082 2e-3 0.4551 0.0234 0.5875 0.0875 1.0886 0.38711 1.3886 0.78711 0.1911 0.21878 0.1721 0.53633 0.2461 0.82031 0.028 0.0494 0.029 0.11798 0.051 0.17188 0.032 0.20041 0.1639 0.36156 0.1289 0.56836 0.01 0.1066-0.051 0.24512-0.061 0.36133 0.1808 0.0795 0.3495 0.22834 0.5332 0.27734 1.5 0.3 3.1-0.69844 5-0.89844 0.4528-0.0252 0.9171-6e-3 1.3652 0.0508l10.174-0.75 1.2636-2.1018h-1l-5-3v-1l-1-5h-1l-0.7266-5.0801 0.1211-0.0742c-0.066-0.2827-0.1777-0.61655-0.1953-0.84375-0.2-1.3-0.1984-1.7 0.6016-2.5 0.1475-0.13111 0.5051-0.49379 0.6875-0.65625 0.4355-0.9684 0.9562-1.8994 1.5117-2.8438 1-1.7 2-3.2992 2-4.6992 0-1.2999-0.9992-2.3008-0.6992-3.3008 0.1549-0.38724 0.5299-0.75676 0.9922-1.0859l-1.1836-1.916h-0.1094l-2-3h-4l-1 1h-4l-0.6582-2.6309-4.3418 0.32227v2.3086l-4 2-3-2-7 2 1-6-6-2-1 2 1 5-5 2v-7l-3-1 5-6 4-4h1l-1-7h-3v-6h-2v-0.93945c-0.4004 0.1327-0.7916 0.22511-1.1738 0.26953-1.3482 0.15668-2.6241-0.17999-4.127-0.63086-0.6601-0.23104-1.422-0.52235-2.1621-0.80078-1.5022-0.56514-3.096-1.1633-4.8379-1.6992-0.01-3e-3 -0.015-5e-3 -0.025-8e-3 -0.062-1e-3 -0.1108 0.0106-0.1738 8e-3 -2.5-0.2-5.4992-1.1992-8.1992-2.1992-2.6-1-5-1.9992-6.5-3.6992-0.1449-0.15451-0.2396-0.33877-0.3672-0.50586-0.4193-0.18704-0.8203-0.39937-1.0898-0.60156-0.041-0.03-0.086-0.0609-0.1231-0.0918-0.2657-0.23057-0.4519-0.47951-0.4199-0.80078 0.05-0.25187 0.2155-0.54114 0.4687-0.83398-0.094-0.39857-0.1334-0.76607-0.094-1.0684 0.033-0.31095 0.136-0.55804 0.3242-0.69922 0.229-0.20037 0.6104-0.23487 1.0547-0.20117 0.033 3e-3 0.071 0.0136 0.1035 0.0176 0.4414 0.0453 0.9515 0.18086 1.502 0.35743 0.3425-0.0761 0.6787-0.17383 1.039-0.17383 2.1 0 4.5008 1.6008 5.8008 2.3008s1.7008 0.30078 2.8008 0.30078c1.2 0 3.2 0.4 5 0 0.7023-0.11088 1.2609-0.41108 1.8105-0.70312-0.018-1.2045-0.7047-2.7994-1.3105-4.0977-0.6-1.5-1.0016-2.4992-2.1016-4.1992-1.2-1.6-3.2-4.0016-5-5.1016-1.9-1.2-3.4984-1.2-4.8984-2-1.1221-0.7768-2.0347-2.0496-3.0313-3.1621-0.5941-0.0921-1.1989-0.14573-1.9687-0.23633-0.7911-0.0494-1.7811-0.17111-2.7578-0.16211zm3.789 55.807c0.1608-7e-5 0.3188 0.0172 0.4688 0.0547 0.9 0.2 1.4992 0.8 1.6992 1.5 0.1 0.35 0.05 0.675 0 1s-0.1 0.65 0 1c0.2 0.7 0.7992 1.3 1.1992 2 0.3 0.7 0.3008 1.3-0.1992 2s-1.4992 1.3004-2.1992 1.4004c-0.8 0.1-1.3008-0.40039-1.8008-0.90039s-0.9996-1.0004-1.0996-1.4004c-0.032-0.12674-0.01-0.25903 0.025-0.39844 0.061-0.31888 0.224-0.60046 0.074-1.2012-0.2-0.8-0.8-2.2-1-3s0.2008-1.2 0.8008-1.5c0.5687-0.24375 1.3346-0.55437 2.0312-0.55469z" />
</svg>