<?xml version="1.0" encoding="UTF-8"?>
<svg width="1800" height="900" version="1.1" xmlns="http://www.w3.org/2000/svg">
  <MetaInfo xmlns="http://www.prognoz.ru">
    <Geo>
      <GeoItem X="0" Y="0" Latitude="90" Longitude="-180"/>
      <GeoItem X="1800" Y="900" Latitude="-90" Longitude="180"/>
    </Geo>
  </MetaInfo>
  <path d="m1228 596-1.2637 2.1016-10.172 0.75c1.3329 0.16937 2.5118 0.67407 2.7363 1.3477 0.4 0.8-1 1.8-2.5 3-1.5 1.1-3.1008 2.5008-5.3008 3.3008-0.734 0.26691-1.5123 0.48826-2.2871 0.63281-3.5816 3.5163-3.2234 6.291-3.2129 6.3672 0.3-0.2 1.7008 2.2 2.3008 4.5 0.7 2.3 0.6984 4.6992-0.1016 6.1992-0.4627 0.77116-1.1052 1.294-1.6933 1.5215-0.262 0.1131-0.5237 0.1577-0.752 0.125-0.2314-0.0331-0.4284-0.1436-0.5547-0.3457-0.01-9e-3 -0.01-0.0239-0.012-0.0332l-0.3711 1.207 4.1856-1.6738 2 5 4-2v1l2 6-1 1-4-1-2 2-4 1-2-2h-3v5l4 3 1-2h5l2 1-1 2 3 5v2l7-1 1 2v1l-4 3h-2l-1 1 4 4 0.5078 0.4375c-0.1201-0.23022-0.209-0.46282-0.209-0.73828 0-0.7 0.4-1.6992 1-2.1992 0.7-0.5 1.6992-0.49922 2.1992-0.69922 0.25-0.05 0.375-0.17539 0.5-0.30078s0.25-0.25078 0.5-0.30078c0.5-0.2 1.4992-0.19844 2.1992-0.39844 0.6-0.1 1.0016-0.5 1.6016-0.5 0.7 0 1.6984 0.39844 2.3984 0.39844 0.6 0 1.0016-0.4 1.6016-0.5 0.7-0.2 1.6984-0.2 2.3984 0 0.6 0.1 1 0.5 1.5 0.5s1.1016-0.39844 1.6016-0.89844 0.9-1.1008 1.5-1.3008c0.7-0.2 1.7 0.19922 2.5 0.19922 0.9 0 1.4984-0.4 1.8984-0.5 0.3-0.2 0.3008-0.19922 0.3008-0.69922s8e-4 -1.5008-0.1992-2.3008c-0.1-0.9-0.5016-1.5-0.6016-2-0.2-0.5-0.2-0.89844 0-1.3984 0.1-0.5 0.5016-1.1016 1.1016-1.6016 0.7-0.5 1.6992-0.9 2.1992-1 0.5-0.2 0.5008-0.19922 0.8008-0.19922 0.4 0 0.9992-7.8e-4 1.6992-0.30078 0.7-0.4 1.3-1 1.5-2s-0.2-2.4-0.5-3c-0.3-0.7-0.6992-0.69922-1.1992-1.1992s-1.1-1.5-2-2c-0.8-0.5-1.8-0.50078-2.5-0.80078-0.6-0.4-1.0016-1-1.1016-1.5-0.2-0.5-0.2-0.89922 0-1.1992 0.1-0.3 0.5016-0.70078 0.6016-1.3008 0.2-0.7 0.2-1.6984 0-2.3984-0.1-0.6-0.5016-1-0.6016-1.5-0.2-0.5-0.2-1.1016-0.5-1.6016-0.4-0.5-1-0.9-1.5-1.5-0.5-0.7-0.8992-1.6992-1.1992-2.1992s-0.7-0.50078-1-0.80078c-0.3-0.4-0.7-1-0.5-2s0.8008-2.4 1.3008-3c0.1868-0.26151 0.3583-0.40196 0.5273-0.49414l-1.1755-4.2051h1.8477l1-1-1.8086-1.8086-0.2324-0.19141h-1.6465l-0.053-0.18945c-0.019-7e-3 -0.042-2e-3 -0.061-0.01-0.5-0.1-0.8984-0.50117-1.3984-0.70117-0.5-0.3-1.1008-0.39961-1.8008-0.59961s-1.3008-0.29961-1.8008-0.59961c-0.5-0.2-0.8992-0.59961-1.1992-1.0996s-0.7008-1.1012-0.8008-1.7012c-0.2-0.6-0.1992-1.0996-0.1992-1.5996 0-0.25-6e-4 -0.50059 0.1-0.71289 0.1002-0.21231 0.3012-0.38633 0.7012-0.48633 0.049-0.0162 0.1311-1e-3 0.1836-0.0156l-5.6348-3.5352z" />
</svg>