<?xml version="1.0" encoding="UTF-8"?>
<svg width="1800" height="900" version="1.1" xmlns="http://www.w3.org/2000/svg">
  <MetaInfo xmlns="http://www.prognoz.ru">
    <Geo>
      <GeoItem X="0" Y="0" Latitude="90" Longitude="-180"/>
      <GeoItem X="1800" Y="900" Latitude="-90" Longitude="180"/>
    </Geo>
  </MetaInfo>
  <path d="m1047.8 571.72c-0.3411 0.50613-0.6692 0.95895-1.043 1.582-0.55 1-1.1758 2.0992-1.9258 3.1992-0.044 0.0651-0.1132 0.12435-0.1582 0.18945 0.019 0.32804 0.116 0.73616 0.084 1.0098-0.1 1.6-1.5 2-3.5 3-0.581 0.29047-1.2988 0.67921-1.9688 1.0391-1.6395 1.0305-3.3609 1.9439-5.0312 2.5625-1.3 0.5-2.5512 0.84883-3.7637 1.1113s-2.3871 0.43789-3.5371 0.58789c-1.8351 0.23936-3.7291 0.53554-5.3359 0.44531l-1.6641 0.55469v1l-0.2637 2.4492c0.223 0.32874 0.4116 0.87942 0.6016 1.4629 0.8075 0.18976 1.6442 0.39821 2.4609 0.78711 2.2 1 4.2 2.6008 4.5 4.3008 0.4 1.7-1.0015 3.2992-0.6015 4.1992 0.064 0.17119 0.2391 0.29072 0.4394 0.39648 0.2124 0.0504 0.4109 0.16893 0.625 0.20313 0.1123 0.025 0.202 0.0616 0.3262 0.0801 0.8942 0.11309 1.7877 0.12109 2.6094 0.12109 1.6 0 3.0007-7.8e-4 4.8007 0.19922 1.8 0.1 4.1993 0.5 5.6993 1.5 1.263 0.84204 1.8843 2.1155 2.289 3.8086l0.014-8e-3 0.5 0.5h4l2 5 4 2 1-2 1-6-1-1v-2l1-2 3-4 2 2v7l4 1 1 1 5-1 4 2 2-3-4-5-1 1-5 1-2-4 3-3 2-3 7 3v1l5 5 3-4 3-1 1-4 8 2v-7l0.8906-1.7832 0.1091-0.21663h-0.1738l-0.3574-1.1992c-0.1401 0.14328-0.2949 0.27802-0.4688 0.39844-1.3 0.8-3.6992 0.80156-5.1992 1.6016-1.5 0.9-2.1008 2.4984-3.3008 2.3984-1.2-0.2-2.8008-2.1984-4.3008-3.8984-1.5-1.6-2.8984-3.0008-3.3984-4.8008-0.4272-1.538-0.3014-3.3766-0.6621-4.6055-1.1178-0.88506-2.4473-1.2969-3.3379-1.5938-0.1167-0.0318-0.2153-0.0792-0.3184-0.10547-0.1697 0.0152-0.3097-0.0164-0.4824 4e-3 -1.7 0.0996-3.3 0.50156-5 0.10156-1.7-0.3-3.3008-1.3016-5.3008-1.1016-2 0.1-4.4 1.5016-6.5 1.6016-2.2 0.2-4.1992-0.80078-5.6992-2.3008-0.019-0.0193-0.03-0.0412-0.049-0.0606-0.6368-0.16345-1.3002-0.31237-1.7871-0.55468-0.9253-0.29611-1.8742-0.52035-2.8633-0.88477-0.3264-0.12694-0.6277-0.17043-0.957-0.28125z" />
</svg>