<?xml version="1.0" encoding="UTF-8"?>
<svg width="1800" height="900" version="1.1" xmlns="http://www.w3.org/2000/svg">
  <MetaInfo xmlns="http://www.prognoz.ru">
    <Geo>
      <GeoItem X="0" Y="0" Latitude="90" Longitude="-180"/>
      <GeoItem X="1800" Y="900" Latitude="-90" Longitude="180"/>
    </Geo>
  </MetaInfo>
  <path d="m1043.6 515.07c-0.3763 3e-3 -0.7145 0.05-0.9395 0.125-0.7 0.1-0.6992 0.50078-1.1992 0.80078s-1.4992 0.7-2.1992 1c-0.6 0.3-1 0.70078-1.5 0.80078-0.5 0.2-1.1008 0.19922-1.8008 0.69922s-1.3008 1.5-1.8008 2-0.9 0.50078-1.5 0.80078c-0.7 0.4-1.6992 1-2.1992 1.5s-0.4992 0.89922-1.1992 0.69922c-0.6-0.2-2.0016-0.80078-2.6016-1.3008-0.7-0.5-0.6992-0.89844-1.1992-1.3984s-1.4992-1.1-2.1992-1.5c-0.6-0.3-1-0.3-1.5 0-0.5 0.4-1.1 0.99922-1.5 1.6992-0.3 0.7-0.3008 1.3008-0.3008 1.8008v5.1992c0 0.3 8e-4 0.7 0.3008 1.5 0.4 0.8 1 2.2008 1.5 2.8008 0.5 0.7 0.9 0.69922 1 0.69922h0.1992l3 3 5-3 1 1-1 2 2 6h1l3.9551 3.9551 0.045 0.29101v5.7539l0.5918 1.7734-0.7871 4.2598-5.8048 0.9668v2l-1 3 1 5 2.1035-1.0527c0.2236-0.40128 0.5053-0.79695 0.875-1.1816 0.791-0.78854 1.7036-1.5211 2.5215-2.0664 1.5-1 2.4992-1.3984 3.6992-2.3984 1.1-1 2.5016-2.6 4.1016-4.5 1.7-1.8 3.7-3.8 4-5.5 0.4-1.6-1-3.0016-1-4.1016 0-1.2 1.3984-2.1984 3.3984-2.8984 0.2367-0.071 0.5529-0.14649 0.8047-0.21289 0.5673-1.2637 1.9845-2.1683 3.6953-2.8887 1.35-0.675 2.8137-1.1809 4.1778-1.1387 0.4546 0.0141 0.8973 0.0902 1.3223 0.24023 0.2477 0.10836 0.4626 0.37498 0.7011 0.53711 0.5883-0.17007 1.1779-0.26941 1.7989-0.13867 0.45 0.075 0.9117 0.25657 1.3711 0.50195 0.4589 0.24527 0.9145 0.55571 1.3515 0.88672 0.8755 0.66275 1.6751 1.4119 2.2754 1.9121 1.1 1 1.5 0.99922 2.5 2.1992 0.896 0.9856 2.2764 3.0063 3.9199 3.8496l-1.6172-4.0488 3-2v-5l-1-1-1-2-3-1-1-5-5-1h-2l1-6-3-1v-4h-1l-0.4844 0.24219c-0.4566 0.14357-0.9431 0.42929-1.7148 0.25781-0.8-0.2-1.8-0.8-2.5-1-0.6-0.2-1.0008 0.19922-1.8008 0.19922s-2.2-0.39844-3-0.39844-1.1992 0.4-1.6992 0.5c-0.5 0.2-1.1016 0.2-1.6016 0-0.5-0.1-0.8992-0.50156-1.1992-1.1016-0.3-0.7-0.7-1.6992-1.5-2.1992-0.5-0.3125-1.2341-0.43044-1.8613-0.42578z" />
</svg>