<?xml version="1.0" encoding="UTF-8"?>
<svg width="1800" height="900" version="1.1" xmlns="http://www.w3.org/2000/svg">
  <MetaInfo xmlns="http://www.prognoz.ru">
    <Geo>
      <GeoItem X="0" Y="0" Latitude="90" Longitude="-180"/>
      <GeoItem X="1800" Y="900" Latitude="-90" Longitude="180"/>
    </Geo>
  </MetaInfo>
  <path d="m1090.3 437.4c-0.6 0-1.0008 0.40039-1.3008 0.90039-0.3 0.4-0.7008 0.79961-0.8008 1.0996-0.2 0.3-0.1984 0.39922-0.3984 1.1992-0.1 0.7-0.5004 2.1008-0.9004 2.8008-0.5 0.8-1.0996 0.89961-1.5996 1.0996-0.6 0.2-1.2016 0.30039-1.6016 0.40039s-0.4988 0.10039-0.7988 0.40039c-0.2 0.4-0.5996 0.99922-0.5996 1.6992-0.1 0.7-8e-4 1.3 0.1992 2s0.3 1.3 0.5 2 0.3 1.3 0.5 2 0.3004 1.3 0.4004 2 0.1016 1.3-0.1 2c-0.1 0.7-0.5 1.2992-1 1.6992-0.5 0.3-1.1 0.30156-2 0.10156-0.8-0.1-1.8004-0.50039-2.4004-0.90039s-0.7004-0.90039-0.9004-1.4004-0.3-1-0.5-1.5-0.3-1-0.5-1.5-0.2996-0.99961-0.5996-1.5996c-0.2-0.6-0.5996-1.1996-1.0996-1.5996-0.5-0.3-1.1008-0.30117-1.8008-0.20117s-1.3 0.20039-2 0.40039-1.3008 0.30078-1.8008 0.80078c-0.25 0.2-0.4754 0.45039-0.7129 0.71289-0.248 0.2741-0.4722 0.52474-0.7871 0.78711-0.7 0.5-1.7 0.9-2 1.5-0.1545 0.27044-0.1796 0.53589-0.1933 0.84961-0.027 0.51474 0.01 1.0327-0.3067 1.3496-0.5 0.5-1.9 0.50078-2.5 0.80078-0.7 0.4-0.7 0.99844-1 1.3984-0.4 0.3-0.9996 0.3-1.5996 0.5-0.6 0.1-1.0996 0.50078-1.5996 0.80078s-0.9992 0.69922-1.6992 1.1992c-0.8 0.5-1.8 1.1016-2.5 1.6016-0.6 0.5-1.0008 0.89922-1.3008 1.1992l-1 1v2l-3 2 1 1-1.9121 3.8223-0.3965 0.17382c0 9.7e-4 0.01 3e-3 0.01 4e-3 0.6 0.3 1 0.70078 1 1.3008 0 0.7-0.3984 1.7-0.3984 2.5 0 0.9 0.4 1.5 0.5 2 0.2 0.5 0.2 0.89844 0 1.3984-0.032 0.16102-0.2345 0.34032-0.3223 0.51562l0.086 0.0742c-0.1856 0.34407-0.4495 0.69746-0.7637 1.0117-0.5 0.5-1.1 0.89922-1.5 1.6992-0.3 0.8-0.3008 2.2-0.3008 3s8e-4 1.2008 0.3008 1.3008c0.4 0.2 1 0.2 1.5 0.5 0.5 0.4 0.8992 0.99844 1.1992 1.3984 0.3 0.3 0.7008 0.30078 0.8008 0.30078h0.8984c0.6 0 2.0008 7.8e-4 2.8008-0.19922 0.8-0.1 1.2008-0.50156 1.8008-0.10156 0.7 0.3 1.6992 1.3008 2.1992 1.8008 0.25 0.25 0.375 0.375 0.5 0.375s0.25-0.125 0.5-0.375l2-2c0.5-0.5 0.5-0.50078 1-0.80078 0.5-0.4 1.4992-0.99922 2.1992-1.6992 0.6-0.7 1.0008-1.2992 1.3008-1.6992 0.3-0.3 0.7008-0.30078 1.3008-0.30078h2.8984c0.1 0 0.5008-7.8e-4 0.8008 0.19922 0.3 0.1 0.7 0.5 1 1s0.7 1.1 1 1.5c0.3 0.3 0.6992 0.30156 1.1992 0.60156 0.5 0.4 1.1016 0.99922 2.1016 1.1992s2.3992-0.20078 3.1992-0.30078c0.8-0.2 1.2-0.19922 1.5-0.19922s0.7-7.8e-4 1-0.30078c0.3-0.4 0.7008-0.99844 0.8008-1.8984 0.2-0.8 0.1992-1.8 0.6992-2.5 0.25-0.3 0.6256-0.55039 1.0254-0.67578s0.8238-0.12578 1.1738 0.0742c0.3652 0.18259 0.6548 0.6179 0.9395 1.0039 0.1744 0.23462 0.3738 0.48564 0.5605 0.59766 0.25 0.2 0.5246 0.19966 0.7871 0.0742 0.2625-0.12544 0.5129-0.376 0.7129-0.67578 0.3-0.7 0.3008-1.6984 0.3008-2.3984 0-0.6-8e-4 -1 0.1992-1.5 0.1-0.5 0.5-1.1008 0.5-1.8008 0-0.35-0.1-0.675-0.1992-1-0.1-0.325-0.1992-0.65-0.1992-1 0-0.29603 0.074-0.57683 0.1562-0.86719 0.1153-0.4137 0.2422-0.78685 0.2422-1.332 0-0.8-0.3992-1.8-0.1992-2.5 0.2-0.6 0.8-1.0016 1.5-1.1016 0.35-0.1 0.6756-0.15039 0.9629-0.0879 0.2873 0.0625 0.5363 0.23789 0.7363 0.58789 0.3 0.6 0.3008 2.0016 0.3008 2.6016 0 0.7-8e-4 0.69922 0.1992 1.1992 0.1 0.5 0.5 1.4992 0.5 2.1992 0 0.3-0.1 0.55039-0.1992 0.80078-0.1 0.25039-0.1992 0.50078-0.1992 0.80078 0 0.7 0.4 1.6984 0.5 2.3984 0.2 0.6 0.1992 1.0016 0.1992 1.6016 0 0.7-8e-4 1.6992 0.1992 2.1992 0.1 0.5 0.5008 0.50078 0.8008 0.80078 0.3 0.4 0.7008 1 0.8008 1.5 0.2 0.5 0.2 0.89844 0.5 1.3984 0.4 0.5 0.9984 1.1008 1.3984 1.8008 0.3 0.7 0.3008 1.3-0.1992 2s-1.4992 1.3008-2.1992 1.8008c-0.6 0.5-1 0.89922-1 1.1992 0 0.0748 0.062 0.23537 0.1 0.32422 0.1178 0.25525 0.2988 0.56691 0.2988 0.97656 0 0.7-0.4 1.7-0.5 2.5-0.2 0.9-0.1992 1.5-0.1992 2s8e-4 0.89844-0.1992 1.3984c-0.1 0.5-0.5016 1.1008-0.1016 1.8008 0.3 0.7 1.3 1.3008 2 1.8008 0.6 0.5 1 0.89844 1.5 1.3984s1.1016 1.1 1.6016 1.5c0.5 0.3 0.9 0.30078 1 0.30078 0.2 0 0.1992-7.8e-4 0.6992 0.19922 0.5 0.1 1.5008 0.5 2.3008 0.5 0.5452 0 0.9183-0.12691 1.332-0.24219 0.2904-0.0822 0.5712-0.15625 0.8672-0.15625 0.7 0 1.2992 0.4 1.6992 0.5l0.6016 0.39844c0.4 0.1 0.9992 0.5 1.6992 0.5 0.35 0 0.675-0.0996 1-0.19922 0.325-0.0996 0.65-0.19922 1-0.19922 0.4993 0 0.9478 0.20248 1.418 0.35547 0.1916 0.0626 0.3784 0.11544 0.582 0.14453 0.7 0.2 1.3 0.19922 2 0.69922s1.2992 1.5 1.6992 2c0.3 0.5 0.3016 0.50078 0.6016 0.80078 0.4 0.4 0.9984 0.99922 1.8984 1.1992 0.8 0.2 1.8008-0.2 2.3008-0.5s0.5008-0.7 0.8008-1c0.4-0.3 0.9992-0.69922 1.6992-0.69922s1.3008 0.39844 1.8008 0.89844 0.9 1.1 1 1.5c0.2 0.3 0.1984 0.30078 0.3984 0.80078 0.1 0.5 0.5016 1.5 0.6016 2l0.1992 0.5 5-1v1.9023l3 0.30469v-3.207h4v-1l5-2v-4l1.7734 0.35547-1.6347-3.1543c-0.1926 0.0528-0.3731 0.11371-0.5723 0.16211-0.027 7e-3 -0.069 0.0155-0.096 0.0215-0.1634 0.0407-0.309 0.0665-0.4746 0.11523-1.7 0.5-3.3008 1.5008-4.3008 0.80078-0.6425-0.38553-1.0207-1.5285-1.3535-2.7637-0.2012-0.1201-0.5012-0.22164-0.6465-0.33789-0.5-0.45-0.5984-0.82344-0.3984-1.0234 0.024-0.0236 0.134 0.0207 0.166 2e-3 -0.3492-0.77903-0.3852-1.6532-0.3262-2.5703-0.3831-0.97694-0.8238-1.92-1.4414-2.9082-0.7693-1.3078-1.8491-2.7777-3.0918-4.2129-0.3634-0.0837-0.7141-0.18327-1.039-0.33594-0.319-0.14593-0.6148-0.34509-0.8692-0.65039-0.364-0.43683-0.6243-1.0934-0.8437-1.8144-0.01-7e-3 -0.014-0.0125-0.024-0.0195-1.3679-1.2119-2.6801-2.3186-3.0332-3.166-0.5-1.2 0.8985-1.7992 1.3985-3.1992 0.2085-0.54214 0.1739-1.2099 0.084-1.8359-0.048-0.2783-0.072-0.56593-0.1718-0.8164-0.3445-0.35861-0.8373-0.58652-1.3555-0.79297-0.4073-0.14399-0.8511-0.25629-1.332-0.33399-1.0314 0.22626-2.2165 0.67667-3.4239 0.97852-2 0.5-4.0007 0.50078-5.8007-0.19922-0.5656-0.17861-1.0107-0.54504-1.502-0.84961-1.0923-0.19405-2.029-0.48219-2.498-0.95117-0.6315-0.56171-0.4785-1.4347-0.07-2.3457-0.2484-1.5688 0.2976-3.278 1.3731-4.3535 0.8948-0.82026 2.0099-1.2548 2.8105-2.043 0.6172-1.9186 0.6738-4.2231 0.4903-6.0586-0.1-2-0.5016-3.4-0.6016-4-0.2-0.7-0.1992-0.69844 0.3008-1.8984 0.5-1.1 1.4992-3.5 3.1992-4 0.4-0.125 0.8503-0.13123 1.3359-0.0703 0.1057 0.0133 0.2289 0.0532 0.3379 0.0723 0-0.012-0.072-0.0945-0.072-0.10351 0-0.13952 0.5451 0.074 1.0371 0.24414-0.1867-0.67734-0.3325-1.3177-0.1387-1.7441 0.5-1.2 3.1008-1.2 4.3008-1.5 1.2-0.4 0.7992-1-0.3008-2.5-1.1978-1.4973-3.1916-3.8898-3-5.1914l-12.936-6.4746c-0.1007 0.70215-0.1312 1.4423-0.459 1.9668-0.5 0.8-1.1008 1.1992-1.8008 1.1992s-1.3008-0.39922-1.8008-0.69922-0.8992-0.7-1.1992-1-0.6992-0.70039-1.1992-0.90039-1.1008-0.29883-1.8008-0.29883c-0.7-0.1-1.3008-0.20117-1.8008-0.20117-0.5 0.1-0.8992 0.20117-1.1992 0.20117-0.3-0.1-0.7008-0.50156-1.3008-0.60156-0.7-0.2-1.6984-0.2-2.3984-0.5-0.6-0.4-1.0016-1-1.6016-1.5-0.7-0.5-1.6984-0.89883-2.3984-0.79883z" />
</svg>