<?xml version="1.0" encoding="UTF-8"?>
<svg width="1800" height="900" version="1.1" xmlns="http://www.w3.org/2000/svg">
  <MetaInfo xmlns="http://www.prognoz.ru">
    <Geo>
      <GeoItem X="0" Y="0" Latitude="90" Longitude="-180"/>
      <GeoItem X="1800" Y="900" Latitude="-90" Longitude="180"/>
    </Geo>
  </MetaInfo>
  <path d="m1283.4 310.42-1.4062 0.58008h-5l-1 2h-6l-2 4h-1l-1 1-3-2-1 1-3 5v2l-2 3-1 2-1 1v3l2 3-3 2 6 4 1-2 5-3v7l-2 1 3 5h3v5l-2 1v4l-1 1v0.0156c0.5663 6e-3 1.1084 0.0236 1.5938 0.0957 0.9092 8e-3 1.8368 0.0966 2.9023 0.39258 1.8 0.5 4.1992 1.4992 5.1992 2.6992 1 1.1 0.6 2.5016 0.5 4.1016-0.2 1.7-0.2 3.6985 0 5.8984 0.1 2.1 0.5016 4.5 1.6016 5.5 1.2 1 3.1992 0.60079 3.6992 1.3008s-0.5 2.3008-0.5 4.3008c0 2 1.0008 4.3992 1.8008 6.1992 0.7499 1.4997 1.332 2.6034 2.0703 3.3164 0.6945 0.41061 1.2359 0.62844 1.6289 0.38281 0.8-0.49997 1.1992-2.8992 2.1992-4.1992 0.038-0.0498 0.1065-0.0563 0.1465-0.10352-0.016-0.54118 0.01-1.0786-0.045-1.5957-0.1-2-0.5016-3.6016 0.3984-4.1016 0.8-0.49997 2.8016 0.10003 4.6016 1 1.9 0.8 3.4984 1.8008 4.8984 3.3008 1.3 1.5 2.3016 3.5 3.1016 5 0.9 1.5 1.4984 2.5008 1.8984 4.3008 0.3 1.9 0.3008 4.5 1.3008 6.5 0.75 1.5 2.0621 2.661 2.7559 3.7812 0.2312 0.37344 0.3933 0.74221 0.4433 1.1172 0.1 1.5-1.5 3.1-2.5 4.5-1 1.3-1.3992 2.3008-2.6992 2.8008s-3.7 0.49924-5.5 0.69921c-1.8 0.1-3.2008 0.50003-4.8008 1.5-1.7 1-3.7 2.6-5 4.5-0.4597 0.59107-0.6781 1.2155-0.9512 1.832-0.1213 1.8163-0.2481 3.591 0.3399 4.8555 0.9282 1.0445 2.3038 1.8125 3.4121 1.8125 1.5 1e-5 2.5-1.3992 3-3.1992 0.5-1.8 0.5-4.2 1-5.5 0.5-1.3 1.5-1.7 2.5-1 0.3244 0.22711 0.6155 0.66541 0.916 1.0547 0.319 0.1676 0.598 0.38 0.7832 0.64453 0.2088 0.34954 0.2428 0.79594 0.2188 1.2793 0.1223 0.34844 0.3188 0.65584 0.3828 1.0215 0.4 1.7 0 3.3008-1.1016 4.8008-0.084 0.10485-0.2137 0.20271-0.3047 0.30664-0.1368 0.85612-0.3181 1.6854-0.6953 2.3926-0.9 1.5-2.5 2.5-3 4-0.2419 0.72576-0.2138 1.5745-0.1328 2.4551 0.9263 1.1628 2.3593 2.0959 3.9336 2.7441 1.7 0.6 3.2992 1.0008 4.1992-0.19921 0.8-1.2 0.8016-3.8 1.6016-4.5 0.3464-0.26934 0.812-0.19456 1.3144-0.0527 0.4448-0.0956 0.9666 0.0489 1.5625 0.34375 0.3452 0.0845 0.6869 0.25679 1.0215 0.20899 1.3-0.2 2.3-1.7992 3-3.6992 0.1697-0.50899 0.2917-0.96579 0.4317-1.457-0.8851-0.63626-1.3917-2.3758-0.8301-2.8438 0.7-0.5 2.7 0.5 3 1.5 0.2047 0.51186-0.068 1.0155-0.5117 1.3262 0.1336 0.55229 0.258 1.0652 0.4101 1.6738 0.5 2 1.1 3.9992 2 5.6992 0.3391 0.67808 0.7378 1.2832 1.1563 1.8438 2.0475 0.69749 4.0504 1.3814 4.6445 0.95703 0.7-0.5-0.7-2.5-1-4-0.15-0.75-0.075-1.3754 0.2246-1.9004 0.1859-0.32527 0.618-0.55025 0.9766-0.80469-0.027-0.23334 0.047-0.29734 0.1757-0.14453 0.1691-0.10549 0.2221-0.25541 0.4239-0.34961 0.01-3e-3 0.01-5e-3 0.022-8e-3 0-2e-3 -3e-4 -8e-3 0-0.01 0.148-1.4726 0.6231-2.4645 1.4746-3.4863 1-1.1 2.3992-2.5008 3.1992-3.8008s1.2-2.7 1.5-4.5c0.154-0.92408 0.3301-1.9983 0.3301-2.9004-0.8959-0.0483-1.9363-3.2e-4 -2.8301-0.0996-0.6872-0.0763-1.2254-0.30204-1.7461-0.54492-0.5271 0.25994-1.0386 0.49838-1.5547 0.74414-2.2 1-4.2 1.6008-5 0.80078-0.9-0.8-0.4984-3.1992 1.1016-4.6992 1.2733-1.1235 3.097-1.7853 4.5683-2.5293 0.451-1.1019 1.0941-2.1797 1.9317-2.9707 0.1787-0.15047 0.3821-0.25664 0.58-0.37305 0.04-0.62241 0.04-1.2555 0.1192-1.9277 0.2-1.7 0.7992-3.3 2.1992-4.5 1.3-1.2 3.3016-1.7992 4.6016-2.6992 0.8874-0.50708 1.5333-1.1252 2.2617-1.793 0.2518-0.26591 0.4562-0.56991 0.7383-0.80859 1.4-1.2 2.9992-2.1992 4.1992-3.6992 0.5971-0.74641 1.0434-1.6184 1.4297-2.5508 0.1546-0.59511 0.2056-1.0929 0.2636-1.5957-0.2587-0.85064-0.6333-1.6582-0.9941-2.1543-0.9-1.2-1.4984-1.2-1.8984-2.5-0.3-1.4-0.3016-3.9992-0.6016-5.6992-0.4-1.7-1-2.3-2-3s-2.3992-1.2992-4.1992-1.1992c-1.8 0.2-4.2008 1.2-5.8008 0.5-1.7-0.6-2.6984-3-2.3984-5.5 0.088-0.55107 0.4066-1.1171 0.5996-1.6758 0.064-0.39558 0.1951-0.83439 0.4101-1.332-0.1013-0.33487-0.3105-0.6398-0.3105-0.99219 0-1.4659 0.9656-3.0226 2.5957-4.2129l-0.5883-0.58749-3-2 1-3-3-5-1-3-0.7891-0.26367 0.7637-0.76367c-0.092 0.011-0.1821 0.0273-0.2773 0.0273-1.7 0-3.6993-1-5.6993-2.5s-3.9992-3.4992-5.6992-4.1992c-1.6-0.6-3 0-4-0.5-0.1961-0.098-0.327-0.38503-0.4961-0.55859-0.4385-0.0686-0.9228-0.064-1.3047-0.24219-1.5-0.7-2.5007-2.3008-3.3007-4.3008-0.9-2-1.5-4.3984-2.5-5.8984-0.1432-0.21484-0.3487-0.28048-0.5078-0.45898-1.2664-0.0281-2.6104 0.59911-3.4922 0.1582-0.4522-0.22611-0.7779-0.7819-1.0957-1.4551-1.4079 0.33636-2.8522 0.8104-3.8028 0.25586-1.1-0.6-1.5015-3-2.1015-5-0.7-2-1.7-3.6008-2-4.8008-0.4-1.2 7e-4 -1.7992 1.3007-1.6992 1.3 0.2 3.7008 1.1992 4.3008 0.69922 0.3435-0.24538 0.2688-0.85638-0.041-1.5879-0.3753-0.82958-0.927-1.6811-1.5605-2.4121-1.4-1.5-2.9985-2.5008-3.8985-3.8008-0.2703-0.47304-0.3917-0.98701-0.541-1.4941v-2e-3c-0.3346-0.23617-0.6191-0.49474-0.8516-0.7832z" />
</svg>