<?xml version="1.0" encoding="UTF-8"?>
<svg width="1800" height="900" version="1.1" xmlns="http://www.w3.org/2000/svg">
  <MetaInfo xmlns="http://www.prognoz.ru">
    <Geo>
      <GeoItem X="0" Y="0" Latitude="90" Longitude="-180"/>
      <GeoItem X="1800" Y="900" Latitude="-90" Longitude="180"/>
    </Geo>
  </MetaInfo>
  <path d="m1373 265-2 1-1 1 3 5-6 1-1 2-3-2-3 5-1 6-2 1-2-2-4 2v-6l-3-1-2 1-1 4 5 4v2l-5 3-2-2-4 1v2l-3 3v1l2 4 5-1 1 2h1l3-1 4 6h2v-5l4-1 2 2h1l5 3h5l2-1 4 2h10l2-5v-6l1-1h3l7-1v-6l-2-3-1-1-2-6h-1l-4 2-4-3 6-3-3-3-5 5-2-4h-4l-1-6z" />
</svg>