<?xml version="1.0" encoding="UTF-8"?>
<svg width="1800" height="900" version="1.1" xmlns="http://www.w3.org/2000/svg">
  <MetaInfo xmlns="http://www.prognoz.ru">
    <Geo>
      <GeoItem X="0" Y="0" Latitude="90" Longitude="-180"/>
      <GeoItem X="1800" Y="900" Latitude="-90" Longitude="180"/>
    </Geo>
  </MetaInfo>
  <path d="m1314.6 466.05c-1.5193 0.066-3.9642 0.99888-5.6054 2.2539-1.7 1.4-2.2993 2.9984-3.6993 4.3984-1.3 1.3-3.3 2.3016-4.5 3.6016-0.7158 0.91097-1.0715 1.9257-1.3047 2.9785 0 6e-3 -8e-4 0.0155 0 0.0215 0.1199 1.0191-0.056 1.7435-0.3886 2.3672-0.1024 1.0036-0.1894 1.9455-0.5489 2.3652-0.125 0.16407-0.3125 0.26758-0.5625 0.26758-0.3834 0-0.9292-0.36045-1.4375-0.70117-0.9406 0.36179-1.8679 0.58612-2.3632 0.40039-0.9-0.3-0.5-1.6992-0.5-3.6992 0-0.18766-0.047-0.43136-0.057-0.6289-0.5995-1.7086-0.8669-3.4235-1.9433-3.6719-1.4-0.3-4 1.2992-5.5 2.6992-1.5 1.3-1.9 2.3016-3 3.1016-1.2 0.9-3.1993 1.5-4.1993 3s-1 3.8992-2 4.1992-3-1.2992-4-2.1992c-0.4735-0.37882-0.712-0.55357-0.9707-0.60547-0.1208 0.0359-0.2061 0.0683-0.33 0.10547-0.6337 0.22179-1.2721 0.52462-1.9161 0.80664-0.5897 1.3218-1.0839 3.3941-1.0839 4.8926 0 1.7 0.6007 2.2992-0.1993 3.6992-0.339 0.55086-1.0484 1.2094-1.7792 1.791-0.2877 0.7223-0.6846 1.2658-1.2208 1.3106-0.2405 0.0401-0.5052-0.061-0.7714-0.17187-0.3565 0.10767-0.7162 0.21097-1.0293 0.17187-1.7-0.1-2.6985-2.5-3.8985-3-0.1554-0.0706-0.3268-0.0255-0.4922-0.0254-0.1994 0.1514-0.3798 0.1504-0.6093 0.42578-0.4911 0.54019-1.079 1.4035-1.6446 2.3457 0 9.9e-4 8e-4 3e-3 0 4e-3 -0.5693 1.0452-1.1364 2.0192-1.5507 2.9512-0.8 1.8-1.1993 3.2-0.1993 3.5s3.4-0.2992 4 0.80078c0.2634 0.45231 0.2684 1.1802 0.2364 1.9512 0.044 9e-3 0.2536-0.0872 0.2636-0.0508 0.013 0.0201-0.1286 0.16452-0.1386 0.19922 0.3469 7e-3 0.6425 0.081 0.8379 0.30078 0.5834 0.58343 0.4296 2.3305 0.6875 3.625 0.9195 0.16698 2.0205 0.17194 2.9062 0.44141l1.9046-1.2696 2 1h2l8 1h4l-1 6 8 1 4-2v-5l5-2v-3l4-2 4 2 5 1v-6l5-2v-2.0566c-0.2024-0.6778-0.4168-1.3258-0.7969-1.9434-0.9-1.3-2.4992-2.6992-2.1992-3.6992 0.15-0.5 0.8246-0.90078 1.5371-1.3008s1.4637-0.80078 1.7637-1.3008c0.421-0.60151 0.2753-1.3356 0.1191-2.0742-0.2038-0.55689-0.4199-1.1064-0.4199-1.625 0-1.3 0.9992-2.6992 2.1992-3.6992 0.2799-0.25442 0.5842-0.46931 0.8848-0.69336-1e-3 -4e-3 -9e-4 -8e-3 0-0.0117 0.4664-1.8356 0.2502-4.1269 0.6133-6.3965 0.2873-2.394 1.1617-4.6421 0.9765-5.9746-0.1384-0.23092-0.2024-0.51751-0.375-0.72461-0.4718-0.56614-1.0992-0.98659-1.8066-1.3906-0.2719-0.13042-0.5646-0.27197-0.7949-0.41016-0.028-0.0199-0.045-0.0422-0.072-0.0625-0.583-0.29744-1.1552-0.58433-1.8262-0.9375-0.3857-0.21424-0.7962-0.42304-1.1953-0.65234z" />
</svg>