<?xml version="1.0" encoding="UTF-8"?>
<svg width="1800" height="900" version="1.1" xmlns="http://www.w3.org/2000/svg">
  <MetaInfo xmlns="http://www.prognoz.ru">
    <Geo>
      <GeoItem X="0" Y="0" Latitude="90" Longitude="-180"/>
      <GeoItem X="1800" Y="900" Latitude="-90" Longitude="180"/>
    </Geo>
  </MetaInfo>
  <path d="m745.25 410.24c-0.0715-0.0196-0.15913 0.0223-0.23633 0.0195-0.14103 0.0335-0.30747-0.0158-0.4375 0.0371-0.55205 0.17679-1.1176 0.66715-1.3809 1.4043-0.18306 0.47596-0.12026 1.111-0.082 1.7305-0.12669 0.27553-0.32514 0.47555-0.41797 0.76953-0.7 1.8-0.69922 3.8-0.19922 5.5 0.25362 0.81157 0.70874 1.4599 1.1152 2.1816 0.24743 0.93824 0.67151 1.5931 0.58399 2.8184-0.15071 0.9796-0.82056 2.1785-1.623 3.0117-0.42902-0.0543-0.85255-0.0599-1.2754-0.21094-1.3-0.5-2.3016-1.4992-3.6016-2.1992-0.7-0.3-1.4488-0.55156-2.1738-0.66406-8e-3 -1e-3 -0.0138 3e-3 -0.0215 2e-3 -0.20887-0.0335-0.40257 0.0429-0.61524 0.0371-0.37429-0.0119-0.70926-0.029-1.082 0.0977-0.0981 0.0285-0.21291-0.0117-0.30664 0.0273-0.15246 0.0635-0.22351 0.25065-0.35742 0.3418l-6e-3 6e-3c-0.20965 0.1283-0.4701 0.18494-0.63672 0.35156-0.13778 0.13778-0.19649 0.37944-0.31055 0.55078-0.0597 0.0978-0.11558 0.19764-0.16992 0.30274-0.21928 0.40811-0.39643 0.84013-0.50391 1.3652-0.062 0.20623-0.16105 0.36687-0.21484 0.58203-0.3 1.7-0.3 3.6984 0.5 4.8984 0.0933 0.11397 0.25232 0.17467 0.35938 0.27539 0.20284 0.57255 0.33819 1.1198 0.64062 1.7246 1.2 2.1 3.2 4.5008 4 6.3008 0.18132 0.36263 0.12225 0.65989 0.20703 0.99414v2e-3c-0.33308 1.9113-1.1754 3.6714-2.5078 5.0039-1.5 1.5-3.4992 2.5008-4.6992 3.8008-1.1 1.4-1.5008 2.9984-2.3008 4.3984-0.8 1.3-2.1992 2.3016-2.6992 3.6016-0.5 1.4-0.1 2.9984-1 4.3984-0.8 1.3-2.8016 2.3-3.6016 4-0.2624 0.46648-0.38515 1.0028-0.44141 1.5508-0.0365-3e-3 -0.28-0.073-0.25781-0.0508 0.0158 8e-3 0.21374 0.14017 0.25781 0.16406-0.0279 0.35506-0.0549 0.71402-8e-3 1.0625 0.125 0.925 0.50078 1.7734 1.0508 2.2734 1.1004 0.91702 2.8091 0.70413 3.25 1.4258 0.0292 0.12008 0.057 0.23796 0.0781 0.35938-0.0156 0.50992-0.29923 1.2394-0.81641 2.0898-0.5625 0.925-1.3117 1.9266-2.0117 2.7266-1.3 1.7-2.3016 2.6984-1.6016 3.8984 0.0744 0.13638 0.3647 0.31376 0.49023 0.45898 0.16467 0.68962 0.51682 1.3662 1.1113 1.8418 0.62158 0.49727 1.4226 0.76611 2.2812 0.90625 0.3828 0.26894 0.74782 0.51594 1.1172 0.79297 2 1.5 3.6 3.1008 4 2.8008 0.3-0.3-0.69844-2.7-0.39844-5 9e-3 -0.0497 0.043-0.10061 0.0527-0.15039 0.0232-0.0596 0.13392-0.0876 0.14648-0.15039 8e-3 -0.0391-0.0441-0.10227-0.041-0.14258 0.50986-2.1636 1.8857-4.3914 2.541-6.3574 0.7-2.2 0.30078-4.1992-0.19922-6.1992-0.0241-0.0963-0.0459-0.19277-0.0703-0.28906 0.19199-0.37057 0.44426-0.80487 0.58594-1.1445 0.33197-0.4712 0.54155-0.8793 0.32812-1.0957 0.10089-0.41818 0.13966-0.84662 0.0547-1.2715-0.2-0.75-0.69844-1.4734-1.2109-2.2109-0.2467-0.35501-0.40067-0.73658-0.62109-1.1016v-2e-3c0.18276-1.6194 0.65773-3.2229 1.6328-4.6856 1.2-1.9 2.8008-3.4984 4.3008-5.3984 1.5-1.8 2.9-3.8016 4-5.6016 0.80931-1.2814 1.418-2.362 1.8613-3.3398 0.32255-0.60076 0.78674-1.2513 1.0371-1.8594 0.6-1.7 1.0008-3.2992 0.80078-5.1992-0.2-1.8-0.8-3.8008 0-4.3008s3.1992 0.50078 5.1992 0.80078c2 0.4 3.6008-2e-3 3.8008-1.1016 0.11704-0.70223-0.32145-1.7031-0.85938-2.793-0.25011-0.72403-0.53388-1.4599-0.64062-2.207-0.3-2.2 0.3-4.2 0-6-0.14432-0.91403-0.55065-1.7508-0.92578-2.5371 0.25464-1.0418 0.4471-2.2363 0.72656-2.9629 0.5-1.4 0.89922-1.9984 0.19922-3.3984-0.7-1.3-2.3-3.3-4-4-0.62107-0.2192-1.1712-0.11873-1.7168-0.0371-0.0122-4e-3 -0.0169-0.022-0.0293-0.0254z" />
</svg>