<?xml version="1.0" encoding="UTF-8"?>
<svg width="1800" height="900" version="1.1" xmlns="http://www.w3.org/2000/svg">
  <MetaInfo xmlns="http://www.prognoz.ru">
    <Geo>
      <GeoItem X="0" Y="0" Latitude="90" Longitude="-180"/>
      <GeoItem X="1800" Y="900" Latitude="-90" Longitude="180"/>
    </Geo>
  </MetaInfo>
  <path d="m761.54 348.15c-0.7875-0.025-1.5363 0.0996-2.2363 0.34961-0.0664 0.0255-0.1129 0.089-0.17773 0.11719-0.37829 0.11955-0.75497 0.30674-1.1348 0.54492-0.7375 0.4625-1.4891 1.0887-2.2891 1.6387-0.85 0.6-1.7738 1.1488-2.4863 1.6738s-1.2129 1.0254-1.2129 1.5254 0.49961 1 1.1621 1.5625 1.4887 1.1875 2.1387 1.9375c1.4 1.5 2 3.5008 2 5.3008 0 1.9-0.60156 3.4984 0.39844 4.3984 1 0.8 3.6016 0.80078 5.1016 0.80078 0.78452 0 1.2799-0.11528 1.7773-0.1582 0.35542 0.0681 0.82821 0.016 1.6211-0.14258 1.5-0.4 4.1-0.99922 6.5-1.1992 2.3-0.2 4.3016 0.20078 5.6016 0.80078 0.77719 0.3886 1.3289 0.8096 1.8867 1.1094 0.0124 0.26692-0.0347 0.58009 0.0117 0.78906 0.1 0.8 0.50156 0.8 1.6016 0 1.2-0.9 3.2-2.4984 3-3.3984-0.0348-0.27815-0.39249-0.42503-0.83203-0.50976-0.79007-0.35039-1.9084-0.64965-2.4688-1.4902-0.8-1.1-0.19922-3.5-0.69922-5-0.13371-0.40114-0.51331-0.60483-0.78906-0.89062 0.03-0.0338 0.17375-0.075 0.1875-0.10938 0.0474-0.23708-0.33262-0.49798-0.90039-0.74805 3.7e-4 -0.59711-0.0689-1.1585-0.29883-1.5527-0.7-1.2-2.2992-0.79922-4.1992-1.1992-1.8-0.3-3.8016-1.3-5.6016-2.5-1.9-1.1-3.4992-2.5016-5.1992-3.1016-0.85-0.35-1.6754-0.52383-2.4629-0.54883z" />
</svg>