<?xml version="1.0" encoding="UTF-8"?>
<svg width="1800" height="900" version="1.1" xmlns="http://www.w3.org/2000/svg">
  <MetaInfo xmlns="http://www.prognoz.ru">
    <Geo>
      <GeoItem X="0" Y="0" Latitude="90" Longitude="-180"/>
      <GeoItem X="1800" Y="900" Latitude="-90" Longitude="180"/>
    </Geo>
  </MetaInfo>
  <path d="m827.99 217.23c-0.18578-0.0129-0.37735-0.0117-0.57422 4e-3 -0.7875 0.0625-1.6613 0.36094-2.6113 0.96094-1.8 1.0999-3.8008 3.5007-4.8008 5.8007s-1.0008 4.6992-1.8008 6.1992c-0.9 1.5-2.5 2.1016-3.5 3.1016-0.0697 0.0697-0.096 0.18218-0.16016 0.25586-0.43022 0.20947-0.97317 0.40398-1.2383 0.64258-1 0.8-0.6 1.8008-1 3.8008-0.3 2-1.3008 4.9992-1.8008 6.6992-0.29994 0.9598-0.4012 1.5402-0.44922 2.1328-0.40919 0.40785-0.62469 0.94452-0.35156 1.9688 0.0615 0.30738 0.241 0.70886 0.35351 1.0703 0.0447 1.3509 0.15822 2.7919 0.64649 3.6289 0.6 1.2 2 0.80078 3.5 1.8008s3.1016 3.4 5.1016 5c0.24274 0.20633 0.46906 0.33399 0.71875 0.52149 0.0436 0.61264 0.10749 1.155 0.17969 1.877 0.05 1 0.17617 2.1512 0.20117 3.2012 0.0215 0.90323-0.10587 1.6402-0.34375 2.2363v2e-3h-2e-3c-0.0954 0.046-0.15756 0.11832-0.25391 0.16211-0.85307 0.40623-1.7525 0.61691-2.6309 0.77149-0.48443-0.0913-0.91331-0.13214-1.4707-0.27149-0.87232-0.21808-1.8065-0.47778-2.6816-0.77539-1.143-1.0216-2.1687-2.3787-3.5312-3.375-0.17677-0.58626-0.37814-1.049-0.98633-1.1504-0.24863-0.0414-0.67225 0.19636-1.0117 0.27539h-2e-3c-1.7825-0.52918-3.7105-0.59528-4.4863 0.0254-1 0.9 0 2.4984 1 3.8984 0.16831 0.2188 0.30621 0.40962 0.4707 0.61523 0.20316 0.38115 0.43868 0.73245 0.5293 1.1856 0.3 1.5-0.29922 3.5008-0.69922 5.3008-0.3 1.9-0.30078 3.4992-0.80078 5.1992s-1.5 3.2992-2 5.1992c-0.35748 1.2869-0.4358 2.7137-0.46484 4.2051-0.8423 0.85658-1.6611 1.7132-2.3359 2.5957-1.3624 1.6543-1.976 3.1904-3.1133 4.3789-1.3938 0.32568-2.5896 0.69988-3.0859 1.3203-0.8 1-0.20078 2.6016 1.1992 3.6016 0.90009 0.69238 2.1513 1.1819 3.3242 1.7305 0.14659 0.68902 0.26453 1.4214 0.47656 2.2695 0.33694 1.3478 0.86201 2.8586 0.94922 4.1719-0.43358-0.39195-1.4181-1.5977-2.6484-2.1719-0.6725-0.269-1.3794-0.24891-2.1191-0.17969h-2e-3l-2e-3 -2e-3c-0.0664-0.0325-0.11025-0.0885-0.17773-0.11914-2.2-1-4.8008-1-6.8008-1-0.94428 0-1.7458-0.01-2.5488-0.0937-1.6231-1.2082-2.9642-2.9196-4.4512-3.1055-0.69696-0.041-1.4211 0.24592-2.0742 0.65234-0.55582-0.24722-1.1847-0.55774-1.3242-0.45312-0.0975 0.0975 0.24669 0.65827 0.49414 1.1133-0.51097 0.51266-0.91517 1.0952-0.99414 1.6875-0.1 1.5 1.4984 2.8992 1.3984 3.6992-0.2 0.8-2.1992 1.2008-3.6992 2.3008-0.4015 0.3212-0.68389 0.80997-1.0176 1.2305-0.72815 0.19252-1.4057 0.38507-1.9824 0.76953-1.2 0.9-1.7992 2.5-2.1992 4.5-0.3 2-0.30156 4.4-0.10156 6.5 0.1 2.2 0.50156 4.1984-0.39844 5.8984-0.8 1.6-2.8 3.0016-3.5 4.6016-0.3 0.85-0.30152 1.7742-0.0391 2.6992 0.1106 0.39839 0.44388 0.78734 0.64648 1.1856-0.0186 0.0315-0.0922 0.0848-0.10742 0.11523-0.125 0.25-0.12932 0.46367-0.0449 0.6543-0.062 0.12225-0.20575 0.22043-0.25586 0.3457-0.8 2-0.19922 4.3992 1.3008 5.1992 1.4808 0.78976 3.8331 0.20784 5.625-0.48047 1.6083 0.61549 2.5945 0.26163 3.2734-0.32031 0.29297-0.3418 0.49989-1.1659 0.73242-1.709 0.099-0.0731 0.27466-0.11214 0.36914-0.18945 1.2-0.8 2.1992-1.8 2.6992-3 0.5-1.1 0.50078-2.5016 0.30078-3.6016-0.1-1.2-0.50156-2.1984-1.1016-3.8984-0.7-1.6-1.6992-4.0008-2.1992-5.8008-0.24622-0.88641-0.36392-1.6737-0.34375-2.4258 0.0173-0.0193 0.0256-0.0554 0.043-0.0742 1.1-1.3 2.5016-1.7008 3.6016-2.8008 1.1523-1.1523 2.1702-3.0052 4.1934-4.0391h2e-3c0.49668 0.0146 0.93583-0.0126 1.5039 0.0391 2.2 0.1 4.8 0.50078 7.5-0.19922 0.35356-0.0917 0.69089-0.28318 1.041-0.40234 0.61499 0.11125 1.2988 0.23081 1.8457 0.31445 1.0625 0.1625 2.0141 0.23788 2.9141 0.0879 1.9-0.3 3.4992-1.6992 5.1992-3.1992 0.7129-0.62903 1.3643-1.2711 1.9609-1.8984 0.33187-0.13362 0.7842-0.24551 1.0391-0.40234 1.3-0.8 1.6992-2.1992 1.1992-3.6992-0.25-0.75-0.72422-1.5262-1.1367-2.3887-0.0601-0.12571-0.0567-0.29617-0.11328-0.42578v-4e-3c0.0505-0.37335 0.0342-0.67015 0.125-1.0957 0.2-0.9375 0.47656-1.9859 0.72656-3.0859 0.4192-1.7606 0.71263-3.7311 0.81445-5.6777 0.70141-1.9919 1.084-3.5432 1.084-5.3223 0-1.8-0.39844-3.8008-0.39844-5.8008 0-0.58007 0.11533-1.146 0.1875-1.7188 1.0795-1.3484 2.7722-2.7514 4.8125-4.082 1.1626-0.72665 2.3692-1.421 3.5234-2.0098 0.76053 0.37562 1.5312 0.78771 2.375 1.0098 1.8 0.5 3.8 0.1 6-1 2.1-1.2 4.5016-3.1992 5.1016-4.6992 0.7-1.5-0.30078-2.5008-0.30078-3.8008 0-1.4 0.99922-2.9992 0.69922-4.1992-0.4-1.2-1.9992-1.8-3.6992-3-0.58437-0.4125-1.0951-0.93258-1.6152-1.4356-0.10893-0.65088-0.29596-1.2436-0.38477-1.8652-0.075-0.55-0.15671-1.0872-0.22852-1.6152-0.1436-1.0561-0.24975-2.074-0.19336-3.0801 0.0282-0.50306 0.0977-1.0039 0.22266-1.5039 0.23638-0.94551 0.69204-1.8812 1.1934-2.7422 0.86914-1.085 1.754-2.1927 2.5059-3.2578 0.0663-0.094 0.08-0.18008 0.14258-0.27344 0.12505-0.15872 0.20988-0.39324 0.29101-0.56054 0.81788-1.3855 1.2829-2.7195 0.86719-3.9668-0.41328-1.2398-1.4111-2.3672-1.8027-3.3574 0.79676-1.1051 1.8095-2.0545 2.3027-3.041 0.36955-0.58072 0.52911-1.2608 0.58203-2.0234 0.51309-0.93903 0.84472-2.0116 0.91797-3.4766 0.2-2 0.19844-4.6016-0.10156-6.6016-0.4-2-0.99922-3.4-2.1992-4-0.45-0.2625-0.95634-0.42603-1.5137-0.46484z" />
</svg>