<?xml version="1.0" encoding="UTF-8"?>
<svg width="1800" height="900" version="1.1" xmlns="http://www.w3.org/2000/svg">
  <MetaInfo xmlns="http://www.prognoz.ru">
    <Geo>
      <GeoItem X="0" Y="0" Latitude="90" Longitude="-180"/>
      <GeoItem X="1800" Y="900" Latitude="-90" Longitude="180"/>
    </Geo>
  </MetaInfo>
  <path d="m1207.5 596.69c-0.468 0.019-0.9695 0.17225-1.457 0.50977-0.702 0.43197-1.4025 1.2086-1.8164 1.9629-0.5761 0.78483-1.0287 1.8054-1.1836 2.8379-0.101 0.67322-0.097 1.3451 0.014 1.9727-0.5398 3.1672-2.1116 8.3012-6.7168 11.34-0.015-3e-3 -0.03-3e-3 -0.045-6e-3 -0.019-5e-3 -0.034-7.8e-4 -0.053-6e-3 -1.5-0.3-2.8984-1.3008-3.8984-1.3008-0.3063 0-0.5658 0.12376-0.8028 0.30273-0.1001 9e-3 -0.1992-0.0218-0.2988-2e-3 -0.7496 0.19989-1.4735 0.7002-2.0234 1.3867-0.2754 0.34383-0.5069 0.73444-0.6758 1.1582-0.1687 0.42344-0.2758 0.87852-0.3008 1.3535-2.8786 6.6156-2.5245 12.604-2.4992 19.501 0.7 1 0.2992 3.3 0.9992 4.8 0.5233 1.3082 0.01 2.9775-1.0273 4.5156-0.9983 0.97643-2.3822 0.98915-3.6719 1.6836-1.3 0.6-2.6992 2.0016-3.6992 3.6016-0.075 0.12777-0.1282 0.26198-0.1992 0.39258-0.021 1e-3 -0.026 0.0269-0.047 0.0293-0.4907 0.23705-0.9717 0.4664-1.5547 0.77734-1.5 0.8-3.5008 2.1992-4.3008 3.6992-0.9 1.5-0.4984 3.1016 0.6016 4.1016 0.1095 0.0913 0.2549 0.14786 0.3769 0.22852 0.3048 0.33486 0.6419 0.60665 1.0215 0.66992 0.11 0.01 0.2358-0.0637 0.3516-0.0859 0.4663 0.11191 0.9514 0.14873 1.459 0.10156 0.065-5e-3 0.126 1.2e-4 0.1914-8e-3 0.5345-0.0733 1.0743-0.21597 1.5996-0.50781 1.9-1 3.4984-3.3984 4.8984-5.3984 0.1889-0.29058 0.3454-0.48462 0.5235-0.75586 0.028-0.012 0.05-0.0335 0.078-0.0449 2-0.8 4.3984-1.2008 5.8984-1.8008 1.5-0.7 2.1008-1.7 2.8008-3 0.7-1.4 1.2992-2.9984 1.6992-4.8984 0.088-0.52655 0.063-1.0354 0.082-1.5586v-6e-3c0.2583-0.56693 0.4497-1.1012 0.4161-1.5371-0.058-0.40649-0.2978-0.73418-0.6153-1.0352-0.076-0.24057-2.3937-2.6563-1.9632-4.7542l0.8812-7.2106c-0.6865-4.761 0.8008-3.4 1.3008-5.5 0.3903-1.7175 1.3536-3.2335 2.3652-4.5644 0.6771-0.42933 1.5268-0.73335 2.5332-0.83399 2-0.1 4.6016 0.5 5.6016 2s0.3984 3.8992 0.8984 4.6992c0.1263 0.2021 0.3233 0.31255 0.5547 0.3457 0.2283 0.0327 0.49-0.0119 0.752-0.125 0.5881-0.22746 1.2306-0.75032 1.6933-1.5215 0.8-1.5 0.8016-3.8992 0.1016-6.1992-0.6-2.3-2.0008-4.7-2.3008-4.5v0.0273s-0.4185-2.8293 3.2129-6.3945c0.7748-0.14455 1.5531-0.3659 2.2871-0.63281 2.2-0.8 3.8008-2.2008 5.3008-3.3008 1.5-1.2 2.9-2.2 2.5-3-0.3-0.9-2.3016-1.4984-4.1016-1.3984-1.9 0.2-3.5 1.1984-5 0.89844-0.1837-0.049-0.3524-0.19767-0.5332-0.27734 0.01-0.11621 0.066-0.25473 0.061-0.36133 0.035-0.2068-0.097-0.36795-0.1289-0.56836-0.022-0.0539-0.023-0.12252-0.051-0.17188-0.074-0.28398-0.055-0.60153-0.2461-0.82031-0.3-0.4-0.8012-0.69961-1.3887-0.78711-0.1469-0.0219-0.2991-0.0298-0.4551-0.0234z" />
</svg>