<?xml version="1.0" encoding="UTF-8"?>
<svg width="1800" height="900" version="1.1" xmlns="http://www.w3.org/2000/svg">
  <MetaInfo xmlns="http://www.prognoz.ru">
    <Geo>
      <GeoItem X="0" Y="0" Latitude="90" Longitude="-180"/>
      <GeoItem X="1800" Y="900" Latitude="-90" Longitude="180"/>
    </Geo>
  </MetaInfo>
  <path d="m1018.8 590.18c-0.4541 0.18918-0.9136 0.72156-1.209 1.3398-0.1203 8e-3 -0.3094-0.0418-0.4102-0.0234-1.2 0.2-1.2 0.79922-0.5 1.6992 0.01 9e-3 0.023 0.0167 0.029 0.0254 0.066 0.58237 0.2867 1.2607 0.5723 1.9746 0.7 1.5 1.6992 3.1016 1.1992 4.1016s-2.5008 1.4-4.3008 1c-1.763-0.27837-3.2079-1.1591-4.1347-1.9238-0.5315-0.77654-0.9765-1.5251-1.7637-2.0762 0-1e-3 -0.01-6.5e-4 -0.01-2e-3 -0.042-0.03-0.047-0.0704-0.094-0.0996-0.9-0.5-2.4992-0.9-4.1992 0-1.7 0.8-3.3008 2.8016-3.3008 4.6016 0 0.92145 0.3866 1.7688 0.9453 2.5606-0.5092 0.57219-0.8943 1.0346-0.8437 1.4394 0.2 0.9 2.1992 1.4984 3.6992 2.8984 1.5 1.3 2.4992 3.3016 4.1992 4.1016 0.082 0.0461 0.1973 0.0326 0.2832 0.0723 0.4679 0.91905 0.9813 1.8389 1.7168 2.627 1.3 1.5 3.3008 2.5008 4.3008 3.8008 1 1.4 1 2.9992 2 4.1992s3 1.8 4.5 2c0.2783 0.0371 0.5037-0.0152 0.7559-0.0137 0.3724 0.42949 0.8116 0.81093 1.2441 1.5137 0.8 1.3 2.2 3.6992 4 4.6992s4.1992 0.60156 6.1992-0.39844 3.6-2.6 3.5-4.5c-0.2-1.8-2.2-3.8-3.5-5.5-1.4-1.6-2-3.0016-3-4.6016-0.8198-1.3936-1.8472-2.967-1.9375-4.2129 0.3893-0.39743 2.2892 0.55398 3.9375 1.8144 1.6 1.4 3.0008 3 4.8008 3.5s4.2008-0.10078 5.3008-1.8008c1.2-1.7 1.1984-4.3 0.8984-6.5-0.4-2.2-1-3.8008-2.5-4.8008s-3.8992-1.4-5.6992-1.5c-1.8-0.2-3.2008-0.19922-4.8008-0.19922-0.8217 0-1.7152-8e-3 -2.6094-0.12109-0.1242-0.0185-0.2138-0.0551-0.3261-0.0801-0.2141-0.0342-0.4126-0.15275-0.625-0.20313-0.2003-0.10576-0.3753-0.22529-0.4395-0.39648-0.4-0.9 1.0016-2.4992 0.6016-4.1992-0.3-1.7-2.3-3.3008-4.5-4.3008-0.8167-0.3889-1.6535-0.59735-2.461-0.78711-0.2541-0.78048-0.5038-1.5029-0.8398-1.7129-0.2-0.125-0.4379-0.11719-0.6816-0.0156z" />
</svg>