<?xml version="1.0" encoding="UTF-8"?>
<svg width="1800" height="900" version="1.1" xmlns="http://www.w3.org/2000/svg">
  <MetaInfo xmlns="http://www.prognoz.ru">
    <Geo>
      <GeoItem X="0" Y="0" Latitude="90" Longitude="-180"/>
      <GeoItem X="1800" Y="900" Latitude="-90" Longitude="180"/>
    </Geo>
  </MetaInfo>
  <path d="m1207.3 345.02c-0.3936-5e-3 -0.7304 0.0508-0.9804 0.17578-0.5666 0.28328-0.7312 0.93838-0.9082 1.6914-0.057 0.0424-0.1421 0.0627-0.1934 0.10938-0.3636 0.30303-0.6022 0.70764-0.8066 1.1387-0.2293 0.43126-0.4593 0.85213-0.6465 1.3047-1.1744 0.93665-2.7615 1.7674-3.9453 2.5566-0.3003 0.20018-0.4331 0.38824-0.666 0.58594v2e-3c-0.1 0.046-0.2406 0.0579-0.3321 0.11133-0.55 0.3-0.9246 0.79961-1.2246 1.3496-0.3007 0.55068-0.525 1.1496-0.7754 1.6504-0.311 0.62192-0.6559 1.1619-0.9961 1.7871-0.277 0.21994-0.5458 0.44469-0.8046 0.81445-0.7 1-1.2993 2.4-1.1993 3.5 0.094 0.56619 0.4269 1.0356 0.8672 1.4277 0.2308 0.2508 0.5174 0.46457 0.8965 0.5957 0.3296 0.11406 0.7098 0.17578 1.1348 0.17578 1.6 0 4.0008-0.99922 5.3008-1.1992v2e-3c0.1568 0.18577 0.3501 0.3035 0.496 0.49805 0.6 0.85 1.0504 1.7734 1.5254 2.5859v2e-3c0.1658 0.28353 0.346 0.52727 0.5254 0.77539v2e-3c0.3039 0.85336 0.7233 1.6423 1.4492 2.0332 1.1038 0.50945 2.964 0.26339 4.6133 0.51172 0.7623 0.63647 1.2468 1.6668 2.086 2.5898 0.5 0.6 1.1496 1.149 1.9121 1.7363 0.7628 0.58779 1.6374 1.2125 2.5879 1.9629 1.8 1.5 3.8007 3.5 4.3007 5s-0.5007 2.4992-1.8007 3.1992c-1.4 0.6-2.9993 1-4.6993 1.5s-3.2992 1.1-3.1992 2.5c0.045 0.29008 0.2047 0.62168 0.4063 0.95703-0.3632-0.26605-0.7743-0.65625-1.0078-0.65625-0.9 0-0.5 2 0.5 3s2.6 1 2.5 0c-0.036-0.17926-0.3229-0.44563-0.4571-0.67188 0.6452 0.52232 1.3551 0.97647 2.0586 1.1719 1.9 0.5 3.4985-0.5 5.3985-1 0.6195-0.17209 1.2413-0.19102 1.8593-0.23242 1.0138 1.4808 2.954 3.0575 3.7422 4.7324 0.9 1.7 0.5 3.3008 0.5 5.3008 0 0.66277 0.031 1.3893 0.057 2.1035-0.842 1.949-2.4731 3.7412-3.5567 5.0957-0.5907 0.80552-0.9547 1.4621-1.0332 2.0566 0 6e-3 3e-4 0.0114-0.01 0.0176-0.1325 0.46588-0.018 1.0179 0.4375 1.625 0.4294 0.59036 1.206 1.2449 2.0175 1.668 0.7262 0.5535 1.68 0.98215 2.584 1.1328 0.1456 0.023 0.2488-4e-3 0.3906 0.01 0.1696 0.10341 0.3428 0.18367 0.5079 0.29101 1.4334 1.0034 2.4931 2.0369 3.2578 2.9512-0.021 0.0463-0.032 0.0954-0.055 0.14063-0.4945-0.0848-2.1369-1.0918-4.2031-1.0918-2.4 0-5 1.4-6 3-1 1.7-0.4 3.6984 1 4.3984 1.3 0.6 3.3007 0 5.3007 0.5 0.8046 0.20116 1.5385 0.6576 2.2129 1.1172-0.2467 0.78437-0.5175 1.6013-0.7129 2.3828-0.5 2-0.4992 3.6-1.6992 5-1.1 1.3-3.5015 2.3016-5.1015 3.6016-1.7 1.4-2.6993 3-2.1993 4.5 0.193 0.57892 0.7291 1.1567 1.2539 1.7461-0.01 1.0321 0.096 2.1055 0.4454 3.1523 0.8 2.6 2.8 5.0008 4 6.3008 0.4925 0.58206 0.7806 0.95469 0.9296 1.3106-0.01 0.34178-0.072 0.64305-0.1093 0.96679-0.091 0.13536-0.1604 0.26197-0.3203 0.42188-1 1-3.3985 2.6016-4.3985 4.1016-0.4779 0.71678-0.6287 1.4094-0.6855 2.1133-0.035 0.0361-0.081 0.0483-0.1153 0.0859-1.2 1.3-1.7992 3.7008-2.1992 5.8008-0.3 2.2-0.3 4.2 0 5.5 0.4 1.4 0.9985 1.9984 2.3985 1.3984 0.6338-0.34129 1.4449-1.0006 2.3652-1.6934 0.8885-0.30689 1.7963-0.62987 2.7363-1.0059 2.2526-0.90107 4.3667-1.7432 5.5059-1.5469 0.2577 0.0793 0.435 0.22082 0.6308 0.34766 0.084 0.10385 0.2073 0.17366 0.252 0.31445 0.01 0.0162 0.01 0.0345 0.012 0.0508v2e-3c0.2374 0.86194-0.1873 2.2998-1.0019 3.6328-1.0404 1.6474-2.6251 3.0786-3.3692 4.666-0.3858 0.27821-0.7094 0.66904-0.8301 1.2324-0.2435 1.055 0.2651 2.6002 1.2071 4.2031 0.027 0.0904 0.073 0.21353 0.094 0.29688 0.4 1.1-8e-4 1.5008 0.6992 2.8008s2.2993 3.7008 3.1993 5.3008c0.8 1.7 0.8015 2.6992 1.6015 3.6992 0.9 1 2.4985 1.9992 3.3985 2.6992 0.8 0.6 0.8015 1.0008 0.1015 2.3008-0.538 1.1656-1.7008 3.1042-2.6601 4.2363-0.8759 0.68815-1.7387 0.86179-2.4414 1.5644-0.9 0.9-1.4985 2.4992-0.8985 3.1992 0.3137 0.31369 0.9085 0.39658 1.6094 0.43945 0.132 0.35233 0.2808 0.6857 0.4844 0.98828 0.2179 0.34693 0.4757 0.65369 0.8047 0.87305 0.375 0.25 0.8184 0.40015 1.2871 0.49219 0.4682 0.0918 0.9612 0.126 1.4355 0.14453 0.9508 0.0376 1.8251 0.0116 2.2754 0.26172 0.175 0.10937 0.2351 0.2901 0.2598 0.49219-3e-4 5e-3 0 0.0104 0 0.0156 0 1e-3 1e-4 3e-3 0 4e-3 -2e-4 3e-3 0 6e-3 0 0.01-0.098 0.67813-0.3628 1.3272-0.666 1.9707v2e-3c-0.4119 0.74211-0.9144 1.5104-1.2891 2.3066-0.8 1.7-1.2 3.2992-1 5.1992 0.1423 1.2806 0.4518 2.7157 0.7109 4.127-0.9649 0.27082-2.2391 0.36856-2.9101 1.1738-1 1.2-0.6008 3.8 0.6992 6s3.6992 3.8 4.1992 5-0.9 1.8-1.5 3c-0.7 1.2-0.7 2.8008-0.5 4.3008 0.02 0.29806 0.069 0.59459 0.1055 0.88867v2e-3c-9e-4 3e-3 0 6e-3 0 0.01 0 8e-3 0.01 0.0253 0.01 0.0332 0.084 0.66707 0.119 1.3734 0.1661 2.0879-0.075 0.48798-0.1739 0.97132-0.1739 1.4805 0 0.31089 0.05 0.67796 0.072 1.0059-6e-4 4e-3 0 9e-3 0 0.0137-0.1057 0.70854-0.2182 1.4216-0.3457 2.2051-0.175 1.075-0.3262 2.1738-0.3262 3.1738 0 1.4442 0.2879 2.634 0.5371 3.7363-0.01 0.11073-0.03 0.25564-0.037 0.36523-0.1224 0.91777-0.1462 1.7702 0.1211 2.3027-1.756 1.6068-3.7354 2.7476-5.3281 3.5039-0.1003-0.10204-0.1878-0.21313-0.2969-0.3086-1.7-1.3-3.7-2.3008-5.5-2.3008-1.9 0-3.4984 1-3.8984 2-0.3 1 0.6992 2.0008 0.6992 3.3008 0 1.4-1 2.9992-2 4.6992-0.5555 0.9444-1.0762 1.8754-1.5117 2.8438-0.1824 0.16246-0.54 0.52514-0.6875 0.65625-0.8 0.8-0.8016 1.2-0.6016 2.5 0.043 0.55643 0.279 1.3332 0.4785 2.0664 0.1537 1.098 0.4713 2.0826 1.0215 2.6328 0.25 0.25 0.5371 0.41322 0.8574 0.5039 0.3208 0.091 0.6748 0.1098 1.0567 0.0723 0.7621-0.0751 1.6366-0.37567 2.5859-0.77539 1.0235-0.45488 2.1184-1.114 3.2344-1.8281 1.4004-0.41307 2.7755-0.91658 3.7656-1.9727 0.2637-0.29886 0.4658-0.66683 0.6738-1.0254 0-3e-3 0.01-5e-3 0.012-8e-3 0.4765-0.34651 0.9091-0.69757 1.3281-1.0625 0.7163-0.60544 1.3653-1.2293 1.7871-1.9043 0.5003-0.85058 0.7499-1.7747 0.7871-2.7129 0.038-0.9375-0.1363-1.8871-0.4863-2.7871-0.1227-0.3886-0.3995-0.71377-0.584-1.0781 0.082-0.49965 0.1327-0.96665 0.1367-1.3848 1.9809-1.4162 4.5096-2.766 6.7129-3.834 0.5109 0.3062 1.0475 0.538 1.6328 0.59961 0.9 0.1 1.8512-0.19961 2.6387-0.47461s1.4121-0.52617 1.6621-0.32617c0.5 0.3-0.4992 2.3-0.1992 4 0.2 0.8 0.6988 1.5512 1.2363 2.0137 0.3029 0.2606 0.607 0.39219 0.8867 0.42774 0.421 0.14897 0.8524 0.20967 1.2754 0.0586 1.3-0.5 2.3008-2.8992 2.8008-5.1992 0.5-2.3 0.5008-4.6992-0.1992-6.1992-0.2766-0.69132-0.7373-1.1753-1.2852-1.5332-0.6345-1.093-2.2909-1.6372-4.0156-2.0684-1.15-0.2875-2.2207-0.5772-3.1426-0.93164-0.7367-1.3326-1.2738-3.0762-1.6582-4.7676-0.1418-0.62418-0.162-1.017-0.2832-1.5605 0.052-0.54372 0.1201-1.0905 0.207-1.6445 0.1266-0.79622 0.3047-1.608 0.6778-2.4942 0.9-1.8 2.4984-3.8008 2.8984-5.8008 0.2004-1.3361-0.2138-2.6362-0.7265-3.8828 0.079-0.20661 0.201-0.42546 0.2265-0.61719 0.075-1.1184-0.8185-1.9637-1.7637-2.8164-0.4474-1.0217-0.8043-2.0704-0.9355-3.3828-0.06-0.60203 0-1.295 0.023-1.9648 1.0826-0.87304 2.545-1.7513 3.6778-3.0352 1.5-1.6 2.1-4.0016 3.5-4.6016 1.3-0.7 3.3008 0.3 5.3008 0.5 1.3516 0.0676 2.6983-0.15842 3.9882-0.082 1.0548 1.2757 1.6791 2.8264 2.8125 3.582 0.9856 0.65711 2.313 0.67258 3.2246 0.34766 0.146 0.12697 0.3388 0.36253 0.4747 0.45312 1.2 0.8 1.8 0.20078 1.5-1.1992-0.3-1.3-1.7008-3.3-2.3008-5.5-0.1368-0.41037-0.2046-0.80746-0.3028-1.2266 0.1497-1.3033 0.3217-2.4858-0.1972-2.875-0.1643-0.12784-0.4298-0.15638-0.6875-0.19336-0.2028-0.42489-0.4535-0.78496-0.8125-1.0059-0.9329-0.53312-2.3712-0.46869-3.5117-0.67578-0.2579-1.2945-0.1041-3.0416-0.6875-3.625-0.1954-0.21981-0.491-0.29417-0.8379-0.30078 0.01-0.0347 0.152-0.17916 0.1386-0.19922-0.01-0.0364-0.2191 0.0621-0.2636 0.0527 0.032-0.77097 0.027-1.4989-0.2364-1.9512-0.6-1.1-3-0.50078-4-0.80078s-0.6007-1.7 0.1993-3.5c0.4143-0.93198 0.9814-1.906 1.5507-2.9512 8e-4 -1e-3 0-3e-3 0-4e-3 0.5656-0.9422 1.1535-1.8055 1.6446-2.3457 0.2295-0.27538 0.4099-0.27438 0.6093-0.42578 0.1654-1.3e-4 0.3368-0.0452 0.4922 0.0254 1.2 0.5 2.1985 2.9 3.8985 3 0.3131 0.0391 0.6728-0.0642 1.0293-0.17187 0.2662 0.11084 0.5309 0.21195 0.7714 0.17187 0.5362-0.0447 0.9331-0.58825 1.2208-1.3106 0.7309-0.58159 1.4402-1.2402 1.7792-1.791 0.8-1.4 0.1993-1.9992 0.1993-3.6992 0-1.4984 0.4941-3.5707 1.0839-4.8926 0.644-0.28202 1.2824-0.58485 1.9161-0.80664 0.1239-0.0372 0.2092-0.0696 0.33-0.10547 0.2587 0.0519 0.4972 0.22665 0.9707 0.60547 1 0.9 3 2.4992 4 2.1992s1-2.6992 2-4.1992 2.9993-2.1 4.1993-3c1.1-0.8 1.5-1.8016 3-3.1016 1.5-1.4 4.1-2.9992 5.5-2.6992 1.0764 0.24839 1.3438 1.9633 1.9433 3.6719 0.01 0.19755 0.057 0.44124 0.057 0.6289 0 2-0.4 3.3992 0.5 3.6992 0.4953 0.18573 1.4226-0.0386 2.3632-0.40039 0.5083 0.34072 1.0541 0.70117 1.4375 0.70117 0.25 0 0.4375-0.10351 0.5625-0.26758 0.3595-0.41975 0.4465-1.3616 0.5489-2.3652 0.3329-0.6237 0.5085-1.3481 0.3886-2.3672-8e-4 -6e-3 0-0.0154 0-0.0215 0.2332-1.0528 0.5889-2.0676 1.3047-2.9785 1.2-1.3 3.2-2.3016 4.5-3.6016 1.4-1.4 1.9993-2.9984 3.6993-4.3984 1.6412-1.255 4.0861-2.1879 5.6054-2.2539 0.3991 0.22931 0.8096 0.4381 1.1953 0.65234 0.671 0.35317 1.2432 0.64006 1.8262 0.9375 0.027 0.0203 0.044 0.0426 0.072 0.0625 0.2303 0.13819 0.523 0.27974 0.7949 0.41016 0.7074 0.40404 1.3348 0.82448 1.8066 1.3906 0.1726 0.2071 0.2366 0.49369 0.375 0.72461 0.1852 1.3325-0.6892 3.5806-0.9765 5.9746-0.3631 2.2696-0.1469 4.5609-0.6133 6.3965-9e-4 4e-3 -1e-3 8e-3 0 0.0117-0.3006 0.22405-0.6049 0.43894-0.8848 0.69336-1.2 1-2.1992 2.3992-2.1992 3.6992 0 0.51857 0.2161 1.0681 0.4199 1.625 0.1562 0.73861 0.3019 1.4727-0.1191 2.0742-0.3 0.5-1.0512 0.90078-1.7637 1.3008s-1.3871 0.80078-1.5371 1.3008c-0.3 1 1.2992 2.3992 2.1992 3.6992 0.7434 1.208 0.8426 2.5195 1.4883 3.9805 0 1.4784 0.2659 2.9999 1.0117 3.8203 1 1.2 2.6016 1.1992 4.1016 0.69922 0.8826-0.2942 1.7566-0.68637 2.6719-0.98047 0.08 3e-3 0.1434-0.0293 0.2265-0.0195 1.6 0.2 4.0008 1.7992 5.8008 2.6992 1.8 0.8 3.1992 0.80156 4.6992 1.6016 1.5 0.9 3.1008 2.4984 4.8008 3.3984 1.7 0.8 3.2992 0.80156 4.6992 0.10156 1.3-0.6 2.3-2.0016 2.5-3.6016 0.1-1.7-0.5-3.6992-1.5-5.6992s-2.3992-4.0008-2.1992-5.8008c0.2-1.9 1.7992-3.5 1.6992-5-0.1358-1.0183-1.0849-2.0599-2.0664-3.2051 0.049-0.28137 0.1344-0.51508 0.168-0.79492 0.4-2.5 0-4.8992-0.6016-6.1992-0.6888-1.2792-1.6783-1.6971-3.1386-2.7578-0.4637-2.1238-1.0224-4.1175-2.0606-5.2422-1.2-1.3-2.7992-1.7008-4.1992-2.3008-0.4062-0.21874-0.7353-0.5386-1.0859-0.82813-0.1193-0.15837-0.2857-0.42763-0.4141-0.57031-0.1572-0.19653-0.4735-0.37755-0.6485-0.55078-0.3325-0.44014-0.6736-0.85522-0.9531-1.4492-0.9-1.6-1.4984-4-1.8984-6-0.3-2-0.3016-3.6016-1.1016-4.6016-0.9-1-2.5-1.3992-3.5-2.1992-0.1812-0.14494-0.2186-0.37435-0.3574-0.55273 0.1695-1.5637 0.4948-3.0281 1.1172-3.8574v-6e-3c0.3695-0.23725 0.7705-0.54609 1.1875-0.81445 0.7023-0.31462 1.4607-0.57016 2.1484-1.0703 1.2-0.9 2.1992-2.4992 3.1992-4.1992s1.9993-3.3008 1.6993-4.8008c-0.3893-1.46-1.888-2.8202-1.877-3.9062 0.6501-0.73351 1.5068-1.5265 1.9785-2.293 0.053-0.0769 0.065-0.15864 0.1094-0.23633 0.023-0.0292 0.069-0.0345 0.09-0.0644 0.029-0.0413 0.014-0.10576 0.039-0.14844 0.2611-0.24959 0.5852-0.48523 0.7617-0.75 0.9-1.1 0.4992-2.5016 0.6992-4.1016 0.1001-0.85048 0.2997-1.7748 0.625-2.7129 0.325-0.9375 0.775-1.8871 1.375-2.7871 1.2-1.9 2.7993-3.5 4.1993-5.5 0.085-0.13041 0.1597-0.27668 0.2422-0.41016 0.6598-0.31281 1.3405-0.62523 2.0585-1.0898 1.7-1.2 3.3008-3.1992 5.3008-4.6992s4.4-2.4992 6.5-4.1992c2.2-1.6 4.1985-4.0008 5.8985-4.8008 1.5404-0.77019 2.8826-0.26989 3.6953-0.94336v-2e-3c0.2425-0.0328 0.1937-0.0726 0.4101-0.10742 0.4463-0.09 0.8547-0.18612 1.2129-0.32032 0.076-0.0434 0.5069-0.0843 0.4785-0.12695 0-5e-3 -0.054-0.0181-0.059-0.0234 0.3866-0.18835 0.6956-0.40596 0.8575-0.67578 0.7-1-0.3008-2.6-0.3008-4.5 0-1.8 1-3.8016 1-5.6016 0-1.9-1.0008-3.4984-0.3008-5.3984 0.6-1.8 3.0008-3.8008 3.8008-5.8008 0.5082-1.2706 0.4051-2.4825-0.062-3.2402 0.016-0.0209 0.048-0.0396 0.062-0.0605 1.2-1.7 0.7992-3.6984-0.3008-5.3984-1.2-1.6-3.1984-3-4.3984-2.5-1.1 0.5-1.5016 2.9-1.6016 5-0.1126 1.2389-0.1788 2.3832-0.3789 3.2988-0.9265 0.58939-1.8346 1.1795-2.7461 1.6621-0.8879-0.22741-1.68-0.6683-2.2734-1.2617-1.1-1.2-1.5008-2.7992-2.3008-3.6992-0.8-0.8-2.2-0.8-4-0.5-1.8 0.4-4.1992 0.99922-5.6992 0.19922s-2.1008-3.2-3.3008-5-2.8008-3.2-4.8008-4.5-4.3984-2.6992-6.3984-2.1992c-0.3414 0.0853-0.658 0.29338-0.9785 0.48047-0.047-0.0135-0.074-0.0775-0.1231-0.082-1.2-0.2-3.1984 1.8016-3.8984 3.1016-0.1802 0.42053-0.1603 0.70702-0.1289 0.98633-0.1429 0.0909-0.3401 0.11347-0.4727 0.21289-1.7 1.2-2.6992 2.8008-2.6992 4.3008 0 0.35239 0.2092 0.65732 0.3105 0.99219-0.215 0.49764-0.3461 0.93645-0.4101 1.332-0.193 0.55864-0.5114 1.1247-0.5996 1.6758-0.3 2.5 0.6984 4.9 2.3984 5.5 1.6 0.7 4.0008-0.3 5.8008-0.5 1.8-0.1 3.1992 0.49922 4.1992 1.1992s1.6 1.3 2 3c0.3 1.7 0.3016 4.2992 0.6016 5.6992 0.4 1.3 0.9984 1.3 1.8984 2.5 0.3608 0.49609 0.7354 1.3037 0.9941 2.1543-0.058 0.50278-0.109 1.0006-0.2636 1.5957-0.3863 0.93242-0.8326 1.8044-1.4297 2.5508-1.2 1.5-2.7992 2.4992-4.1992 3.6992-0.2821 0.23868-0.4865 0.54268-0.7383 0.80859-0.7284 0.66779-1.3743 1.2859-2.2617 1.793-1.3 0.9-3.3016 1.4992-4.6016 2.6992-1.4 1.2-1.9992 2.8-2.1992 4.5-0.079 0.67224-0.079 1.3053-0.1192 1.9277-0.1979 0.11641-0.4013 0.22258-0.58 0.37305-0.8376 0.79104-1.4807 1.8688-1.9317 2.9707-1.4713 0.74397-3.295 1.4058-4.5683 2.5293-1.6 1.5-2.0016 3.8992-1.1016 4.6992 0.8 0.8 2.8 0.19922 5-0.80078 0.5161-0.24576 1.0276-0.4842 1.5547-0.74414 0.5207 0.24288 1.0589 0.46857 1.7461 0.54492 0.8938 0.0993 1.9342 0.0513 2.8301 0.0996 0 0.90209-0.1761 1.9763-0.3301 2.9004-0.3 1.8-0.7 3.2-1.5 4.5s-2.1992 2.7008-3.1992 3.8008c-0.8515 1.0218-1.3266 2.0137-1.4746 3.4863-3e-4 2e-3 0 6e-3 0 8e-3 -0.01 3e-3 -0.016 5e-3 -0.022 8e-3 -0.2018 0.0942-0.2548 0.24412-0.4239 0.34961-0.1288-0.15281-0.2029-0.0888-0.1757 0.14454-0.3586 0.25444-0.7907 0.47941-0.9766 0.80468-0.3 0.525-0.3746 1.1504-0.2246 1.9004 0.3 1.5 1.7 3.5 1 4-0.5941 0.42433-2.597-0.25951-4.6445-0.95703-0.4185-0.56057-0.8172-1.1657-1.1563-1.8438-0.9-1.7-1.5-3.6992-2-5.6992-0.1521-0.60867-0.2765-1.1215-0.4101-1.6738 0.4434-0.31069 0.7164-0.81431 0.5117-1.3262-0.3-1-2.3-2-3-1.5-0.5616 0.46798-0.055 2.2075 0.8301 2.8438-0.14 0.49124-0.262 0.94804-0.4317 1.457-0.7 1.9-1.7 3.4992-3 3.6992-0.3346 0.0478-0.6763-0.12449-1.0215-0.20898-0.5959-0.29483-1.1177-0.4394-1.5625-0.34375-0.5024-0.14178-0.968-0.21664-1.3144 0.0527-0.8 0.7-0.8016 3.3-1.6016 4.5-0.9 1.2-2.4992 0.79922-4.1992 0.19922-1.5743-0.64823-3.0073-1.5814-3.9336-2.7441-0.081-0.88057-0.1091-1.7293 0.1328-2.4551 0.5-1.5 2.1-2.5 3-4 0.3772-0.7072 0.5585-1.5364 0.6953-2.3926 0.091-0.10393 0.2208-0.2018 0.3047-0.30665 1.1-1.5 1.5016-3.1008 1.1016-4.8008-0.064-0.36565-0.2605-0.67304-0.3828-1.0215 0.024-0.48336-0.01-0.92976-0.2188-1.2793-0.1852-0.26456-0.4642-0.47693-0.7832-0.64453-0.3005-0.38927-0.5916-0.82758-0.916-1.0547-1-0.7-2-0.3-2.5 1s-0.5 3.7-1 5.5-1.5 3.1992-3 3.1992c-1.1083 0-2.4839-0.76797-3.4121-1.8125-0.588-1.2645-0.4612-3.0391-0.3399-4.8555 0.2731-0.6165 0.4915-1.241 0.9512-1.832 1.3-1.9 3.3-3.5 5-4.5 1.6-1 3.0008-1.4 4.8008-1.5 1.8-0.2 4.2-0.19922 5.5-0.69922s1.6992-1.5008 2.6992-2.8008c1-1.4 2.6-3 2.5-4.5-0.05-0.375-0.2121-0.74375-0.4433-1.1172-0.6938-1.1203-2.0059-2.2812-2.7559-3.7812-1-2-1.0008-4.6-1.3008-6.5-0.4-1.8-0.9984-2.8008-1.8984-4.3008-0.8-1.5-1.8016-3.5-3.1016-5-1.4-1.5-2.9984-2.5008-4.8984-3.3008-1.8-0.9-3.8016-1.5-4.6016-1-0.9 0.5-0.4984 2.1016-0.3984 4.1016 0.052 0.51709 0.029 1.0545 0.045 1.5957-0.04 0.0472-0.1082 0.0537-0.1465 0.10351-1 1.3-1.3992 3.6992-2.1992 4.1992-0.393 0.24563-0.9344 0.0278-1.6289-0.38281-0.7383-0.71301-1.3204-1.8166-2.0703-3.3164-0.8-1.8-1.8008-4.1992-1.8008-6.1992 0-2 1-3.6008 0.5-4.3008s-2.4992-0.30078-3.6992-1.3008c-1.1-1-1.5016-3.4-1.6016-5.5-0.2-2.2-0.2-4.1984 0-5.8984 0.1-1.6 0.5-3.0016-0.5-4.1016-1-1.2-3.3992-2.1992-5.1992-2.6992-1.0655-0.29596-1.9928-0.38477-2.9023-0.39257-0.5472-0.0813-1.1472-0.10743-1.7969-0.10743h-5.1016c-2 0-4.3992-7.8e-4 -6.1992 1.1992-1.0135 0.61939-1.8969 1.6208-2.7461 2.4219-0.4745-0.16443-0.9019-0.39432-1.4531-0.42188-1.0609-0.10608-2.2916 0.11293-3.541 0.23438-0.702-0.50202-1.4065-1.0457-2.2598-1.4336-1.2354-0.56154-2.557-0.83801-3.8145-1.123-0.8495-1.0778-1.5719-2.349-2.1855-3.5762-1.2-2.3-1.8-4.3008-3-5.8008s-2.7992-2.5008-4.6992-3.3008c-1.8-0.9-3.8016-1.4992-5.6016-1.6992-1.9-0.2-3.4992 0.2-4.1992 0.5-0.1152 0.0494-0.092 0.13982-0.1563 0.19727-0.2095-0.14728-0.3081-0.067-0.3496 0.19336-0.095 0.047-0.2009 0.0592-0.2949 0.10937-1.5 0.8-2.8984 2.1992-3.8984 1.6992s-1.6016-2.8984-2.6016-3.8984c-1-0.99999-2.3992-0.6-4.1992-0.5-0.1443 0.016-0.3158 0.0348-0.4668 0.0488-0.4877-0.21337-0.9625-0.51945-1.4316-0.63672-0.475-0.11875-0.9246-0.18477-1.3184-0.18945z" />
</svg>