<?xml version="1.0" encoding="UTF-8"?>
<svg width="1800" height="900" version="1.1" xmlns="http://www.w3.org/2000/svg">
  <MetaInfo xmlns="http://www.prognoz.ru">
    <Geo>
      <GeoItem X="0" Y="0" Latitude="90" Longitude="-180"/>
      <GeoItem X="1800" Y="900" Latitude="-90" Longitude="180"/>
    </Geo>
  </MetaInfo>
  <path d="m1060.4 541.06c-1.3641-0.0422-2.8278 0.46367-4.1778 1.1387-1.7108 0.72036-3.128 1.625-3.6953 2.8887-0.2518 0.0664-0.568 0.1419-0.8047 0.21289-2 0.7-3.3984 1.6984-3.3984 2.8984 0 1.1 1.4 2.5016 1 4.1016-0.3 1.7-2.3 3.7-4 5.5-1.6 1.9-3.0016 3.5-4.1016 4.5-1.2 1-2.1992 1.3984-3.6992 2.3984-0.8179 0.54527-1.7305 1.2778-2.5215 2.0664-0.41 0.42662-0.7233 0.86605-0.9551 1.3125-0.1503 0.24422-0.4427 0.48071-0.5234 0.72266-0.5 1.5 0.4992 2.8984 0.6992 4.8984 0.071 1.423-0.2317 3.1384-0.9414 4.5566-0.1448 0.22316-0.2885 0.4513-0.457 0.54492-0.8 0.5-1.8-1.1016-3-2.6016-1.1-1.5-2.5008-2.8992-4.3008-4.1992-1.757-1.2689-4.0253-2.6119-4.2285-3.2344 0.073-0.16951 0.1094-0.34521 0.2012-0.5039 0.564-0.31677 1.8763-0.47676 2.8281-1.0625 1.4-0.9 1.9984-2.5 1.3984-4-0.088-0.18812-0.2473-0.3594-0.373-0.54102 0.065-1.2431-0.2702-2.5099-0.8262-2.8574-0.4481-0.28005-1.1051 0.0604-1.8418 0.56836-0.492-0.29872-0.9662-0.65011-1.459-0.86914-1.9-0.8-3.4984-1.2008-4.3984-0.30078-0.8 0.8-0.8016 2.8-2.1016 4-0.6509 0.51144-1.5976 0.85309-2.6367 1.1523-0.948-0.0263-1.8985-0.10918-2.7617-0.15234-2-0.2-3.6008-0.19844-5.3008 0.60156-1.7 0.9-3.3008 2.4984-3.3008 4.3984 0 0.0754 0.041 0.15448 0.047 0.23047-0.5287 0.78148-0.76718 1.5492-0.2461 2.0703 0.2635 0.26353 0.7309 0.45016 1.2559 0.58398 0.1455 0.059 0.2389 0.12874 0.4003 0.18555 0.5139 0.57787 1.0608 1.1572 1.6446 1.4297 0.7907 0.3163 1.5539 0.27448 2.3183 0.041 1.7827 0.81835 3.251 2.0378 4.0801 2.959 0.8 1 0.8016 1.6008 1.6016 2.8008 0.9 1.2 2.5 2.7992 4 4.1992 1.5 1.3 2.8992 2.3016 4.6992 2.6016 1.8 0.4 4.2-7.8e-4 6.5-0.30078 1.15-0.15 2.3246-0.32539 3.5371-0.58789s2.4637-0.61133 3.7637-1.1113c1.6703-0.61863 3.3917-1.532 5.0312-2.5625 0.67-0.35985 1.3878-0.74859 1.9688-1.0391 2-1 3.4-1.4 3.5-3 0.032-0.27361-0.065-0.68173-0.084-1.0098 0.045-0.0651 0.1138-0.12435 0.1582-0.18945 0.75-1.1 1.3758-2.1992 1.9258-3.1992 0.3738-0.62308 0.7019-1.0759 1.043-1.582 0.3294 0.11082 0.6306 0.15431 0.957 0.28125 0.9891 0.36442 1.938 0.58866 2.8633 0.88477 0.4869 0.24231 1.1503 0.39123 1.7871 0.55468 0.019 0.0194 0.03 0.0413 0.049 0.0606 1.5 1.5 3.4992 2.5008 5.6992 2.3008 2.1-0.1 4.5-1.5016 6.5-1.6016 2-0.2 3.6008 0.80156 5.3008 1.1016 1.7 0.4 3.3-2e-3 5-0.10156 0.1727-0.0203 0.3127 0.0112 0.4824-4e-3 0.1031 0.0263 0.2017 0.0737 0.3184 0.10547 0.8906 0.29686 2.2201 0.70869 3.3379 1.5938 0.3607 1.2289 0.2349 3.0675 0.6621 4.6055 0.5 1.8 1.8984 3.2008 3.3984 4.8008 1.5 1.7 3.1008 3.6984 4.3008 3.8984 1.2 0.1 1.8008-1.4984 3.3008-2.3984 1.5-0.8 3.8992-0.80156 5.1992-1.6016 1.3-0.9 1.7-2.4984 0.5-3.8984-1.2-1.3-3.7992-2.3-5.6992-3.5-0.7708-0.47102-1.2964-0.99361-1.7031-1.4883 0.054-0.65016 0.092-1.2405 0.3398-1.8711 0.9655-0.3846 2.5699-0.53723 3.8633-0.94141 1.7-0.5 2.6992-1.4992 4.1992-2.6992 1.5-1.1 3.5008-2.5 5.3008-2.5 1.9 0 3.5 1.3992 5 1.6992 0.8396 0.16792 1.633 0.0708 2.3222 0.0781 0.1563 0.0849 0.2929 0.22144 0.4512 0.29883 0.448 0.25724 0.8372 0.60412 1.2813 0.84375 0.5758 1.059 1.034 2.7546 1.9453 4.0801 1.0441 1.4792 2.6568 2.3504 3.7265 2.0449 0.082 0.1289 0.196 0.34856 0.2735 0.45508 0.9 1.2 1.5 1.1992 2-0.30078s0.9-4.5008 2-5.8008c0.055-0.0641 0.1274-0.0838 0.1855-0.14063v-2e-3c0.8338-0.1704 1.7362-0.29173 2.5098-0.75586 0.4482-0.23903 0.8346-0.6075 1.1855-1.0234 0.032-0.0327 0.086-0.0419 0.1153-0.0781 0.052-0.0578 0.062-0.1598 0.1054-0.22656 0.6921-0.94473 1.1664-2.1336 1.293-3.2734 0.1-1.9-0.5-3.4984-1-5.3984-0.5-1.8-0.8984-3.8008-0.8984-5.3008s0.4-2.5008-0.5-3.8008c-0.8-1.4-2.8016-3-4.6016-4.5-0.9768-0.77114-1.8694-1.5017-2.7148-2.1113-0.2704-0.21279-0.6177-0.49146-0.8516-0.66211-0.091-0.0991-0.2469-0.34062-0.332-0.42578-0.5819-0.58189-1.0451-0.74323-1.5137-0.70703-0.4003-0.0913-0.7769-0.0102-1.2324 0.37695-0.1879 8e-3 -0.3775-0.0705-0.5664-0.0449-0.7375 0.1-1.4891 0.32422-2.2891 0.57422-1.6626 0.48899-3.6101 1.0732-5.3789 1.5664-0.623-0.098-1.2742-0.20494-1.8203-0.26562-1.6488-0.1832-2.9714 0.0734-4.4102-0.25586-6e-4 -1.5e-4 0 1.5e-4 0 0v-2e-3c-1.063-0.75974-2.0717-1.645-2.8867-1.9414-0.5499-0.13748-1.0562 0.0151-1.5703 0.2793-0.2665-0.0797-0.6084-0.2793-0.8281-0.2793-1.0123 0-1.4768 1.188-2.3946 2.2344-1.0471 0.55366-2.1169 1.0595-3.1054 1.7656-1.3 1-2.3 2.3992-3.5 2.6992-1.1 0.3-2.5016-0.29922-4.1016-0.19922-1.7 0.2-3.7 1.2-5.5 0.5-1.9-0.6-3.5-3.0016-4.5-4.1016-1-1.2-1.4-1.1992-2.5-2.1992-0.6003-0.50025-1.3999-1.2494-2.2754-1.9121-0.437-0.33101-0.8926-0.64145-1.3515-0.88672-6e-4 -3.1e-4 0 3.1e-4 0 0-0.4594-0.24538-0.9211-0.42695-1.3711-0.50195-0.621-0.13074-1.2105-0.0314-1.7988 0.13867-0.2385-0.16213-0.4535-0.42875-0.7012-0.53711-0.425-0.15-0.8676-0.22617-1.3222-0.24023z" />
</svg>