<?xml version="1.0" encoding="UTF-8"?>
<svg width="1800" height="900" version="1.1" xmlns="http://www.w3.org/2000/svg">
  <MetaInfo xmlns="http://www.prognoz.ru">
    <Geo>
      <GeoItem X="0" Y="0" Latitude="90" Longitude="-180"/>
      <GeoItem X="1800" Y="900" Latitude="-90" Longitude="180"/>
    </Geo>
  </MetaInfo>
  <path d="m1179.8 389.3c-1.8 0-3.8008 0.39922-5.8008 0.69922s-3.9992 0.7-5.6992 2c-1.6 1.3-3.0008 3.7-4.3008 6s-2.7 4.7-3.5 6-1.1992 1.7-1.1992 3c0 0.28205 0.091 0.75275 0.1289 1.123-0.8124 0.64116-1.06 2.2292-0.7305 3.877 0.1507 1.0048 0.4791 2.0085 0.8946 2.8613-0.01 2.1116-0.5895 4.9669-3.0645 7.4277-0.5161 0.0475-0.9338 0.33723-1.0293 0.91016-0.015 0.0836 0.054 0.23782 0.082 0.35742-0.4317 0.30755-0.7803 0.66413-0.8828 1.1426-0.4 1.3 1.0016 3.3016 1.1016 5.1016 0.07 0.66855-0.1084 1.2568-0.2481 1.8555-0.3615 1.0625-1.0805 1.9597-2.0527 2.543-1.5 0.8-3.4992 0.80156-5.1992 1.1016-1.6 0.4-3 0.99922-4 2.1992s-1.6008 2.7992-2.8008 4.6992c-1.2 1.8-2.8 3.8008-4 5.3008-0.4355 0.54442-0.66 0.92797-0.9805 1.3789-1.6289 0.45124-3.0597 0.72217-4.5195 0.12109-1.7-0.7-3.3008-2.3-5.3008-3s-4.4-0.3-4.5 1c-0.2 1.3 1.8 3.6992 3 5.1992 1.1 1.5 1.5008 2.1 0.3008 2.5-1.2 0.3-3.8008 0.3-4.3008 1.5-0.1938 0.42642-0.048 1.0668 0.1387 1.7441-0.492-0.17009-1.0371-0.38366-1.0371-0.24414 0 9e-3 0.068 0.0915 0.072 0.10351-0.109-0.0191-0.2321-0.059-0.3378-0.0723-0.486-0.0609-0.936-0.0547-1.336 0.0703-1.7 0.5-2.6992 2.9-3.1992 4-0.5 1.2-0.5008 1.1984-0.3008 1.8984 0.1 0.6 0.5016 2 0.6016 4 0.1835 1.8355 0.1269 4.14-0.4903 6.0586-0.8006 0.78815-1.9157 1.2227-2.8105 2.043-1.0755 1.0755-1.6214 2.7848-1.373 4.3535-0.4076 0.911-0.5595 1.784 0.072 2.3457 0.469 0.46898 1.4058 0.75712 2.4981 0.95117 0.4913 0.30457 0.9363 0.671 1.5019 0.84961 1.8 0.7 3.8008 0.69922 5.8008 0.19922 1.2074-0.30185 2.3924-0.75226 3.4238-0.97852 0.4809 0.0777 0.9248 0.19 1.3321 0.33399 0.5182 0.20645 1.0109 0.43436 1.3554 0.79297 0.1003 0.25047 0.1236 0.5381 0.1719 0.8164 0.09 0.62606 0.1245 1.2938-0.084 1.8359-0.5 1.4-1.8984 1.9992-1.3984 3.1992 0.3531 0.84746 1.6653 1.9541 3.0332 3.166 0.01 7e-3 0.014 0.0127 0.021 0.0195 0.2194 0.72104 0.4797 1.3776 0.8437 1.8144 0.2544 0.3053 0.5502 0.50446 0.8692 0.65039 0.3249 0.15267 0.6756 0.25221 1.039 0.33594 1.2427 1.4352 2.3225 2.9051 3.0918 4.2129 0.6176 0.98817 1.0583 1.9313 1.4414 2.9082-0.059 0.91716-0.023 1.7912 0.3262 2.5703-0.032 0.0187-0.1423-0.0256-0.166-2e-3 -0.2 0.2-0.1016 0.57344 0.3984 1.0234 0.1453 0.11625 0.4453 0.21779 0.6465 0.33789 0.3328 1.2352 0.711 2.3781 1.3535 2.7637 1 0.7 2.6008-0.30078 4.3008-0.80078 0.1656-0.0487 0.3112-0.0745 0.4746-0.11523 0.027-6e-3 0.069-0.0147 0.096-0.0215 1.004-0.24391 1.9219-0.53898 2.7637-0.93359 1.4874-0.45749 3.3072-1.0316 4.666-2.2305 1.2363-1.0909 1.8932-2.4793 2.543-3.5606 0.9767-9e-3 1.9667 0.11267 2.7578 0.16211 0.7698 0.0906 1.3746 0.14422 1.9687 0.23633 0.9966 1.1125 1.9092 2.3853 3.0313 3.1621 1.4 0.8 2.9984 0.8 4.8984 2 1.8 1.1 3.8 3.5016 5 5.1016 1.1 1.7 1.5016 2.6992 2.1016 4.1992 0.6058 1.2982 1.2925 2.8932 1.3105 4.0977-0.5496 0.29204-1.1082 0.59224-1.8105 0.70312-1.8 0.4-3.8 0-5 0-1.1 0-1.5008 0.39922-2.8008-0.30078s-3.7008-2.3008-5.8008-2.3008c-0.3603 0-0.6965 0.0977-1.039 0.17383-0.5505-0.17657-1.0606-0.31213-1.502-0.35743-0.033-4e-3 -0.071-0.0144-0.1035-0.0176-0.4443-0.0337-0.8257 8e-4 -1.0547 0.20117-0.1882 0.14118-0.291 0.38827-0.3242 0.69922-0.04 0.30229-3e-4 0.66979 0.094 1.0684-0.2532 0.29284-0.4183 0.58211-0.4687 0.83398-0.032 0.32127 0.1542 0.57021 0.4199 0.80078 0.037 0.0309 0.082 0.0618 0.1231 0.0918 0.2697 0.20219 0.6705 0.41452 1.0898 0.60156 0.1276 0.16709 0.2223 0.35135 0.3672 0.50586 1.5 1.7 3.9 2.6992 6.5 3.6992 2.7 1 5.6992 1.9992 8.1992 2.1992 0.063 3e-3 0.1113-9e-3 0.1738-8e-3 0.01 3e-3 0.017 5e-3 0.025 8e-3 2.6 0.8 5 1.8 7 2.5 2 0.6 3.6 1.0008 5.5 0.30078 1.8-0.7 3.8016-2.3 4.6016-2.5 0.9-0.2 0.4992 1.2008 1.1992 2.3008 0.4872 0.83524 1.4222 1.5391 2.5117 1.7422 0.2611 0.3885 0.5081 0.85362 0.7891 1.1562 1.4 1.3 2.9984 1.3016 4.8984 1.1016 1.8-0.1 3.8016-0.50078 5.1016-1.8008 0.157-0.14583 0.264-0.34354 0.4004-0.51367 0.2429-0.15808 0.4478-0.38193 0.5996-0.68555 0.1874-0.2945 0.3131-0.69035 0.3906-1.1348 0.029-0.0959 0.054-0.18394 0.078-0.2793 0.1099-0.3611 0.1594-0.74914 0.1563-1.1191-1e-4 -0.0123 0.01-0.0249 0.01-0.0371v-2e-3c-0.01-0.38704-0.08-0.75061-0.2324-1.0293-0.048-0.082-0.1437-0.12189-0.2031-0.19336-0.1587-0.52025-0.3807-1.0339-0.6953-1.5059-1.1-1.8-3.5-3.2-5-4s-2.1008-1.1992-3.8008-1.6992-4.3008-1.1016-6.3008-2.1016c-0.8603-0.43017-1.5624-0.95573-2.2246-1.4941-0.4978-0.41879-0.9658-0.85101-1.3847-1.291v-2e-3c-0.027-0.0648-0.062-0.15043-0.09-0.21289-0.7-1.7-1.3-2.6984-2.5-3.3984-0.1359-0.068-0.3136-0.13673-0.459-0.20117-0.3324-0.48192-0.7155-0.87953-1.041-1.4004-1-1.7-2.0008-3.6992-3.3008-4.6992-0.8273-0.59098-1.7612-0.86101-2.7695-1.125-0.081-0.11943-0.1474-0.26003-0.2305-0.375-1.4-1.8-2.9992-3.2-4.6992-4.5-0.85-0.65-1.6754-1.3254-2.5254-1.9629s-1.7238-1.2363-2.6738-1.7363c-1.8-1-3.8-1.6-4.5-3-0.6-1.3 0-3.3 1.3984-5 1.3-1.6 3.3016-3 5.1016-4.5 1.9-1.5 3.4984-3.1016 3.8984-5.1016 0.3-2-0.6984-4.3992-0.8984-6.1992-0.1-1.8 0.4992-3.1992 0.1992-4.6992s-1.6992-3.1008-1.6992-4.3008c0-0.75115 0.4946-1.3229 0.9785-1.9473 0.3369-0.37019 0.6146-0.75683 0.7207-1.252 0.3-1.3-0.3-3.3008-1-5.3008-0.5435-1.5529-0.8674-3.0779-0.8223-4.5371 0.7395-0.82899 1.6668-1.7069 2.5215-2.6621 0.8-0.9 1.5508-1.8516 2.1133-2.7891s0.9383-1.8609 0.9883-2.7109c0.077-0.61864-0.07-1.1826-0.3106-1.6894-0.013-0.039 0.015-0.0614 0-0.10156 0.083-0.28632 0.097-0.50758 0.066-0.69141 0.08-0.54913 0.089-1.0941-0.057-1.6191-0.5-1.9-2.4992-3.4992-4.1992-5.1992-1.6-1.7-3.0016-3.3008-3.6016-5.3008-0.3981-1.1374-0.6111-2.3465-0.8691-3.4668-0.011-0.0725-0.039-0.11127-0.051-0.18164-0.077-0.38885-0.1712-0.75803-0.2988-1.0957-0.072-0.18883-0.082-0.50306-0.1778-0.64649-0.1138-1.7576-0.2567-5.1529 0.035-8.9277 0.6233-0.83031 1.0543-2.3482 1.3574-3.1816 0.3-1.2 0.3-1.1992 1.5-1.1992 0.2032 0 0.5826-0.0288 0.8594-0.0332 0.1895 0.85508 1.4508 1.2423 2.6406 0.73242 0.5425-0.29213 0.9892-0.8787 1.3985-1.4707 1.2084-0.62853 1.5963-1.9881 1.4023-3.9277-0.2-2-0.8-4.6 0-6 0.1762-0.28637 0.4555-0.49066 0.7656-0.66797 0.8595 0.2464 1.7206 0.5322 2.5352 0.66797 1.9 0.4 3.5-7.8e-4 4-1.3008 0.099-0.25806 0.1222-0.58066 0.1387-0.9043 1.018-0.32316 1.9749-0.68208 2.8613-1.0957 1.5-0.7 2.9-1.3 3-2.5 0.2-1.2-0.8016-2.8008-2.1016-3.8008-1.4-1-2.9984-1.3984-4.8984-1.3984z" />
</svg>