<?xml version="1.0" encoding="UTF-8"?>
<svg width="1800" height="900" version="1.1" xmlns="http://www.w3.org/2000/svg">
  <MetaInfo xmlns="http://www.prognoz.ru">
    <Geo>
      <GeoItem X="0" Y="0" Latitude="90" Longitude="-180"/>
      <GeoItem X="1800" Y="900" Latitude="-90" Longitude="180"/>
    </Geo>
  </MetaInfo>
  <path d="m919.12 342.25c-0.23086-1.1e-4 -0.46485 0.0169-0.69922 0.0488-1.4062 0.19219-2.8688 0.90586-4.2188 1.5059-1.9 0.9-3.4992 1.4992-4.1992 2.6992-0.28104 0.48178-0.34262 1.0442-0.29492 1.6484-0.0129 0.91967 0.11269 1.9375 0.29492 3.1523 0.29139 1.9426 0.65747 4.2506 0.49609 6.2148-0.20197 1.7914-0.79663 3.187-1.1953 3.9844-0.3 0.8-0.3 1.2 1 1 1.4-0.2 3.9984-0.8 5.3984-2 1.3-1.2 1.3016-2.7992 2.1016-3.1992 0.9-0.3 2.4992 0.69844 4.1992 1.8984 1.7 1.1 3.2992 2.5016 3.1992 3.1016-0.2 0.7-2.2 0.69844-3.5 1.3984-1.4 0.6-2 2-1 2.5s3.6008 0.10156 5.8008 0.10156 3.7992 0.39922 5.1992-0.30078c1.3-0.7 2.3016-2.3 3.1016-2 0.45 0.15 0.82383 0.82461 1.2988 1.5371s1.0504 1.4637 1.9004 1.7637c0.30025 0.12363 0.64956 0.14534 0.99219 0.18164 0.0763 0.0649 0.11845 0.16513 0.20703 0.2168 0.8424 0.45949 2.451 0.2177 4.0547-0.0117 0.012 8e-3 0.0353 4e-3 0.0469 0.0117 1 0.6 0.39844 3.0016 0.89844 4.6016 0.44199 1.5028 1.6864 2.4867 1.9824 3.9316-0.23268 1.0948-2.1975 2.4619-3.8809 1.9668-1.6-0.5-3.0016-2.8984-4.6016-3.8984-1.7-1-3.6992-0.60156-6.1992-0.60156s-5.5-0.39844-5.5-0.39844 3 0.39922 4.5 1.6992c0.64793 0.56154 0.98233 1.3413 1.1914 2.1602 4e-3 0.2533 0.0591 0.48389 0.14453 0.71093 0.1274 0.85109 0.16406 1.7264 0.16406 2.4297 0 1.7-7.8e-4 2.6992 0.69922 4.1992 0.6 1.5 2 3.4992 3 5.6992 1 2.1 1.6016 4.5016 1.6016 6.6016 0 0.14172-0.017 0.27046-0.0215 0.41016l-0.56055 2.5781c0.11044 0.11486 0.22417 0.2193 0.33594 0.33008-0.0423 0.66423-0.0114 1.1663 0.24609 1.3809 0.17611 0.12579 0.43562 0.15544 0.72852 0.11523 0.16308-0.0195 0.35609-0.0812 0.54492-0.13671 5.0011 4.005 10.896 4.5865 14.854 4.3965 1.1785 0.77405 3.3882 0.42578 5.0723 0.42578 1.8 0 3.2008 0.39922 4.8008 0.19922 0.85-0.1 1.7738-0.30039 2.5488-0.40039 0.65405 0.51881 1.0424 1.2257 1.3945 1.9453-0.39569 0.78955-1.0714 1.6857-1.9434 2.4551-1.6 1.5-4 2.5008-4.5 3.8008-0.5 1.4 0.9 2.9992 2.5 3.6992 1.7 0.7 3.6984 0.30078 5.8984-0.19922 2.1-0.5 4.5-1.1008 6.5-1.3008s3.6016 0.19922 5.1016 1.6992c0.23468 0.23468 0.43933 0.55104 0.66797 0.82617-1.2086-0.0587-1.7045 1.3526-0.76953 2.4746 1 1.2 3.6 1.8 4 1 1 0.2 1.6-2.1992 2-3.6992 0.3-1.5 0.30156-2.1-0.89844-3-1.1-0.8-3.5008-1.8016-5.3008-3.1016-1.8-1.4-3.1992-3-4.6992-4.5s-3.1016-2.8992-3.1016-4.6992c0-0.9 0.40078-1.9504 0.80078-2.8379s0.80078-1.6113 0.80078-1.8613c0-0.5-1.6 0.89844-3.5 1.8984-1.8 1-3.8016 1.6008-5.6016 0.80078-1.9-0.8-3.4992-3.2-5.6992-4-0.55-0.2-1.1242-0.31211-1.6992-0.35742-0.63333-0.0499-1.2653-0.0176-1.8652 0.0684-4.5362-2.9554-9.8944-7.68-13.062-10.592 0.26337-0.82056 0.69028-1.5977 1.3262-2.3184 0.44407-0.47367 1.1025-0.88493 1.6953-1.3184 0.0406 1e-3 0.0635 0.0176 0.10547 0.0176 1.7 0 4.3008-0.99922 5.3008-2.6992 0.11453-0.18325 0.1495-0.40093 0.22656-0.60156 1.2715-0.60975 2.5121-1.182 3.4727-1.6992 1.066-0.57401 2.1747-1.1156 2.8789-2.2168 0.62585 0.0396 1.1207-0.0836 1.8203-0.7832 0.91588-0.91588 2.3145-2.5381 3.4688-2.9805 0.28549 0.24268 0.5374 0.43706 0.83203 0.67969 1.7 1.3 3.3 2.3016 5 2.6016 1.7 0.4 3.2992 0 4.6992-1 0.97795-0.75227 1.7838-1.8448 1.8262-2.9356 0.0186-0.34339-0.047-0.70923-0.22461-1.0644-0.14244-0.30863-0.39864-0.59997-0.70117-0.88281-0.10276-0.59478-0.14934-1.2166-0.40039-1.7188-0.77782-1.4692-2.1107-2.429-3.5469-3.498 0.01-0.74995 0.10292-1.5356 0.14844-2.4004 0.2-1.8 0.19844-3.8016 1.3984-4.6016 0.38893-0.31822 0.95132-0.45543 1.5371-0.55469 0.83644 0.37949 1.7033 0.52357 2.2637 0.35547 0.55361-0.16608 0.72928-0.68943 0.66992-1.3262 0.41082-0.78774-0.13969-2.0964-1.3691-2.9746-1.3-1-3.3008-1.3984-5.3008-2.3984s-4.0008-2.6016-6.3008-3.6016c-2.4-1-4.9984-1.3992-6.8984-1.1992-1.4734 0.16371-2.3595 0.61639-2.377 1.4258-0.69686 0.40253-0.99555 1.1021-0.22461 1.2734 0.17193 0.0215 0.48918-0.082 0.74219-0.11719 0.7495 1.1154 2.1743 2.4183 2.8594 3.6172 0.9 1.3 0.49844 2.3016-0.60156 3.1016-1.2 0.9-3.1984 1.5-4.3984 2.5-0.55 0.5-0.92656 1.0992-1.3516 1.5742-5e-3 6e-3 -0.0121 0.01-0.0176 0.0156-0.31412-0.0635-0.63314-0.16267-0.95898-0.36132-0.46119-0.90639-1.0396-2.5835-2.2734-4.2285-1.5-2-3.8984-3.6016-5.8984-4.1016-1.2788-0.31971-2.4102-0.18381-3.5449 4e-3 -0.92835-0.34457-1.8326-0.5945-2.7559-0.70312-1.1958-0.14068-2.2801-0.0354-3.377 0-0.1043-0.10277-0.24652-0.18175-0.32227-0.30078-0.6-1.2 0-3.1984-1-3.8984-0.37551-0.2253-1.0174-0.24935-1.7383-0.20508-1.2154-0.0246-2.6426 0.0278-4.0625-0.29492-2.2-0.5-3.7992-2.1-5.6992-2.5-0.225-0.0375-0.45273-0.0546-0.68359-0.0547z" />
</svg>