<?xml version="1.0" encoding="UTF-8"?>
<svg width="1800" height="900" version="1.1" xmlns="http://www.w3.org/2000/svg">
  <MetaInfo xmlns="http://www.prognoz.ru">
    <Geo>
      <GeoItem X="0" Y="0" Latitude="90" Longitude="-180"/>
      <GeoItem X="1800" Y="900" Latitude="-90" Longitude="180"/>
    </Geo>
  </MetaInfo>
  <path d="m1016.7 376.3c-0.083-2e-3 -0.1676 2e-3 -0.252 0.01-0.675 0.0625-1.3746 0.4375-1.9746 1.1875-1.2 1.5-1.8008 4.5-2.8008 6s-2.3984 1.5-3.3984 2.5-1.6 3-3 3.5c-1.3 0.5-3.3016-0.49922-4.6016-0.19922-1.4 0.4-2 1.9992-2 3.1992s0.60078 1.7992 2.3008 3.1992c1.7 1.3 4.3 3.3 5 5.5 0.7 2.1-0.7 4.5016-0.5 5.1016 0.051 0.1775 0.1935 0.24127 0.3867 0.22461 0.611-0.0347 1.8317-0.81997 3.1133-1.7246 1.7-1.1 3.3-2.5008 4-4.3008s0.3-4.2008 0.5-6.3008c0.1864-2.0502 0.7265-3.9264 1.7695-5.791 2.9765 0.27576 7.3612 0.82522 10.635 1.8496 0.087 0.43083 0.1866 0.85235 0.2949 1.2422 0.5 1.8 1.1008 3.1992 2.3008 3.6992 0.2627 0.10944 0.6141 0.0225 0.9141 0.0488 0.5539 0.37451 1.103 0.77166 1.7851 0.95117 1.8 0.5 3.8008 0.1 5.8008-1 1.7702-1.0621 3.3617-2.54 3.9531-2.7754 0.066 0.0731 0.1141 0.15707 0.1719 0.23633-0.3817 1.2396-1.1974 2.7147-1.9258 4.0391-0.9023 1.5038-1.689 2.7828-1.8125 4.0469v2e-3c-0.04 0.41641-0.011 0.83086 0.1133 1.252 0.3016 1.0254 1.1611 2.0191 2.1152 3.0156 0.047 0.15128 0.028 0.34028 0.084 0.48438 0.6 1.8 2 3.2 3.5 4 0.1287 0.0686 0.3072 0.10863 0.4375 0.17188 0.5827 0.7685 1.1647 1.5364 1.8633 2.3281 1.5 1.7 3.5008 3.3 5.3008 4.5 1.9 1.2 3.4992 1.8 5.6992 2 0.5639 0.0513 1.1817 0.0218 1.7812 0.0195 0.6235 0.4971 1.2509 0.93389 1.918 1.1797 0.6633 0.22108 1.3535 0.26736 2.0508 0.17383 1.1325-0.0143 2.2664-0.094 3.3516-0.0625 0.3098 0.14457 0.6196 0.22839 0.8964 0.32422 0.4735 0.18669 0.9164 0.30653 1.3028 0.16601 0.01-3e-3 0.019-0.0148 0.029-0.0176 0.9701 0.28675 1.8239 0.51971 2.3691 0.2168 0.8-0.5 0.8008-2.5008 0.8008-4.3008 0-0.71627-0.031-1.372-0.074-2.0352 0.068-0.67493 0.074-1.2524 0.074-1.6641 0-0.8 8e-4 -1.2008-0.6992-2.8008-0.6-1.7-2-4.7-2-6.5 0-0.94877 0.3492-1.5738 0.7734-2.0859v-2e-3c0.425-0.5125 0.9246-0.91211 1.2246-1.4121 0.3382-0.48318 0.5098-1.0815 0.6231-1.7617 0.099-0.59988 0.1594-1.3081 0.2343-2.0566 0.2335-0.54304 0.4344-1.0521 0.5665-1.5098 0.1095-0.39847 0.1837-0.77412 0.123-1.0527-0.036-0.20692-0.1446-0.39066-0.3477-0.51758-0.025-0.0159-0.1042 2e-3 -0.1328-0.0117 0-0.41125-0.027-0.77009-0.09-1.0898-0.01-0.0501-0.011-0.11897-0.018-0.16602-0.087-0.3405-0.2261-0.60304-0.459-0.73242-0.1852-0.11572-0.4377-0.11217-0.7207-0.0352-0.1849 0.0455-0.3907 0.16856-0.5996 0.28321-0.08 0.0467-0.1499 0.0706-0.2324 0.12695-0.6201 0.40111-1.2411 1.0515-1.7734 1.875-0.2181 0.0595-0.4804 0.0839-0.6739 0.14844-0.751 0.25034-1.2761 0.52574-1.7265 0.91406-0.45 0.3875-0.8235 0.88594-1.2735 1.5859-0.4 0.65-0.8496 1.4746-1.4121 2.2246-0.026 0.0342-0.06 0.06-0.086 0.0937-0.088 0.11362-0.1919 0.20967-0.2852 0.31836-0.7333-0.57455-1.4875-1.2242-2.0176-1.8359-1.3-1.5-1.7-2.5-2.5-3.5s-2.1992-2.0008-3.6992-3.3008c-1.5-1.4-3.1008-3-4.8008-4-0.5384-0.31668-1.0686-0.48164-1.5996-0.6875-0.2016-0.26089-0.3878-0.61833-0.5996-0.8125-1.1-1.2-2.5-1.1984-4-1.8984-1.5-0.6-3.1-2-5-2.5-0.8992-0.24979-1.8514-0.27579-2.5761-0.13867-0.724 0.13767-1.2227 0.43826-1.2227 0.83789 0 0.8 1.9992 2.2008 2.1992 3.8008 0.1 1.7-1.4992 3.7-2.6992 3.5-1.2-0.1-1.7992-2.5008-3.1992-3.3008-0.1043-0.0642-0.2334-0.0649-0.3457-0.11133-0.059-0.0587-0.076-0.1459-0.1543-0.18945-0.098-0.0614-0.2826 5e-3 -0.4219-8e-3 -1.0713-2.3024-3.728-5.5216-10.172-5.4668-0.1706-0.7024-0.4845-1.3029-0.9062-1.7246-0.4375-0.4375-0.9906-0.68445-1.5742-0.69727z" />
</svg>