<?xml version="1.0" encoding="UTF-8"?>
<svg width="1800" height="900" version="1.1" xmlns="http://www.w3.org/2000/svg">
  <MetaInfo xmlns="http://www.prognoz.ru">
    <Geo>
      <GeoItem X="0" Y="0" Latitude="90" Longitude="-180"/>
      <GeoItem X="1800" Y="900" Latitude="-90" Longitude="180"/>
    </Geo>
  </MetaInfo>
  <path d="m1143.2 287.1c-0.3742 5e-3 -0.7328 0.0273-1.0703 0.0742-0.9 0.125-1.6504 0.42344-2.1504 1.0234-0.25 0.275-0.4367 0.63242-0.5664 1.0293v2e-3c-0.3884 1.1904-0.2591 2.7457 0.2656 3.5703 0.019 0.0388 0.055 0.0536 0.076 0.0898 0.017 0.0298 0.01 0.0807 0.025 0.10938 0.078 0.11262 0.1959 0.15382 0.2832 0.25391 0.1051 0.1048 0.205 0.21903 0.3301 0.29492 0.2458 0.22781 0.504 0.42995 0.7578 0.62305l-0.2715 0.42773-7.2012 6.5996c-1.4 0.1-2.9992 2.5016-4.1992 4.1016-0.7238 1.0254-1.1894 1.8384-1.5645 2.6836-0.2012 0.17922-0.4584 0.30399-0.6347 0.51562-1 1.2-1.6008 2.8008-1.8008 4.3008s0.1992 2.8992 0.6992 4.6992c0.1931 0.69519 0.4238 1.4813 0.6582 2.2402-0.1421 1.0342-0.4266 1.9722-1.0566 2.7598-1.1 1.5-3.5016 2.5-3.6016 3.5-0.2 1 1.8 1.9992 3.5 1.6992 1.6-0.4 3-2 4-3.5s1.6008-2.9 1.8008-4.5c0.1307-1.1112 0.08-2.2828 0.1172-3.3711 0.7781-1.2094 1.7665-2.3669 2.082-3.6289 0.021-0.11995-0.035-0.25813-0.025-0.38086 0.3515-0.34528 0.7124-0.64966 1.0254-1.1191 0.6899-1.0348 1.182-2.4986 1.3926-3.9961l7.4084-6.2031c1.2-1 2.8008-3.9992 4.3008-5.1992 1.5-1.1 2.8984-0.50156 4.3984-1.1016 1.5-0.7 3.1016-2.7 3.1016-4 0-0.81299-0.6188-1.3219-1.4629-1.7324-0.1524-0.22816-0.3226-0.4239-0.5371-0.4668-0.1194-0.0239-0.274 0.0847-0.4102 0.12695-0.4082-0.13662-0.7242-0.31094-1.1914-0.42773-2-0.5-4.4-0.9-6.5-1-0.6875-0.0625-1.3548-0.1052-1.9785-0.0977z" />
</svg>