<?xml version="1.0" encoding="UTF-8"?>
<svg width="1800" height="900" version="1.1" xmlns="http://www.w3.org/2000/svg">
  <MetaInfo xmlns="http://www.prognoz.ru">
    <Geo>
      <GeoItem X="0" Y="0" Latitude="90" Longitude="-180"/>
      <GeoItem X="1800" Y="900" Latitude="-90" Longitude="180"/>
    </Geo>
  </MetaInfo>
  <path d="m1283.8 295c-0.55 0-0.9266 0.5-1.1641 1.25-0.088 0.278-0.071 0.68556-0.123 1.0195-0.4384-0.0873-1.0674-0.26953-1.3145-0.26953-0.6317 0-0.633 0.30193-0.4101 0.7832-0.025 0.0112-0.066 6e-3 -0.09 0.0176-0.4245 0.22477-0.7424 0.55602-0.9687 0.95703-0.1742 0.30862-0.2488 0.6851-0.3203 1.0606-0.022 0.11348-0.085 0.20267-0.098 0.32031v0.0508c-0.1005 1.0001 0.093 2.128 0.4863 3.1113 0.7511 1.6692 1.9235 2.9102 2.8359 4.1504 0 0.46094 0.03 0.90728 0.096 1.3223 0.013 0.0878 0.016 0.18231 0.033 0.26758 0.1 0.46166 0.2535 0.89355 0.5352 1.2598 0.2443 0.34211 0.5766 0.63243 0.959 0.90234v2e-3c0.1493 0.50713 0.2707 1.0211 0.541 1.4941 0.9 1.3 2.4984 2.3008 3.8984 3.8008 0.6335 0.73098 1.1853 1.5825 1.5606 2.4121 0.3098 0.73151 0.3845 1.3425 0.041 1.5879-0.6 0.5-3.0008-0.49922-4.3008-0.69922-1.3-0.1-1.7008 0.49922-1.3008 1.6992 0.3 1.2 1.3 2.8008 2 4.8008 0.6 2 1.0016 4.4 2.1016 5 0.9506 0.55454 2.3948 0.0805 3.8027-0.25586 0.3178 0.67318 0.6435 1.229 1.0957 1.4551 0.8818 0.44091 2.2258-0.18628 3.4922-0.1582 0.1591 0.1785 0.3646 0.24414 0.5078 0.45898 1 1.5 1.6 3.8984 2.5 5.8984 0.8 2 1.8008 3.6008 3.3008 4.3008 0.3819 0.17821 0.8662 0.17357 1.3047 0.24219 0.1691 0.17356 0.3 0.46056 0.4961 0.55859 1 0.5 2.4-0.1 4 0.5 1.7 0.7 3.6992 2.6992 5.6992 4.1992s3.9992 2.5 5.6992 2.5c0.6169 0 1.1628-0.25049 1.6973-0.50195 6e-4 -2.7e-4 0 2.6e-4 0 0 0.038 4e-3 0.064-2e-3 0.1016 2e-3 1.8 0.2 4.2008 0.8 5.8008 0.5 1.7-0.3 2.6992-1.7008 2.1992-2.8008-0.5-1.2-2.5008-2.2-3.8008-3.5-1.4-1.4-2-2.9992-3-4.6992s-2.3984-3.3008-2.8984-4.8008-0.1016-2.8984-0.1016-4.3984-0.4-3.1-0.5-5c-0.2-1.8-0.1984-3.8016-0.3984-6.1016-0.1-2.4-0.5016-5-1.1016-6-0.7-1-1.6992-0.4-3.1992-1-0.75-0.35-1.625-1.0234-2.5625-1.7734s-1.9375-1.5766-2.9375-2.2266c-2-1.4-3.9992-1.9992-5.6992-2.1992-1.6-0.2-3.0008 0.2-4.8008 0-1.2732-0.14146-2.7281-0.55596-4-1.0977-0.917-1.2849-1.7737-2.7004-2.6992-3.7031-1.1-1.4-2.5016-1.9984-4.1016-3.3984-1.2745-0.97464-2.717-2.345-3.8652-2.9688-7e-4 -3.5e-4 0 3.6e-4 0 0-0.3806-0.20794-0.729-0.33216-1.029-0.33216z" />
</svg>