<?xml version="1.0" encoding="UTF-8"?>
<svg width="1800" height="900" version="1.1" xmlns="http://www.w3.org/2000/svg">
  <MetaInfo xmlns="http://www.prognoz.ru">
    <Geo>
      <GeoItem X="0" Y="0" Latitude="90" Longitude="-180"/>
      <GeoItem X="1800" Y="900" Latitude="-90" Longitude="180"/>
    </Geo>
  </MetaInfo>
  <path d="m918.04 270.66c-0.8375-0.0125-1.6363 0.13867-2.2363 0.63867-0.4772 0.43382-0.81045 1.1597-1.0977 1.998-0.39547 1.0399-0.75073 2.1833-1.2031 3.2012-0.8 1.8-2.1992 3.1992-3.1992 4.6992-0.46627 0.6994-0.80271 1.4954-1.166 2.2383-0.46261 0.81876-0.86401 1.6748-1.334 2.5625-0.3465 0.73631-0.76244 1.416-1.2246 2.0254-0.36334 0.47156-0.75281 0.91036-1.2285 1.2109-7.2e-4 4.5e-4 -1e-3 1e-3 -2e-3 2e-3 -5.4e-4 -6e-5 -1e-3 6e-5 -2e-3 0-0.43876-0.0471-0.87668-0.31838-1.3164-0.57226-0.56171-0.44743-1.0465-1.0558-1.3281-1.666-0.7-1.3-0.69922-2.7008-1.6992-3.3008-1-0.7-3-0.69844-4.5-1.3984-1.5-0.6-2.5-2.0016-3.5-2.6016-1-0.7-1.9992-0.7-3.1992 0-1.1 0.6-2.5 2.0008-4 3.8008s-3.1 4.1992-4 6.6992c-0.43266 1.3521-0.64278 2.7066-0.92383 3.8008-0.18854 0.2614-0.40671 0.54659-0.57617 0.80078-0.31611 0.47416-0.56083 0.84906-0.82226 1.2559-1.191 0.36529-3.3322-0.76515-5.1777-0.85742-0.57039-0.057-1.0961 1.4e-4 -1.5898 0.10351-0.0368 7e-3 -0.0672 0.0229-0.10352 0.0312-1.1846 0.27367-2.1219 0.87974-2.6074 1.3652-0.7 0.6-0.30078 1.0016 0.69922 2.1016 0.71995 0.86394 1.7332 2.138 2.2168 3.2715-0.22391 1.3923-2.0092 2.658-3.416 3.127-1.342 0.44734-2.2612 0.22719-2.8027 0.88086-0.74397 0.16226-1.3408 0.41071-1.6973 0.91992-0.7 1-0.3 3.0008-1 4.8008-0.7 1.9-2.3 3.4992-4 5.6992-0.82674 1.0699-1.3699 2.1252-2.0918 3.2578-0.89413 1.1288-1.6525 2.384-2.209 3.4414-0.0421 0.0757-0.0634 0.11258-0.10352 0.18555h-2e-3c-0.27169 0.12975-0.5085 0.29623-0.79297 0.41601-1.8 0.9-3.8 1.5-5 3-0.70057 0.95533-0.99318 2.1965-1.0742 3.3652-6e-3 0.0113-0.0217 0.0219-0.0273 0.0332-0.175 0.275-0.24258 0.57148-0.22852 0.84961 0.0102 0.37191 0.18697 0.70923 0.39844 1.0527 0.19545 0.43681 0.51419 0.7412 0.90625 0.96094 0.0862 0.0639 0.13728 0.18589 0.22461 0.23828 1 0.7 2 0.69844 2.5 1.8984 0.5 1.1 0.50078 3.5016-0.19922 5.1016-0.3 0.85-0.80078 1.5234-1.3008 2.1484-3.3e-4 4.1e-4 3.3e-4 2e-3 0 2e-3 -0.49965 0.62449-1.001 1.2001-1.3008 1.8496-0.7 1.4-0.7 2.9992-1.5 4.6992-0.9 1.7-2.4984 3.3008-3.3984 4.3008-0.8 1-0.80078 1.3984-2.3008 2.3984s-4.4992 2.6-7.1992 3c-2.6 0.3-5-0.69922-6.5-0.69922-0.90637 0-1.4783 0.46291-1.9922 1.127-0.15276 0.15383-0.247 0.39454-0.37695 0.58594-0.20469 0.33102-0.40756 0.56454-0.63086 0.98633-0.8 1.6-1.8016 4-3.1016 6-1.4 2-2.9992 3.6-2.6992 4.5 0.3 0.8 2.7008 0.80078 3.8008 0.30078 1.2-0.5 1.2-1.5008 2-2.8008 0.20819-0.32385 0.57947-0.63569 0.86133-0.96484 0.70244-0.0329 1.6166-0.53932 2.6387-1.4336 0.43642-0.33373 0.94786-0.72762 1.4238-1.1113 2.1534-0.41742 4.646 0.10656 6.7754 0.01 1.5619-0.14199 2.8733-0.72455 4.2598-1.3867 0.14225-0.0157 0.30399 0.0239 0.43945-0.0117 0.48439-0.13455 0.90691-0.43222 1.2969-0.79883 1e-3 -6.6e-4 2e-3 -1e-3 4e-3 -2e-3 2.2-1 4.8-2.0008 6.5-2.8008 1.7-0.9 2.2992-1.5 2.6992-2.5 0.20636-0.68787 0.25855-1.7129 0.34375-2.6816 0.0678-0.244 0.21604-0.48011 0.25781-0.7168 0.4-1.6-7.8e-4 -3.0016 1.1992-3.6016 1.2-0.7 3.7992-0.69922 4.6992-1.6992 0.8-1-0.2-2.9992-0.5-5.1992-0.18631-0.97813-0.16242-2.0075-0.0117-2.9238 0.89511-0.95484 3.0991-1.8849 5.0117-2.0762 0.44626-0.0223 0.80814 0.0248 1.2168 0.0488 1.5039 0.46369 2.838 0.80121 3.8848-0.15039 0.19218-0.16015 0.29998-0.51957 0.47656-0.74414 0.79796-0.83755 1.3309-2.0784 1.2949-2.9141 0.0681-0.58653 0.0685-1.177-0.0723-1.7402-0.5-2-2.5-3.6008-4-5.3008-0.96152-1.0897-1.6748-2.1449-2.041-3.2578-0.13538-0.57799-0.27677-1.153-0.23632-1.7656 0.10729-0.25161 0.14712-0.53318 0.27734-0.77734 0.8-1.5 2.2008-2.8992 3.8008-4.6992 1.7-1.8 3.6992-4.2008 5.6992-5.3008 2-1.2 3.9992-1.2 5.6992-2 1.6-0.9 3-2.5 3.5-4.5s0.10078-4.3984 0.80078-6.3984 2.2992-3.6008 3.6992-5.3008c0.47946-0.62699 0.91722-1.163 1.3652-1.6875h2e-3c0.75035-0.1377 1.5517-0.0673 2.3398 0.0703 0.97975 0.18426 1.9636 0.48144 2.793 0.91797 0.78537 0.43632 1.3352 0.97487 1.7578 1.5469-0.0994 1.6211-1.3755 3.3289-2.2578 4.6523-1 1.5-1.4 2.5-1 4.5 0.01 0.0656 0.0492 0.15113 0.0606 0.21875-0.57003 1.8092-0.59927 3.6586 0.24023 4.582 0.55279 0.66335 1.4235 0.89769 2.3848 0.91211 0.33784 0.11148 0.70599 0.0305 1.0938-0.18555 0.44698-0.0801 0.88165-0.0552 1.3223-0.22656 1.9-0.6 3.5-2 5.5-3.5s4.3992-3.1016 6.1992-4.1016 3.1992-1.4 4.6992-2.5c1.5-1.2 3.1-3.2 4.5-5 0.0619-0.0905 0.0996-0.1628 0.16016-0.25195 0.84629-0.46031 1.6973-0.94416 2.6406-1.4473 1.5-0.8 3.4992-2.2008 3.6992-2.8008 0.1-0.7-1.5-0.69844-2.5-1.3984-1-0.6-1.3992-2.0016-2.1992-3.1016-0.8-1.2-2.2008-2.1992-2.3008-3.6992-0.2-1.5 0.80078-3.5 1.8008-4s1.9992 0.49922 3.1992 1.6992c1.1 1.1 2.5008 2.5008 3.8008 2.8008s2.6992-0.3 3.1992-1.5 0.1-2.8-1-4.5c-1.2-1.7-3.1992-3.3008-4.6992-4.3008s-2.5-1.3992-4-1.6992c-0.75-0.15-1.6254-0.32539-2.4629-0.33789z" />
</svg>