<?xml version="1.0" encoding="UTF-8"?>
<svg width="1800" height="900" version="1.1" xmlns="http://www.w3.org/2000/svg">
  <MetaInfo xmlns="http://www.prognoz.ru">
    <Geo>
      <GeoItem X="0" Y="0" Latitude="90" Longitude="-180"/>
      <GeoItem X="1800" Y="900" Latitude="-90" Longitude="180"/>
    </Geo>
  </MetaInfo>
  <path d="m1165.7 48.801c-1.4 0.2-2.9984 1.1984-3.8984 1.8984-0.6404 0.48028-0.6727 0.76555-0.8008 1.041v0.25977l-0.8008 0.80078-0.1992 0.19922-0.3008 0.30078-1.6992 1.6992h-3.3008c-0.7 0-0.6992 1e-6 -0.6992 0.5v2.5l-1.4629 1.4629c-0.077 0.09115-0.1687 0.25341-0.2363 0.33789-0.15 0.25-0.2254 0.3998-0.3008 0.59961v0.59961l-0.6504 0.32422c-0.3559 0.26746-0.7487 0.52636-1.0488 0.97656-0.3 0.7-0.3008 1.6992-0.3008 2.1992v3.5l-0.6289 0.62891c-0.064 0.10431-0.1433 0.28549-0.1719 0.37109-0.2 0.3-0.2 0.69922 0 1.1992 0.1 0.49999 0.5 1.1016 1 1.6016 0.2135 0.21347 0.4489 0.44026 0.6836 0.64062l1.1172 0.55859 1 3-1.6992 1.6992c-0.3 0.29999-0.3016 0.3-0.6016 1-0.098 0.14685-0.2497 0.41733-0.3672 0.63672l-1.332 2.6641h-0.6387c-0.1083 0.06323-0.271 0.21046-0.3613 0.30078-0.09 0.12028-0.2531 0.27454-0.3613 0.41992l-0.6387 1.2793h-1.1016c-0.2039 0.04781-0.4382 0.11953-0.5976 0.19922-0.1804 0.06011-0.2287 0.40644-0.3008 0.66211v0.13867l-0.5 1.5c-0.1254 0.42461-0.2508 0.84922-0.3008 1.1992-0.057 0.17107-0.1586 0.28223-0.1992 0.42773v0.87305l-2.1094 1.4062c-0.1283 0.09115-0.2929 0.21484-0.3906 0.29297-0.024 0.01465-0.027-0.01322-0.049 0l-0.451 0.30078-0.4512-0.30078c-0.022-0.01322-0.024 0.01465-0.049 0-0.044-0.03549-0.1262-0.11184-0.1777-0.15039l-2.3221-1.5488v-3c0-0.3 8e-4 -0.7-0.1992-1-0.1-0.3-0.5-0.69922-1-1.1992l-1.6016-1.6016c-0.5-0.5-0.9-0.89922-1.5-1.1992-0.35-0.15-0.7746-0.325-1.1992-0.5l-1.5-0.5-1-1v-1.8008c0-0.5-8e-4 -0.90001-0.3008-1.5-0.4-0.7-0.9992-1.6992-1.6992-2.1992s-1.3008-0.5-1.8008 0c-0.3437 0.34372-0.5752 0.88357-0.8242 1.375l-0.375 1.125h-0.5c-0.175 0.125-0.35 0.25-0.5 0.5-0.079 0.13136-0.2473 0.34315-0.3418 0.52539l-0.6582 1.9746h-2.5c-0.5 0-0.5-7.81e-4 -1 0.19922-0.5 0.1-1.4992 0.5-2.1992 1-0.4805 0.40042-0.7655 0.85683-1.041 1.2832l-0.2598 0.51758-0.1992 0.19922c-0.226 0.32794-0.5 0.64246-0.5 1 0 0.20066 0.083 0.48962 0.1601 0.72266l0.5391 1.0781-1 2c-0.3 0.69999-0.6992 1.3008-0.6992 1.8008 0 0.22726 0.092 0.46753 0.1816 0.68164l0.5176 0.51758-0.4609 1.3809c-0.1148 0.53485-0.2383 1.0193-0.2383 1.6191 0 0.90234 0.3141 1.7209 0.4512 2.2559l0.248 0.74414v3l-0.5 1c-0.1254 0.27539-0.2508 0.55078-0.3008 0.80078-0.057 0.14256-0.1586 0.29448-0.1992 0.42774v0.77148l-3 3v-0.69922c-0.1698-0.0341-0.2911 0-0.6992 0-0.6 0-2.0016 0.39922-2.6016 0.69922-0.35 0.15-0.5246 0.325-0.6992 0.5v0.5l-4 1h-1l-2-1-1-3v-3.3008c0-0.4 0-0.99923-0.5-1.6992-0.4556-0.63789-1.293-1.1528-1.8223-1.5488l-0.6777-0.45117-2-1-1-3v-0.5c-0.05-0.25039-0.099-0.50079-0.1992-0.80078-0.1-0.7-0.5016-1.7-1.1016-2.5-0.4663-0.59949-1.043-1.0136-1.5976-1.4648l-1.1016-0.73438-1-2v-1.4492c-0.05-0.4375-0.099-0.9-0.1992-1.25-0.062-0.37487-0.3771-0.7597-0.625-1.125l-0.1758-0.17578-1-2c-0.2754-0.55-0.5508-1.1-0.8008-1.5-0.5-0.79999-0.8992-1.1992-1.6992-1.1992s-2.2 0.39922-3 0.69922-1.1992 0.69922-1.1992 1.1992c0 0.20066 0.083 0.48962 0.1601 0.72266l0.5391 1.0781-0.375 0.75195c-0.099 0.40756-0.2498 0.81121-0.125 1.248 0.1 0.35 0.2252 0.6002 0.4004 0.90039l1.0996 1.0996-2 1-2.2188-0.74023c-0.075-0.0199-0.2201-0.04833-0.2812-0.06055-0.07-0.0279-0.059-0.04884-0.1113-0.07031l-0.3887-0.12891-0.3008-0.30078-1.6992-1.6992v-1c-0.075-0.325-0.1508-0.65-0.3008-1-0.4-0.69999-1-1.3-1.5-1.5s-0.9 0.20079-1 0.80078c-0.2 0.7-0.2 1.6984 0 2.3984 0.05 0.29999 0.1375 0.5125 0.25 0.75l0.5508 0.55078-0.4609 0.92188c-0.1146 0.34761-0.2383 0.65906-0.2383 1.0781 0 0.52605 0.2203 0.94019 0.375 1.3535l0.3242 0.64648v3.6992c0 0.59999 8e-4 1.0016 0.3008 1.6016 0.4 0.7 0.9984 1.6992 1.3984 2.1992 0.3 0.5 0.3016 0.50079 0.6016 0.80078l1.6992 1.6992-1 3h-3l-1-1-0.1992-0.19922-1.8008-1.8008v-0.36328c-0.1174-0.29193-0.1876-0.56259-0.5-0.9375-0.1992-0.27891-0.5022-0.65356-0.7969-0.99609l-1.7031-1.7031v-3l0.457-1.3691c0.1418-0.49535 0.2865-0.97358 0.3438-1.4316 0.2-0.89999 0.2-1.5 0-2-0.05-0.25-0.1754-0.47461-0.3008-0.69922l-0.5-0.5v-1.0996c-0.05-0.3002-0.099-0.55039-0.1992-0.90039-0.08-0.56229-0.3255-0.98402-0.4824-1.3652l-0.3184-0.63477v-0.19922c0-0.1 0-0.5-0.5-1-0.5-0.49999-1.4992-1.1008-2.6992-1.3008-1.0432-0.18967-2.2967 0.16314-2.9414 0.28516l-0.2364 0.05859c-0.4955 0.14346-0.623 0.1772-0.623 0.35547v0.80078l-0.3242 0.64648c-0.1547 0.41332-0.375 0.82746-0.375 1.3535 0 0.19147-0.035 0.41696 0 0.60156l0.6992 1.3984-1.8242 1.8242c-0.2653 0.33574-0.4881 0.67629-0.6758 0.97656-0.3122 0.56202-0.3827 0.83361-0.5 1.1855v1.0137h-1.2031c-0.212 0.04781-0.3985 0.11953-0.5977 0.19922-0.25 0.05-0.4746 0.17539-0.6992 0.30078l-0.5 0.5h-1c-0.2754 0.04961-0.5508 0.09922-0.8008 0.19922-0.5 0.1-0.8984 0.50157-1.3984 1.1016-0.5 0.7-1.1008 1.6984-1.3008 2.3984-0.2 0.59999 0.2 1.0008 0.5 1.3008l1 1v7.5c0 0.5-8e-4 0.49922 0.1992 0.69922l0.8008 0.80078 0.9648 1.9277c0.2568 0.51375 0.5384 1.079 0.7344 1.373 0.3 0.7 0.3008 0.69922 0.8008 1.1992l2.5 2.5v2l-2 2-3 1v-0.65039c-0.125-0.13731-0.25-0.19961-0.5-0.34961-0.3122-0.18733-0.8659-0.40838-1.373-0.625l-1.127-0.375-0.3008-0.30078c-0.3165-0.19922-0.6253-0.43756-1-0.5-0.2787-0.0796-0.6194-0.15143-0.9551-0.19922h-1.7441l-0.6758-1.3496c-0.089-0.11842-0.2493-0.24975-0.3242-0.34961-0.1125-0.11254-0.406-0.23031-0.5625-0.30078h-0.4375l-4-3v-6l0.2207-0.66016c0.1279-0.52689 0.4654-1.3963 0.2793-2.1406-0.2-0.89999-0.8-1.5-1.5-2-0.7-0.5-1.3-0.89844-2-0.89844s-1.3008 0.39844-1.8008 0.89844c-0.5 0.49999-0.9 1.1-1 1.5l-0.1992 0.30078-1 2h-0.4512c-0.2339 0.11722-0.436 0.18802-0.748 0.5-0.5 0.5-1.1 1.4992-1.5 2.1992-0.15 0.3-0.2254 0.5125-0.3008 0.75v0.55078l-2 2h-3l-1.5898-2.3848c-0.024-0.0319-0.086-0.0864-0.1094-0.11523-0.059-0.0977-0.021-0.072-0.059-0.13672l-0.2418-0.36328v-0.19922c0-0.1-8e-4 -0.5-0.8008-1-0.45-0.25-1.0746-0.52539-1.6992-0.80078l-2.5-1v-2l4-2 0.6328 0.63281c0.1629 0.05174 0.3998 0.06641 0.5664 0.06641 0.5 0 1.1016-0.39922 1.6016-0.69922s0.9-0.70079 1-1.3008c0.2-0.7 0.1984-1.6984-0.1016-2.3984-0.2253-0.33801-0.5068-0.581-0.7871-0.8457l-0.9121-0.45508v-1.1621c-0.048-0.21879-0.1195-0.4393-0.1992-0.63867-0.1-0.5-0.5008-0.89922-0.8008-1.1992l-1-1-0.1992-0.19922c-0.5-0.49999-1.1008-1.1016-1.8008-1.6016-0.147-0.10502-0.179-0.25665-0.3145-0.35742l-1.6855-0.8418 0.5-2c0.05-0.55 0.1-1.1 0-1.5-0.143-0.57188-0.5603-0.86935-0.9297-1.2148l-0.5703-0.28516-0.5-1c-0.2246-0.27539-0.4492-0.55078-0.6992-0.80078-0.5-0.5-1.1-0.9-1.5-1-0.023-0.01509 0.011-0.03964-0.01-0.05273l-0.2908-0.14649 1-3 1.7383 0.58008c0.3379 0.02261 0.6805 5.6e-5 0.9609-0.08008 0.6-0.2 1-0.79923 1-1.6992 0-0.56249-0.1994-1.1714-0.3515-1.7578l-0.3477-1.043v-0.59961c-0.05-0.2752-0.099-0.50039-0.1992-0.90039-0.075-0.60197-0.2934-1.4223-0.4531-2.1074l-0.3477-1.3926v-6l0.6523-2.6074c0.053-0.22538 0.1237-0.54485 0.1485-0.69336 0.032-0.11357 0.058-0.14393 0.082-0.22656l0.1172-0.47266 0.1777-0.35742c0.045-0.10781 0.05-0.17057 0.1231-0.3418 0.4-0.59999 0.9984-2.0008 0.8984-2.8008-0.2-0.79999-1.2-1.2008-2-0.80078-0.8582 0.28606-1.4113 1.1981-1.8105 1.7168l-0.3887 0.58398-0.3027 0.40234c-0.075 0.10554-0.074 0.12385-0.1973 0.29688-0.25 0.29999-0.625 0.80039-1 1.3008l-1.5 2-0.4434 0.14844c-0.025 0.01019-0.028 0.03946-0.057 0.05078-0.5 0.1-1.4992 0.5-2.1992 1-0.6 0.49999-1 1.1-1 1.5 0 0.11263 0.014 0.23025 0.074 0.30078h0.6256l-0.9277 1.3906c-0.263 0.51033-0.5141 0.96571-0.7715 1.6094-0.3 0.99999-0.3008 2-0.3008 2.5s-8e-4 0.5 0.1992 1c0.025 0.12385 0.096 0.37194 0.1485 0.54492l0.6523 1.9551v7l-0.5996 0.59961c-0.1502 0.1998-0.2504 0.34961-0.4004 0.59961-0.15 0.25-0.325 0.52539-0.5 0.80078l-0.5 1-0.4004 0.40039c-0.1502 0.1998-0.3504 0.44961-0.4004 0.59961-0.08 0.11939-0.1514 0.36006-0.1992 0.51758v0.48242l-2 3h-1.8008c-0.5 0-0.89844 7.89e-4 -1.3984 0.30078-0.5 0.4-1.1016 0.99845-1.6016 1.8984-0.5 0.79999-0.89844 1.8-0.89844 2.5 0 0.59999 0.39844 1 0.89844 1.5l1.8008 1.8008v2l-1.8008 1.8008-1.1992 1.1992-3-1-1.0742-0.53711c-0.17839-0.0838-0.49331-0.23075-0.625-0.26367-0.0985-0.06565-0.11255-0.09439-0.16406-0.13086l-0.13672-0.068359-0.19922-0.19922c-0.1-0.1-0.50078-0.50156-0.80078-0.60156-0.3-0.2-0.70078-0.19922-0.80078-0.19922h-0.19922l-0.66016-0.88086c-0.52693-0.6549-1.3964-1.8618-2.1406-2.4199-0.9-0.7-1.5-0.7-2-0.5-0.166 0.0332-0.34312 0.0331-0.49805 0.09961l-0.70117 0.70117-3-2v-0.67383c-0.0706-0.16994-0.18808-0.33755-0.30078-0.52539-0.2-0.25-0.44961-0.52539-0.69922-0.80078l-1-1v-1l0.32422-0.32422c0.1547-0.26751 0.375-0.52618 0.375-0.97656 0-0.46852-0.18549-1.0485-0.33399-1.6055l-0.36523-1.0938v-1.3008c0-0.7 7.8e-4 -1.6984-0.19922-2.3984-0.0556-0.33352-0.19563-0.57253-0.33398-0.83398l-0.4668-0.4668v-0.71289c-0.10189-0.39839-0.1426-0.78676-0.5-1.2871-0.5-0.69999-1.5008-1.3-2.3008-1.5-0.9-0.2-1.5 0.19922-2 0.69922-0.5 0.49999-0.9 1.1016-1 1.6016-0.1 0.25-0.14961 0.47461-0.19922 0.69922v0.5l-1 2c-0.3 0.69999-0.70078 1.3008-0.80078 1.8008-0.2 0.5-0.19922 0.89923-0.19922 1.6992s0 2.2 0.5 3 1.5 1.2008 2 1.3008c0.0205 0.0082-7e-3 0.02951 0.0117 0.03711l0.4883 0.16211-1 4-1 1-1.4062-0.70312c-0.0911-0.0372-0.21484-0.07813-0.29297-0.09766-0.3-0.2-0.3-0.19922-1-0.19922-0.6 0-2.0008-7.81e-4 -2.8008 0.19922-0.50939 0.06367-0.76814 0.23031-1.082 0.38281l-0.41797 0.41797h-3.3008c-0.7 0-1.6984-7.81e-4 -2.3984 0.19922-0.6 0.1-1.0016 0.50157-1.1016 1.1016-0.2 0.7-0.19844 1.6984 0.10156 2.3984 0.21184 0.31774 0.51546 0.58226 0.79492 0.84766l0.9043 0.45312 0.57031 1.7129c0.13291 0.27032 0.32229 0.60811 0.42969 0.78711 0.18743 0.31238 0.40828 0.38263 0.625 0.5h0.375l1 2-0.30078 0.30078c-0.0852 0.29125-0.25698 0.57721 0 0.89844 0.11985 0.19975 0.3674 0.42833 0.58984 0.66016l1.7109 1.1406-2 1c-0.37539 0.325-0.75078 0.65-0.80078 1-0.11502 0.40256 0.16978 0.77594 0.52539 1.1504l1.2754 0.84961v2l-1 1h-1.8008c-0.5 0-0.89844-7.8e-4 -1.3984 0.19922-0.12424 0.0249-0.3106 0.0738-0.44726 0.125l-1.3535 0.67578-0.73438-0.36719c-0.4512-0.10343-0.86537-0.26603-1.4648-0.13281-0.8 0.2-1.8016 0.8-2.1016 1.5-0.27969 0.48945-0.0923 0.9384 0 1.3984l0.30078 0.60156-0.60156 1.2031c-0.0908 0.25981-0.15938 0.51797-0.19922 0.79688-0.1 0.35-0.14961 0.6002-0.19922 0.90039v1.0996l-0.39844 0.39844c-0.13711 0.28149-0.30078 0.5414-0.30078 0.90234 0 0.22147 0.0142 0.52532 0.0625 0.79102l0.63672 1.9082-2 2h-2l-1-1-1-5v-0.0508c-0.0496-0.2375-0.0992-0.7-0.19922-0.75-0.1-0.2-0.5-0.19844-1 0.10156-0.5 0.4-1.1008 0.99844-1.8008 1.8984-0.7 0.8-1.2992 1.8-1.6992 2.5-0.3 0.6-0.30078 1-0.30078 1.5v1.8008l-0.68164 1.3652c-0.0384 0.0934-0.0995 0.2553-0.11914 0.33399-0.0246 0.0369-0.0661 0.0452-0.0859 0.0742l-0.11332 0.22658-3 2-1.2129-1.2129c-0.24318-0.12837-0.53653-0.21551-0.78711-0.28711-0.7-0.2-1.2992 0.19922-1.6992 0.69922-0.3 0.5-0.3 1.1016 0 1.6016 0.17466 0.21832 0.39405 0.44913 0.61133 0.6543l1.0879 0.54492v3l-2.0684-0.51758c-0.58726 1e-3 -1.0872-8.9e-4 -1.6309 0.2168-1 0.3-1.6008 1.3016-1.8008 2.1016-0.2 0.9 0.2 1.4984 0.5 1.8984 0.15 0.15 0.4377 0.22539 0.65039 0.30078h0.34961l3 2v2l-0.44727 0.89648c-0.11312 0.30181-0.25195 0.65315-0.25195 0.9043 0 0.25 0.0996 0.47461 0.19922 0.69922l0.5 0.5-1 2-2.8438 1.4219c-0.13447 0.0755-0.35912 0.21206-0.45703 0.27734-0.0761 0.0326-0.037-0.0255-0.0977 0l-0.60152 0.30078-0.15039-0.30078c-0.01-0.0145-0.038 0.0163-0.0488 0-0.1-0.4-0.50156-0.99922-1.1016-1.6992-0.7-0.7-1.6984-1.2992-2.3984-1.6992-0.6-0.3-1.0008-0.30156-1.3008 0.39844-0.3 0.6-0.70078 2.0016-0.30078 3.1016 0.17969 0.71875 0.53881 1.2216 0.89844 1.7969l1.4023 1.4023-2 2-1.7285-1.7285c-0.43544-0.31128-0.81749-0.54449-1.2715-0.77148-1-0.5-1.9992-0.5-2.6992 0-0.6 0.5-1 1.5008-1 2.3008 0 0.51387 0.11511 0.86335 0.22656 1.2559l0.47266 0.94336-0.67578 1.3535c-0.0512 0.13666-0.10015 0.32302-0.125 0.44726-0.2 0.5-0.19922 0.89844-0.19922 1.3984v3c0 0.5 7.8e-4 1.1 0.30078 2 0.14342 0.28683 0.32581 0.67478 0.50195 1.0039l1.1973 1.7969v3l-0.62891 0.62891c-0.0636 0.10431-0.14334 0.28548-0.17187 0.37109-0.1 0.15-0.14961 0.325-0.19922 0.5v0.5l-0.30859 0.30859c-0.15521 0.28855-0.41035 0.57226-0.49219 1.3906-0.2 1-0.19844 2.6008 0.10156 3.8008 0.4 1.2 0.99844 1.8 1.8984 2 0.65122 0.16281 1.3886-0.097 2.0352-0.24414l0.76562-0.25586h2.8008c0.5 0 0.89844 7.8e-4 1.3984-0.19922 0.19922-0.0398 0.38566-0.1084 0.59766-0.19922l1.2031-0.60156v0.5625c0.11741 0.14333 0.18752 0.25001 0.5 0.4375 0.0926 0.0556 0.21464 0.21301 0.33398 0.27734l2.166 0.72266-0.78906 3.1562c-0.0177 0.10562-3.3e-4 0.25208-0.0117 0.34375-0.0604 0.24169-0.0312 0.27622-0.0605 0.45312l5.8613-1.9531 2 2 2 1h10l2-2 3 1 1 1v1l-3 2v1l3 4 3-2h3l1 4 4 1 6-1v5l1 1h5l2 4 3 2v3l-1 1 3 6h-1l-1 5 1 1-1 4 1 2 4 1 1-2-1-4 2-2 3 2 1 1h6l1-2 6-1 4-2 3 3h2l2-1-2-12 1-1 6 1 1 1-2 4 2 4-2 3 1 1-1 4 5 2-1 3 3 3-2 3 5 2v4l7 1v-2l6-5 2 1 4-1v-1l5-5h1l4-3 1-2-2-5 1-3-1-3h-5l-2 3-6-2 6-4h1l5-3h2v-2l2-3h2l3-5 2 1 4-4v-1l4-1v-1h6l1 1h4v-6l1-1 3 1 1 2v3l1 2 5-1 2 2 3-3 1-2 6 3v1l6 1 1 2h3l2 2-1 4-1 1-4-3-3 2-3-1-2 1 1 5 1 1 4-2 2 1 3-1 4 3-4 4 4 4-2 2-5-2-2 3h-1l-2 1-1 3-1 2-4-2v-2h-5l-1-3-5 2 1 5h2l2-1 4 3 1 2h4l2 2 3-1 1-2 7 4v2l2 2 4 3 1 2h5l-0.4141 1.2441c0.072-0.14491 0.1442-0.31088 0.2149-0.44336 0.283-0.47171 0.4927-0.77843 0.7226-1.125 0.4715-2.0696 0.4994-4.3982 1.6758-5.4766 1.1-1.2 3.5008-1.1984 5.8008-1.8984 2.3-0.6 4.7-2.0016 7-3.6016 0.2842-0.21008 0.5691-0.4205 0.8555-0.63672-0.3245-0.89858 0.1003-1.9199 1.1445-2.5625 0.9048-0.55681 2.3491-0.88666 3.8477-0.71875 0.2759-0.13349 0.5883-0.38837 0.8515-0.48047 2-0.6 3.6016-7.8e-4 5.1016 1.1992s2.8984 2.7992 3.8984 2.6992c0.5-0.1 0.9008-0.64844 1.1133-1.3984 0.2122-0.75 0.2383-1.7016-0.012-2.6016-0.5-1.9-2.1016-3.4992-2.1016-4.6992s1.6-1.8008 3.5-2.3008c1.8-0.5 3.8-0.89844 5-1.8984 0.7196-0.65418 1.1888-1.4905 1.7012-2.2383 0.2318-0.42975 0.5105-0.81437 0.9004-1.0625 0.5276-0.30783 1.2188-0.38073 1.9453-0.36523 1.0261-0.0449 2.1737-0.0185 3.4531-0.13477 2.1-0.2 4.5-0.80078 5.5-2.3008s0.6016-3.8984 1.6016-4.8984c0.5-0.49998 1.3488-0.65078 2.2363-0.55078s1.8129 0.44922 2.4629 0.94922c1.3 1 1.6992 2.6016 2.6992 2.6016s2.6015-1.6016 4.6015-1.6016 4.3985 1.6 4.8985 3.5c0.1303 0.47049 0.1203 0.95413 0.027 1.4394v4e-3c1e-3 0.12242 0.058 0.21152 0.022 0.35547-0.078 0.30969-0.2444 0.66778-0.4551 1.043 0.081 0.10441 0.1009 0.20612 0.1641 0.31054l2.0431 0.64835 6-1 1 3 3-2 2-2 5 2 1-1-3-6 2-3v-1l1-2h3l2-3-3-2-1 2-7-2 2-4v-1l1-1 7 3 3-2h1v-1l1-1v-2l7-1 0.7305-2.1934c0.024-0.087 0.056-0.23689 0.07-0.30664 0.2-0.5 0.1992-0.49922 0.1992-0.69922 0-0.1-8e-4 -0.50156-0.3008-1.1016-0.067-0.11708-0.1259-0.31876-0.2012-0.45117l-1.4977-2.248 0.6562-1.9707c0.026-0.14596 0.043-0.42343 0.043-0.5293 0-0.31201-0.1314-0.38277-0.248-0.5h-0.4512l0.4688-0.93555c0.1255-0.36223 0.2654-0.66469 0.332-1.2637 0.2-0.8 0.1992-1.8 0.1992-2.5 0-0.6 8e-4 -1-0.1992-1.5-0.1-0.5-0.5008-1.1016-1.3008-1.6016s-2.2008-0.89844-2.8008-0.89844c-0.4083 0-0.5293 0.23549-0.6992 0.4082v0.29102l-3 1-2-1-0.5977-1.1973c-0.1228-0.16759-0.3018-0.36796-0.4023-0.50195-0.3-0.3-0.7-0.30078-1-0.30078h-1l-4-3-0.25-0.25c-0.2375-0.18789-0.6-0.50078-0.75-0.55078-0.3-0.2-0.6992-0.19922-1.1992 0.30078-0.4024 0.40234-0.8319 1.0806-1.207 1.6094l-0.5938 0.89062-0.3008 0.30078-1.5 1.5-0.1992 0.19922-1 1-3-1v-0.71484c-0.041-0.0971-0.1422-0.19964-0.1992-0.28516-0.05-0.15-0.2502-0.3998-0.4004-0.59961l-0.4004-0.40039-0.2129-0.42773c-0.2869-0.45011-0.601-0.94422-1.2871-1.373-0.8-0.5-2.2008-0.9-2.8008-1-0.7-0.2-0.6984-0.2-1.3984 0-0.3 0.05-0.8004 0.17539-1.3008 0.30078l-1.5977 0.39844c-0.3212 0.0941-0.526 0.15024-0.9023 0.30078-0.5 0.1-1.4992 0.50078-2.1992 0.80078-0.6 0.3-1 0.69922-1.5 1.1992l-1.8008 1.8008-1.2012-1.8008c-0.1888-0.19984-0.433-0.40007-0.5996-0.5-0.25-0.2-0.4746-0.19966-0.6992-0.19922l-0.5 0.5-0.8672-1.3008c-0.3923-0.42229-0.7326-0.86623-1.332-1.1992-0.8-0.5-1.8-0.50078-2.5-0.30078-0.4288 0.0715-0.6685 0.27033-0.9297 0.42969l-0.3711 0.37109h-1l-1-1-0.25-0.49805c-0.2848-0.44478-0.583-0.91832-1.25-1.502-0.6694-0.58577-1.6542-1.0349-2.3438-1.4219l-0.7011-0.35156c-0.3156-0.12966-0.5292-0.22656-0.7559-0.22656h-2.6992l-0.6465-0.32422c-0.4133-0.15471-0.8274-0.375-1.3535-0.375-0.35 0-0.675 0.0996-1 0.19922l-1 0.5-1-0.5c-0.325-0.0996-0.65-0.19922-1-0.19922-0.4211 0-0.8109 0.16367-1.2031 0.30078l-0.7969 0.39844h-2l-1.5-0.5c-0.375-0.12539-0.75-0.25078-1-0.30078l-0.5-0.19922-1.0449-0.34766c-0.5254-0.15978-1.1277-0.37789-1.6543-0.45312-0.3-0.1-0.3629-0.14961-0.5508-0.19922h-0.75v-1l1-2 0.7324-0.36523c0.3639-0.32602 0.7346-0.6008 1.0684-1.1348 0.5-0.8 0.9-2.2008 0.5-2.8008-0.3-0.7-1.3016-0.69844-2.1016-0.39844-0.6434 0.28596-1.0896 0.69149-1.5722 1.0723l-0.627 0.62695-2 1-0.5-0.5c-0.2246-0.0996-0.4492-0.19922-0.6992-0.19922-0.2007 0-0.4896 0.0833-0.7227 0.16016l-1.0781 0.53906-0.9199-0.46094c-0.4203-0.11476-0.7808-0.23828-1.3809-0.23828-0.7528 0-1.6289 0.22222-2.4082 0.37695l-1.291 0.32227h-0.3496c-0.2623 0.0496-0.5996 0.0992-0.8496 0.19922-0.3354 0.0671-0.671 0.24788-1.0059 0.4043l-0.7949 0.39648h-7l-1-0.5c-0.325-0.12539-0.65-0.25078-1-0.30078-0.7-0.2-1.2992-0.19922-1.6992-0.19922h-0.3008l-0.8613-0.21484c-0.6461-0.12285-1.8919-0.47436-2.8379-0.28516-1 0.2-1.6016 0.80078-2.1016 1.3008s-0.8984 0.9-0.8984 1.5c0 0.4196 0.1236 0.85571 0.2383 1.3184l0.4609 1.3809h-0.6582c-0.061 0.0406-0.1141 0.14222-0.1426 0.19922-0.08 0.0398-0.1514 0.27599-0.1992 0.39844v0.40234l-2 2h-3l-0.7715-0.77148c-0.1333-0.0926-0.2851-0.14296-0.4277-0.22852-0.25-0.15-0.5254-0.325-0.8008-0.5l-1-0.5-0.8008-0.80078c-0.2-0.2-0.1992-0.2-0.6992 0-0.07 0.0139-0.2196 0.0466-0.3066 0.0703l-2.1934 0.73048-0.3867-0.38672c-0.287-0.0906-0.5717-0.22742-0.9141-0.11328-0.2331 0.0666-0.5216 0.11784-0.7988 0.23242l-1.9004 1.2676-0.6113-1.834c-0.1833-0.27118-0.3919-0.47005-0.5879-0.66602-0.25-0.25-0.6002-0.375-0.9004-0.5h-0.9004l-1.2832-1.9258c-0.1602-0.20244-0.374-0.4306-0.5176-0.57422-0.3121-0.31216-0.5906-0.38271-0.873-0.5h-0.3262l-1.8008-1.8008-0.1992-0.19922-1-1-0.1953-0.58789c-0.288-0.66476-0.6091-1.4773-1.3047-1.9121-0.5718-0.3574-1.3281-0.39811-2.002-0.5h-1.498v-1l2-3h1l1.5 1c0.4246 0.24961 0.8492 0.49922 1.1992 0.69922 0.2251 0.11254 0.3779 0.23031 0.5625 0.30078h0.7383l1 1.5c0.2754 0.375 0.5508 0.75 0.8008 1 0.5 0.5 0.8992 0.5 1.1992 0.5h4l0.6562 0.32812c0.3891 0.11008 0.8585 0.28633 1.1446 0.17188 0.2812-0.11249 0.534-0.41524 0.7871-0.67383l0.4121-0.82617h2l1 1v0.91602c0.072 0.3491 0.1202 0.66263 0.3008 1.084 0.4 0.7 1 1.2992 1.5 1.6992 0.5 0.3 0.8984 0.30078 1.3984-0.19922 0.25-0.25 0.5254-0.625 0.8008-1l1-1.5h0.6738c0.17-0.0706 0.3376-0.18808 0.5254-0.30078 0.25-0.2 0.5254-0.44961 0.8008-0.69922l1-1h0.6426c0.1796-0.0478 0.3576-0.1196 0.5566-0.19922 0.1659-0.0332 0.3505-0.0924 0.5313-0.16601l1.2695-0.63477 0.6582 0.6582c0.1017 0.061 0.2563 0.11408 0.3418 0.14258 0.3 0.2 0.6992 0.19844 1.1992-0.10156 0.5-0.4 1.1016-0.99844 1.6016-1.8984 0.5-0.8 0.8984-1.8 0.8984-2.5 0-0.40029-0.2594-0.72686-0.4668-1.0684l-0.2324-0.23242-1-3v-1l1-1 4-1 0.6348 0.63477c0.1622 0.0738 0.3983 0.13279 0.5644 0.16601 0.5 0.2 1.1016 0.19922 1.6016 0.19922h1.1992l0.3242 0.32422c0.2675 0.1547 0.5262 0.375 0.9766 0.375 0.6023 0 1.3558-0.28334 1.8926-0.42969l0.8066-0.26953h4v1c0 0.3 8e-4 0.70078 0.3008 1.3008 0.4 0.7 0.9992 1.6992 1.6992 1.6992 0.6671 0 1.2203-0.91155 1.6191-1.4297l0.1778-0.26562c0.123-0.20892 0.2188-0.40046 0.3047-0.60938l0.8984-2.6953 3-1 1.4648 2.1973c0.091 0.10659 0.252 0.21871 0.336 0.30273 0.3121 0.31216 0.5906 0.38271 0.873 0.5h0.3262l1.8008 1.8008c0.5 0.5 0.8992 0.9 1.6992 0.5 0.8-0.3 2.2008-1.3008 2.8008-1.8008 0.7-0.5 0.6984-0.49922 0.8984-0.69922l0.8008-0.80078 3-1 1 1.5c0.2496 0.375 0.4992 0.75 0.6992 1 0.059 0.0977 0.058 0.12835 0.098 0.19531l0.2028 0.30469 0.1016 0.30469c0.028 0.067 0.059 0.0977 0.098 0.19531 0.1 0.5 0.5008 1.4992 0.8008 2.1992 0.3 0.6 0.6992 1 1.6992 1 0.5335 0 1.1896-0.10709 1.8672-0.21289l2.4332-0.48633v0.80078c0 0.2-8e-4 0.19922 0.1992 0.19922h0.8008l2 2c0.7 0.7 1.3 1.2992 2 1.6992 0.35 0.15 0.675 0.22539 1 0.30078h1l0.9453 0.94531c0.3921 0.29452 0.7407 0.57037 1.2539 0.85547 0.4569 0.28558 1.0493 0.54167 1.5996 0.79883l1.2012 0.40039 2.6992 1.8008 0.3008 0.19922 0.8008 0.80078c0.1608 0.16087 0.2963 0.21048 0.5625 0.32031l2.6367 0.87891 1 1v0.28906c0.1206 0.27198 0.1547 0.54496 0.6992 1.0117 0.6 0.7 2.0016 1.6992 3.1016 2.1992 0.8578 0.35743 1.4911 0.3981 2.1445 0.5h1.0547l0.9961 0.49805c0.2466 0.0839 0.6035 0.20117 0.8047 0.20117 0.25 0 0.4746-0.0996 0.6992-0.19922l0.5-0.5 2 1 0.5 1c0.2246 0.27539 0.4492 0.55078 0.6992 0.80078 0.5 0.5 1.1008 0.89844 1.8008 0.89844 0.5261 0 0.9402-0.22029 1.3535-0.375l0.6465-0.32422h0.2793c0.2523-0.0721 0.5404-0.12046 0.7207-0.30078 0.041-0.0547 0.1864-0.10342 0.2324-0.16406l0.7676-1.5352 3.8574 0.77148c0.1001 0.0147 0.2539 0.0195 0.3418 0.0293 0.8 0.2 0.8008 0.19922 1.3008 0.19922s1.5008 7.8e-4 2.3008-0.19922c0.5403-0.06 0.9099-0.21441 1.3203-0.36133l0.8789-0.43945h1.8008c0.5 0 0.8992 7.8e-4 1.6992-0.19922 0.602-0.0753 1.4222-0.29335 2.1074-0.45312l0.8574-0.21485c0.4152-0.12084 0.5853-0.16491 0.836-0.33203 0.4-0.1 0.9984-0.5 1.8984-1 0.8-0.5 1.8008-1.1 2.3008-1.5 0.5-0.3 0.5008-0.30156 0.8008-0.60156l2.6992-2.6992c0.3-0.3 0.7008-0.7 0.8008-1.5 0.08-0.31875 0.1514-0.76196 0.1992-1.1953v-2.3047l1.0098-0.50586c0.174-0.20468 0.4085-0.48921 0.4902-0.69336 0.1141-0.28524-0.023-0.6768-0.1133-1.0273l-0.3867-0.77344 0.375-0.75195c0.099-0.40756 0.2498-0.81121 0.125-1.248-0.125-0.43735-0.3829-0.76549-0.625-1.125l-0.875-0.875 0.6074-0.60742c0.072-0.2215 0.092-0.41603 0.092-0.69336 0-0.60236-0.2833-1.3558-0.4297-1.8926l-0.2697-0.80664 0.5-2c0.1254-0.50039 0.2508-1.0008 0.3008-1.3008 0.015-0.0525 0.024-8e-3 0.037-0.0527l0.1622-0.64652h2l1 2v2c0 0.7-8e-4 1.3008 0.1992 1.8008 0.05 0.25 0.1754 0.47461 0.3008 0.69922l0.5 0.5v1c0.05 0.27539 0.099 0.55078 0.1992 0.80078 0.057 0.2852 0.2792 0.57966 0.457 0.85547l0.3438 0.34375 0.3008 0.90234c0.2621 0.60846 0.5238 1.2724 0.8984 1.7969 0.4004 0.48051 0.8568 0.76549 1.2832 1.041l0.5176 0.25977 0.4004 0.40039c0.1998 0.1502 0.4496 0.35039 0.5996 0.40039 0.15 0.1 0.4377 0.14961 0.6504 0.19922h0.3496l0.9688 0.32227c0.624 0.15473 1.2786 0.37695 2.0312 0.37695 1 0 2-0.39844 2.5-0.89844s0.5008-1.1016 0.3008-1.6016c-0.044-0.22206-0.157-0.45713-0.2676-0.66602l-0.5332-0.5332v-3l0.498-0.99609c0.084-0.24658 0.2012-0.60352 0.2012-0.80469 0-0.19204-0.015-0.39664-0.076-0.57617l-0.6232-0.62305 2-3h3l0.4258 0.42578c0.2741 0.12465 0.5471 0.27344 0.875 0.27344 0.7 0 1.6984-0.39844 2.3984-0.89844 0.436-0.36331 0.682-0.73602 0.9453-1.0898l0.3555-0.71094h0.375c0.2167-0.11737 0.4376-0.18762 0.625-0.5 0.3-0.5 0.7008-1.5 0.8008-2 0.039-0.0977 0.07-0.12835 0.098-0.19531l0.1012-0.30469 0.2031-0.30469c0.04-0.067 0.039-0.0977 0.098-0.19531 0.078-0.0977 0.2018-0.26231 0.293-0.39062l1.4059-2.1094h1l3 2-0.6992 2.0977c-0.043 0.31559 0 0.58016 0 0.90234 0 0.90234 0.3141 1.7209 0.4512 2.2559l0.248 0.74414-1 2-1 1h-1.1992c-0.5 0-1.1 7.8e-4 -2 0.30078-0.8 0.4-1.8008 0.99844-2.3008 1.3984-0.5 0.3-0.5008 0.3-0.8008 0.5-0.4 0.1-1 0.50078-1.5 0.80078s-0.8984 0.70078-0.8984 1.3008c0 0.7 0.4 1.6984 1 2.3984 0.7 0.6 1.7 1.0016 2.5 1.1016 0.45 0.1 0.7498 0.14961 1.0996 0.19922h1.0996l1.3652 0.68164c0.093 0.0384 0.2553 0.0995 0.334 0.11914 0.2671 0.17808 0.3009 0.12002 0.4453-0.0898l0.8555-1.711h1.1621c0.2188-0.0479 0.4393-0.11947 0.6387-0.19922 0.333-0.0666 0.6287-0.31836 0.9316-0.5332l0.2676-0.26758 0.5996-0.30078c0.4034-0.26222 0.8263-0.52359 1.2012-0.89844 0.3748-0.37485 0.6362-0.79774 0.8984-1.2012l0.3008-0.59961 1-1h2l0.8789 0.43945c0.4104 0.14692 0.78 0.30129 1.3203 0.36133 0.8 0.2 1.8008 0.2 2.3008 0 0.25-0.05 0.375-0.1375 0.5-0.25v-0.55078l3 1 1 2v1l-4 3h-3.5c-0.5 0-0.5-7.8e-4 -0.5 0.19922v0.80078l-0.7109 0.35547c-0.3539 0.26337-0.7266 0.50933-1.0899 0.94531-0.1953 0.2735-0.4032 0.54214-0.5859 0.85938l-0.6133 1.8398h-2.0156c-0.2342 0.0406-0.4841 0.14222-0.6836 0.19922-0.3335 0.0556-0.5725 0.19563-0.834 0.33398l-0.4668 0.4668h-1.8008c-0.5 0-0.9-7.8e-4 -1.5 0.19922-0.2315 0.0331-0.5178 0.0926-0.793 0.16601l-1.9062 0.63477-0.8008-0.80078c-0.2-0.2-0.1992-0.19922-0.6992-0.19922s-1.4992 0-2.1992 0.5c-0.6 0.5-1.0016 1.5008-1.1016 2.3008-0.1 0.45-0.1496 0.82461-0.1992 1.1992v1l-0.3984 1.1953c-0.1372 0.52938-0.3008 1.0828-0.3008 1.5039 0 0.45079 0.2861 0.77472 0.5254 1.127l0.1738 0.17383 0.3984 0.79688c0.2093 0.32002 0.4211 0.66171 0.6016 0.90234 0.1126 0.11257 0.2448 0.23029 0.375 0.30078h0.625l1 3-3 3h-0.6289c-0.1042 0.0406-0.2855 0.14218-0.3711 0.19922-0.1002 0.0334-0.278 0.12297-0.4004 0.20117l-0.5996 0.59961h-0.7695c-0.4099 0.1019-0.7863 0.14257-1.4297 0.5-0.8 0.5-1.8008 1.5008-2.3008 2.3008-0.5 0.9-0.5 1.4984-0.5 1.8984v0.5c0 0.1 8e-4 0.50156-0.1992 1.1016-0.1 0.7-0.5008 1.6992-0.8008 2.1992s-0.7008 0.5-0.8008 1c-0.2 0.5-0.1992 1.5-0.1992 2s-8e-4 0.50078 0.6992 0.80078c0.6 0.4 2.0008 0.99922 2.8008 1.1992s1.2008-0.20078 1.3008-0.30078c0.2-0.2 0.1984-0.2 0.8984-0.5 0.6-0.4 2.0016-0.99844 2.6016-1.3984 0.7-0.3 0.6984-0.30078 1.3984-0.80078 0.6-0.5 2.0016-1.5 2.6016-2 0.7-0.5 0.6984-0.50078 0.8984-0.80078 0.048-0.19281 0.2437-0.47051 0.3867-0.72266l-0.061-0.0254 0.4751-0.95116 1-1c0.3-0.3 0.7-0.70078 0.5-1.3008-0.053-0.18543-0.1223-0.54207-0.2129-0.76758l-1.2871-1.9316 3-6 1-1h3l2 2v0.5c0.075 0.22461 0.1508 0.44922 0.3008 0.69922 0.4 0.5 0.9984 1.1 1.3984 1.5l0.3008 0.30078 0.1289 0.38867c0.022 0.0525 0.042 0.0416 0.07 0.11133 0.01 0.0409 0.029 0.1733 0.041 0.2207l0.7601 2.2793-0.6875 2.7461c-0.046 0.23462-0.09 0.57122-0.1133 0.75391-0.1 0.4-0.1496 0.6252-0.1992 0.90039v0.59961l-0.2129 0.64062c-0.1402 0.66313-0.4311 1.4578-0.088 2.0586 0.3 0.6 1.3016 1 2.1016 0.5 0.8432-0.46846 1.3807-1.6914 1.7793-2.3418l-0.012 4e-3 0.432-0.86142 0.3008-0.30078 1.6992-1.6992 2.5645 0.85547-0.4493 0.17969c0.19 0.0995 0.4205 0.0472 0.584 0.16406 0.6 0.5 1 1.1008 1 1.8008s-0.4 1.3-0.5 2c-0.2 0.7-0.1984 1.3008 0.1016 1.8008 0.4 0.5 0.9984 0.89844 1.3984 1.3984 0.3 0.5 0.3008 1.1008 0.8008 1.8008s1.5 1.3008 2 1.8008 0.5008 0.9 0.8008 1.5c0.4 0.7 0.9992 1.6992 1.6992 2.1992s1.2992 0.50078 2.1992 0.30078c0.8-0.1 1.8016-0.5 2.1016-1 0.4-0.5-8e-4 -1.1 0.1992-2 0.2-0.8 0.8008-1.8 0.8008-3 0-1.1-0.6016-2.5016-1.1016-3.1016-0.5-0.7-0.8992-0.69844-1.1992-1.3984-0.3-0.6-0.7-2.0008-1-2.8008s-0.6992-1.2-0.6992-2 0.3992-2.2 0.6992-3c0.1015-0.27062 0.2449-0.42046 0.3809-0.5918l-0.3985 0.16016 0.0176-0.06836 1-1 0.7324 0.36523-0.3867 0.15625c0.061 8e-3 0.088-0.0379 0.1543-0.0215 0.8 0.2 2.2 0.8 3 1s1.2-0.19922 1.5-0.69922 0.6992-1.1008 0.6992-1.8008-0.3984-1.3008-0.8984-1.8008c-0.1426-0.14257-0.2238-0.34657-0.3711-0.48438l-1.4297-0.71482 0.7832-3.1289c0.01-0.0425 0.011-0.13507 0.018-0.17187 0.01-0.0332 0.024-3e-3 0.033-0.0332l0.1658-0.66602h3l0.5 0.5c0.2504 0.12539 0.5008 0.25078 0.8008 0.30078 0.7 0.2 1.6984 0.19922 2.3984 0.19922h1.3008l0.3008 0.30078 1.6992 1.6992v2l-0.5996 1.2012c-0.078 0.18887-0.1679 0.43305-0.2012 0.59961-0.2 0.5-0.1992 0.89844-0.1992 1.3984s-8e-4 1.1016 0.6992 1.6016c0.6 0.5 2.0016 0.89844 2.6016 0.89844 0.3993 0 0.5698-0.1474 0.6992-0.35156v-0.34766l1-1c0.2496-0.27539 0.4992-0.55078 0.6992-0.80078 0.1805-0.30078 0.2286-0.4167 0.3008-0.60156v-0.59766h0.5977c0.1848-0.0722 0.3007-0.12031 0.6015-0.30078 0.1264-0.1011 0.3159-0.23348 0.4551-0.35352l1.3457-1.3457h4l0.3848 0.38477c0.3489 0.15817 0.6221 0.34678 1.3144 0.41601 1 0.2 2.6 0.19922 3.5 0.19922 0.8 0 0.8 7.8e-4 1-0.19922 0.1-0.1 0.5-0.50078 0.5-0.80078 0-0.0821-0.066-0.307-0.1094-0.41016l-0.5898-0.58984 0.3008-1.2031c0.093-0.77737 0.3062-1.6844 0-2.2969-0.1834-0.48891-0.5522-0.73504-0.916-1.0391l-1.3848-0.46094 1.8008-1.8008 0.1992-0.19922 0.8008-0.80078 0.1992-0.19922h0.1992c0.1 0 0.5008 7.8e-4 0.8008-0.69922 0.1168-0.23359 0.3198-0.76268 0.4668-1.168l0.5332-2.1328 1.6992-1.6992 0.8008-0.80078c0.5-0.5 1.5-1.4992 2-2.1992 0.3124-0.37492 0.3826-0.64557 0.5-0.9375v-0.36328l0.8066-0.80664c0.3319-0.3763 0.6628-0.72946 0.9942-1.1934 0.25-0.35 0.4746-0.675 0.6992-1l0.5-1 1.6992-1.6992 0.3008-0.30078 3-3h2v0.33594c0.1591 0.15385 0.2193 0.36328 0.8008 0.36328 0.9 0 2.5-0.39844 3.5-0.89844s1.4-1.1 1.5-2c0.2-0.8 0.1992-1.8008 0.1992-2.3008v-0.5h-0.8008c-0.9 0-2.5-7.8e-4 -3.5 0.19922-0.5986 0.0599-0.8571 0.17412-1.1972 0.29883l-0.502 0.50195-0.9023-0.30078c-0.6085-0.0938-1.2725-0.29968-1.7969 0-0.3314 0.16568-0.5682 0.52747-0.8281 0.88476l-0.4727 1.416-1-0.5c-0.2754-4.4e-4 -0.5508-1e-3 -0.8008 0.19922-0.2238 0.13432-0.4612 0.42714-0.6719 0.7168l-0.5273 1.584-1.5-0.5c-0.4246-4.4e-4 -0.8492-1e-3 -1.1992 0.19922-0.6 0.3-1.0016 1.3-1.1016 2-0.08 0.23878-0.1514 0.3357-0.1992 0.51758v0.7832l-0.5625 0.28125c-0.3742 0.2828-0.8117 0.56862-1.1367 1.2188-0.1806 0.48144-0.2286 1.0744-0.3008 1.6856v1.8144h-0.666c-0.131 0.12146-0.2089 0.29151-0.334 0.5-0.079 0.13136-0.2473 0.34315-0.3418 0.52539l-0.6582 1.9746h-3l-1-1 1-3h0.416c0.2034-0.16995 0.409-0.29081 0.584-0.69922 0.3-0.6 0.7008-2.0008 0.8008-2.8008 0.1-0.4 0.1496-0.5873 0.1992-0.84961v-0.65039l0.5-1c0.1254-0.27539 0.2508-0.55078 0.3008-0.80078 0.057-0.14246 0.1586-0.26777 0.1992-0.39844v-0.80078l3-2h0.4492c0.2375-0.0754 0.5-0.15078 0.75-0.30078 0.5-0.4 1.1-0.99922 1.5-1.6992 0.3-0.7 0.3-1.3 0-2-0.4-0.7-0.9984-1.2992-1.8984-1.6992-0.8-0.3-1.8016-0.30078-2.6016 0.19922-0.5138 0.28547-0.9396 0.79353-1.3691 1.2559l-0.8301 1.2441-3 1-2-3v-0.18164c-0.1468-0.36097-0.21-0.6998-0.6992-1.1191-0.541-0.63109-1.6765-1.45-2.3457-1.9824l-0.7363-0.55274c-0.071-0.0497-0.2169-0.15189-0.2754-0.1914l-1.9434-0.97266-1.6992-1.6992c-0.2582-0.25816-0.3657-0.29722-0.6895-0.42969l-0.6562-0.21875c-0.5254-0.15978-1.1277-0.37789-1.6543-0.45312-0.3-0.1-0.5504-0.14961-0.8008-0.19922h-0.5l-0.7656-0.25586c-0.6466-0.14709-1.384-0.40695-2.0352-0.24414-0.9 0.2-1.4984 0.80078-1.8984 1.3008-0.15 0.25-0.2254 0.47461-0.3008 0.69922v0.5l-1 1c-0.2496 0.27539-0.4992 0.55078-0.6992 0.80078-0.15 0.25-0.2254 0.47461-0.3008 0.69922v0.5l-1 1c-0.2496 0.27539-0.4992 0.55078-0.6992 0.80078-0.15 0.25-0.2254 0.47461-0.3008 0.69922v0.5l-1.8008 1.8008-0.1992 0.19922-1 1-2-1-1-1v-0.76953c-0.1019-0.40983-0.1426-0.78631-0.5-1.4297-0.5-0.8-1.5008-1.8008-2.3008-2.3008-0.9-0.5-1.4984-0.5-1.8984-0.5h-8.3008v-1.0508c-0.075-0.2625-0.1508-0.5-0.3008-0.75-0.4-0.5-0.9992-0.9-1.6992-1-0.7-0.2-1.3008-0.19922-1.8008-0.19922h-3.1992l-0.8789-0.43945c-0.4104-0.14692-0.78-0.30129-1.3203-0.36133-0.4-0.1-0.7377-0.14961-1.1504-0.19922h-1.6504v-0.59961c-0.125-0.15019-0.25-0.25039-0.5-0.40039-0.5-0.3-1.5-0.70078-2-0.80078-0.022-9e-3 5e-4 -0.0311-0.022-0.0391l-0.478-0.16012v-4l3-1 1.875 1.25c0.1797 0.0875 0.5 0.2 0.625 0.25 0.2692 0.10769 0.3956 0.0272 0.5-0.13477v-0.36523l0.4531-0.45312c0.385-0.4615 0.8723-0.96038 1.0469-1.7461 0.2-0.8-0.2008-1.8008-0.8008-2.3008-0.7-0.5-1.6984-0.50078-2.3984-0.30078-0.3 0.05-0.5504 0.17539-0.8008 0.30078l-0.5 0.5h-3l-1-1 1.4102-1.4102c0.3595-0.48267 0.7237-0.94566 0.8906-1.3906 0.4-0.9 0-1.4984-0.5-1.8984-0.5-0.3-1.1-0.30078-2 0.19922-0.8 0.5-1.8008 1.5-2.3008 2s-0.5 0.49922-0.5 0.69922v0.80078l-0.5 1c-0.1254 0.27539-0.2508 0.55078-0.3008 0.80078-0.057 0.14256-0.1586 0.29448-0.1992 0.42774v0.77148l-3 3-3 1h-3l-1-0.5c-0.325-0.12539-0.65-0.25078-1-0.30078-0.7-0.2-1.3008-0.19922-1.8008-0.19922h-2.1992l-3-5-0.1133-0.33984c-0.02-0.0488-0.061-0.0986-0.086-0.16016-0.1-0.5-0.5008-1.5-0.8008-2-0.125-0.20828-0.2708-0.37866-0.416-0.5h-0.5839l-0.3496-1.3984c-0.2642-0.66912-0.5124-1.4636-0.9512-1.9023-0.7-0.7-1.6984-0.69922-2.3984-0.69922h-1.5c-0.5 0-1.1008-7.8e-4 -1.8008 0.19922-0.1747 0.025-0.3805 0.0258-0.5488 0.0742l-1.4512 0.72658-3-2v-1.1992c0-0.5 8e-4 -1.1008-0.1992-1.8008-0.067-0.46682-0.2444-0.82307-0.4004-1.2012l-0.4004-0.79883v-0.40039c-0.05-0.19981-0.099-0.44961-0.1992-0.59961-0.033-0.1002-0.123-0.278-0.2012-0.40039l-0.5996-0.59961v-1.6992c0-0.3 8e-4 -0.30078-0.1992-0.80078-0.1-0.5-0.5016-1.5008-1.1016-2.3008-0.6473-0.8322-1.5055-1.3578-2.0332-1.7559l-0.666-0.44336-0.3008-0.30078-1.6992-1.6992 0.6172-1.8535c0.065-0.39579 0.082-0.73713 0.082-1.1465 0-0.90234-0.3141-1.7209-0.4512-2.2559l-0.248-0.74414v-0.69922c0-0.59999-8e-4 -2.0008-0.3008-2.8008-0.4-0.79999-0.9984-1.2008-1.3984-1.3008-0.3-0.2-0.3008-0.20001-0.8008-0.5-0.021-0.01644-0.052-0.0649-0.074-0.08203l-2.426-1.6172 1-4h0.584c0.1452-0.12134 0.291-0.29172 0.416-0.5 0.3-0.5 0.7008-1.5 0.8008-2 0.2-0.5 0.1984-0.50079-0.1016-0.80078l-1.3984-1.3984-0.3008-0.30078-0.076-0.1543c-0.032-0.0464-0.074-0.07312-0.123-0.14648-0.011-0.04363-0.038-0.15855-0.055-0.20703l-0.746-1.4922 0.3711-1.1113c0.1021-0.57911 0.2588-1.17 0.1289-1.6895-0.082-0.37007-0.1462-0.6763-0.2871-0.98633l-1.2129-1.2129 1.1855-1.1855c0.2853-0.48179 0.6851-1.0288 0.5137-1.3145-0.2497-0.31218-1.1258-0.3827-1.873-0.5h-1.8262l-0.7441-1.4883c-0.052-0.06793-0.2107-0.15066-0.2559-0.21094-0.1127-0.11268-0.1809-0.23022-0.3008-0.30078h-0.6992v-1.5c-0.05-0.375-0.099-0.75-0.1992-1-0.1-0.5-0.5016-0.5-1.1016-0.5-0.7 0-1.6984 7.89e-4 -2.3984 0.30078-0.6 0.4-1.0016 0.99844-1.1016 1.3984l-0.1992 0.30078-0.2734 0.54492c-0.1446 0.39665-0.4396 0.87804-0.5274 1.7559-0.2 0.99999-0.1992 2.4-0.1992 3v1.5c0 0.89999-8e-4 2.4984 0.1992 3.3984 0.1 0.79999 0.5016 0.80078 0.6016 0.80078h0.1992l-0.2812 0.5625c-0.037 0.08852 0.039-1.06e-4 -0.02 0.13672-0.033 0.04898-0.1189 0.1541-0.1543 0.21289l-1.5445 3.0879h-1.9473c-0.2512 0.06316-0.5414 0.21055-0.7519 0.30078-0.4165 0.27766-0.7169 0.74297-1.041 1.1797l-0.2598 0.51953-1.8008 1.8008-0.1992 0.19922-0.8008 0.80078-0.1992 0.19922-0.3633 0.12109c-0.065 0.02672-0.039 0.03898-0.1367 0.07813-0.1239 0.02477-0.3719 0.09583-0.5449 0.14844l-1.9551 0.65234h-0.5c-0.2504 0.04961-0.5008 0.09922-0.8008 0.19922-0.35 0.05-0.7746 0.17539-1.1992 0.30078l-1.5 0.5h-0.3496c-0.2127 0.04961-0.5004 0.09922-0.6504 0.19922-0.3 0.1-0.7 0.5-1 1-0.3 0.49999-0.7 1.1-0.5 2 0.085 0.33868 0.2565 0.79019 0.4238 1.1855l1.0762 1.6152-1 3h-2l-3-1v-0.85742c-0.041-0.12616-0.1422-0.1993-0.1992-0.3418-0.05-0.25-0.1754-0.52539-0.3008-0.80078l-0.5-1v-0.19922c-0.1019-0.32794-0.1425-0.64246-0.5-1-0.5-0.49999-1.5-1.1008-2.5-1.3008-0.7135-0.14269-1.3215 0.03784-1.9258 0.14258l-1.0742 0.35742-1-1v-1l0.6523-1.9551c0.053-0.17298 0.1237-0.42107 0.1485-0.54492 0.049-0.12305 0.067-0.12279 0.098-0.19727l0.1012-0.30273 0.2051-0.41016c0.1235-0.39882 0.4723-0.94092 0.096-1.7891-0.3-0.79999-1.3008-1.8-2.3008-2-1-0.1-1.9992 0.50001-2.6992 1-0.2023 0.1686-0.3375 0.25856-0.5059 0.4043l-0.7952 0.79492-2 1h-1c-0.325 0.04961-0.65 0.09922-1 0.19922-0.7 0.1-1.2992 0.5-1.6992 1-0.3 0.49999-0.3 1.1016 0 1.6016 0.1551 0.19393 0.2847 0.40068 0.4648 0.58203l1.2344 0.61719-0.5 1.5c-0.05 0.42461-0.1 0.84922 0 1.1992 0.1224 0.36727 0.45 0.63176 0.7344 0.91797l0.7656 0.38281v2l-3 2-0.5-0.5c-0.22-0.04597-0.4661-0.09323-0.6992 0-0.3738 0.14951-0.7948 0.55078-1.1973 0.89648l-0.6035 0.60352h-0.6426c-0.1796 0.04777-0.3576 0.1196-0.5566 0.19922-0.125 0.025-0.3594 0.09712-0.5 0.15039l-1.3008 0.65039h-1.4492c-0.4375 0.04961-0.9 0.09922-1.25 0.19922-0.4288 0.07146-0.6685 0.27033-0.9297 0.42969l-0.3711 0.37109h-1l-2-2-1-2 0.6523-1.957c0.064-0.24761 0.1188-0.53438 0.1485-0.74219 0.2-0.59999 0.1992-1 0.1992-1.5v-1.8008l0.3984-0.39844c0.1372-0.28149 0.3008-0.54141 0.3008-0.90234 0-0.16844 0.03-0.40535 0-0.60156l-0.6992-2.0977 2.416-1.6113c0.025-0.01945 0.061-0.06931 0.084-0.08789l0.5-0.30078 0.8906-0.59375c0.5288-0.37553 1.2071-0.80469 1.6094-1.207 0.3575-0.3575 0.3981-0.60239 0.5-0.85742v-0.3418l0.5176-0.51758c0.166-0.23832 0.3017-0.42189 0.4824-0.7832 0.3-0.7 0.7008-1.6984 0.8008-2.3984 0.2-0.59999 0.1992-1.0008 0.1992-1.3008v-4l1-2 2.1934-1.4609c0.087-0.0634 0.2367-0.18239 0.3066-0.23828 0.5-0.29999 0.5008-0.30157 0.8008-0.60156 0.4-0.4 0.9992-1 1.1992-1.5 0.2-0.5-0.2008-0.90001-0.8008-1.5l-2.6992-2.6992v-0.90039c-0.125-0.3498-0.25-0.74961-0.5-1.0996-0.4556-0.63789-1.293-1.1528-1.8223-1.5488l-0.6777-0.45117-0.5-0.30078c-0.5-0.4-1.5008-0.99844-2.8008-0.89844zm-121.16 75.754c0.6306-0.0151 1.3699 0.18047 1.7637 0.24609 0.7 0.2 0.7 0.19922 0.5 0.69922-0.1 0.5-0.5016 1.5-1.1016 2-0.7 0.5-1.6992 0.50078-2.1992-0.19922-0.5-0.6-0.5008-2 0.1992-2.5 0.2063-0.17187 0.5076-0.23817 0.8379-0.24609zm158.66 93.258c0.02 0.2774-0.052 0.54146-0.1992 0.79102 0.147-0.24967 0.2196-0.5135 0.1992-0.79102zm-0.2129 0.81445c-0.1513 0.24806-0.374 0.48286-0.6543 0.69727 0.2802-0.21442 0.5031-0.4492 0.6543-0.69727zm-0.6738 0.71094c-0.5792 0.43734-1.3879 0.79765-2.2715 1.0566 0.8836-0.25909 1.6925-0.6192 2.2715-1.0566zm-2.3047 1.082c-0.4973 0.46314-1.0036 0.87935-1.5234 1.2285 0.5198-0.34932 1.0262-0.76528 1.5234-1.2285zm-1.5586 1.252c-0.5291 0.35185-1.0727 0.6337-1.6348 0.82226 0.5621-0.18877 1.1057-0.47023 1.6348-0.82226zm-6.0625 5.9961c-0.1158 0.61105-0.2871 1.2248-0.5742 1.8066 0.2871-0.58182 0.4584-1.1956 0.5742-1.8066zm-0.5957 1.8535c-0.1959 0.43442-0.4601 0.84576-0.7715 1.2305 0.3114-0.38472 0.5757-0.79605 0.7715-1.2305zm-1.8945 2.3672c-0.7777 0.66317-1.6363 1.2055-2.377 1.6016 0.7409-0.39632 1.5995-0.93817 2.377-1.6016zm-3.1738 6.4043c0.4302 0.90379 0.8448 1.79 1.0703 2.6719-0.2256-0.88191-0.64-1.7681-1.0703-2.6719zm1.0878 2.7363c0.1199 0.49024 0.1706 0.97769 0.1641 1.4434 0.01-0.46568-0.044-0.95313-0.1641-1.4434zm0.1641 1.502c-0.012 0.46241-0.081 0.90157-0.1992 1.2969 0.1181-0.39537 0.1878-0.83443 0.1992-1.2969zm-0.7793 2.4199c-0.2819 0.58849-0.5105 1.1902-0.9785 1.7285 0.4679-0.53829 0.6966-1.1401 0.9785-1.7285zm-57.041 7.4863c-0.2741 0.6358-0.4473 1.272-0.4473 2.0312 0-0.75926 0.1732-1.3954 0.4473-2.0312zm33.914 1.7539c0.098 0.0277 0.2016 0.0496 0.2988 0.0781-0.1031-0.0304-0.1943-0.0486-0.2988-0.0781zm-4.7618 0.50781c-0.8 0.5-1.7996 0.89961-2.8496 1.2246 1.05-0.325 2.0496-0.72461 2.8496-1.2246zm-2.8496 1.2246c-1.05 0.325-2.1504 0.57539-3.1504 0.77539 1-0.2 2.1004-0.45039 3.1504-0.77539zm-24.934 3.3906c0.5924 0.68623 1.2795 1.1819 1.9688 1.6738-0.6893-0.49195-1.3763-0.9879-1.9688-1.6738zm14.971 0.28321c0.6959 1.0008 1.7272 2.0807 2.3106 3.1016-0.5834-1.0209-1.6147-2.1007-2.3106-3.1016zm2.3106 3.1016c0.2249 0.325 0.3683 0.63135 0.4414 0.91601-0.073-0.28466-0.2165-0.59101-0.4414-0.91601zm0.4414 0.91601c0.073 0.28467 0.076 0.54766 0.02 0.78516 0.056-0.2375 0.053-0.50049-0.02-0.78516zm-0.084 0.98243c-0.1555 0.37461-0.435 0.69111-0.8574 0.90234 0.4224-0.21123 0.7019-0.52773 0.8574-0.90234zm-10.033 2.752c0.675 0.3998 1.475 0.65039 2.375 0.65039-0.9 0-1.7-0.25059-2.375-0.65039z" />
</svg>