<?xml version="1.0" encoding="UTF-8"?>
<svg width="1800" height="900" version="1.1" xmlns="http://www.w3.org/2000/svg">
  <MetaInfo xmlns="http://www.prognoz.ru">
    <Geo>
      <GeoItem X="0" Y="0" Latitude="90" Longitude="-180"/>
      <GeoItem X="1800" Y="900" Latitude="-90" Longitude="180"/>
    </Geo>
  </MetaInfo>
  <path d="m1137 684-5 4v3l5 2 5 1 2 4-7-2-1 1-3 2 1 4-3 1v5l-4-1-1 1-5 2-1-2-3-1-2-6h-3l-2 1-4-4-4 2 5 6-7 1-1 2v1l-3 4 1 4 6-3 1 1 1 2 4 2 1 1-6 4-2-2h-2l-7 1v-4l-1-1v-5l-5 1-1-4-5 3v2l-1 2 1 5h-5v1l2 4-4 1-1 2v1l-1 4-4 4v1l-1 1v3l-1 1v4l-1 3-1 1-1 3-2 3 1 3 1 1v3l-2 3 1 2 1 1 1-1 1-4h1l4-6 2 1v1l-2 2v1l-1 3-1 2-1 1v3l-1 1-1 4 1 1 3 2 3-3v-1h4l1-1 3 2 1-3 3 2 2-2h1l2-2h2l1 3-4 1v3h-2l-1 4-2 2 1 2-1 2 1 4h-1v3l1 3h1l3-1v-1l1-2 2-1h3v2l-1 2 2 3-1 1v2l-1 1-2 6 1 1-1 2-5 1-1-2v-3l1-4v-1l-2-2-4-2v-1l-2-2-3 1-1-2-4-1-1 2v3l2 2h2l1 1 3 1v4l-1 1-3-2-3 3v3l-2 2h-1l-4 1-4 2h-1v-1l-4 3v1l1 3 1 1 5-1v-1l3-3h1l3-2 3 3v1l-1 1-1 2v3l-2 2v2l-1 2-3 3-2 4h-1v2l3 4 2-2v-2l1-1v-3h3l1-1 2-1 3-3h1l1-3v-1l1-3v-2l5-1-2-3v-1l1-1 4 1 1-1 2 1 3-3h1l3-3v-2l1-1v-3l1-2 9-3h1l2-1 1-2 3-1 1-1 1-3-1-2 1-2v-3l2-2v-1l1-1h1l4-2 3 1v3l2 1 1 2 1 1 1 2 1 1v1l-1 3-3-1-1-1-2-3-3-3-3 3 2 2-1 2 1 2v2h1l2 2 1 3v1l1 3 1 5 3 1 1-2h5l3 2 3-1 2 1h4l1 3v3l1 2v2l-2 1-1 4h1l2 1 2-2v-2l3-1v-3l2-2h1l1-3-1-2 1-2-1-2h1l1-2 2-1h2v1l-1 3 1 2-1 1 3 1v2h7l2-2 2 1 2-3h1l2 3-2 2v6l4 3 3 1 1-1 2 1h7l2-2-2-3 1-2-1-1v-3l-2-1-2-4-2-2v-1l-4-1v-2l1-1h3l2-3-1-1-2-1-2-2v-1h1l-1-3v-2l3-1v-2l2-1 2-3-3-1-1 1-4-4 3-3 2-1v-3l-1-2 2-3-2-2 2-1v-4h2v-3l2-1v-4l4 4v-3l4-2v-1h1l1-1h2l2-2-1-2 2-4 1 1 3.7109-0.92773 0.4551 0.0937 0.834 0.83403h5l0.5254-0.52539c0.1998-0.1502 0.4238-0.32461 0.6738-0.47461s0.5254-0.325 0.8008-0.5l1-0.5 0.5-0.5c0.2246-0.175 0.4492-0.35 0.6992-0.5 0.5-0.3 1.1008-0.7 1.8008-0.5 0.3774 0.10782 0.7276 0.33203 1.0781 0.57812l0.9219 0.92188h0.9746c0.3002 0.0754 0.5762 0.15078 0.8262 0.30078 0.2452 0.19617 0.4667 0.44224 0.6992 0.69922l0.5 1 1.4414 0.48047c0.4124 0.23096 0.8016 0.4617 1.0586 0.71875 0.5 0.5 0.5 1.1008 0.5 1.8008v4l-1 3v1l1 1v2l1 3-1 2-2 1-3-2-2 2v2l-1 1v2l-1 1-1 3-1 1v2l1 3-1 2v8l3 1h1l1-3v-4l2-1h2v-2h2l2-3v-1l4-4v-2l2-1v-1l4-1v1h4l1 1 2-2 2 1 3-1v-3l2-1 1-3v-3l1-2v-2l-0.5-1.5c-0.1254-0.42461-0.2508-0.84922-0.3008-1.1992-0.1-0.3-0.1496-0.55098-0.1992-0.76367v-0.53711l-0.4062-0.40625c-0.1441-0.26282-0.293-0.58255-0.293-1.0938 0-0.8 0.3992-2.2008 0.6992-2.8008 0.1586-0.37005 0.3424-0.54334 0.498-0.69922h0.502v-1.5254c0.05-0.39981 0.099-0.82383 0.1992-1.1738 0.058-0.34933 0.2214-0.63134 0.4043-0.9043l0.3965-0.39648 1-2v-0.5c0-0.5 8e-4 -1.5008 0.3008-2.3008 0.2156-0.48516 0.4851-0.88065 0.7539-1.2539l0.9453-0.94531v-1.6992c0-0.3-8e-4 -0.3 0.1992-1 0.05-0.3 0.1754-0.80039 0.3008-1.3008l0.5-2v-7l-0.8984-0.44922c-0.2847-0.2205-0.5718-0.46371-0.8008-0.75-0.3-0.5-0.3016-1.1016-0.6016-1.6016-0.4-0.5-0.9984-0.89922-1.3984-1.1992-0.3-0.3-0.3016-0.69922-0.6016-1.1992-0.4-0.5-1-1.1016-1.5-1.6016s-0.8984-0.89922-1.3984-0.69922-1.1 0.79922-2 1.1992c-0.8 0.3-1.8016 0.3-2.6016 0.5-0.9 0.1-1.5 0.50156-2 0.60156-0.2108 0.0843-0.4084 0.13367-0.6211 0.19922h-0.5781l-4 3-0.1992 0.19922-0.8008 0.80078 1 3 1 1h3.6992c0.6 0 2.0008-7.8e-4 2.8008 0.19922 0.8 0.1 1.2008 0.50078 1.3008 0.80078 0.2 0.3 0.1992 0.70078 0.1992 1.3008v2.8984c0 0.1 0 0.50156-0.5 1.1016-0.2339 0.32745-0.5852 0.7272-0.9355 1.1348l-1.5645 1.5644v1c-0.125 0.37461-0.25 0.74922-0.5 1.1992-0.5 0.8-1.4992 1.8016-2.1992 2.1016-0.3655 0.24364-0.6508 0.18817-0.8906 0.10938l-0.4102-0.41016-1 1-0.959 1.916c-0.096 0.12619-0.2076 0.25056-0.541 0.58398-0.5 0.5-1.4992 1.5-2.6992 2-1.1 0.5-2.5008 0.49922-3.3008 0.19922-0.8-0.4-1.1992-1-1.1992-1.5 0-0.27165 0.1152-0.51025 0.2226-0.72266l0.4766-0.47656-0.4766-0.47656c-0.1074-0.21241-0.2226-0.45101-0.2226-0.72266 0-0.23022 0.087-0.48502 0.1777-0.75781l0.5215-1.043-0.4023-0.80469c-0.069-0.41471-0.1006-0.84786 0.2031-1.3945 0.2787-0.44596 0.8333-0.94995 1.3769-1.4336l1.8223-1.3672v-1l-1-1h-1.6133c-0.6437-0.10988-1.2762-0.26558-1.5859-0.69922-0.3117-0.37407-0.2697-1.0559-0.1973-1.7129l0.3965-1.5879-0.6172-0.61719c-0.1228-0.22237-0.2587-0.43539-0.3828-0.68359-0.3-0.7-0.6992-1.6984-0.6992-2.3984 0-0.30909 0.1045-0.56464 0.207-0.80859l0.4922-0.49219-1-2-2-1-1.9238 0.64062c-0.2012 0.0591-0.4373 0.13238-0.5762 0.16016l-0.5 0.19922-3 1-1 2v1c-0.05 0.325-0.099 0.65-0.1992 1-0.058 0.40847-0.2155 0.77855-0.3594 1.1191l-0.4414 0.88086v0.51367c-0.05 0.2375-0.099 0.48711-0.1992 0.78711-0.1 0.7-0.5016 1.7-1.1016 2-0.7 0.4-1.7-7.8e-4 -2.5-0.30078-0.4455-0.14851-0.8159-0.32151-1.1387-0.4707 0-2e-3 -0.01-2e-3 -0.012-4e-3l-1.0485-0.5253h-0.8008c-0.2 0-0.2-7.8e-4 -0.5-0.30078l-1.6992-1.6992-1.2012-0.59961c-0.1889-0.12207-0.433-0.30042-0.5996-0.40039-0.5-0.3-0.9-0.69922-1-1.1992-0.1-0.25-0.1496-0.52598-0.1992-0.82617v-0.97461l-0.5586-1.1191c-0.1027-0.24309-0.2005-0.4734-0.2422-0.68164-0.1-0.25-0.1496-0.47539-0.1992-0.71289v-0.48633l-1-3h-1.0254c-0.3002-0.125-0.6246-0.25-0.9746-0.5-0.7-0.5-1.2992-1.5-1.6992-2-0.3-0.5-0.3008-0.50078-0.8008-0.80078-0.5-0.4-1.4992-0.99844-2.1992-1.3984-0.6-0.3-1.0016-0.3-1.6016-0.5-0.7-0.1-1.6992-0.50078-2.1992-0.80078s-0.4992-0.70078-0.6992-0.80078c-0.1-0.2-0.5016-0.2-1.1016-0.5-0.7-0.4-1.6992-1-2.1992-1.5s-0.5-0.9 0-1.5c0.5-0.7 1.5-1.6992 2-2.1992s0.5008-0.5 0.8008-1c0.4-0.5 1-1.5 1.5-2s0.8992-0.49922 1.1992-0.69922c0.3-0.1 0.7008-0.50156 0.8008-1.1016 0.2-0.7 0.1992-1.6992 0.1992-2.1992s0-0.50078-0.5-0.80078c-0.5-0.4-1.4992-0.99844-2.1992-1.3984-0.6-0.3-1.0008-0.3-1.3008 0-0.3 0.4-0.6992 0.99922-1.6992 1.1992s-2.6-0.2-3.5-0.5c-0.6459-0.24219-0.6223-0.48421-0.6465-0.64648l-0.1543 0.18554v-0.53906l-7 3-1-1h-1l-2-2-5 1-7-2-2-2 3-7-1-1-6 2v3l-4 3-3-1h-3l-1-5-5-2-1-2-5-2-1 1-1 3-3 1-3-3-1-2z" />
</svg>