<?xml version="1.0" encoding="UTF-8"?>
<svg width="1800" height="900" version="1.1" xmlns="http://www.w3.org/2000/svg">
  <MetaInfo xmlns="http://www.prognoz.ru">
    <Geo>
      <GeoItem X="0" Y="0" Latitude="90" Longitude="-180"/>
      <GeoItem X="1800" Y="900" Latitude="-90" Longitude="180"/>
    </Geo>
  </MetaInfo>
  <path d="m1402 720 5-6 3 2v2l5 1 2 2-2 3 1 2 7-1 3 2 4-1v1l2 1 3-1v-1l3-2v4h1v7h-3l-3-1v-2h-8l-1 1 2 4h5l3 2v1l-1 2h-1l-2-1-3 1 2 4h1l2 2 2 1 3-1h5l3 2-1 3h-2l-1 2h-1l-2 2h-2l-2 1v2l1 1 1 3-1 2v3l-2 3-2 2v3h-1l-1 3-3-1-1-3 1-3v-1l-2-1-3 3h-1v1l-4 1-3 1-1-2h-11l-2-1 1-5h1l3-6-1-3h-1l-2-2v-2l1-1 3-1 1-2-2-3-3-1-1-3 1-3-2-2h-2l-1-2h-3v-1l-4-2 2-2-2-3-1-2 6-4 2-4 5 1v1l5 5 1-1 4 1 1-3-2-3-3 1z" />
</svg>